<svg width="212" height="190" viewBox="0 0 212 190" fill="none" xmlns="http://www.w3.org/2000/svg">
<g clip-path="url(#clip0)">
<path d="M210.122 156.386C208.194 168.26 199.505 177.453 190.255 185.487C188.964 186.609 187.669 187.709 186.372 188.788C186.363 188.793 186.354 188.803 186.345 188.808C186.282 188.86 186.22 188.912 186.162 188.963C185.894 189.185 185.626 189.408 185.36 189.627L185.527 189.679L186.046 189.839C185.868 189.79 185.692 189.743 185.514 189.694C185.461 189.679 185.406 189.667 185.353 189.652C179.22 187.994 172.962 186.175 167.949 182.291C162.747 178.258 159.165 171.381 160.959 165.046C161.195 164.216 161.523 163.415 161.937 162.657C162.106 162.34 162.292 162.034 162.488 161.732C163.674 159.868 165.334 158.355 167.297 157.346C169.261 156.338 171.458 155.871 173.662 155.994C175.866 156.116 177.997 156.824 179.837 158.044C181.677 159.265 183.159 160.953 184.13 162.936C184.043 155.956 177.67 150.865 171.694 147.262C165.715 143.662 158.945 139.772 157.065 133.045C156.017 129.303 156.899 125.448 158.957 122.191C159.021 122.092 159.084 121.993 159.151 121.896C161.675 118.088 165.542 115.372 169.979 114.292C178.259 112.413 186.936 115.875 193.727 120.976C204.657 129.183 212.314 142.887 210.122 156.386Z" fill="#F2F2F2"/>
<path d="M192.561 143.27C194.47 145.582 196.033 148.16 197.199 150.923C198.202 153.397 198.83 156.008 199.061 158.668C199.564 164.132 198.528 169.655 196.462 174.712C194.855 178.551 192.77 182.172 190.255 185.487C188.964 186.609 187.669 187.71 186.371 188.788C186.362 188.793 186.354 188.803 186.344 188.809C186.282 188.86 186.219 188.912 186.162 188.963C185.894 189.186 185.626 189.408 185.36 189.628L185.527 189.68L186.046 189.839C185.868 189.79 185.692 189.744 185.514 189.695C185.461 189.68 185.405 189.667 185.352 189.652C185.36 185.288 184.323 180.985 182.327 177.105C180.331 173.225 177.435 169.88 173.881 167.35C170.324 164.866 166.232 163.258 161.936 162.658C162.105 162.341 162.292 162.034 162.488 161.732C164.15 161.99 165.786 162.394 167.377 162.941C173.062 164.877 177.973 168.594 181.382 173.541C184.449 178.037 186.169 183.314 186.343 188.754C186.557 188.508 186.771 188.256 186.978 188.007C190.925 183.326 194.302 178.092 196.314 172.278C198.074 167.347 198.595 162.059 197.831 156.88C196.933 151.24 194.047 146.263 190.232 142.087C186.146 137.618 181.24 133.819 176.106 130.634C170.846 127.365 165.206 124.753 159.313 122.855C159.18 122.811 159.068 122.718 159.002 122.594C158.936 122.471 158.919 122.327 158.956 122.192C158.98 122.072 159.05 121.965 159.151 121.897C159.203 121.866 159.262 121.848 159.323 121.843C159.383 121.838 159.444 121.847 159.501 121.87C160.229 122.104 160.952 122.344 161.672 122.598C167.666 124.717 173.374 127.572 178.665 131.099C183.774 134.496 188.679 138.489 192.561 143.27Z" fill="white"/>
<path d="M88.3133 116.157C87.7239 116.156 87.1568 115.931 86.7269 115.527C86.297 115.124 86.0363 114.572 85.9978 113.983L85.6529 108.714C85.6126 108.098 85.8183 107.492 86.2248 107.028C86.6312 106.565 87.205 106.282 87.8201 106.241L129.076 103.538C129.726 103.495 130.379 103.58 130.996 103.79C131.614 103.999 132.184 104.329 132.674 104.759C133.164 105.189 133.565 105.711 133.853 106.296C134.142 106.881 134.312 107.517 134.355 108.168C134.397 108.819 134.311 109.472 134.102 110.09C133.892 110.708 133.563 111.278 133.133 111.768C132.703 112.258 132.18 112.659 131.596 112.947C131.011 113.236 130.375 113.406 129.724 113.448L88.4687 116.152C88.4168 116.155 88.365 116.157 88.3133 116.157Z" fill="#3B0787"/>
<path d="M96.4483 116.836C95.8473 116.835 95.2701 116.601 94.8374 116.184C94.4046 115.767 94.1501 115.198 94.1269 114.597L93.8329 106.727C93.8215 106.422 93.8703 106.117 93.9765 105.831C94.0827 105.545 94.2442 105.282 94.4518 105.058C94.6594 104.834 94.909 104.654 95.1864 104.526C95.4639 104.399 95.7636 104.328 96.0686 104.316L129.994 103.048C130.61 103.025 131.21 103.247 131.662 103.667C132.114 104.086 132.381 104.668 132.404 105.285L132.698 113.155C132.709 113.46 132.66 113.765 132.554 114.051C132.448 114.337 132.286 114.6 132.079 114.824C131.871 115.047 131.621 115.228 131.344 115.355C131.067 115.483 130.767 115.554 130.462 115.566L96.5362 116.834C96.5068 116.836 96.4774 116.836 96.4483 116.836Z" fill="#2F2E41"/>
<path d="M136.204 189.385H130.927C130.311 189.384 129.72 189.139 129.284 188.703C128.849 188.267 128.603 187.676 128.603 187.06V143.049C128.603 142.432 128.849 141.841 129.284 141.405C129.72 140.969 130.311 140.724 130.927 140.723H136.204C136.82 140.724 137.411 140.969 137.847 141.405C138.282 141.841 138.527 142.432 138.528 143.049V187.06C138.527 187.676 138.282 188.267 137.847 188.703C137.411 189.139 136.82 189.384 136.204 189.385Z" fill="#2F2E41"/>
<path d="M112.781 166.121L108.268 163.384C107.741 163.064 107.363 162.548 107.216 161.949C107.07 161.35 107.166 160.718 107.485 160.19L130.283 122.553C130.603 122.026 131.119 121.648 131.718 121.501C132.316 121.354 132.948 121.451 133.475 121.77L137.988 124.507C138.515 124.827 138.893 125.343 139.04 125.942C139.187 126.541 139.09 127.174 138.771 127.701L115.973 165.338C115.653 165.865 115.137 166.243 114.539 166.39C113.94 166.537 113.308 166.44 112.781 166.121Z" fill="#2F2E41"/>
<path d="M128.189 94.793C138.26 94.793 146.424 86.6238 146.424 76.5466C146.424 66.4695 138.26 58.3003 128.189 58.3003C118.118 58.3003 109.954 66.4695 109.954 76.5466C109.954 86.6238 118.118 94.793 128.189 94.793Z" fill="#3B0787"/>
<path d="M118.319 82.7769C117.732 82.5841 117.194 82.2678 116.74 81.8493C116.439 81.5505 116.207 81.1895 116.06 80.7916C115.913 80.3937 115.855 79.9684 115.89 79.5456C115.909 79.2444 115.997 78.9517 116.148 78.6903C116.299 78.429 116.508 78.2061 116.759 78.039C117.411 77.6205 118.284 77.6192 119.172 78.0108L119.138 70.8877L119.853 70.8843L119.893 79.2583L119.342 78.9114C118.703 78.51 117.79 78.2274 117.146 78.6413C116.986 78.7507 116.854 78.8954 116.76 79.0641C116.666 79.2328 116.611 79.421 116.602 79.6141C116.577 79.929 116.621 80.2454 116.73 80.5418C116.84 80.8382 117.011 81.1076 117.234 81.3317C118.023 82.0864 119.175 82.3225 120.489 82.5334L120.376 83.2398C119.678 83.1473 118.989 82.9924 118.319 82.7769Z" fill="#2F2E41"/>
<path d="M111.766 70.5275L111.673 71.2368L115.491 71.7414L115.584 71.0321L111.766 70.5275Z" fill="#2F2E41"/>
<path d="M123.818 72.1198L123.725 72.8291L127.543 73.3337L127.636 72.6244L123.818 72.1198Z" fill="#2F2E41"/>
<path d="M143.415 154.857H112.667C111.861 154.856 111.088 154.535 110.519 153.965C109.949 153.395 109.628 152.622 109.627 151.816L116.065 102.42C116.07 101.618 116.392 100.85 116.961 100.284C117.53 99.7189 118.3 99.4018 119.102 99.4023H130.014C134.373 99.4073 138.552 101.142 141.634 104.226C144.716 107.31 146.449 111.491 146.454 115.853V151.816C146.453 152.622 146.133 153.395 145.563 153.965C144.993 154.535 144.221 154.856 143.415 154.857Z" fill="#2F2E41"/>
<path d="M135.672 152.224C135.485 152.632 135.184 152.977 134.806 153.218C134.427 153.459 133.987 153.586 133.538 153.582L128.261 153.536C127.956 153.534 127.654 153.471 127.373 153.352C127.093 153.232 126.838 153.059 126.624 152.841C126.41 152.623 126.241 152.365 126.127 152.082C126.012 151.799 125.955 151.496 125.958 151.191L126.316 109.822C126.322 109.169 126.456 108.525 126.71 107.925C126.965 107.324 127.335 106.78 127.8 106.323C128.265 105.866 128.815 105.505 129.419 105.261C130.023 105.016 130.67 104.893 131.321 104.899C131.973 104.905 132.617 105.039 133.217 105.294C133.817 105.548 134.361 105.919 134.818 106.384C135.274 106.849 135.635 107.4 135.879 108.004C136.124 108.609 136.246 109.256 136.241 109.908L135.882 151.277C135.88 151.604 135.808 151.926 135.672 152.224Z" fill="#3B0787"/>
<path d="M138.003 141.18C137.816 141.588 137.515 141.934 137.137 142.175C136.758 142.416 136.318 142.542 135.87 142.539L126.856 142.46C126.24 142.454 125.652 142.204 125.22 141.764C124.788 141.324 124.548 140.731 124.553 140.115L124.847 106.145C124.85 105.839 124.912 105.537 125.032 105.256C125.151 104.975 125.324 104.72 125.542 104.506C125.759 104.292 126.017 104.123 126.3 104.009C126.583 103.894 126.886 103.837 127.191 103.839L136.204 103.918C136.509 103.92 136.811 103.983 137.092 104.102C137.373 104.222 137.628 104.395 137.842 104.613C138.056 104.831 138.225 105.089 138.339 105.372C138.453 105.655 138.511 105.958 138.508 106.263L138.214 140.233C138.211 140.56 138.139 140.883 138.003 141.18Z" fill="#2F2E41"/>
<path d="M128.53 65.7248C126.092 63.7063 122.834 65.6154 120.077 65.3444C117.44 65.0852 115.317 62.7628 114.739 60.2636C114.064 57.3479 115.527 54.3861 117.73 52.5184C120.144 50.4727 123.384 49.837 126.472 50.1483C130.011 50.505 133.272 52.0906 136.207 54.0277C139.039 55.8379 141.653 57.9699 143.995 60.3812C146.094 62.6142 147.888 65.2893 148.502 68.336C149.06 71.1049 148.733 74.1912 147.136 76.5762C146.288 77.7991 145.14 78.7829 143.802 79.4326C142.408 80.1509 140.916 80.6739 139.567 81.4818C137.527 82.7033 135.57 85.193 136.264 87.7319C136.413 88.2866 136.696 88.7961 137.088 89.2156C137.56 89.7193 138.379 89.0262 137.907 88.5212C137.077 87.6341 137.086 86.4298 137.499 85.3441C137.99 84.1201 138.883 83.0995 140.03 82.4496C141.442 81.6059 143.009 81.0719 144.458 80.3002C145.845 79.5941 147.041 78.563 147.945 77.2947C149.65 74.8265 150.113 71.6477 149.66 68.7237C149.17 65.5596 147.487 62.7079 145.399 60.331C143.127 57.7443 140.355 55.5709 137.529 53.6248C134.496 51.5365 131.156 49.7858 127.485 49.1994C124.304 48.6911 120.873 49.1065 118.133 50.8883C115.576 52.5515 113.644 55.3657 113.505 58.4718C113.461 59.8847 113.794 61.2839 114.47 62.5252C115.146 63.7666 116.14 64.8054 117.35 65.5347C118.591 66.2462 120.024 66.5498 121.447 66.4027C122.968 66.2761 124.484 65.7804 126.02 65.8808C126.715 65.9098 127.381 66.1645 127.918 66.6064C128.45 67.0474 129.058 66.1622 128.53 65.7248V65.7248Z" fill="#2F2E41"/>
<path d="M107.088 160.826C107.095 160.786 107.103 160.746 107.111 160.705C107.175 160.407 107.297 160.123 107.471 159.872C107.645 159.621 107.866 159.407 108.123 159.242L112.558 156.379C113.076 156.046 113.705 155.932 114.308 156.062C114.91 156.192 115.436 156.555 115.771 157.073L129.451 178.296C129.785 178.814 129.899 179.444 129.769 180.047C129.639 180.65 129.275 181.177 128.757 181.511L124.323 184.373C123.805 184.707 123.175 184.821 122.573 184.691C121.971 184.561 121.445 184.197 121.11 183.679L107.43 162.456C107.117 161.975 106.996 161.393 107.088 160.826Z" fill="#2F2E41"/>
<path d="M90.4801 20.9562C90.1394 20.1466 89.569 19.4548 88.8394 18.9664C88.1098 18.4779 87.2531 18.2143 86.3753 18.208H4.44147C3.26371 18.2086 2.13437 18.6771 1.30157 19.5104C0.468774 20.3437 0.000632841 21.4738 0 22.6523V126.373C0.000632841 127.551 0.468774 128.682 1.30157 129.515C2.13437 130.348 3.26371 130.817 4.44147 130.817H86.3783C87.5557 130.816 88.6845 130.347 89.5171 129.514C90.3497 128.681 90.8182 127.551 90.8197 126.373V22.6523C90.8217 22.0701 90.7072 21.4934 90.4831 20.9562H90.4801ZM89.8304 126.373C89.8294 127.29 89.465 128.168 88.8173 128.817C88.1695 129.465 87.2914 129.829 86.3753 129.83H4.44147C3.52526 129.83 2.6466 129.466 1.99869 128.818C1.35077 128.17 0.986631 127.29 0.98632 126.374V22.6529C0.987568 21.7364 1.35199 20.8577 1.99969 20.2096C2.64738 19.5615 3.52549 19.1968 4.44147 19.1956H86.3783C87.0683 19.1982 87.7419 19.4065 88.3131 19.7938C88.8843 20.1812 89.3272 20.7301 89.5853 21.3704C89.6356 21.498 89.6789 21.6282 89.7152 21.7605C89.7936 22.0515 89.8334 22.3515 89.8334 22.6529L89.8304 126.373Z" fill="#3F3D56"/>
<path d="M73.3816 42.6961H48.702C48.1783 42.6961 47.6761 42.4879 47.3058 42.1174C46.9356 41.7469 46.7275 41.2443 46.7275 40.7203C46.7275 40.1964 46.9356 39.6938 47.3058 39.3233C47.6761 38.9528 48.1783 38.7446 48.702 38.7446H73.3816C73.9053 38.7446 74.4075 38.9528 74.7778 39.3233C75.1481 39.6938 75.3561 40.1964 75.3561 40.7203C75.3561 41.2443 75.1481 41.7469 74.7778 42.1174C74.4075 42.4879 73.9053 42.6961 73.3816 42.6961Z" fill="#3F3D56"/>
<path d="M73.3816 53.0681H48.7019C48.4424 53.0685 48.1854 53.0176 47.9455 52.9185C47.7057 52.8194 47.4877 52.6739 47.3041 52.4904C47.1205 52.3069 46.9748 52.089 46.8754 51.8491C46.776 51.6092 46.7249 51.3521 46.7249 51.0924C46.7249 50.8327 46.776 50.5756 46.8754 50.3357C46.9748 50.0959 47.1205 49.8779 47.3041 49.6944C47.4877 49.5109 47.7057 49.3655 47.9455 49.2663C48.1854 49.1672 48.4424 49.1164 48.7019 49.1167H73.3816C73.6411 49.1164 73.8981 49.1672 74.138 49.2663C74.3778 49.3655 74.5958 49.5109 74.7794 49.6944C74.9631 49.8779 75.1087 50.0959 75.2081 50.3357C75.3075 50.5756 75.3587 50.8327 75.3587 51.0924C75.3587 51.3521 75.3075 51.6092 75.2081 51.8491C75.1087 52.089 74.9631 52.3069 74.7794 52.4904C74.5958 52.6739 74.3778 52.8194 74.138 52.9185C73.8981 53.0176 73.6411 53.0685 73.3816 53.0681Z" fill="#3F3D56"/>
<path d="M36.0391 58.9742H18.0033C17.4144 58.9736 16.8497 58.7393 16.4333 58.3225C16.0168 57.9058 15.7826 57.3408 15.782 56.7515V35.4542C15.7826 34.8649 16.0168 34.2999 16.4333 33.8832C16.8497 33.4665 17.4144 33.2321 18.0033 33.2314H36.0391C36.628 33.2321 37.1926 33.4665 37.6091 33.8832C38.0255 34.2999 38.2598 34.8649 38.2604 35.4542V56.7515C38.2598 57.3408 38.0255 57.9058 37.6091 58.3225C37.1926 58.7393 36.628 58.9736 36.0391 58.9742Z" fill="#3B0787"/>
<path d="M73.2103 74.3064H17.4344C16.9108 74.3064 16.4085 74.0983 16.0383 73.7277C15.668 73.3572 15.46 72.8547 15.46 72.3307C15.46 71.8067 15.668 71.3042 16.0383 70.9337C16.4085 70.5631 16.9108 70.355 17.4344 70.355H73.2103C73.7339 70.355 74.2361 70.5631 74.6064 70.9337C74.9767 71.3042 75.1847 71.8067 75.1847 72.3307C75.1847 72.8547 74.9767 73.3572 74.6064 73.7277C74.2361 74.0983 73.7339 74.3064 73.2103 74.3064Z" fill="#CCCCCC"/>
<path d="M73.2103 84.6785H17.4344C16.9108 84.6785 16.4085 84.4703 16.0383 84.0998C15.668 83.7293 15.46 83.2268 15.46 82.7028C15.46 82.1788 15.668 81.6762 16.0383 81.3057C16.4085 80.9352 16.9108 80.7271 17.4344 80.7271H73.2103C73.7339 80.7271 74.2361 80.9352 74.6064 81.3057C74.9767 81.6762 75.1847 82.1788 75.1847 82.7028C75.1847 83.2268 74.9767 83.7293 74.6064 84.0998C74.2361 84.4703 73.7339 84.6785 73.2103 84.6785Z" fill="#CCCCCC"/>
<path d="M73.2103 95.0506H17.4344C16.9112 95.0499 16.4097 94.8414 16.04 94.4709C15.6703 94.1005 15.4626 93.5984 15.4626 93.0748C15.4626 92.5513 15.6703 92.0492 16.04 91.6787C16.4097 91.3083 16.9112 91.0998 17.4344 91.0991H73.2103C73.4698 91.0988 73.7268 91.1496 73.9667 91.2488C74.2066 91.3479 74.4245 91.4934 74.6082 91.6769C74.7918 91.8604 74.9374 92.0783 75.0368 92.3182C75.1362 92.558 75.1874 92.8152 75.1874 93.0748C75.1874 93.3345 75.1362 93.5916 75.0368 93.8315C74.9374 94.0714 74.7918 94.2893 74.6082 94.4728C74.4245 94.6563 74.2066 94.8018 73.9667 94.9009C73.7268 95.0001 73.4698 95.0509 73.2103 95.0506Z" fill="#CCCCCC"/>
<path d="M73.2103 105.423H17.4344C16.9108 105.423 16.4085 105.214 16.0383 104.844C15.668 104.473 15.46 103.971 15.46 103.447C15.46 102.923 15.668 102.42 16.0383 102.05C16.4085 101.679 16.9108 101.471 17.4344 101.471H73.2103C73.7339 101.471 74.2361 101.679 74.6064 102.05C74.9767 102.42 75.1847 102.923 75.1847 103.447C75.1847 103.971 74.9767 104.473 74.6064 104.844C74.2361 105.214 73.7339 105.423 73.2103 105.423Z" fill="#CCCCCC"/>
<path d="M73.2103 115.795H17.4344C16.9108 115.795 16.4085 115.587 16.0383 115.216C15.668 114.846 15.46 114.343 15.46 113.819C15.46 113.295 15.668 112.792 16.0383 112.422C16.4085 112.051 16.9108 111.843 17.4344 111.843H73.2103C73.7339 111.843 74.2361 112.051 74.6064 112.422C74.9767 112.792 75.1847 113.295 75.1847 113.819C75.1847 114.343 74.9767 114.846 74.6064 115.216C74.2361 115.587 73.7339 115.795 73.2103 115.795Z" fill="#CCCCCC"/>
<path d="M91.0924 38.1337C101.616 38.1337 110.147 29.5972 110.147 19.0669C110.147 8.53653 101.616 0 91.0924 0C80.5689 0 72.0378 8.53653 72.0378 19.0669C72.0378 29.5972 80.5689 38.1337 91.0924 38.1337Z" fill="#3B0787"/>
<path d="M89.2044 26.3402C88.7757 26.3409 88.3584 26.2021 88.0154 25.9448L87.9942 25.9288L83.5161 22.501C83.3087 22.3419 83.1346 22.1435 83.0039 21.9171C82.8731 21.6907 82.7882 21.4407 82.7539 21.1814C82.7197 20.9222 82.7369 20.6587 82.8044 20.4061C82.8719 20.1535 82.9885 19.9167 83.1475 19.7091C83.3065 19.5016 83.5048 19.3274 83.7311 19.1966C83.9574 19.0657 84.2072 18.9808 84.4663 18.9465C84.7253 18.9123 84.9886 18.9294 85.2411 18.997C85.4936 19.0646 85.7302 19.1812 85.9376 19.3403L88.8382 21.5661L95.6923 12.6183C95.8513 12.4109 96.0495 12.2368 96.2757 12.106C96.5018 11.9752 96.7515 11.8902 97.0105 11.856C97.2695 11.8218 97.5327 11.8389 97.785 11.9065C98.0374 11.974 98.274 12.0906 98.4813 12.2497L98.4819 12.2501L98.4393 12.3092L98.483 12.2501C98.9012 12.5718 99.1749 13.0463 99.2439 13.5696C99.3128 14.0929 99.1715 14.6222 98.8509 15.0414L90.789 25.5612C90.6025 25.8036 90.3627 25.9997 90.0882 26.1344C89.8137 26.2691 89.5118 26.3387 89.2061 26.3378L89.2044 26.3402Z" fill="white"/>
<path d="M211.648 190H82.0095C81.9161 190 81.8265 189.963 81.7604 189.897C81.6943 189.831 81.6572 189.741 81.6572 189.647C81.6572 189.554 81.6943 189.464 81.7604 189.398C81.8265 189.332 81.9161 189.295 82.0095 189.295H211.648C211.741 189.295 211.831 189.332 211.897 189.398C211.963 189.464 212 189.554 212 189.647C212 189.741 211.963 189.831 211.897 189.897C211.831 189.963 211.741 190 211.648 190Z" fill="#3F3D56"/>
</g>
<defs>
<clipPath id="clip0">
<rect width="212" height="190" fill="white"/>
</clipPath>
</defs>
</svg>
