<svg width="963" height="524" viewBox="0 0 963 524" fill="none" xmlns="http://www.w3.org/2000/svg">
<g clip-path="url(#clip0)">
<path d="M218.008 455.643C217.823 476.713 216.28 497.749 213.389 518.62C213.288 519.353 213.178 520.086 213.076 520.819L15.8221 519.717C15.2429 518.989 14.6728 518.252 14.1205 517.507C12.2789 515.039 10.5529 512.502 8.96846 509.877C1.35277 497.232 -2.13377 482.428 1.36008 472.213L1.42264 472.055C2.17683 469.818 3.36528 467.752 4.91972 465.976C12.8856 457.006 28.9919 458.502 43.608 465.742C30.4984 451.387 20.0596 433.273 19.2665 417.105C18.4888 401.334 26.7324 390.069 35.6736 380.494C35.967 380.178 36.2603 379.87 36.5536 379.562C36.696 379.404 36.8469 379.255 36.9889 379.097C43.9649 371.8 52.0978 364.608 63.8696 365.478C76.7802 366.434 91.0942 377.251 101.131 389.857C111.167 402.453 117.836 416.763 124.597 430.729C131.366 444.686 138.689 459 149.551 470.929C134.839 452.315 122.978 431.136 118.596 410.537C114.214 389.939 118.07 370.155 131.182 360.454C135.163 357.6 139.769 355.741 144.615 355.032C145.181 354.938 145.755 354.862 146.339 354.795C158.476 353.413 172.968 357.612 185.299 367.65C198.878 378.702 208.292 395.087 212.976 410.64C217.66 426.194 218.159 441.168 218.008 455.643Z" fill="#F2F2F2"/>
<path d="M88.9529 520.125L85.181 520.104C83.9834 519.355 82.7801 518.615 81.5711 517.883C80.8227 517.411 80.0656 516.956 79.3081 516.492C66.7968 508.848 54.2072 501.517 41.5394 494.496C28.8832 487.471 16.1633 480.768 3.37974 474.39C3.04088 474.242 2.76443 473.981 2.59841 473.65C2.4324 473.32 2.38731 472.942 2.47099 472.582C2.48469 472.535 2.50592 472.49 2.53386 472.45C2.71216 472.115 3.11067 471.976 3.69228 472.262C5.26028 473.048 6.83732 473.835 8.4052 474.639C21.2236 481.126 33.9871 487.938 46.6955 495.073C59.3952 502.205 72.0225 509.652 84.5774 517.414C84.8414 517.575 85.1058 517.744 85.3697 517.905C86.567 518.645 87.7557 519.385 88.9529 520.125Z" fill="white"/>
<path d="M137.586 520.397L135.254 520.384C134.728 519.648 134.211 518.911 133.685 518.175C121.325 500.837 108.968 483.499 96.6138 466.162C76.3818 437.777 56.1559 409.393 35.9361 381.008C35.8163 380.856 35.7272 380.681 35.6737 380.494C35.5008 379.866 35.9623 379.497 36.5538 379.563C36.8031 379.598 37.042 379.687 37.2545 379.822C37.467 379.957 37.6483 380.136 37.7861 380.347C49.1292 396.265 60.4694 412.177 71.8068 428.083C91.9334 456.326 112.057 484.565 132.178 512.802C133.458 514.594 134.738 516.395 136.017 518.188C136.543 518.924 137.07 519.661 137.586 520.397Z" fill="white"/>
<path d="M189.548 506.848C189.429 510.78 189.169 514.649 188.829 518.483C188.763 519.216 188.697 519.949 188.631 520.682L186.184 520.669C186.259 519.936 186.334 519.202 186.4 518.469C186.917 512.931 187.284 507.33 187.333 501.577C187.398 485.627 185.845 469.712 182.696 454.076C179.348 437.24 174.542 420.728 168.332 404.726C161.814 387.849 153.955 371.521 144.831 355.9C144.659 355.645 144.583 355.338 144.615 355.032C144.716 354.335 145.645 354.128 146.339 354.795C146.476 354.925 146.594 355.075 146.69 355.238C147.818 357.18 148.927 359.128 150.014 361.081C158.802 376.789 166.323 393.174 172.508 410.078C178.398 426.133 182.879 442.67 185.899 459.502C188.727 475.118 189.95 490.983 189.548 506.848Z" fill="white"/>
<path d="M872.865 405.869C872.865 396.406 837.258 388.734 793.335 388.734C749.412 388.734 713.806 396.406 713.806 405.869C713.806 411.934 728.444 417.259 750.512 420.305V514.187C750.512 516.297 751.349 518.321 752.841 519.813C754.332 521.305 756.355 522.143 758.465 522.143C760.574 522.143 762.597 521.305 764.088 519.813C765.58 518.321 766.417 516.297 766.417 514.187V421.996C774.826 422.647 783.886 423.004 793.335 423.004C802.785 423.004 811.845 422.647 820.253 421.996V514.187C820.253 516.297 821.091 518.321 822.582 519.813C824.074 521.305 826.097 522.143 828.206 522.143C830.315 522.143 832.338 521.305 833.829 519.813C835.321 518.321 836.159 516.297 836.159 514.187V420.305C858.226 417.259 872.865 411.934 872.865 405.869Z" fill="#CCCCCC"/>
<path d="M802.129 249.031C821.05 249.031 836.388 233.688 836.388 214.761C836.388 195.834 821.05 180.491 802.129 180.491C783.208 180.491 767.87 195.834 767.87 214.761C767.87 233.688 783.208 249.031 802.129 249.031Z" fill="#2F2E41"/>
<path d="M716.872 507.974H701.872L694.736 450.097H716.875L716.872 507.974Z" fill="#A0616A"/>
<path d="M691.158 503.686H720.087V521.907H672.943C672.943 519.514 673.414 517.145 674.33 514.934C675.245 512.724 676.587 510.715 678.278 509.023C679.97 507.331 681.978 505.989 684.187 505.073C686.397 504.158 688.766 503.686 691.158 503.686Z" fill="#2F2E41"/>
<path d="M693.458 499.6L679.145 495.107L689.658 437.747L710.781 444.377L693.458 499.6Z" fill="#A0616A"/>
<path d="M670.206 487.807L697.807 496.472L692.354 513.856L647.373 499.736C648.089 497.453 649.248 495.334 650.783 493.499C652.318 491.664 654.199 490.149 656.319 489.041C658.44 487.934 660.757 487.254 663.14 487.043C665.522 486.831 667.923 487.091 670.206 487.807Z" fill="#2F2E41"/>
<path d="M698.337 476.507C697.68 476.507 697.029 476.388 696.414 476.157L685.378 472.018C684.14 471.549 683.11 470.65 682.479 469.486C681.847 468.321 681.654 466.968 681.935 465.673C684.714 453.177 694.183 410.632 699.367 387.813C705.517 360.745 795.222 355.715 799.038 355.515L799.351 355.498L809.442 368.183C813.089 379.907 811.933 389.052 806.007 395.364C788.716 413.78 737.089 402.353 730.933 400.906L703.492 472.961C703.093 474.004 702.386 474.902 701.465 475.535C700.545 476.168 699.454 476.507 698.337 476.507Z" fill="#2F2E41"/>
<path d="M714.243 485.075C713.586 485.075 712.935 484.956 712.32 484.724L701.284 480.585C700.046 480.116 699.016 479.218 698.385 478.053C697.753 476.889 697.56 475.536 697.841 474.241C700.62 461.745 710.089 419.2 715.273 396.38C721.423 369.313 811.128 364.283 814.944 364.082L815.257 364.065L825.349 376.751C828.995 388.475 827.839 397.62 821.913 403.932C804.622 422.347 752.995 410.92 746.839 409.474L719.398 481.528C718.999 482.572 718.292 483.469 717.371 484.102C716.451 484.736 715.36 485.075 714.243 485.075Z" fill="#2F2E41"/>
<path d="M682.316 308.804C682.721 309.346 683.083 309.92 683.398 310.519L743.743 316.879L752.43 304.965L772.117 315.729L755.056 344.64L681.048 325.764C679.18 327.585 676.803 328.794 674.232 329.231C671.661 329.667 669.019 329.311 666.655 328.208C664.292 327.105 662.32 325.309 661.002 323.059C659.684 320.808 659.082 318.209 659.277 315.607C659.471 313.006 660.453 310.526 662.091 308.496C663.729 306.466 665.946 304.984 668.447 304.245C670.948 303.507 673.614 303.547 676.092 304.361C678.569 305.176 680.74 306.725 682.316 308.804L682.316 308.804Z" fill="#A0616A"/>
<path d="M822.548 381.606C821.675 381.603 820.816 381.393 820.04 380.993C807.974 374.855 784.477 364.226 762.688 362.001C761.942 361.928 761.22 361.7 760.568 361.331C759.916 360.962 759.348 360.461 758.901 359.859C758.445 359.252 758.119 358.556 757.943 357.817C757.768 357.078 757.746 356.31 757.881 355.562C759.847 344.675 764.357 316.951 763.776 294.731C763.605 287.9 765.763 281.213 769.895 275.77C774.026 270.328 779.887 266.453 786.512 264.785C790.5 263.732 794.551 262.933 798.64 262.393C803.34 261.797 808.115 262.311 812.581 263.893C817.047 265.476 821.08 268.082 824.358 271.504C827.636 274.926 830.067 279.068 831.456 283.599C832.846 288.13 833.155 292.923 832.36 297.595C828.474 320.622 824.557 352.782 827.962 375.233C828.118 376.239 827.993 377.269 827.6 378.208C827.207 379.148 826.562 379.96 825.737 380.555C824.812 381.234 823.695 381.602 822.548 381.606Z" fill="#6A4796"/>
<path d="M764.893 323.038C764.141 323.037 763.397 322.882 762.707 322.582L746.987 315.775C745.648 315.193 744.595 314.104 744.058 312.746C743.52 311.389 743.543 309.874 744.121 308.533L756.273 280.453C757.006 278.756 758.067 277.219 759.394 275.932C760.721 274.645 762.288 273.632 764.007 272.951C765.725 272.27 767.561 271.934 769.409 271.963C771.257 271.992 773.082 272.385 774.778 273.119C776.474 273.854 778.009 274.915 779.295 276.243C780.581 277.572 781.593 279.14 782.273 280.86C782.953 282.579 783.287 284.416 783.257 286.264C783.227 288.113 782.834 289.938 782.098 291.634L769.947 319.715C769.519 320.701 768.813 321.54 767.916 322.131C767.018 322.721 765.967 323.037 764.893 323.039V323.038Z" fill="#6A4796"/>
<path d="M800.877 252.84C817.473 252.84 830.928 239.382 830.928 222.779C830.928 206.177 817.473 192.718 800.877 192.718C784.28 192.718 770.825 206.177 770.825 222.779C770.825 239.382 784.28 252.84 800.877 252.84Z" fill="#A0616A"/>
<path d="M770.284 208.01C784.519 216.702 800.566 221.991 817.178 223.466L812.235 217.542C815.834 218.873 819.621 219.625 823.455 219.771C827.285 219.711 831.298 218.236 833.472 215.081C834.441 213.512 835.017 211.733 835.15 209.894C835.284 208.054 834.97 206.21 834.237 204.519C832.73 201.144 830.386 198.212 827.426 196C822.18 191.849 815.989 189.06 809.404 187.883C802.819 186.706 796.046 187.176 789.687 189.253C785.325 190.557 781.419 193.064 778.415 196.486C775.567 200.001 770.082 203.134 771.541 207.417L770.284 208.01Z" fill="#2F2E41"/>
<path d="M805.93 183.751C796.451 174.136 784.982 166.716 772.328 162.015C764.205 159.004 755.364 157.145 746.872 158.854C738.38 160.563 730.349 166.44 727.98 174.775C726.043 181.59 728.043 188.928 731.05 195.344C734.056 201.759 738.07 207.708 740.501 214.363C742.982 221.154 743.728 228.456 742.671 235.608C741.615 242.76 738.79 249.535 734.452 255.318C730.115 261.101 724.402 265.708 717.832 268.722C711.263 271.736 704.045 273.061 696.834 272.576C705.178 273.696 712.869 277.618 721.025 279.706C729.18 281.793 738.806 281.652 744.867 275.807C751.279 269.623 751.407 259.569 751.097 250.665C750.637 237.428 750.176 224.191 749.715 210.954C749.48 204.203 749.279 197.237 751.713 190.936C754.146 184.635 759.93 179.118 766.682 179.175C771.8 179.219 776.329 182.32 780.433 185.378C784.537 188.436 788.881 191.699 793.978 192.154C799.076 192.609 804.896 188.836 804.514 183.731" fill="#2F2E41"/>
<path d="M750.353 373.884C748.362 373.882 746.396 373.438 744.597 372.584C742.798 371.73 741.211 370.488 739.949 368.946C738.688 367.405 737.784 365.603 737.303 363.67C736.822 361.737 736.776 359.721 737.167 357.768C737.558 355.815 738.378 353.973 739.566 352.375C740.755 350.777 742.283 349.463 744.041 348.526C745.799 347.59 747.742 347.056 749.731 346.962C751.72 346.867 753.705 347.215 755.543 347.981H755.544C756.097 348.215 756.633 348.486 757.148 348.794L811.89 324.209L813.428 309.358L837.025 308.726L836.868 333.452C836.839 336.316 835.888 339.094 834.155 341.375C832.423 343.655 830.001 345.316 827.25 346.11L763.233 364.339C763.108 364.762 762.962 365.178 762.793 365.586C761.766 368.04 760.038 370.136 757.825 371.612C755.612 373.089 753.013 373.879 750.353 373.884V373.884Z" fill="#A0616A"/>
<path d="M835.026 320.847C834.355 321.186 833.621 321.385 832.87 321.43L815.773 322.481C814.316 322.569 812.884 322.075 811.791 321.108C810.697 320.141 810.032 318.779 809.94 317.322L808.064 286.782C807.947 284.935 808.195 283.084 808.795 281.333C809.394 279.583 810.332 277.967 811.556 276.58C812.78 275.193 814.266 274.061 815.928 273.248C817.59 272.436 819.396 271.959 821.242 271.845C823.088 271.732 824.939 271.983 826.687 272.586C828.436 273.188 830.049 274.13 831.434 275.357C832.819 276.584 833.948 278.071 834.758 279.735C835.567 281.399 836.04 283.206 836.151 285.053L838.028 315.594C838.093 316.666 837.844 317.735 837.31 318.668C836.777 319.601 835.983 320.358 835.026 320.847L835.026 320.847Z" fill="#6A4796"/>
<path d="M797.868 376.972H701.209C700.073 376.972 698.984 376.52 698.181 375.717C697.378 374.914 696.927 373.824 696.927 372.688C696.927 371.552 697.378 370.462 698.181 369.659C698.984 368.855 700.073 368.404 701.209 368.404H797.868C799.004 368.404 800.093 368.855 800.896 369.659C801.699 370.462 802.15 371.552 802.15 372.688C802.15 373.824 801.699 374.914 800.896 375.717C800.093 376.52 799.004 376.972 797.868 376.972Z" fill="#3F3D56"/>
<path d="M658.997 369.016V309.043C658.999 306.934 659.838 304.912 661.329 303.421C662.82 301.929 664.841 301.09 666.95 301.088H775.844C777.953 301.09 779.974 301.929 781.465 303.421C782.956 304.912 783.795 306.934 783.797 309.043V369.016C783.795 371.125 782.956 373.148 781.465 374.639C779.974 376.13 777.953 376.969 775.844 376.972H666.95C664.841 376.969 662.82 376.13 661.329 374.639C659.838 373.148 658.999 371.125 658.997 369.016Z" fill="#3F3D56"/>
<path d="M721.397 346.373C725.452 346.373 728.738 343.085 728.738 339.03C728.738 334.974 725.452 331.686 721.397 331.686C717.343 331.686 714.056 334.974 714.056 339.03C714.056 343.085 717.343 346.373 721.397 346.373Z" fill="white"/>
<path d="M338.65 268.454C337.658 266.953 336.35 265.687 334.817 264.747C333.283 263.806 331.563 263.213 329.775 263.009C327.988 262.806 326.178 262.997 324.473 263.569C322.767 264.141 321.208 265.08 319.905 266.32L281.052 246.259L283.467 268.859L319.992 284.444C322.22 286.496 325.122 287.659 328.15 287.714C331.178 287.768 334.121 286.71 336.42 284.739C338.72 282.768 340.217 280.022 340.628 277.02C341.039 274.019 340.335 270.971 338.65 268.454H338.65Z" fill="#FFB8B8"/>
<path d="M304.121 277.551C303.418 277.873 302.655 278.044 301.882 278.052C301.109 278.061 300.342 277.906 299.632 277.599L262.728 261.584C250.11 256.111 239.908 246.239 234.021 233.804L214.62 192.838C213.188 190.998 212.133 188.893 211.515 186.645C210.897 184.396 210.727 182.048 211.017 179.734C211.307 177.421 212.05 175.187 213.203 173.16C214.356 171.134 215.898 169.355 217.739 167.925C219.58 166.495 221.685 165.442 223.934 164.826C226.182 164.21 228.53 164.044 230.842 164.337C233.155 164.629 235.387 165.375 237.412 166.531C239.436 167.688 241.213 169.232 242.64 171.075L276.743 234.369L308.233 258.165C309.134 258.849 309.804 259.793 310.151 260.871C310.498 261.948 310.506 263.106 310.174 264.188L307.083 274.174C306.751 275.245 306.101 276.189 305.219 276.881C304.881 277.147 304.512 277.371 304.121 277.551Z" fill="#CCCCCC"/>
<path d="M213.766 144.659C230.363 144.659 243.817 131.2 243.817 114.598C243.817 97.9957 230.363 84.5369 213.766 84.5369C197.169 84.5369 183.715 97.9957 183.715 114.598C183.715 131.2 197.169 144.659 213.766 144.659Z" fill="#FFB8B8"/>
<path d="M225.938 508.945H240.937L248.074 451.067H225.935L225.938 508.945Z" fill="#FFB8B8"/>
<path d="M269.868 522.876L222.724 522.879L222.723 504.658L251.652 504.657C256.483 504.657 261.116 506.576 264.532 509.993C267.948 513.41 269.867 518.044 269.868 522.876L269.868 522.876Z" fill="#2F2E41"/>
<path d="M176.997 508.945H191.996L199.133 451.067H176.993L176.997 508.945Z" fill="#FFB8B8"/>
<path d="M220.927 522.876L173.783 522.879L173.782 504.658L202.711 504.657C207.542 504.657 212.175 506.576 215.591 509.993C219.007 513.41 220.926 518.044 220.927 522.876L220.927 522.876Z" fill="#2F2E41"/>
<path d="M171.759 492.378C171.242 491.788 170.858 491.094 170.631 490.343C170.404 489.592 170.34 488.801 170.444 488.023L196.706 290.988L261.956 302.072L268.919 297.893L250.912 484.841C250.762 486.103 250.182 487.275 249.269 488.159C248.356 489.043 247.166 489.584 245.9 489.693L226.143 491.34C225.357 491.405 224.567 491.302 223.825 491.035C223.083 490.769 222.407 490.346 221.843 489.796C221.278 489.246 220.838 488.581 220.553 487.846C220.268 487.111 220.143 486.323 220.189 485.536L225.304 396.504C225.313 396.353 225.265 396.204 225.171 396.085C225.076 395.967 224.941 395.888 224.792 395.864C224.642 395.839 224.489 395.871 224.362 395.953C224.234 396.035 224.142 396.162 224.102 396.308L198.796 490.184C198.48 491.352 197.788 492.384 196.827 493.121C195.866 493.857 194.69 494.257 193.48 494.259H175.902C175.117 494.259 174.342 494.091 173.627 493.767C172.913 493.442 172.276 492.969 171.759 492.378Z" fill="#2F2E41"/>
<path d="M216.947 304.779C216.198 304.101 215.235 303.707 214.226 303.664C213.216 303.622 212.224 303.935 211.421 304.549L198.376 314.699C197.666 315.253 196.831 315.624 195.945 315.78C195.058 315.935 194.147 315.871 193.29 315.592C192.434 315.314 191.66 314.829 191.034 314.181C190.409 313.533 189.953 312.741 189.705 311.876C183.306 289.459 168.809 233.032 172.38 193.318C174.405 170.806 193.837 153.698 215.699 155.133C230.645 156.13 240.478 164.755 244.924 180.768C255.842 220.083 267.839 292.199 270.133 306.258C270.314 307.349 270.162 308.469 269.695 309.471C269.229 310.473 268.47 311.311 267.519 311.874C261.347 315.581 254.295 317.566 247.096 317.624C238.386 317.624 227.941 314.59 216.947 304.779Z" fill="#CCCCCC"/>
<path d="M221.869 318.765C222.015 316.971 221.766 315.168 221.14 313.481C220.514 311.794 219.526 310.265 218.245 309.002C216.964 307.739 215.422 306.772 213.728 306.169C212.033 305.566 210.227 305.342 208.436 305.513L190.24 265.744L178.198 285.018L197.324 319.829C197.811 322.818 199.377 325.526 201.726 327.438C204.075 329.35 207.043 330.334 210.069 330.202C213.094 330.071 215.967 328.835 218.141 326.727C220.316 324.619 221.643 321.786 221.869 318.765H221.869Z" fill="#FFB8B8"/>
<path d="M189.088 304.607C188.336 304.427 187.63 304.091 187.016 303.62C186.403 303.149 185.895 302.554 185.526 301.874L166.367 266.491C159.814 254.394 157.878 240.329 160.917 226.91L170.923 182.698C170.932 180.367 171.401 178.06 172.302 175.909C173.202 173.759 174.518 171.808 176.173 170.166C177.829 168.525 179.791 167.226 181.948 166.344C184.106 165.461 186.416 165.013 188.747 165.025C191.077 165.036 193.383 165.507 195.532 166.41C197.68 167.313 199.63 168.631 201.269 170.289C202.908 171.946 204.205 173.911 205.085 176.07C205.965 178.229 206.41 180.54 206.397 182.871L194.184 253.728L204.283 291.891C204.57 292.986 204.514 294.143 204.122 295.205C203.731 296.267 203.023 297.183 202.094 297.829L193.502 303.779C192.58 304.417 191.486 304.758 190.365 304.758C189.935 304.758 189.506 304.708 189.088 304.607Z" fill="#CCCCCC"/>
<path opacity="0.2" d="M203.959 212.754L192.947 259.263L208.853 298.429L197.841 260.487L203.959 212.754Z" fill="black"/>
<path d="M196.617 139.318C193.944 139.367 191.288 138.887 188.801 137.903C187.707 137.481 186.572 137.135 185.48 136.713C175.836 132.986 169.484 122.712 169.256 112.373C169.029 102.034 174.381 91.9989 182.329 85.3856C190.277 78.7722 200.572 75.3769 210.88 74.5917C221.984 73.7459 234.487 76.5627 240.692 85.813C242.344 88.2753 243.499 91.2627 242.52 94.2356C242.227 95.1328 241.703 95.9372 241.002 96.5684C238.231 99.0344 235.468 97.1802 232.644 97.0163C228.761 96.7911 225.274 99.9349 224.021 103.618C222.767 107.3 223.319 111.355 224.331 115.111C225.102 117.372 225.588 119.719 225.778 122.1C225.859 123.294 225.635 124.489 225.126 125.571C224.616 126.654 223.839 127.589 222.867 128.287C220.441 129.754 217.255 128.905 214.828 127.44C212.4 125.975 210.303 123.939 207.68 122.861C205.058 121.783 201.535 122.022 200.009 124.412C199.524 125.282 199.196 126.23 199.039 127.213C197.671 133.449 197.985 133.082 196.617 139.318L196.617 139.318Z" fill="#2F2E41"/>
<path d="M457.17 241.333C456.671 240.702 456.323 239.966 456.152 239.18C455.981 238.394 455.991 237.58 456.182 236.798C460.746 217.678 460.745 197.751 456.182 178.631C455.991 177.849 455.981 177.035 456.152 176.249C456.323 175.463 456.671 174.727 457.17 174.096C457.658 173.474 458.281 172.971 458.993 172.626C459.704 172.282 460.485 172.104 461.275 172.106H510.06C511.307 172.109 512.512 172.553 513.462 173.362C514.411 174.17 515.043 175.289 515.244 176.519C518.427 197.194 518.427 218.235 515.244 238.91C515.043 240.14 514.411 241.259 513.462 242.068C512.512 242.876 511.307 243.321 510.06 243.323H461.275C460.485 243.325 459.704 243.148 458.993 242.803C458.281 242.458 457.658 241.955 457.17 241.333Z" fill="#E6E6E6"/>
<path d="M381.701 69.2264C381.203 68.5955 380.854 67.8592 380.683 67.0735C380.512 66.2878 380.523 65.4733 380.714 64.6922C385.277 45.5717 385.277 25.6451 380.714 6.52457C380.523 5.74345 380.512 4.92902 380.683 4.1433C380.854 3.35757 381.203 2.62126 381.701 1.99043C382.189 1.3681 382.812 0.865351 383.524 0.520426C384.235 0.175501 385.016 -0.00248247 385.806 2.61548e-05H434.592C435.838 0.00253944 437.043 0.447454 437.993 1.2556C438.942 2.06374 439.574 3.18265 439.776 4.41316C442.958 25.0882 442.958 46.1286 439.776 66.8036C439.574 68.0341 438.942 69.153 437.993 69.9612C437.043 70.7693 435.838 71.2143 434.592 71.2168H385.806C385.016 71.2193 384.235 71.0413 383.524 70.6964C382.812 70.3514 382.189 69.8487 381.701 69.2264Z" fill="#E6E6E6"/>
<path d="M501.744 126.798C498.562 106.123 498.562 85.0821 501.744 64.4071C501.946 63.1765 502.577 62.0575 503.527 61.2493C504.476 60.4412 505.681 59.9963 506.928 59.9939H555.713C556.504 59.9914 557.284 60.1694 557.996 60.5143C558.707 60.8592 559.33 61.362 559.818 61.9843C560.317 62.6152 560.665 63.3515 560.836 64.1372C561.007 64.9229 560.997 65.7373 560.806 66.5185C556.243 85.639 556.242 105.566 560.806 124.686C560.997 125.467 561.007 126.282 560.836 127.067C560.665 127.853 560.317 128.589 559.818 129.22C559.33 129.843 558.707 130.345 557.996 130.69C557.284 131.035 556.504 131.213 555.713 131.211H506.928C505.681 131.208 504.476 130.763 503.527 129.955C502.577 129.147 501.946 128.028 501.744 126.798Z" fill="#6A4796"/>
<path d="M297.509 124.619C294.327 103.944 294.327 82.9036 297.509 62.2286C297.71 60.9981 298.342 59.8792 299.292 59.071C300.241 58.2629 301.446 57.818 302.693 57.8155H351.478C352.269 57.8129 353.049 57.9909 353.761 58.3358C354.472 58.6808 355.095 59.1835 355.583 59.8058C356.082 60.4367 356.43 61.173 356.601 61.9587C356.772 62.7444 356.762 63.5589 356.571 64.34C352.008 83.4605 352.007 103.387 356.571 122.508C356.762 123.289 356.772 124.103 356.601 124.889C356.43 125.675 356.082 126.411 355.583 127.042C355.095 127.664 354.472 128.167 353.761 128.512C353.049 128.857 352.269 129.035 351.478 129.032H302.693C301.446 129.03 300.241 128.585 299.292 127.777C298.342 126.968 297.71 125.85 297.509 124.619Z" fill="#FF6584"/>
<path d="M309.575 268.642C309.068 268 308.714 267.252 308.54 266.453C308.366 265.654 308.377 264.826 308.571 264.032C313.209 244.598 313.209 224.344 308.57 204.909C308.376 204.115 308.366 203.287 308.54 202.488C308.714 201.69 309.068 200.941 309.575 200.3C310.071 199.667 310.704 199.157 311.427 198.806C312.151 198.456 312.944 198.275 313.747 198.277H363.334C364.601 198.28 365.826 198.732 366.791 199.553C367.756 200.375 368.398 201.512 368.603 202.763C371.838 223.778 371.838 245.164 368.603 266.178C368.398 267.429 367.756 268.567 366.791 269.388C365.826 270.21 364.601 270.662 363.334 270.664H313.747C312.944 270.667 312.151 270.486 311.427 270.135C310.704 269.785 310.071 269.274 309.575 268.642Z" fill="#6A4796"/>
<path d="M15.3944 524H961.543C961.93 524 962.3 523.847 962.573 523.573C962.847 523.3 963 522.929 963 522.543C963 522.156 962.847 521.786 962.573 521.512C962.3 521.239 961.93 521.085 961.543 521.085H15.3944C15.2027 521.085 15.0129 521.122 14.8356 521.195C14.6584 521.268 14.4973 521.375 14.3616 521.511C14.2258 521.646 14.1181 521.807 14.0447 521.984C13.9712 522.161 13.9333 522.351 13.9333 522.543C13.9333 522.734 13.9712 522.924 14.0447 523.101C14.1181 523.278 14.2258 523.439 14.3616 523.575C14.4973 523.71 14.6584 523.817 14.8356 523.89C15.0129 523.963 15.2027 524.001 15.3944 524Z" fill="#3F3D56"/>
<path d="M353.765 224.986H327.643C326.67 224.985 325.737 224.598 325.049 223.909C324.361 223.221 323.974 222.287 323.973 221.314V219.755C323.974 218.781 324.361 217.848 325.049 217.16C325.737 216.471 326.67 216.084 327.643 216.083H353.765C354.738 216.084 355.671 216.471 356.359 217.16C357.048 217.848 357.435 218.781 357.436 219.755V221.314C357.435 222.287 357.048 223.221 356.359 223.909C355.671 224.598 354.738 224.985 353.765 224.986Z" fill="white"/>
<path d="M353.765 240.343H327.643C326.67 240.342 325.737 239.954 325.049 239.266C324.361 238.578 323.974 237.644 323.973 236.671V235.112C323.974 234.138 324.361 233.205 325.049 232.517C325.737 231.828 326.67 231.441 327.643 231.44H353.765C354.738 231.441 355.671 231.828 356.359 232.517C357.048 233.205 357.435 234.138 357.436 235.112V236.671C357.435 237.644 357.048 238.578 356.359 239.266C355.671 239.954 354.738 240.342 353.765 240.343Z" fill="white"/>
<path d="M336.465 88.0181H310.864C309.891 88.0171 308.958 87.6299 308.27 86.9415C307.582 86.2531 307.195 85.3198 307.194 84.3463V82.912C307.195 81.9385 307.582 81.0052 308.27 80.3169C308.958 79.6285 309.891 79.2413 310.864 79.2402H336.465C337.438 79.2413 338.371 79.6285 339.059 80.3169C339.748 81.0052 340.135 81.9385 340.136 82.912V84.3463C340.135 85.3198 339.748 86.2531 339.059 86.9415C338.371 87.6299 337.438 88.0171 336.465 88.0181Z" fill="white"/>
<path d="M500.026 195.883H474.426C473.453 195.881 472.52 195.494 471.831 194.806C471.143 194.118 470.756 193.184 470.755 192.211V190.776C470.756 189.802 471.143 188.869 471.831 188.181C472.52 187.492 473.453 187.105 474.426 187.104H500.026C500.999 187.105 501.932 187.492 502.62 188.181C503.309 188.869 503.696 189.802 503.697 190.776V192.211C503.696 193.184 503.309 194.118 502.62 194.806C501.932 195.494 500.999 195.881 500.026 195.883Z" fill="white"/>
<path d="M500.026 214.013H474.426C473.453 214.012 472.52 213.625 471.831 212.937C471.143 212.248 470.756 211.315 470.755 210.342V208.907C470.756 207.933 471.143 207 471.831 206.311C472.52 205.623 473.453 205.236 474.426 205.235H500.026C500.999 205.236 501.932 205.623 502.62 206.311C503.309 207 503.696 207.933 503.697 208.907V210.342C503.696 211.315 503.309 212.248 502.62 212.937C501.932 213.625 500.999 214.012 500.026 214.013Z" fill="white"/>
<path d="M500.026 232.144H474.426C473.453 232.143 472.52 231.756 471.831 231.067C471.143 230.379 470.756 229.446 470.755 228.472V227.037C470.756 226.064 471.143 225.13 471.831 224.442C472.52 223.754 473.453 223.367 474.426 223.365H500.026C500.999 223.367 501.932 223.754 502.62 224.442C503.309 225.13 503.696 226.064 503.697 227.037V228.472C503.696 229.446 503.309 230.379 502.62 231.067C501.932 231.756 500.999 232.143 500.026 232.144Z" fill="white"/>
<path d="M336.465 103.127H310.864C309.891 103.126 308.958 102.739 308.27 102.051C307.582 101.362 307.195 100.429 307.194 99.4553V98.0204C307.195 97.0469 307.582 96.1136 308.27 95.4253C308.958 94.7369 309.891 94.3497 310.864 94.3486H336.465C337.438 94.3497 338.371 94.7369 339.059 95.4253C339.748 96.1136 340.135 97.0469 340.136 98.0204V99.4553C340.135 100.429 339.748 101.362 339.059 102.051C338.371 102.739 337.438 103.126 336.465 103.127Z" fill="white"/>
<path d="M424.776 26.798H399.175C398.202 26.797 397.269 26.4098 396.581 25.7214C395.893 25.033 395.506 24.0997 395.505 23.1262V21.6913C395.506 20.7178 395.893 19.7845 396.581 19.0962C397.269 18.4078 398.202 18.0206 399.175 18.0195H424.776C425.749 18.0206 426.682 18.4078 427.37 19.0962C428.058 19.7845 428.445 20.7178 428.446 21.6913V23.1262C428.445 24.0997 428.058 25.033 427.37 25.7214C426.682 26.4098 425.749 26.797 424.776 26.798Z" fill="white"/>
<path d="M541.591 91.7077H515.99C515.017 91.7066 514.084 91.3194 513.396 90.6311C512.708 89.9427 512.321 89.0094 512.32 88.0359V86.601C512.321 85.6275 512.708 84.6942 513.396 84.0058C514.084 83.3175 515.017 82.9303 515.99 82.9292H541.591C542.564 82.9303 543.497 83.3175 544.185 84.0058C544.874 84.6942 545.261 85.6275 545.262 86.601V88.0359C545.261 89.0094 544.874 89.9427 544.185 90.6311C543.497 91.3194 542.564 91.7066 541.591 91.7077Z" fill="white"/>
</g>
<defs>
<clipPath id="clip0">
<rect width="963" height="524" fill="white"/>
</clipPath>
</defs>
</svg>
