<svg width="879" height="601" viewBox="0 0 879 601" fill="none" xmlns="http://www.w3.org/2000/svg">
<g clip-path="url(#clip0)">
<path d="M863.282 546.532C857.268 567.405 839.708 582.016 821.391 594.428C818.833 596.161 816.275 597.855 813.716 599.508C813.698 599.516 813.681 599.532 813.663 599.54C813.54 599.619 813.417 599.698 813.302 599.778C812.774 600.118 812.245 600.459 811.721 600.796L812.009 600.925C812.009 600.925 812.292 601.076 811.983 600.95C811.891 600.911 811.794 600.876 811.702 600.838C801.061 596.544 790.231 591.934 782.076 583.89C773.617 575.538 768.673 562.437 773.254 551.464C773.856 550.027 774.616 548.661 775.521 547.392C775.893 546.861 776.293 546.351 776.71 545.852C779.236 542.766 782.539 540.41 786.278 539.025C790.016 537.64 794.056 537.276 797.982 537.971C801.908 538.666 805.578 540.395 808.615 542.979C811.652 545.563 813.946 548.91 815.261 552.675C816.607 540.14 806.275 529.64 796.332 521.892C786.385 514.149 775.082 505.715 773.159 493.25C772.085 486.314 774.496 479.593 778.888 474.197C779.024 474.033 779.159 473.869 779.3 473.71C784.645 467.425 792.164 463.39 800.354 462.409C815.607 460.823 830.422 468.9 841.503 479.51C859.337 496.58 870.119 522.8 863.282 546.532Z" fill="#F2F2F2"/>
<path d="M834.613 519.231C837.54 523.788 839.787 528.747 841.284 533.952C842.55 538.605 843.113 543.42 842.955 548.239C842.547 558.156 839.764 567.829 834.842 576.446C831.133 582.983 826.614 589.025 821.391 594.428C818.833 596.161 816.275 597.855 813.716 599.508C813.698 599.516 813.681 599.532 813.663 599.54C813.54 599.619 813.417 599.698 813.302 599.778C812.774 600.118 812.245 600.459 811.721 600.796C811.721 600.796 812.292 601.076 811.983 600.95C811.891 600.911 811.794 600.876 811.702 600.838C812.656 593.015 811.722 585.077 808.978 577.69C806.234 570.303 801.76 563.682 795.931 558.38C790.088 553.16 783.095 549.395 775.521 547.392C775.893 546.86 776.293 546.351 776.71 545.852C779.635 546.672 782.482 547.75 785.217 549.072C794.995 553.77 803.001 561.492 808.051 571.097C812.582 579.818 814.532 589.651 813.672 599.442C814.109 599.046 814.547 598.641 814.972 598.24C823.058 590.697 830.24 582.04 835.101 572.049C839.317 563.588 841.39 554.219 841.136 544.768C840.739 534.463 836.635 524.917 830.692 516.607C824.18 507.742 816.486 499.809 807.825 493.029C799.096 486.035 789.545 480.135 779.384 475.462C779.155 475.355 778.975 475.164 778.883 474.929C778.791 474.693 778.792 474.431 778.888 474.197C778.956 473.986 779.104 473.811 779.3 473.71C779.4 473.666 779.51 473.646 779.62 473.651C779.729 473.655 779.837 473.685 779.933 473.737C781.188 474.314 782.434 474.9 783.67 475.511C793.963 480.601 803.584 486.951 812.313 494.414C820.744 501.606 828.682 509.822 834.613 519.231Z" fill="white"/>
<path d="M732.942 1.35375e-08H10.3798C7.62761 0.00250704 4.98888 1.09743 3.04282 3.04443C1.09676 4.99143 0.00241752 7.63141 0 10.3848V500.235C0.00241437 502.988 1.09676 505.628 3.04282 507.575C4.98888 509.522 7.62761 510.617 10.3798 510.62H732.942C734.443 510.62 735.926 510.294 737.289 509.665C738.651 509.035 739.861 508.118 740.835 506.975C740.917 506.886 740.993 506.79 741.061 506.69C741.681 505.932 742.182 505.084 742.549 504.177C743.071 502.928 743.338 501.588 743.334 500.235V10.3849C743.331 7.62952 742.235 4.98803 740.287 3.0408C738.338 1.09356 735.696 -0.000140499 732.942 1.35375e-08ZM740.371 500.235C740.372 501.684 739.945 503.101 739.144 504.308C738.433 505.37 737.467 506.238 736.335 506.832C735.286 507.375 734.123 507.656 732.942 507.654H10.3798C8.41366 507.652 6.52874 506.869 5.13847 505.478C3.7482 504.088 2.9661 502.202 2.96372 500.235V10.3849C2.9661 8.41787 3.7482 6.53209 5.13847 5.14119C6.52874 3.75029 8.41366 2.96782 10.3798 2.96544H732.942C734.91 2.96518 736.798 3.7464 738.191 5.13752C739.584 6.52864 740.368 8.41594 740.371 10.3849V500.235Z" fill="#3F3D56"/>
<path d="M741.846 41.6218H1.47925V44.5906H741.846V41.6218Z" fill="#3F3D56"/>
<path d="M26.7023 31.1718C31.6188 31.1718 35.6045 27.1844 35.6045 22.2656C35.6045 17.3468 31.6188 13.3594 26.7023 13.3594C21.7857 13.3594 17.8 17.3468 17.8 22.2656C17.8 27.1844 21.7857 31.1718 26.7023 31.1718Z" fill="#3F3D56"/>
<path d="M52.296 31.1718C57.2126 31.1718 61.1982 27.1844 61.1982 22.2656C61.1982 17.3468 57.2126 13.3594 52.296 13.3594C47.3795 13.3594 43.3938 17.3468 43.3938 22.2656C43.3938 27.1844 47.3795 31.1718 52.296 31.1718Z" fill="#3F3D56"/>
<path d="M77.8898 31.1718C82.8063 31.1718 86.792 27.1844 86.792 22.2656C86.792 17.3468 82.8063 13.3594 77.8898 13.3594C72.9732 13.3594 68.9875 17.3468 68.9875 22.2656C68.9875 27.1844 72.9732 31.1718 77.8898 31.1718Z" fill="#3F3D56"/>
<path d="M479.501 208.841C474.751 208.841 470.108 207.432 466.159 204.792C462.21 202.152 459.132 198.399 457.314 194.009C455.496 189.619 455.021 184.788 455.947 180.128C456.874 175.467 459.161 171.186 462.52 167.826C465.878 164.466 470.157 162.178 474.816 161.251C479.474 160.324 484.303 160.799 488.691 162.618C493.079 164.436 496.83 167.516 499.469 171.467C502.107 175.418 503.516 180.063 503.516 184.815C503.509 191.185 500.976 197.292 496.474 201.796C491.972 206.3 485.868 208.834 479.501 208.841ZM479.501 163.066C475.201 163.066 470.998 164.342 467.423 166.731C463.848 169.121 461.062 172.518 459.417 176.492C457.771 180.466 457.341 184.839 458.179 189.058C459.018 193.277 461.089 197.152 464.129 200.194C467.169 203.235 471.043 205.307 475.26 206.146C479.477 206.985 483.848 206.555 487.82 204.908C491.792 203.262 495.188 200.475 497.576 196.898C499.965 193.321 501.24 189.117 501.24 184.815C501.233 179.049 498.941 173.521 494.866 169.443C490.79 165.366 485.264 163.073 479.501 163.066Z" fill="#6A4796"/>
<path d="M477.234 193.546C476.719 193.546 476.218 193.38 475.806 193.071L475.781 193.052L470.404 188.937C469.901 188.552 469.572 187.982 469.489 187.353C469.406 186.725 469.576 186.089 469.962 185.586C470.347 185.083 470.917 184.754 471.545 184.671C472.173 184.587 472.809 184.758 473.312 185.143L476.794 187.815L485.023 177.074C485.214 176.825 485.452 176.616 485.723 176.459C485.995 176.302 486.295 176.2 486.606 176.159C486.917 176.118 487.233 176.139 487.536 176.22C487.839 176.301 488.123 176.441 488.372 176.632L488.372 176.632L488.321 176.703L488.374 176.632C488.876 177.018 489.204 177.588 489.287 178.216C489.37 178.844 489.2 179.48 488.815 179.983L479.136 192.611C478.912 192.902 478.624 193.137 478.295 193.299C477.965 193.46 477.603 193.544 477.236 193.543L477.234 193.546Z" fill="#6A4796"/>
<path d="M548.215 208.841C543.466 208.841 538.823 207.432 534.873 204.792C530.924 202.152 527.846 198.399 526.028 194.009C524.211 189.619 523.735 184.788 524.662 180.128C525.588 175.467 527.876 171.186 531.234 167.826C534.593 164.466 538.872 162.178 543.53 161.251C548.189 160.324 553.017 160.799 557.405 162.618C561.794 164.436 565.544 167.516 568.183 171.467C570.822 175.418 572.23 180.063 572.23 184.815C572.223 191.185 569.691 197.292 565.189 201.796C560.687 206.3 554.582 208.834 548.215 208.841ZM548.215 163.066C543.916 163.066 539.713 164.342 536.138 166.731C532.563 169.121 529.776 172.518 528.131 176.492C526.486 180.466 526.055 184.839 526.894 189.058C527.733 193.277 529.803 197.152 532.843 200.194C535.884 203.235 539.757 205.307 543.974 206.146C548.191 206.985 552.562 206.555 556.535 204.908C560.507 203.262 563.902 200.475 566.291 196.898C568.679 193.321 569.954 189.117 569.954 184.815C569.948 179.049 567.656 173.521 563.58 169.443C559.505 165.366 553.979 163.072 548.215 163.066Z" fill="#E6E6E6"/>
<path d="M556.86 193.128C556.571 193.416 556.18 193.577 555.773 193.577C555.365 193.577 554.974 193.416 554.686 193.128L548.923 187.363C548.795 187.234 548.62 187.162 548.439 187.162C548.257 187.162 548.083 187.234 547.954 187.362L542.192 193.128C541.904 193.416 541.512 193.578 541.105 193.578C540.697 193.578 540.306 193.416 540.018 193.128C539.729 192.839 539.567 192.448 539.567 192.04C539.567 191.632 539.729 191.241 540.018 190.953L545.78 185.187C545.909 185.059 545.981 184.885 545.981 184.703C545.981 184.521 545.909 184.347 545.781 184.218L540.018 178.453C539.729 178.165 539.567 177.773 539.567 177.366C539.567 176.958 539.729 176.567 540.018 176.278C540.306 175.99 540.697 175.828 541.104 175.828C541.512 175.828 541.903 175.99 542.191 176.278L547.954 182.044C548.083 182.172 548.257 182.244 548.438 182.244C548.62 182.244 548.794 182.172 548.923 182.044L554.685 176.278C554.974 175.99 555.365 175.828 555.772 175.828C556.18 175.828 556.571 175.99 556.859 176.278C557.148 176.567 557.31 176.958 557.31 177.366C557.31 177.774 557.148 178.165 556.859 178.453L551.097 184.219C550.968 184.347 550.896 184.522 550.896 184.703C550.896 184.885 550.969 185.059 551.097 185.188L556.859 190.953C557.147 191.242 557.309 191.633 557.309 192.04C557.309 192.448 557.147 192.839 556.86 193.128Z" fill="#E6E6E6"/>
<path d="M479.501 285.119C474.751 285.119 470.108 283.71 466.159 281.07C462.21 278.43 459.132 274.677 457.314 270.287C455.496 265.897 455.021 261.066 455.947 256.406C456.874 251.745 459.161 247.464 462.52 244.104C465.878 240.744 470.157 238.456 474.816 237.529C479.474 236.602 484.303 237.077 488.691 238.896C493.079 240.714 496.83 243.794 499.469 247.745C502.107 251.696 503.516 256.341 503.516 261.093C503.509 267.463 500.976 273.57 496.474 278.074C491.972 282.578 485.868 285.112 479.501 285.119ZM479.501 239.344C475.201 239.344 470.998 240.62 467.423 243.009C463.848 245.399 461.062 248.796 459.417 252.77C457.771 256.744 457.341 261.117 458.179 265.336C459.018 269.555 461.089 273.43 464.129 276.472C467.169 279.513 471.043 281.585 475.26 282.424C479.477 283.263 483.848 282.832 487.82 281.186C491.792 279.54 495.188 276.753 497.576 273.176C499.965 269.599 501.24 265.394 501.24 261.093C501.233 255.327 498.941 249.799 494.866 245.721C490.79 241.644 485.264 239.351 479.501 239.344Z" fill="#6A4796"/>
<path d="M477.234 269.824C476.719 269.825 476.218 269.658 475.806 269.349L475.781 269.33L470.404 265.215C469.901 264.83 469.572 264.26 469.489 263.631C469.406 263.003 469.576 262.367 469.962 261.864C470.347 261.361 470.917 261.032 471.545 260.949C472.173 260.866 472.809 261.036 473.312 261.421L476.794 264.093L485.023 253.352C485.214 253.103 485.452 252.894 485.723 252.737C485.995 252.58 486.295 252.478 486.606 252.437C486.917 252.396 487.233 252.417 487.536 252.498C487.839 252.579 488.123 252.719 488.372 252.91L488.372 252.91L488.321 252.981L488.374 252.91C488.876 253.297 489.204 253.866 489.287 254.494C489.37 255.122 489.2 255.758 488.815 256.261L479.136 268.889C478.912 269.18 478.624 269.415 478.295 269.577C477.965 269.738 477.603 269.822 477.236 269.821L477.234 269.824Z" fill="#6A4796"/>
<path d="M548.215 285.119C543.466 285.119 538.823 283.71 534.873 281.07C530.924 278.43 527.846 274.677 526.028 270.287C524.211 265.897 523.735 261.066 524.662 256.406C525.588 251.745 527.876 247.464 531.234 244.104C534.593 240.744 538.872 238.456 543.53 237.529C548.189 236.602 553.017 237.077 557.405 238.896C561.794 240.714 565.544 243.794 568.183 247.745C570.822 251.696 572.23 256.341 572.23 261.093C572.223 267.463 569.691 273.57 565.189 278.074C560.687 282.578 554.582 285.112 548.215 285.119ZM548.215 239.344C543.916 239.344 539.713 240.62 536.138 243.009C532.563 245.399 529.776 248.796 528.131 252.77C526.486 256.744 526.055 261.117 526.894 265.336C527.733 269.555 529.803 273.43 532.843 276.472C535.884 279.513 539.757 281.585 543.974 282.424C548.191 283.263 552.562 282.832 556.535 281.186C560.507 279.54 563.902 276.753 566.291 273.176C568.679 269.599 569.954 265.394 569.954 261.093C569.948 255.327 567.656 249.799 563.58 245.721C559.505 241.644 553.979 239.35 548.215 239.344Z" fill="#E6E6E6"/>
<path d="M556.86 269.406C556.571 269.694 556.18 269.856 555.773 269.856C555.365 269.856 554.974 269.694 554.686 269.406L548.923 263.641C548.795 263.512 548.621 263.44 548.439 263.44C548.257 263.44 548.083 263.512 547.955 263.64L542.192 269.406C541.904 269.694 541.513 269.856 541.105 269.856C540.697 269.856 540.306 269.694 540.018 269.406C539.73 269.117 539.568 268.726 539.568 268.318C539.568 267.91 539.73 267.519 540.018 267.231L545.78 261.465C545.909 261.337 545.981 261.163 545.981 260.981C545.981 260.799 545.909 260.625 545.781 260.497L540.018 254.731C539.729 254.443 539.568 254.051 539.568 253.644C539.568 253.236 539.729 252.845 540.018 252.556C540.306 252.268 540.697 252.106 541.104 252.106C541.512 252.106 541.903 252.268 542.191 252.556L547.954 258.322C548.083 258.45 548.257 258.522 548.439 258.522C548.62 258.522 548.794 258.45 548.923 258.322L554.685 252.557C554.974 252.268 555.365 252.106 555.772 252.106C556.18 252.106 556.571 252.268 556.859 252.557C557.148 252.845 557.31 253.236 557.31 253.644C557.31 254.052 557.148 254.443 556.859 254.732L551.097 260.497C550.969 260.625 550.897 260.8 550.897 260.981C550.897 261.163 550.969 261.337 551.097 261.466L556.86 267.231C557.147 267.52 557.309 267.911 557.309 268.319C557.309 268.726 557.147 269.117 556.86 269.406Z" fill="#E6E6E6"/>
<path d="M479.501 361.397C474.751 361.397 470.108 359.988 466.159 357.348C462.21 354.708 459.132 350.956 457.314 346.565C455.496 342.175 455.021 337.344 455.947 332.684C456.874 328.023 459.161 323.742 462.52 320.382C465.878 317.022 470.157 314.734 474.816 313.807C479.474 312.88 484.303 313.356 488.691 315.174C493.079 316.993 496.83 320.072 499.469 324.023C502.107 327.974 503.516 332.619 503.516 337.371C503.509 343.741 500.976 349.848 496.474 354.352C491.972 358.856 485.868 361.39 479.501 361.397ZM479.501 315.622C475.201 315.622 470.998 316.898 467.423 319.288C463.848 321.677 461.062 325.074 459.417 329.048C457.771 333.022 457.341 337.395 458.179 341.614C459.018 345.833 461.089 349.708 464.129 352.75C467.169 355.792 471.043 357.863 475.26 358.702C479.477 359.541 483.848 359.111 487.82 357.465C491.792 355.818 495.188 353.031 497.576 349.454C499.965 345.878 501.24 341.673 501.24 337.371C501.233 331.605 498.941 326.077 494.866 322C490.79 317.922 485.264 315.629 479.501 315.622Z" fill="#E6E6E6"/>
<path d="M477.234 346.102C476.719 346.103 476.218 345.936 475.806 345.627L475.781 345.608L470.404 341.493C469.901 341.108 469.572 340.538 469.489 339.909C469.406 339.281 469.576 338.645 469.962 338.142C470.347 337.639 470.917 337.31 471.545 337.227C472.173 337.144 472.809 337.314 473.312 337.699L476.794 340.371L485.023 329.63C485.214 329.381 485.452 329.172 485.723 329.015C485.995 328.858 486.295 328.756 486.606 328.715C486.917 328.674 487.233 328.695 487.536 328.776C487.839 328.857 488.123 328.997 488.372 329.188L488.372 329.188L488.321 329.259L488.374 329.188C488.876 329.575 489.204 330.144 489.287 330.772C489.37 331.401 489.2 332.036 488.815 332.539L479.136 345.167C478.912 345.458 478.624 345.693 478.295 345.855C477.965 346.016 477.603 346.1 477.236 346.099L477.234 346.102Z" fill="#E6E6E6"/>
<path d="M548.215 361.397C543.466 361.397 538.823 359.988 534.873 357.348C530.924 354.708 527.846 350.956 526.028 346.565C524.211 342.175 523.735 337.344 524.662 332.684C525.588 328.023 527.876 323.742 531.234 320.382C534.593 317.022 538.872 314.734 543.53 313.807C548.189 312.88 553.017 313.356 557.405 315.174C561.794 316.993 565.544 320.072 568.183 324.023C570.822 327.974 572.23 332.619 572.23 337.371C572.223 343.741 569.691 349.848 565.189 354.352C560.687 358.856 554.582 361.39 548.215 361.397ZM548.215 315.622C543.916 315.622 539.713 316.898 536.138 319.288C532.563 321.677 529.776 325.074 528.131 329.048C526.486 333.022 526.055 337.395 526.894 341.614C527.733 345.833 529.803 349.708 532.843 352.75C535.884 355.792 539.757 357.863 543.974 358.702C548.191 359.541 552.562 359.111 556.535 357.465C560.507 355.818 563.902 353.031 566.291 349.454C568.679 345.878 569.954 341.673 569.954 337.371C569.948 331.605 567.656 326.077 563.58 321.999C559.505 317.922 553.979 315.629 548.215 315.622Z" fill="#E6E6E6"/>
<path d="M556.86 345.684C556.571 345.972 556.18 346.134 555.773 346.134C555.365 346.134 554.974 345.972 554.686 345.684L548.923 339.919C548.795 339.79 548.621 339.718 548.439 339.718C548.257 339.718 548.083 339.79 547.955 339.919L542.192 345.684C541.904 345.972 541.513 346.134 541.105 346.134C540.697 346.134 540.306 345.972 540.018 345.684C539.73 345.395 539.568 345.004 539.568 344.596C539.568 344.188 539.73 343.797 540.018 343.509L545.78 337.744C545.909 337.615 545.981 337.441 545.981 337.259C545.981 337.077 545.909 336.903 545.781 336.775L540.018 331.009C539.729 330.721 539.568 330.33 539.568 329.922C539.568 329.514 539.729 329.123 540.018 328.834C540.306 328.546 540.697 328.384 541.104 328.384C541.512 328.384 541.903 328.546 542.191 328.834L547.954 334.6C548.083 334.728 548.257 334.8 548.439 334.8C548.62 334.8 548.794 334.728 548.923 334.6L554.685 328.835C554.974 328.547 555.365 328.386 555.772 328.386C556.179 328.387 556.569 328.549 556.857 328.837C557.145 329.125 557.307 329.515 557.307 329.923C557.308 330.33 557.147 330.721 556.859 331.01L551.097 336.775C550.969 336.904 550.897 337.078 550.897 337.26C550.897 337.441 550.969 337.615 551.097 337.744L556.86 343.509C557.147 343.798 557.309 344.189 557.309 344.597C557.309 345.004 557.147 345.395 556.86 345.684Z" fill="#E6E6E6"/>
<path d="M877.81 600.649H424.274C423.958 600.649 423.655 600.523 423.432 600.3C423.209 600.077 423.083 599.774 423.083 599.458C423.083 599.142 423.209 598.839 423.432 598.616C423.655 598.393 423.958 598.267 424.274 598.267H877.81C878.125 598.267 878.428 598.393 878.651 598.616C878.875 598.839 879 599.142 879 599.458C879 599.774 878.875 600.077 878.651 600.3C878.428 600.523 878.125 600.649 877.81 600.649Z" fill="#3F3D56"/>
<path d="M488.841 275.629C490.339 276.535 492.017 277.101 493.757 277.288C495.497 277.475 497.257 277.278 498.912 276.711C500.568 276.144 502.079 275.22 503.339 274.006C504.6 272.791 505.578 271.315 506.207 269.681L548.721 271.097L537.173 252.24L498.571 253.786C495.757 252.912 492.72 253.101 490.036 254.317C487.353 255.533 485.208 257.692 484.008 260.384C482.809 263.077 482.639 266.116 483.529 268.925C484.42 271.735 486.31 274.12 488.841 275.629V275.629Z" fill="#FFB8B8"/>
<path d="M728.553 367.758C729.707 366.442 730.558 364.889 731.047 363.207C731.536 361.526 731.65 359.759 731.382 358.028C731.114 356.298 730.47 354.648 729.495 353.194C728.521 351.74 727.239 350.517 725.741 349.612L734.58 307.984L714 316.057L708.762 354.35C707.409 356.968 707.063 359.992 707.79 362.849C708.516 365.706 710.265 368.196 712.705 369.849C715.144 371.502 718.105 372.202 721.026 371.816C723.947 371.431 726.625 369.987 728.553 367.758Z" fill="#FFB8B8"/>
<path d="M628.961 584.712L614.367 584.71L607.425 528.394L628.964 528.395L628.961 584.712Z" fill="#FFB8B8"/>
<path d="M632.683 598.865L585.626 598.863V598.267C585.626 595.861 586.1 593.478 587.02 591.255C587.941 589.032 589.29 587.012 590.991 585.31C592.692 583.609 594.711 582.259 596.933 581.338C599.155 580.417 601.537 579.943 603.942 579.943H603.943L632.684 579.945L632.683 598.865Z" fill="#2F2E41"/>
<path d="M700.384 584.712L685.79 584.71L678.848 528.394L700.387 528.395L700.384 584.712Z" fill="#FFB8B8"/>
<path d="M704.106 598.865L657.049 598.863V598.267C657.049 595.861 657.523 593.478 658.443 591.255C659.364 589.032 660.713 587.012 662.414 585.31C664.115 583.609 666.134 582.259 668.356 581.338C670.578 580.417 672.96 579.943 675.365 579.943H675.366L704.107 579.945L704.106 598.865Z" fill="#2F2E41"/>
<path d="M630.482 555.305L609.823 554.478C608.413 554.417 607.085 553.804 606.123 552.772C605.161 551.74 604.644 550.37 604.683 548.959L610.503 357.961L610.883 357.824C647.09 344.72 677.043 345.711 702.455 360.848L702.739 361.018L706.226 547.043C706.239 547.755 706.111 548.463 705.847 549.125C705.584 549.787 705.192 550.389 704.693 550.898C704.195 551.406 703.6 551.81 702.943 552.086C702.287 552.361 701.582 552.503 700.87 552.503H683.45C682.209 552.501 681.007 552.069 680.049 551.28C679.09 550.492 678.435 549.396 678.193 548.178L654.463 427.408C654.381 426.99 654.153 426.616 653.82 426.352C653.486 426.087 653.07 425.951 652.645 425.967C652.22 425.982 651.815 426.149 651.502 426.437C651.189 426.725 650.989 427.116 650.938 427.538L636.013 550.596C635.849 551.893 635.219 553.087 634.24 553.954C633.261 554.821 632 555.302 630.693 555.308C630.623 555.308 630.552 555.307 630.482 555.305Z" fill="#2F2E41"/>
<path d="M650.579 190.461C666.727 190.461 679.816 177.365 679.816 161.21C679.816 145.056 666.727 131.96 650.579 131.96C634.432 131.96 621.342 145.056 621.342 161.21C621.342 177.365 634.432 190.461 650.579 190.461Z" fill="#FFB8B8"/>
<path d="M513.13 268.717C512.804 267.676 512.804 266.56 513.128 265.519L516.157 255.809C516.488 254.758 517.133 253.834 518.005 253.163C518.877 252.491 519.935 252.103 521.034 252.052L559.392 250.355L621.623 218.441C623.784 217.75 626.059 217.492 628.32 217.682C630.58 217.873 632.78 218.506 634.795 219.548C636.81 220.59 638.6 222.018 640.063 223.753C641.526 225.487 642.632 227.493 643.32 229.655C644.007 231.818 644.261 234.094 644.068 236.355C643.875 238.616 643.238 240.817 642.195 242.831C641.151 244.846 639.72 246.635 637.985 248.096C636.249 249.557 634.243 250.661 632.081 251.346L593.943 273.477C582.369 280.195 568.75 282.479 555.618 279.903L517.212 272.375C516.473 272.23 515.773 271.931 515.158 271.497C514.543 271.064 514.026 270.506 513.64 269.859C513.425 269.5 513.254 269.117 513.13 268.717Z" fill="#CCCCCC"/>
<path d="M727.305 340.807C726.279 341.177 725.165 341.225 724.111 340.945L714.285 338.331C713.222 338.046 712.272 337.44 711.564 336.597C710.856 335.754 710.424 334.714 710.326 333.617L706.997 295.349L672.474 234.506C671.692 232.376 671.338 230.112 671.432 227.845C671.526 225.578 672.065 223.352 673.02 221.294C673.974 219.235 675.324 217.386 676.994 215.85C678.663 214.314 680.619 213.123 682.749 212.344C684.879 211.565 687.142 211.213 689.408 211.31C691.674 211.406 693.898 211.949 695.954 212.906C698.011 213.863 699.858 215.217 701.391 216.889C702.924 218.561 704.112 220.519 704.888 222.651L728.614 259.828C735.817 271.111 738.678 284.626 736.665 297.861L730.784 336.572C730.671 337.316 730.402 338.028 729.995 338.661C729.589 339.295 729.053 339.836 728.424 340.248C728.074 340.478 727.699 340.666 727.305 340.807Z" fill="#CCCCCC"/>
<path d="M618.6 213.155C623.622 207.646 629.816 203.334 636.726 200.539C643.635 197.744 651.084 196.537 658.522 197.007C659.011 197.037 659.498 197.071 659.983 197.109H659.983C667.033 197.667 673.883 199.724 680.074 203.143C686.265 206.562 691.656 211.263 695.885 216.934C700.185 222.684 703.208 229.285 704.753 236.298C706.297 243.31 706.328 250.572 704.842 257.597C699.174 284.445 700.608 312.309 709.005 338.432L716.848 362.797C717.1 363.578 717.168 364.406 717.05 365.218C716.931 366.029 716.627 366.803 716.162 367.478C715.697 368.154 715.084 368.714 714.368 369.115C713.653 369.516 712.855 369.747 712.036 369.791L671.938 371.947L661.677 354.215V372.499L612.942 375.121C612.845 375.126 612.748 375.129 612.652 375.129C611.913 375.128 611.181 374.975 610.504 374.678C609.826 374.381 609.218 373.947 608.717 373.403C608.215 372.859 607.832 372.217 607.59 371.518C607.349 370.819 607.255 370.077 607.315 369.339L612.823 301.002L605.914 254.589C604.795 247.173 605.355 239.6 607.55 232.429C609.746 225.259 613.522 218.672 618.6 213.155Z" fill="#CCCCCC"/>
<path d="M670.899 189.134C668.192 190.692 657.492 191.725 656.73 188.695L656.714 188.629C656.183 186.409 656.624 184.091 656.776 181.813C656.928 179.536 656.706 177.034 655.155 175.359C652.265 172.237 647.123 173.892 642.944 173.103C640.496 172.556 638.331 171.136 636.854 169.108C635.377 167.079 634.69 164.582 634.92 162.084C634.98 161.61 635.073 161.136 635.178 160.663C635.439 159.463 635.419 158.218 635.119 157.027C634.819 155.836 634.247 154.731 633.448 153.799C632.649 152.866 631.645 152.132 630.514 151.653C629.384 151.174 628.158 150.963 626.932 151.038C622.709 151.28 618.15 152.56 614.655 149.43C611.953 147.01 611.294 140.71 612.481 137.281C614.476 131.519 627.258 128.503 632.839 126.845C639.741 124.849 647.001 124.418 654.09 125.582C661.18 126.746 667.921 129.476 673.824 133.573C677.349 136.059 680.641 139.182 682.143 143.226C683.646 147.27 682.921 152.373 679.533 155.043C682.159 157.824 684.008 161.247 684.895 164.969C685.783 168.691 685.676 172.581 684.588 176.249C682.914 181.643 674.928 186.814 670.899 189.134Z" fill="#2F2E41"/>
<path d="M267.386 190.634H80.1851C77.7724 190.632 75.4595 189.671 73.7545 187.963C72.0495 186.255 71.0918 183.94 71.0918 181.527C71.0918 179.113 72.0495 176.798 73.7545 175.09C75.4595 173.382 77.7724 172.422 80.1851 172.419H267.386C269.798 172.422 272.111 173.382 273.816 175.09C275.521 176.798 276.479 179.113 276.479 181.527C276.479 183.94 275.521 186.255 273.816 187.963C272.111 189.671 269.798 190.632 267.386 190.634Z" fill="#6A4796"/>
<path d="M382.962 198.402H61.5583C61.2426 198.402 60.9398 198.276 60.7166 198.053C60.4934 197.83 60.3679 197.527 60.3679 197.211C60.3679 196.895 60.4934 196.592 60.7166 196.369C60.9398 196.145 61.2426 196.02 61.5583 196.02H382.962C383.277 196.02 383.58 196.145 383.803 196.369C384.027 196.592 384.152 196.895 384.152 197.211C384.152 197.527 384.027 197.83 383.803 198.053C383.58 198.276 383.277 198.402 382.962 198.402Z" fill="#3F3D56"/>
<path d="M267.386 266.913H80.185C77.7705 266.913 75.455 265.953 73.7477 264.245C72.0404 262.537 71.0813 260.22 71.0813 257.805C71.0813 255.389 72.0404 253.073 73.7477 251.365C75.455 249.656 77.7705 248.697 80.185 248.697H267.386C269.798 248.7 272.111 249.66 273.816 251.368C275.521 253.076 276.479 255.391 276.479 257.805C276.479 260.218 275.521 262.534 273.816 264.241C272.111 265.949 269.798 266.91 267.386 266.913Z" fill="#6A4796"/>
<path d="M382.962 274.68H61.5583C61.2426 274.68 60.9398 274.555 60.7166 274.331C60.4934 274.108 60.3679 273.805 60.3679 273.489C60.3679 273.173 60.4934 272.87 60.7166 272.647C60.9398 272.424 61.2426 272.298 61.5583 272.298H382.962C383.277 272.298 383.58 272.424 383.803 272.647C384.027 272.87 384.152 273.173 384.152 273.489C384.152 273.805 384.027 274.108 383.803 274.331C383.58 274.555 383.277 274.68 382.962 274.68Z" fill="#3F3D56"/>
<path d="M267.386 343.191H80.185C77.7705 343.191 75.455 342.231 73.7477 340.523C72.0404 338.815 71.0813 336.498 71.0813 334.083C71.0813 331.667 72.0404 329.351 73.7477 327.643C75.455 325.935 77.7705 324.975 80.185 324.975H267.386C269.798 324.978 272.111 325.939 273.816 327.646C275.521 329.354 276.479 331.669 276.479 334.083C276.479 336.497 275.521 338.812 273.816 340.519C272.111 342.227 269.798 343.188 267.386 343.191Z" fill="#F2F2F2"/>
<path d="M382.962 350.958H61.5583C61.2426 350.958 60.9398 350.832 60.7166 350.609C60.4934 350.386 60.3679 350.083 60.3679 349.767C60.3679 349.451 60.4934 349.148 60.7166 348.925C60.9398 348.701 61.2426 348.576 61.5583 348.576H382.962C383.277 348.576 383.58 348.701 383.803 348.925C384.027 349.148 384.152 349.451 384.152 349.767C384.152 350.083 384.027 350.386 383.803 350.609C383.58 350.832 383.277 350.958 382.962 350.958Z" fill="#3F3D56"/>
</g>
<defs>
<clipPath id="clip0">
<rect width="879" height="601" fill="white"/>
</clipPath>
</defs>
</svg>
