<svg width="730" height="382" viewBox="0 0 730 382" fill="none" xmlns="http://www.w3.org/2000/svg">
<g clip-path="url(#clip0)">
<path d="M709.393 204.865C708.272 204.217 707.307 203.332 706.566 202.271C705.825 201.21 705.325 200 705.102 198.725C704.879 197.45 704.938 196.142 705.276 194.893C705.613 193.643 706.22 192.483 707.054 191.494L697.824 124.025L717.051 124.969L720.07 190.778C721.64 192.289 722.601 194.324 722.77 196.497C722.94 198.669 722.306 200.829 720.99 202.565C719.674 204.302 717.766 205.495 715.628 205.919C713.491 206.343 711.272 205.968 709.393 204.865Z" fill="#A0616A"/>
<path d="M719.69 125.864C719.296 126.328 718.791 126.685 718.222 126.902L700.943 133.496C700.076 133.828 699.114 133.814 698.256 133.457C697.398 133.101 696.71 132.429 696.332 131.58L681.026 97.1817C679.556 93.9909 679.306 90.3723 680.323 87.0096C681.074 84.6095 682.459 82.4567 684.332 80.7779C686.205 79.099 688.495 77.9565 690.963 77.4705C692.861 77.0799 694.821 77.1076 696.707 77.5517C698.967 78.0555 701.065 79.1149 702.813 80.6339C704.56 82.153 705.901 84.0838 706.714 86.2516L720.323 122.228C720.552 122.836 720.613 123.493 720.502 124.132C720.391 124.771 720.11 125.369 719.69 125.864Z" fill="#CCCCCC"/>
<path d="M629.649 369.54H617.694L613.358 323.209L629.649 323.428V369.54Z" fill="#A0616A"/>
<path d="M609.155 366.125H632.208V380.642H594.636C594.636 376.792 596.165 373.1 598.887 370.377C601.61 367.654 605.302 366.125 609.153 366.125H609.155Z" fill="#2F2E41"/>
<path d="M685.232 369.541H673.277L667.59 323.428H685.234L685.232 369.541Z" fill="#A0616A"/>
<path d="M664.738 366.125H687.79V380.642H650.218C650.218 376.792 651.748 373.1 654.47 370.377C657.193 367.654 660.885 366.125 664.735 366.125H664.738Z" fill="#2F2E41"/>
<path d="M686.736 353.134L667.962 351.744C666.893 351.665 665.89 351.198 665.141 350.431C664.393 349.664 663.95 348.65 663.897 347.58L659.711 261.054C659.671 260.224 659.329 259.437 658.75 258.841C658.171 258.245 657.394 257.88 656.566 257.816C655.737 257.752 654.913 257.992 654.249 258.492C653.585 258.992 653.126 259.716 652.958 260.53L635.494 345.766C635.278 346.815 634.686 347.749 633.83 348.392C632.974 349.035 631.913 349.343 630.845 349.259L613.872 347.901C613.298 347.855 612.738 347.697 612.225 347.435C611.712 347.172 611.255 346.812 610.882 346.373C610.508 345.935 610.224 345.427 610.047 344.878C609.869 344.33 609.802 343.752 609.848 343.178C609.85 343.149 609.853 343.12 609.855 343.092L625.602 185.627C625.663 185.012 625.854 184.416 626.162 183.88C626.47 183.344 626.888 182.878 627.388 182.515C627.889 182.151 628.46 181.897 629.065 181.77C629.671 181.643 630.296 181.645 630.9 181.777L690.779 194.794C691.77 195.011 692.656 195.565 693.286 196.36C693.915 197.156 694.251 198.145 694.235 199.16L691.446 348.84C691.425 349.988 690.954 351.081 690.136 351.886C689.318 352.691 688.217 353.143 687.069 353.147C686.958 353.146 686.847 353.142 686.736 353.134Z" fill="#2F2E41"/>
<path d="M670.309 53.9697C683.536 53.9697 694.259 43.2466 694.259 30.019C694.259 16.7914 683.536 6.06836 670.309 6.06836C657.081 6.06836 646.359 16.7914 646.359 30.019C646.359 43.2466 657.081 53.9697 670.309 53.9697Z" fill="#A0616A"/>
<path d="M633.149 197.773C630.846 195.708 629.018 193.168 627.79 190.329C626.562 187.49 625.964 184.418 626.037 181.326C626.037 146.902 655.833 69.9901 656.766 67.5949C656.854 67.0168 657.64 66.7671 661.768 63.9806C665.897 61.1942 671.847 60.7637 679.457 62.7075C680.23 62.9055 680.935 63.3119 681.493 63.8825C682.052 64.4531 682.444 65.166 682.625 65.9436L684.041 67.9887C684.164 68.5077 684.408 68.9905 684.752 69.398C685.097 69.8056 685.532 70.1265 686.023 70.335C692.16 72.9206 711.667 84.8436 705.02 129.714C698.845 171.395 696.339 195.904 695.549 204.513C695.456 205.534 695.007 206.49 694.282 207.215C693.556 207.939 692.6 208.386 691.578 208.478C688.569 208.746 683.405 209.105 677.258 209.105C662.994 209.101 643.437 207.18 633.149 197.773Z" fill="#CCCCCC"/>
<path d="M604.53 185.019C603.96 183.857 603.652 182.584 603.628 181.29C603.603 179.996 603.862 178.713 604.388 177.53C604.913 176.347 605.691 175.294 606.668 174.444C607.644 173.595 608.795 172.97 610.039 172.613L639.969 111.447L655.409 122.944L621.247 179.271C621.709 181.401 621.373 183.627 620.303 185.526C619.233 187.424 617.504 188.865 615.443 189.573C613.382 190.282 611.133 190.21 609.122 189.37C607.111 188.531 605.477 186.983 604.532 185.019H604.53Z" fill="#A0616A"/>
<path d="M657.098 125.161C656.513 125.327 655.894 125.342 655.301 125.205L637.278 121.053C636.373 120.845 635.582 120.297 635.069 119.523C634.555 118.749 634.357 117.808 634.516 116.893L640.978 79.8003C641.536 76.3318 643.344 73.1876 646.062 70.9616C648.023 69.3876 650.373 68.3718 652.863 68.0213C655.354 67.6707 657.892 67.9984 660.212 68.9698C662.005 69.7028 663.618 70.8179 664.936 72.2373C666.532 73.9149 667.684 75.964 668.289 78.199C668.893 80.4341 668.931 82.7846 668.398 85.0379L659.651 122.492C659.503 123.124 659.188 123.705 658.739 124.174C658.29 124.644 657.723 124.984 657.098 125.161H657.098Z" fill="#CCCCCC"/>
<path d="M664.701 51.6592C663.536 50.4701 662.675 49.0166 662.193 47.4227C661.711 45.8289 661.621 44.142 661.932 42.5061C662.767 38.14 663.258 35.2803 663.351 34.2403C663.669 30.6836 660.073 27.8037 656.516 27.3418C656.378 27.3235 656.263 27.3121 656.167 27.3043C656.254 27.3916 656.354 27.4842 656.44 27.5662C657.116 28.2011 657.957 28.9913 657.757 29.8069C657.636 30.2977 657.187 30.6461 656.385 30.8705C650.821 32.4274 646.535 30.998 642.898 26.3691C641.876 25.0536 641.173 23.5186 640.845 21.8851C639.543 15.4931 643.013 10.0442 646.155 6.59936C648.746 3.75878 652.945 0.312172 658.241 0.0152774C662.359 -0.214379 667.257 2.15553 668.72 6.42645C669.411 5.40299 670.331 4.55455 671.407 3.9483C672.483 3.34205 673.686 2.99464 674.919 2.93357C677.731 2.87261 680.499 3.6423 682.875 5.14632C694.489 11.7985 699.479 27.6457 693.774 39.752C690.185 47.3674 682.409 53.0363 673.481 54.547C672.922 54.6419 672.357 54.6898 671.79 54.6902C670.465 54.6879 669.153 54.4186 667.934 53.8985C666.715 53.3783 665.614 52.618 664.695 51.6627L664.701 51.6592Z" fill="#2F2E41"/>
<path d="M317.548 170.775C317.044 169.579 316.201 168.557 315.122 167.835C314.043 167.114 312.777 166.724 311.479 166.715H190.344C188.603 166.716 186.933 167.408 185.702 168.639C184.471 169.87 183.779 171.54 183.778 173.281V326.532C183.779 328.273 184.471 329.943 185.702 331.174C186.933 332.405 188.603 333.097 190.344 333.098H311.483C313.224 333.096 314.893 332.403 316.124 331.172C317.355 329.941 318.048 328.272 318.05 326.532V173.281C318.053 172.421 317.884 171.569 317.552 170.775H317.548ZM316.587 326.532C316.586 327.886 316.047 329.184 315.089 330.142C314.132 331.1 312.833 331.638 311.479 331.64H190.344C188.99 331.64 187.691 331.101 186.733 330.144C185.775 329.186 185.236 327.887 185.236 326.532V173.282C185.238 171.928 185.777 170.63 186.734 169.672C187.692 168.715 188.99 168.176 190.344 168.174H311.483C312.504 168.178 313.5 168.486 314.344 169.058C315.189 169.63 315.843 170.441 316.225 171.387C316.299 171.576 316.363 171.768 316.417 171.964C316.533 172.394 316.592 172.837 316.592 173.282L316.587 326.532Z" fill="#3F3D56"/>
<path d="M292.269 202.896H255.781C255.007 202.896 254.264 202.589 253.717 202.041C253.17 201.494 252.862 200.752 252.862 199.977C252.862 199.203 253.17 198.461 253.717 197.913C254.264 197.366 255.007 197.058 255.781 197.058H292.269C293.043 197.058 293.785 197.366 294.333 197.913C294.88 198.461 295.188 199.203 295.188 199.977C295.188 200.752 294.88 201.494 294.333 202.041C293.785 202.589 293.043 202.896 292.269 202.896Z" fill="#3F3D56"/>
<path d="M292.269 218.222H255.781C255.007 218.222 254.264 217.914 253.717 217.367C253.17 216.819 252.862 216.077 252.862 215.302C252.862 214.528 253.17 213.786 253.717 213.238C254.264 212.691 255.007 212.383 255.781 212.383H292.269C293.043 212.383 293.785 212.691 294.333 213.238C294.88 213.786 295.188 214.528 295.188 215.302C295.188 216.077 294.88 216.819 294.333 217.367C293.785 217.914 293.043 218.222 292.269 218.222Z" fill="#3F3D56"/>
<path d="M237.06 226.948H210.395C209.524 226.947 208.689 226.601 208.074 225.985C207.458 225.369 207.112 224.534 207.111 223.664V192.196C207.112 191.326 207.458 190.491 208.074 189.875C208.689 189.259 209.524 188.913 210.395 188.912H237.06C237.93 188.913 238.765 189.259 239.381 189.875C239.997 190.491 240.343 191.326 240.344 192.196V223.664C240.343 224.534 239.997 225.369 239.381 225.985C238.765 226.601 237.93 226.947 237.06 226.948Z" fill="#EDA95A"/>
<path d="M292.015 249.602H209.554C208.78 249.602 208.037 249.294 207.49 248.747C206.942 248.199 206.635 247.457 206.635 246.682C206.635 245.908 206.942 245.166 207.49 244.618C208.037 244.071 208.78 243.763 209.554 243.763H292.015C292.399 243.763 292.778 243.839 293.132 243.985C293.487 244.132 293.809 244.347 294.08 244.618C294.351 244.889 294.566 245.211 294.712 245.565C294.859 245.919 294.935 246.299 294.935 246.682C294.935 247.066 294.859 247.445 294.712 247.799C294.566 248.154 294.351 248.475 294.08 248.747C293.809 249.018 293.487 249.233 293.132 249.379C292.778 249.526 292.399 249.602 292.015 249.602Z" fill="#CCCCCC"/>
<path d="M292.015 264.927H209.554C208.78 264.927 208.037 264.619 207.49 264.072C206.942 263.524 206.635 262.782 206.635 262.008C206.635 261.233 206.942 260.491 207.49 259.943C208.037 259.396 208.78 259.088 209.554 259.088H292.015C292.79 259.088 293.532 259.396 294.08 259.943C294.627 260.491 294.935 261.233 294.935 262.008C294.935 262.782 294.627 263.524 294.08 264.072C293.532 264.619 292.79 264.927 292.015 264.927Z" fill="#CCCCCC"/>
<path d="M292.015 280.251H209.554C208.78 280.251 208.037 279.944 207.49 279.396C206.942 278.849 206.635 278.107 206.635 277.332C206.635 276.558 206.942 275.816 207.49 275.268C208.037 274.721 208.78 274.413 209.554 274.413H292.015C292.79 274.413 293.532 274.721 294.08 275.268C294.627 275.816 294.935 276.558 294.935 277.332C294.935 278.107 294.627 278.849 294.08 279.396C293.532 279.944 292.79 280.251 292.015 280.251Z" fill="#CCCCCC"/>
<path d="M292.015 295.577H209.554C208.78 295.577 208.037 295.269 207.49 294.722C206.942 294.174 206.635 293.432 206.635 292.657C206.635 291.883 206.942 291.141 207.49 290.593C208.037 290.046 208.78 289.738 209.554 289.738H292.015C292.79 289.738 293.532 290.046 294.08 290.593C294.627 291.141 294.935 291.883 294.935 292.657C294.935 293.432 294.627 294.174 294.08 294.722C293.532 295.269 292.79 295.577 292.015 295.577Z" fill="#CCCCCC"/>
<path d="M292.015 310.902H209.554C208.78 310.902 208.037 310.594 207.49 310.047C206.942 309.499 206.635 308.757 206.635 307.983C206.635 307.208 206.942 306.466 207.49 305.918C208.037 305.371 208.78 305.063 209.554 305.063H292.015C292.79 305.063 293.532 305.371 294.08 305.918C294.627 306.466 294.935 307.208 294.935 307.983C294.935 308.757 294.627 309.499 294.08 310.047C293.532 310.594 292.79 310.902 292.015 310.902Z" fill="#CCCCCC"/>
<path d="M558.853 382H729.127C729.358 382 729.58 381.908 729.744 381.745C729.908 381.581 730 381.359 730 381.127C730 380.896 729.908 380.673 729.744 380.51C729.58 380.346 729.358 380.254 729.127 380.254H558.853C558.621 380.254 558.399 380.346 558.235 380.51C558.071 380.673 557.979 380.896 557.979 381.127C557.979 381.359 558.071 381.581 558.235 381.745C558.399 381.908 558.621 382 558.853 382Z" fill="#3F3D56"/>
<path d="M252.963 129.79C268.522 129.79 281.135 117.177 281.135 101.619C281.135 86.0597 268.522 73.4468 252.963 73.4468C237.405 73.4468 224.792 86.0597 224.792 101.619C224.792 117.177 237.405 129.79 252.963 129.79Z" fill="#EDA95A"/>
<path d="M250.172 112.365C249.538 112.367 248.921 112.162 248.414 111.781L248.383 111.758L241.762 106.693C241.455 106.458 241.197 106.165 241.003 105.83C240.81 105.496 240.684 105.126 240.633 104.743C240.582 104.36 240.607 103.97 240.707 103.597C240.807 103.223 240.979 102.873 241.215 102.566C241.45 102.259 241.743 102.002 242.078 101.808C242.413 101.615 242.782 101.489 243.166 101.439C243.549 101.389 243.939 101.414 244.312 101.514C244.685 101.615 245.035 101.787 245.342 102.023L249.63 105.312L259.764 92.0911C260.238 91.4721 260.939 91.0669 261.713 90.9648C262.486 90.8627 263.268 91.0719 263.887 91.5464L263.888 91.5471L263.825 91.6344L263.89 91.5471C264.508 92.0223 264.913 92.7235 265.015 93.4967C265.117 94.2699 264.908 95.052 264.434 95.6713L252.514 111.215C252.239 111.573 251.884 111.863 251.478 112.061C251.073 112.26 250.626 112.363 250.174 112.362L250.172 112.365Z" fill="white"/>
<path d="M67.4954 88.749C78.0385 88.749 86.5853 80.202 86.5853 69.6587C86.5853 59.1154 78.0385 50.5684 67.4954 50.5684C56.9523 50.5684 48.4055 59.1154 48.4055 69.6587C48.4055 80.202 56.9523 88.749 67.4954 88.749Z" fill="#CCCCCC"/>
<path d="M65.6032 76.9409C65.1738 76.9417 64.7558 76.8029 64.4121 76.5454L64.3912 76.5296L59.9047 73.0944C59.4972 72.7688 59.2335 72.2964 59.1703 71.7786C59.1071 71.2608 59.2494 70.7389 59.5666 70.3248C59.8838 69.9107 60.3507 69.6374 60.867 69.5636C61.3834 69.4897 61.9081 69.6212 62.3287 69.9299L65.2347 72.1583L72.1015 63.2026C72.4231 62.7832 72.8981 62.5087 73.422 62.4395C73.946 62.3703 74.4759 62.5121 74.8953 62.8337L74.8958 62.8341L74.853 62.8917L74.8967 62.835C75.3155 63.157 75.5896 63.6321 75.6587 64.1559C75.7277 64.6798 75.5862 65.2096 75.2651 65.6293L67.188 76.1638C67.0013 76.4066 66.7611 76.6031 66.486 76.738C66.211 76.8729 65.9086 76.9427 65.6023 76.9418L65.6032 76.9409Z" fill="white"/>
<path d="M121.14 114.42C120.744 113.479 120.08 112.675 119.232 112.107C118.383 111.539 117.387 111.233 116.366 111.225H21.0463C19.6762 111.226 18.3624 111.77 17.3936 112.739C16.4248 113.708 15.8803 115.022 15.8796 116.392V236.977C15.8803 238.348 16.4248 239.661 17.3936 240.63C18.3624 241.599 19.6762 242.144 21.0463 242.144H116.366C117.736 242.142 119.049 241.597 120.017 240.629C120.986 239.66 121.531 238.347 121.533 236.977V116.392C121.535 115.715 121.401 115.045 121.14 114.42ZM120.385 236.978C120.383 238.043 119.959 239.063 119.206 239.816C118.454 240.569 117.433 240.993 116.368 240.995H21.0463C19.981 240.995 18.9593 240.572 18.2061 239.819C17.4528 239.065 17.0296 238.044 17.0296 236.978V116.392C17.0317 115.327 17.4555 114.307 18.2084 113.554C18.9612 112.801 19.9817 112.377 21.0463 112.375H116.366C117.169 112.378 117.953 112.621 118.618 113.072C119.282 113.523 119.797 114.162 120.097 114.907C120.155 115.056 120.206 115.207 120.248 115.361C120.34 115.699 120.386 116.048 120.386 116.398L120.385 236.978Z" fill="#CCCCCC"/>
<path d="M101.246 139.696H72.5355C71.9263 139.696 71.3421 139.454 70.9113 139.023C70.4806 138.592 70.2386 138.008 70.2386 137.399C70.2386 136.789 70.4806 136.205 70.9113 135.774C71.3421 135.344 71.9263 135.102 72.5355 135.102H101.246C101.855 135.102 102.439 135.344 102.87 135.774C103.3 136.205 103.542 136.789 103.542 137.399C103.542 138.008 103.3 138.592 102.87 139.023C102.439 139.454 101.855 139.696 101.246 139.696H101.246Z" fill="#CCCCCC"/>
<path d="M101.246 151.755H72.5355C71.9263 151.755 71.3421 151.513 70.9113 151.082C70.4806 150.651 70.2386 150.067 70.2386 149.458C70.2386 148.848 70.4806 148.264 70.9113 147.833C71.3421 147.403 71.9263 147.161 72.5355 147.161H101.246C101.855 147.161 102.439 147.403 102.87 147.833C103.3 148.264 103.542 148.848 103.542 149.458C103.542 150.067 103.3 150.651 102.87 151.082C102.439 151.513 101.855 151.755 101.246 151.755H101.246Z" fill="#CCCCCC"/>
<path d="M57.8037 158.621H36.8224C36.1374 158.62 35.4806 158.348 34.9962 157.863C34.5118 157.379 34.2393 156.722 34.2386 156.037V131.277C34.2393 130.592 34.5118 129.935 34.9962 129.45C35.4806 128.966 36.1374 128.694 36.8224 128.693H57.8037C58.4887 128.694 59.1454 128.966 59.6297 129.451C60.1141 129.935 60.3866 130.592 60.3875 131.277V156.037C60.3868 156.722 60.1144 157.379 59.63 157.863C59.1456 158.348 58.4888 158.62 57.8037 158.621Z" fill="#CCCCCC"/>
<path d="M101.046 176.446H36.1614C35.5522 176.446 34.968 176.204 34.5372 175.773C34.1065 175.342 33.8644 174.758 33.8644 174.149C33.8644 173.539 34.1065 172.955 34.5372 172.524C34.968 172.094 35.5522 171.852 36.1614 171.852H101.046C101.656 171.852 102.24 172.094 102.671 172.524C103.101 172.955 103.343 173.539 103.343 174.149C103.343 174.758 103.101 175.342 102.671 175.773C102.24 176.204 101.656 176.446 101.046 176.446Z" fill="#CCCCCC"/>
<path d="M101.046 188.509H36.1614C35.5522 188.509 34.968 188.267 34.5372 187.836C34.1065 187.405 33.8644 186.821 33.8644 186.212C33.8644 185.602 34.1065 185.018 34.5372 184.587C34.968 184.157 35.5522 183.915 36.1614 183.915H101.046C101.656 183.915 102.24 184.157 102.671 184.587C103.101 185.018 103.343 185.602 103.343 186.212C103.343 186.821 103.101 187.405 102.671 187.836C102.24 188.267 101.656 188.509 101.046 188.509Z" fill="#CCCCCC"/>
<path d="M101.046 200.563H36.1614C35.5522 200.563 34.968 200.321 34.5372 199.89C34.1065 199.46 33.8644 198.875 33.8644 198.266C33.8644 197.657 34.1065 197.073 34.5372 196.642C34.968 196.211 35.5522 195.969 36.1614 195.969H101.046C101.656 195.969 102.24 196.211 102.671 196.642C103.101 197.073 103.343 197.657 103.343 198.266C103.343 198.875 103.101 199.46 102.671 199.89C102.24 200.321 101.656 200.563 101.046 200.563Z" fill="#CCCCCC"/>
<path d="M101.046 212.625H36.1614C35.5522 212.625 34.968 212.383 34.5372 211.952C34.1065 211.521 33.8644 210.937 33.8644 210.328C33.8644 209.719 34.1065 209.134 34.5372 208.704C34.968 208.273 35.5522 208.031 36.1614 208.031H101.046C101.656 208.031 102.24 208.273 102.671 208.704C103.101 209.134 103.343 209.719 103.343 210.328C103.343 210.937 103.101 211.521 102.671 211.952C102.24 212.383 101.656 212.625 101.046 212.625Z" fill="#CCCCCC"/>
<path d="M101.046 224.681H36.1614C35.5522 224.681 34.968 224.439 34.5372 224.008C34.1065 223.577 33.8644 222.993 33.8644 222.384C33.8644 221.775 34.1065 221.19 34.5372 220.76C34.968 220.329 35.5522 220.087 36.1614 220.087H101.046C101.656 220.087 102.24 220.329 102.671 220.76C103.101 221.19 103.343 221.775 103.343 222.384C103.343 222.993 103.101 223.577 102.671 224.008C102.24 224.439 101.656 224.681 101.046 224.681Z" fill="#CCCCCC"/>
<path d="M0.691115 242.648H134.67C134.852 242.648 135.027 242.576 135.156 242.447C135.285 242.318 135.357 242.143 135.357 241.961C135.357 241.778 135.285 241.604 135.156 241.475C135.027 241.346 134.852 241.273 134.67 241.273H0.691115C0.600869 241.273 0.511405 241.29 0.427833 241.324C0.344261 241.358 0.268219 241.409 0.204043 241.472C0.139867 241.535 0.0888243 241.611 0.0538152 241.694C0.0188062 241.777 0.000512218 241.867 -3.58955e-07 241.957C-0.000512936 242.047 0.0167554 242.137 0.0508173 242.22C0.0848793 242.304 0.135076 242.38 0.198527 242.444C0.261978 242.508 0.337445 242.559 0.420625 242.594C0.503805 242.629 0.593062 242.647 0.683307 242.648H0.691115Z" fill="#CCCCCC"/>
<path d="M434.24 88.749C444.783 88.749 453.33 80.202 453.33 69.6587C453.33 59.1154 444.783 50.5684 434.24 50.5684C423.697 50.5684 415.15 59.1154 415.15 69.6587C415.15 80.202 423.697 88.749 434.24 88.749Z" fill="#CCCCCC"/>
<path d="M432.348 76.9409C431.918 76.9417 431.5 76.8029 431.157 76.5454L431.136 76.5296L426.649 73.0944C426.242 72.7688 425.978 72.2964 425.915 71.7786C425.852 71.2608 425.994 70.7389 426.311 70.3248C426.628 69.9107 427.095 69.6374 427.611 69.5636C428.128 69.4897 428.653 69.6212 429.073 69.9299L431.979 72.1583L438.846 63.2026C439.167 62.7832 439.642 62.5087 440.166 62.4395C440.69 62.3703 441.22 62.5121 441.64 62.8337L441.64 62.8341L441.597 62.8917L441.641 62.835C442.06 63.157 442.334 63.6321 442.403 64.1559C442.472 64.6798 442.331 65.2096 442.01 65.6293L433.932 76.1638C433.746 76.4066 433.505 76.6031 433.23 76.738C432.955 76.8729 432.653 76.9427 432.347 76.9418L432.348 76.9409Z" fill="white"/>
<path d="M487.885 114.42C487.489 113.479 486.825 112.675 485.976 112.107C485.128 111.539 484.131 111.233 483.11 111.225H387.791C386.421 111.226 385.107 111.77 384.138 112.739C383.169 113.708 382.625 115.022 382.624 116.392V236.977C382.625 238.348 383.169 239.661 384.138 240.63C385.107 241.599 386.421 242.144 387.791 242.144H483.11C484.48 242.142 485.793 241.597 486.762 240.629C487.73 239.66 488.275 238.347 488.277 236.977V116.392C488.279 115.715 488.146 115.045 487.885 114.42ZM487.13 236.978C487.128 238.043 486.704 239.063 485.951 239.816C485.198 240.569 484.178 240.993 483.113 240.995H387.791C387.263 240.995 386.741 240.891 386.254 240.689C385.766 240.488 385.323 240.192 384.951 239.819C384.578 239.446 384.282 239.003 384.08 238.516C383.878 238.028 383.774 237.506 383.774 236.978V116.392C383.776 115.327 384.2 114.307 384.953 113.554C385.706 112.801 386.726 112.377 387.791 112.375H483.11C483.914 112.378 484.698 112.621 485.362 113.072C486.027 113.523 486.542 114.162 486.842 114.907C486.9 115.056 486.95 115.207 486.993 115.361C487.084 115.699 487.13 116.048 487.131 116.398L487.13 236.978Z" fill="#CCCCCC"/>
<path d="M467.991 139.696H439.28C438.671 139.696 438.086 139.454 437.656 139.023C437.225 138.592 436.983 138.008 436.983 137.399C436.983 136.789 437.225 136.205 437.656 135.774C438.086 135.344 438.671 135.102 439.28 135.102H467.99C468.599 135.102 469.183 135.344 469.614 135.774C470.045 136.205 470.287 136.789 470.287 137.399C470.287 138.008 470.045 138.592 469.614 139.023C469.183 139.454 468.599 139.696 467.99 139.696H467.991Z" fill="#CCCCCC"/>
<path d="M467.991 151.755H439.28C438.671 151.755 438.086 151.513 437.656 151.082C437.225 150.651 436.983 150.067 436.983 149.458C436.983 148.848 437.225 148.264 437.656 147.833C438.086 147.403 438.671 147.161 439.28 147.161H467.99C468.599 147.161 469.183 147.403 469.614 147.833C470.045 148.264 470.287 148.848 470.287 149.458C470.287 150.067 470.045 150.651 469.614 151.082C469.183 151.513 468.599 151.755 467.99 151.755H467.991Z" fill="#CCCCCC"/>
<path d="M424.548 158.621H403.567C402.882 158.62 402.225 158.348 401.741 157.863C401.256 157.379 400.984 156.722 400.983 156.037V131.277C400.984 130.592 401.256 129.935 401.741 129.45C402.225 128.966 402.882 128.694 403.567 128.693H424.548C425.233 128.694 425.89 128.966 426.374 129.451C426.859 129.935 427.131 130.592 427.132 131.277V156.037C427.131 156.722 426.859 157.379 426.374 157.863C425.89 158.348 425.233 158.62 424.548 158.621Z" fill="#CCCCCC"/>
<path d="M467.791 176.446H402.906C402.297 176.446 401.712 176.204 401.282 175.773C400.851 175.342 400.609 174.758 400.609 174.149C400.609 173.539 400.851 172.955 401.282 172.524C401.712 172.094 402.297 171.852 402.906 171.852H467.791C468.4 171.852 468.984 172.094 469.415 172.524C469.846 172.955 470.088 173.539 470.088 174.149C470.088 174.758 469.846 175.342 469.415 175.773C468.984 176.204 468.4 176.446 467.791 176.446Z" fill="#CCCCCC"/>
<path d="M467.791 188.509H402.906C402.297 188.509 401.712 188.267 401.282 187.836C400.851 187.405 400.609 186.821 400.609 186.212C400.609 185.602 400.851 185.018 401.282 184.587C401.712 184.157 402.297 183.915 402.906 183.915H467.791C468.4 183.915 468.984 184.157 469.415 184.587C469.846 185.018 470.088 185.602 470.088 186.212C470.088 186.821 469.846 187.405 469.415 187.836C468.984 188.267 468.4 188.509 467.791 188.509Z" fill="#CCCCCC"/>
<path d="M467.791 200.563H402.906C402.297 200.563 401.712 200.321 401.282 199.89C400.851 199.46 400.609 198.875 400.609 198.266C400.609 197.657 400.851 197.073 401.282 196.642C401.712 196.211 402.297 195.969 402.906 195.969H467.791C468.4 195.969 468.984 196.211 469.415 196.642C469.846 197.073 470.088 197.657 470.088 198.266C470.088 198.875 469.846 199.46 469.415 199.89C468.984 200.321 468.4 200.563 467.791 200.563Z" fill="#CCCCCC"/>
<path d="M467.791 212.625H402.906C402.297 212.625 401.712 212.383 401.282 211.952C400.851 211.521 400.609 210.937 400.609 210.328C400.609 209.719 400.851 209.134 401.282 208.704C401.712 208.273 402.297 208.031 402.906 208.031H467.791C468.4 208.031 468.984 208.273 469.415 208.704C469.846 209.134 470.088 209.719 470.088 210.328C470.088 210.937 469.846 211.521 469.415 211.952C468.984 212.383 468.4 212.625 467.791 212.625Z" fill="#CCCCCC"/>
<path d="M467.791 224.681H402.906C402.297 224.681 401.712 224.439 401.282 224.008C400.851 223.577 400.609 222.993 400.609 222.384C400.609 221.775 400.851 221.19 401.282 220.76C401.712 220.329 402.297 220.087 402.906 220.087H467.791C468.4 220.087 468.984 220.329 469.415 220.76C469.846 221.19 470.088 221.775 470.088 222.384C470.088 222.993 469.846 223.577 469.415 224.008C468.984 224.439 468.4 224.681 467.791 224.681Z" fill="#CCCCCC"/>
<path d="M367.436 242.648H501.414C501.597 242.648 501.771 242.576 501.9 242.447C502.029 242.318 502.102 242.143 502.102 241.961C502.102 241.778 502.029 241.604 501.9 241.475C501.771 241.346 501.597 241.273 501.414 241.273H367.436C367.345 241.273 367.256 241.29 367.172 241.324C367.089 241.358 367.013 241.409 366.949 241.472C366.884 241.535 366.833 241.611 366.798 241.694C366.763 241.777 366.745 241.867 366.745 241.957C366.744 242.047 366.761 242.137 366.795 242.22C366.829 242.304 366.88 242.38 366.943 242.444C367.006 242.508 367.082 242.559 367.165 242.594C367.248 242.629 367.338 242.647 367.428 242.648H367.436Z" fill="#CCCCCC"/>
<path d="M165.039 333.621H335.313C335.545 333.621 335.767 333.529 335.931 333.366C336.094 333.202 336.186 332.98 336.186 332.748C336.186 332.517 336.094 332.294 335.931 332.131C335.767 331.967 335.545 331.875 335.313 331.875H165.039C164.807 331.875 164.585 331.967 164.421 332.131C164.258 332.294 164.166 332.517 164.166 332.748C164.166 332.98 164.258 333.202 164.421 333.366C164.585 333.529 164.807 333.621 165.039 333.621Z" fill="#3F3D56"/>
</g>
<defs>
<clipPath id="clip0">
<rect width="730" height="382" fill="white"/>
</clipPath>
</defs>
</svg>
