<svg width="998" height="501" viewBox="0 0 998 501" fill="none" xmlns="http://www.w3.org/2000/svg">
<g opacity="0.29827">
<path d="M1008.08 168.448L1003 -46L443.182 -742.19L28.1096 -765C24.9043 -757.456 4.36709 -735.714 7.57176 -723.596C11.43 -709.102 30.8387 -713.735 36.4776 -704.409C43.0661 -693.42 31.7291 -648.749 28.3457 -635.86C21.8759 -611.445 7.09676 -591.665 2.82235 -567.25C-4.35982 -526.263 10.1824 -529.53 37.7242 -503.927C84.141 -460.742 46.9244 -415.952 58.6176 -365.223C68.1146 -323.878 109.605 -302.554 124.8 -261.211C136.553 -229.37 152.697 -221.233 177.746 -197.947C177.153 -212.084 164.51 -253.785 188.253 -250.102C211.817 -246.478 202.736 -211.669 207.247 -197.115C211.045 -184.997 237.933 -160.761 215.616 -149.593C208.196 -145.91 187.066 -160.582 178.577 -164.503C184.572 -145.791 180.774 -126.367 190.271 -108.487C201.608 -87.162 213.835 -95.3588 228.853 -83.7754C244.344 -71.8355 242.683 -58.1137 235.797 -40.0554C228.615 -21.2247 221.196 -24.1352 232.592 -1.44342C240.843 14.9512 254.85 35.7421 266.9 48.2164C273.904 55.4634 281.502 57.1267 288.506 66.3932C294.323 74.1155 292.067 84.2142 299.012 91.1638C310.883 103.104 331.006 103.282 340.384 118.904C350.831 136.309 338.96 149.437 369.706 147.833C371.309 182.643 377.897 214.185 377.541 248.994C394.695 255.825 422.414 247.687 440.399 244.063C458.266 268.18 481.355 251.429 501.774 264.558C510.678 270.26 508.837 284.517 514.239 289.506C525.339 299.723 533.529 293.308 547.301 296.872C557.51 299.486 565.404 306.97 575.138 309.703C584.338 312.257 599.475 306.258 606.301 314.396C614.492 324.138 600.78 341.958 613.127 349.799C623.395 356.333 638.115 340.77 648.088 343.027C659.721 345.7 693.079 376.174 701.271 386.212C710.59 397.677 719.969 419.062 725.25 433.793C733.501 456.841 732.373 468.127 749.408 484.998C760.27 495.75 749.942 496.522 767.63 499.67C779.204 501.749 794.518 493.374 806.212 492.067C830.549 489.394 855.122 494.027 879.102 489.453C901.421 485.176 922.729 478.166 945.64 474.899C965.465 472.048 1000.37 474.246 1017.94 464.801C1036.99 454.643 1038.71 431.654 1011.17 435.932C1008.97 421.26 1018.77 401.003 1007.85 390.847C1023.04 370.056 1028.56 355.384 1030.93 329.959C1032 318.792 1032.48 306.436 1038 297.05C1043.4 287.783 1058.59 282.259 1061.56 274.299C1066.13 261.943 1058.83 256.419 1053.25 249.528C1049.69 245.073 1039.54 247.212 1036.63 243.291C1031.23 236.103 1036.57 228.678 1033.6 221.431C1024.94 200.462 1014.61 192.205 1008.08 168.444C1008.26 172.424 1008.44 176.463 1008.2 180.384" stroke="white" stroke-width="2" stroke-linecap="round" stroke-linejoin="round"/>
</g>
<path d="M726.114 83.9394C717.546 107.321 737.614 115.526 753.675 130.807C758.434 135.336 758.888 142.817 753.879 147.342C743.107 157.074 704.854 155.745 704.854 155.745C704.854 155.745 693 154 673.5 150.5C654 147 640 169 631.5 172.5C623 176 614.5 178 606.5 175C598.5 172 588.5 167 576 167.5C563.5 168 560.5 168.5 553 170.5C545.5 172.5 527 190 508 184.5C489 179 448 127 439 150.5C430 174 466.5 207.5 433 202C399.5 196.5 367.5 232.02 363 233" stroke="white" stroke-width="2"/>
<path fill-rule="evenodd" clip-rule="evenodd" d="M361.5 240C365.09 240 368 237.09 368 233.5C368 229.91 365.09 227 361.5 227C357.91 227 355 229.91 355 233.5C355 237.09 357.91 240 361.5 240Z" fill="#4AF6CD"/>
<path fill-rule="evenodd" clip-rule="evenodd" d="M658 363C659.657 363 661 361.657 661 360C661 358.343 659.657 357 658 357C656.343 357 655 358.343 655 360C655 361.657 656.343 363 658 363Z" fill="#4AF6CD"/>
<path fill-rule="evenodd" clip-rule="evenodd" d="M722 471C723.657 471 725 469.657 725 468C725 466.343 723.657 465 722 465C720.343 465 719 466.343 719 468C719 469.657 720.343 471 722 471Z" fill="#4AF6CD"/>
<path fill-rule="evenodd" clip-rule="evenodd" d="M571 323C572.657 323 574 321.657 574 320C574 318.343 572.657 317 571 317C569.343 317 568 318.343 568 320C568 321.657 569.343 323 571 323Z" fill="#4AF6CD"/>
<path fill-rule="evenodd" clip-rule="evenodd" d="M726.5 91C730.09 91 733 88.0899 733 84.5C733 80.9101 730.09 78 726.5 78C722.91 78 720 80.9101 720 84.5C720 88.0899 722.91 91 726.5 91Z" fill="#4AF6CD"/>
<path d="M327.062 282H325.03L320.55 272.64C320.614 273.376 320.662 274.059 320.694 274.688C320.737 275.307 320.758 276.059 320.758 276.944V282H319.334V270.976H321.318L325.846 280.352C325.814 280.075 325.772 279.589 325.718 278.896C325.665 278.203 325.638 277.568 325.638 276.992V270.976H327.062V282ZM333.344 273.376C334.528 273.376 335.446 273.771 336.096 274.56C336.758 275.349 337.088 276.421 337.088 277.776C337.088 278.651 336.939 279.424 336.64 280.096C336.342 280.757 335.91 281.275 335.344 281.648C334.779 282.011 334.107 282.192 333.328 282.192C332.144 282.192 331.222 281.797 330.56 281.008C329.899 280.219 329.568 279.147 329.568 277.792C329.568 276.917 329.718 276.149 330.016 275.488C330.315 274.816 330.747 274.299 331.312 273.936C331.878 273.563 332.555 273.376 333.344 273.376ZM333.344 274.56C331.883 274.56 331.152 275.637 331.152 277.792C331.152 279.936 331.878 281.008 333.328 281.008C334.779 281.008 335.504 279.931 335.504 277.776C335.504 275.632 334.784 274.56 333.344 274.56ZM343.184 273.376C343.483 273.376 343.76 273.408 344.016 273.472L343.744 274.912C343.488 274.848 343.243 274.816 343.008 274.816C342.485 274.816 342.064 275.008 341.744 275.392C341.424 275.776 341.173 276.373 340.992 277.184V282H339.52V273.568H340.784L340.928 275.28C341.152 274.651 341.456 274.176 341.84 273.856C342.224 273.536 342.672 273.376 343.184 273.376ZM349.948 281.616C349.393 282 348.764 282.192 348.06 282.192C347.345 282.192 346.785 281.989 346.38 281.584C345.985 281.168 345.788 280.571 345.788 279.792V274.704H344.316V273.568H345.788V271.664L347.26 271.488V273.568H349.26L349.1 274.704H347.26V279.728C347.26 280.165 347.335 280.485 347.484 280.688C347.644 280.88 347.905 280.976 348.268 280.976C348.599 280.976 348.972 280.864 349.388 280.64L349.948 281.616ZM355.441 273.376C356.209 273.376 356.806 273.605 357.233 274.064C357.67 274.523 357.889 275.152 357.889 275.952V282H356.417V276.16C356.417 275.563 356.3 275.141 356.065 274.896C355.841 274.651 355.51 274.528 355.073 274.528C354.636 274.528 354.246 274.656 353.905 274.912C353.564 275.168 353.244 275.531 352.945 276V282H351.473V270.192L352.945 270.032V274.736C353.606 273.829 354.438 273.376 355.441 273.376ZM367.883 270.784C368.619 270.784 369.248 270.891 369.771 271.104C370.293 271.307 370.8 271.627 371.291 272.064L370.459 272.992C370.043 272.661 369.632 272.421 369.227 272.272C368.832 272.112 368.405 272.032 367.947 272.032C367.371 272.032 366.896 272.165 366.523 272.432C366.149 272.699 365.963 273.088 365.963 273.6C365.963 273.92 366.027 274.192 366.155 274.416C366.283 274.629 366.517 274.827 366.859 275.008C367.211 275.189 367.717 275.381 368.379 275.584C369.072 275.797 369.648 276.027 370.107 276.272C370.565 276.517 370.933 276.859 371.211 277.296C371.499 277.723 371.642 278.267 371.642 278.928C371.642 279.568 371.483 280.133 371.163 280.624C370.853 281.115 370.4 281.499 369.803 281.776C369.216 282.053 368.517 282.192 367.707 282.192C366.181 282.192 364.933 281.717 363.963 280.768L364.795 279.84C365.243 280.203 365.696 280.48 366.155 280.672C366.613 280.853 367.125 280.944 367.691 280.944C368.373 280.944 368.939 280.779 369.387 280.448C369.835 280.107 370.059 279.616 370.059 278.976C370.059 278.613 369.989 278.315 369.851 278.08C369.712 277.835 369.472 277.616 369.131 277.424C368.8 277.232 368.315 277.04 367.674 276.848C366.544 276.507 365.717 276.096 365.195 275.616C364.672 275.136 364.411 274.485 364.411 273.664C364.411 273.109 364.555 272.613 364.843 272.176C365.141 271.739 365.552 271.397 366.075 271.152C366.608 270.907 367.211 270.784 367.883 270.784ZM377.769 273.376C378.537 273.376 379.135 273.605 379.561 274.064C379.999 274.523 380.217 275.152 380.217 275.952V282H378.745V276.16C378.745 275.563 378.628 275.141 378.393 274.896C378.169 274.651 377.839 274.528 377.401 274.528C376.964 274.528 376.575 274.656 376.233 274.912C375.892 275.168 375.572 275.531 375.273 276V282H373.801V270.192L375.273 270.032V274.736C375.935 273.829 376.767 273.376 377.769 273.376ZM386.344 273.376C387.528 273.376 388.446 273.771 389.096 274.56C389.758 275.349 390.088 276.421 390.088 277.776C390.088 278.651 389.939 279.424 389.64 280.096C389.342 280.757 388.91 281.275 388.344 281.648C387.779 282.011 387.107 282.192 386.328 282.192C385.144 282.192 384.222 281.797 383.56 281.008C382.899 280.219 382.568 279.147 382.568 277.792C382.568 276.917 382.718 276.149 383.016 275.488C383.315 274.816 383.747 274.299 384.312 273.936C384.878 273.563 385.555 273.376 386.344 273.376ZM386.344 274.56C384.883 274.56 384.152 275.637 384.152 277.792C384.152 279.936 384.878 281.008 386.328 281.008C387.779 281.008 388.504 279.931 388.504 277.776C388.504 275.632 387.784 274.56 386.344 274.56ZM396.184 273.376C396.483 273.376 396.76 273.408 397.016 273.472L396.744 274.912C396.488 274.848 396.243 274.816 396.008 274.816C395.485 274.816 395.064 275.008 394.744 275.392C394.424 275.776 394.173 276.373 393.992 277.184V282H392.52V273.568H393.784L393.928 275.28C394.152 274.651 394.456 274.176 394.84 273.856C395.224 273.536 395.672 273.376 396.184 273.376ZM404.576 277.536C404.576 277.781 404.565 278.032 404.544 278.288H399.168C399.232 279.216 399.466 279.899 399.872 280.336C400.277 280.773 400.8 280.992 401.44 280.992C401.845 280.992 402.218 280.933 402.56 280.816C402.901 280.699 403.258 280.512 403.632 280.256L404.272 281.136C403.376 281.84 402.394 282.192 401.328 282.192C400.154 282.192 399.237 281.808 398.576 281.04C397.925 280.272 397.6 279.216 397.6 277.872C397.6 276.997 397.738 276.224 398.016 275.552C398.304 274.869 398.709 274.336 399.232 273.952C399.765 273.568 400.389 273.376 401.104 273.376C402.224 273.376 403.082 273.744 403.68 274.48C404.277 275.216 404.576 276.235 404.576 277.536ZM403.12 277.104C403.12 276.272 402.954 275.637 402.624 275.2C402.293 274.763 401.797 274.544 401.136 274.544C399.93 274.544 399.274 275.429 399.168 277.2H403.12V277.104ZM413.113 269.184V283.568H412.761V269.184H413.113ZM427.956 282L427.124 279.232H422.948L422.116 282H420.58L424.116 270.976H426.036L429.556 282H427.956ZM423.316 278H426.756L425.044 272.24L423.316 278ZM432.648 273.568V282H431.176V273.568H432.648ZM431.896 269.52C432.206 269.52 432.456 269.616 432.648 269.808C432.84 270 432.936 270.24 432.936 270.528C432.936 270.816 432.84 271.056 432.648 271.248C432.456 271.429 432.206 271.52 431.896 271.52C431.598 271.52 431.352 271.429 431.16 271.248C430.968 271.056 430.872 270.816 430.872 270.528C430.872 270.24 430.968 270 431.16 269.808C431.352 269.616 431.598 269.52 431.896 269.52ZM439.356 273.376C439.655 273.376 439.932 273.408 440.188 273.472L439.916 274.912C439.66 274.848 439.415 274.816 439.18 274.816C438.657 274.816 438.236 275.008 437.916 275.392C437.596 275.776 437.345 276.373 437.164 277.184V282H435.692V273.568H436.956L437.1 275.28C437.324 274.651 437.628 274.176 438.012 273.856C438.396 273.536 438.844 273.376 439.356 273.376ZM443.544 282.192C443 282.192 442.568 282.032 442.248 281.712C441.938 281.381 441.784 280.923 441.784 280.336V270.176L443.256 270V280.304C443.256 280.539 443.293 280.709 443.368 280.816C443.453 280.923 443.592 280.976 443.784 280.976C443.986 280.976 444.168 280.944 444.328 280.88L444.712 281.904C444.36 282.096 443.97 282.192 443.544 282.192ZM448.023 273.568V282H446.551V273.568H448.023ZM447.271 269.52C447.581 269.52 447.831 269.616 448.023 269.808C448.215 270 448.311 270.24 448.311 270.528C448.311 270.816 448.215 271.056 448.023 271.248C447.831 271.429 447.581 271.52 447.271 271.52C446.973 271.52 446.727 271.429 446.535 271.248C446.343 271.056 446.247 270.816 446.247 270.528C446.247 270.24 446.343 270 446.535 269.808C446.727 269.616 446.973 269.52 447.271 269.52ZM457.435 277.536C457.435 277.781 457.424 278.032 457.403 278.288H452.027C452.091 279.216 452.326 279.899 452.731 280.336C453.136 280.773 453.659 280.992 454.299 280.992C454.704 280.992 455.078 280.933 455.419 280.816C455.76 280.699 456.118 280.512 456.491 280.256L457.131 281.136C456.235 281.84 455.254 282.192 454.187 282.192C453.014 282.192 452.096 281.808 451.435 281.04C450.784 280.272 450.459 279.216 450.459 277.872C450.459 276.997 450.598 276.224 450.875 275.552C451.163 274.869 451.568 274.336 452.091 273.952C452.624 273.568 453.248 273.376 453.963 273.376C455.083 273.376 455.942 273.744 456.539 274.48C457.136 275.216 457.435 276.235 457.435 277.536ZM455.979 277.104C455.979 276.272 455.814 275.637 455.483 275.2C455.152 274.763 454.656 274.544 453.995 274.544C452.79 274.544 452.134 275.429 452.027 277.2H455.979V277.104ZM460.17 279.968C460.49 279.968 460.756 280.075 460.97 280.288C461.183 280.501 461.29 280.763 461.29 281.072C461.29 281.403 461.194 281.781 461.002 282.208L459.93 284.656H458.874L459.514 282C459.375 281.893 459.263 281.76 459.178 281.6C459.103 281.44 459.066 281.264 459.066 281.072C459.066 280.763 459.172 280.501 459.386 280.288C459.599 280.075 459.86 279.968 460.17 279.968ZM474.008 281.376C474.594 281.376 475.128 281.467 475.608 281.648C476.088 281.819 476.552 282.059 477 282.368L476.008 283.648C475.368 283.083 474.76 282.693 474.184 282.48C473.608 282.267 472.829 282.16 471.848 282.16C470.93 282.16 470.125 281.947 469.432 281.52C468.738 281.083 468.194 280.443 467.8 279.6C467.416 278.747 467.224 277.717 467.224 276.512C467.224 275.328 467.416 274.304 467.8 273.44C468.194 272.576 468.744 271.92 469.448 271.472C470.152 271.013 470.962 270.784 471.88 270.784C472.808 270.784 473.618 271.008 474.312 271.456C475.016 271.893 475.56 272.539 475.944 273.392C476.338 274.245 476.536 275.28 476.536 276.496C476.536 277.787 476.322 278.816 475.896 279.584C475.469 280.341 474.84 280.939 474.008 281.376ZM468.84 276.512C468.84 278.037 469.106 279.157 469.64 279.872C470.184 280.587 470.93 280.944 471.88 280.944C473.906 280.944 474.92 279.461 474.92 276.496C474.92 273.52 473.906 272.032 471.88 272.032C470.92 272.032 470.173 272.395 469.64 273.12C469.106 273.845 468.84 274.976 468.84 276.512ZM486.558 278.464C486.558 279.2 486.404 279.851 486.094 280.416C485.796 280.971 485.353 281.408 484.766 281.728C484.19 282.037 483.497 282.192 482.686 282.192C481.46 282.192 480.51 281.856 479.838 281.184C479.177 280.501 478.846 279.595 478.846 278.464V270.976H480.366V278.352C480.366 279.205 480.558 279.845 480.942 280.272C481.326 280.699 481.908 280.912 482.686 280.912C483.476 280.912 484.062 280.704 484.446 280.288C484.83 279.861 485.022 279.216 485.022 278.352V270.976H486.558V278.464Z" fill="white"/>
<path d="M595.378 75.784C596.039 75.784 596.594 75.8693 597.042 76.04C597.501 76.2107 597.965 76.488 598.434 76.872L597.602 77.848C596.93 77.304 596.221 77.032 595.474 77.032C594.557 77.032 593.815 77.384 593.25 78.088C592.695 78.792 592.418 79.9227 592.418 81.48C592.418 82.9947 592.695 84.1147 593.25 84.84C593.805 85.5547 594.541 85.912 595.458 85.912C595.927 85.912 596.338 85.832 596.69 85.672C597.042 85.512 597.415 85.288 597.81 85L598.562 85.96C598.221 86.312 597.783 86.6053 597.25 86.84C596.717 87.0747 596.103 87.192 595.41 87.192C594.514 87.192 593.714 86.9733 593.01 86.536C592.317 86.088 591.773 85.4373 591.378 84.584C590.994 83.72 590.802 82.6853 590.802 81.48C590.802 80.2747 591.005 79.2453 591.41 78.392C591.815 77.528 592.365 76.8773 593.058 76.44C593.751 76.0027 594.525 75.784 595.378 75.784ZM606.401 87H605.137L605.025 85.688C604.705 86.2107 604.337 86.5947 603.921 86.84C603.505 87.0747 602.999 87.192 602.401 87.192C601.665 87.192 601.089 86.968 600.673 86.52C600.257 86.072 600.049 85.4373 600.049 84.616V78.568H601.521V84.456C601.521 85.032 601.623 85.4427 601.825 85.688C602.028 85.9227 602.359 86.04 602.817 86.04C603.639 86.04 604.343 85.5547 604.929 84.584V78.568H606.401V87ZM613.106 78.376C613.405 78.376 613.682 78.408 613.938 78.472L613.666 79.912C613.41 79.848 613.165 79.816 612.93 79.816C612.407 79.816 611.986 80.008 611.666 80.392C611.346 80.776 611.095 81.3733 610.914 82.184V87H609.442V78.568H610.706L610.85 80.28C611.074 79.6507 611.378 79.176 611.762 78.856C612.146 78.536 612.594 78.376 613.106 78.376ZM619.278 78.376C619.576 78.376 619.854 78.408 620.11 78.472L619.838 79.912C619.582 79.848 619.336 79.816 619.102 79.816C618.579 79.816 618.158 80.008 617.838 80.392C617.518 80.776 617.267 81.3733 617.086 82.184V87H615.614V78.568H616.878L617.022 80.28C617.246 79.6507 617.55 79.176 617.934 78.856C618.318 78.536 618.766 78.376 619.278 78.376ZM627.669 82.536C627.669 82.7813 627.659 83.032 627.637 83.288H622.261C622.325 84.216 622.56 84.8987 622.965 85.336C623.371 85.7733 623.893 85.992 624.533 85.992C624.939 85.992 625.312 85.9333 625.653 85.816C625.995 85.6987 626.352 85.512 626.725 85.256L627.365 86.136C626.469 86.84 625.488 87.192 624.421 87.192C623.248 87.192 622.331 86.808 621.669 86.04C621.019 85.272 620.693 84.216 620.693 82.872C620.693 81.9973 620.832 81.224 621.109 80.552C621.397 79.8693 621.803 79.336 622.325 78.952C622.859 78.568 623.483 78.376 624.197 78.376C625.317 78.376 626.176 78.744 626.773 79.48C627.371 80.216 627.669 81.2347 627.669 82.536ZM626.213 82.104C626.213 81.272 626.048 80.6373 625.717 80.2C625.387 79.7627 624.891 79.544 624.229 79.544C623.024 79.544 622.368 80.4293 622.261 82.2H626.213V82.104ZM633.988 78.376C634.756 78.376 635.353 78.6053 635.78 79.064C636.217 79.5227 636.436 80.152 636.436 80.952V87H634.964V81.16C634.964 80.5627 634.852 80.1413 634.628 79.896C634.404 79.6507 634.073 79.528 633.636 79.528C633.188 79.528 632.793 79.656 632.452 79.912C632.111 80.168 631.791 80.536 631.492 81.016V87H630.02V78.568H631.284L631.412 79.816C631.711 79.368 632.079 79.016 632.516 78.76C632.964 78.504 633.455 78.376 633.988 78.376ZM643.651 86.616C643.096 87 642.467 87.192 641.763 87.192C641.048 87.192 640.488 86.9893 640.083 86.584C639.688 86.168 639.491 85.5707 639.491 84.792V79.704H638.019V78.568H639.491V76.664L640.963 76.488V78.568H642.963L642.803 79.704H640.963V84.728C640.963 85.1653 641.038 85.4853 641.187 85.688C641.347 85.88 641.608 85.976 641.971 85.976C642.302 85.976 642.675 85.864 643.091 85.64L643.651 86.616ZM651.011 75.976V85.672H655.539L655.363 87H649.491V75.976H651.011ZM660.141 78.376C661.325 78.376 662.242 78.7707 662.893 79.56C663.554 80.3493 663.885 81.4213 663.885 82.776C663.885 83.6507 663.736 84.424 663.437 85.096C663.138 85.7573 662.706 86.2747 662.141 86.648C661.576 87.0107 660.904 87.192 660.125 87.192C658.941 87.192 658.018 86.7973 657.357 86.008C656.696 85.2187 656.365 84.1467 656.365 82.792C656.365 81.9173 656.514 81.1493 656.813 80.488C657.112 79.816 657.544 79.2987 658.109 78.936C658.674 78.5627 659.352 78.376 660.141 78.376ZM660.141 79.56C658.68 79.56 657.949 80.6373 657.949 82.792C657.949 84.936 658.674 86.008 660.125 86.008C661.576 86.008 662.301 84.9307 662.301 82.776C662.301 80.632 661.581 79.56 660.141 79.56ZM669.389 78.376C669.89 78.376 670.349 78.4507 670.765 78.6C671.181 78.7387 671.581 78.968 671.965 79.288L671.261 80.216C670.962 80.0027 670.669 79.848 670.381 79.752C670.104 79.6453 669.794 79.592 669.453 79.592C668.77 79.592 668.237 79.864 667.853 80.408C667.48 80.952 667.293 81.7573 667.293 82.824C667.293 83.8907 667.48 84.68 667.853 85.192C668.226 85.6933 668.76 85.944 669.453 85.944C669.784 85.944 670.088 85.896 670.365 85.8C670.642 85.6933 670.952 85.528 671.293 85.304L671.965 86.264C671.197 86.8827 670.338 87.192 669.389 87.192C668.248 87.192 667.346 86.808 666.685 86.04C666.034 85.272 665.709 84.2107 665.709 82.856C665.709 81.96 665.858 81.176 666.157 80.504C666.456 79.832 666.877 79.3093 667.421 78.936C667.976 78.5627 668.632 78.376 669.389 78.376ZM679.481 85.032C679.481 85.3733 679.54 85.6293 679.657 85.8C679.775 85.96 679.951 86.0827 680.185 86.168L679.849 87.192C679.412 87.1387 679.06 87.016 678.793 86.824C678.527 86.632 678.329 86.3333 678.201 85.928C677.636 86.7707 676.799 87.192 675.689 87.192C674.857 87.192 674.201 86.9573 673.721 86.488C673.241 86.0187 673.001 85.4053 673.001 84.648C673.001 83.752 673.321 83.064 673.961 82.584C674.612 82.104 675.529 81.864 676.713 81.864H678.009V81.24C678.009 80.6427 677.865 80.216 677.577 79.96C677.289 79.704 676.847 79.576 676.249 79.576C675.631 79.576 674.873 79.7253 673.977 80.024L673.609 78.952C674.655 78.568 675.625 78.376 676.521 78.376C677.513 78.376 678.255 78.6213 678.745 79.112C679.236 79.592 679.481 80.28 679.481 81.176V85.032ZM676.025 86.088C676.868 86.088 677.529 85.6507 678.009 84.776V82.84H676.905C675.348 82.84 674.569 83.416 674.569 84.568C674.569 85.0693 674.692 85.448 674.937 85.704C675.183 85.96 675.545 86.088 676.025 86.088ZM686.76 86.616C686.206 87 685.576 87.192 684.872 87.192C684.158 87.192 683.598 86.9893 683.192 86.584C682.798 86.168 682.6 85.5707 682.6 84.792V79.704H681.128V78.568H682.6V76.664L684.072 76.488V78.568H686.072L685.912 79.704H684.072V84.728C684.072 85.1653 684.147 85.4853 684.296 85.688C684.456 85.88 684.718 85.976 685.08 85.976C685.411 85.976 685.784 85.864 686.2 85.64L686.76 86.616ZM689.758 78.568V87H688.286V78.568H689.758ZM689.006 74.52C689.315 74.52 689.566 74.616 689.758 74.808C689.95 75 690.046 75.24 690.046 75.528C690.046 75.816 689.95 76.056 689.758 76.248C689.566 76.4293 689.315 76.52 689.006 76.52C688.707 76.52 688.462 76.4293 688.27 76.248C688.078 76.056 687.982 75.816 687.982 75.528C687.982 75.24 688.078 75 688.27 74.808C688.462 74.616 688.707 74.52 689.006 74.52ZM695.969 78.376C697.153 78.376 698.071 78.7707 698.721 79.56C699.383 80.3493 699.713 81.4213 699.713 82.776C699.713 83.6507 699.564 84.424 699.265 85.096C698.967 85.7573 698.535 86.2747 697.969 86.648C697.404 87.0107 696.732 87.192 695.953 87.192C694.769 87.192 693.847 86.7973 693.185 86.008C692.524 85.2187 692.193 84.1467 692.193 82.792C692.193 81.9173 692.343 81.1493 692.641 80.488C692.94 79.816 693.372 79.2987 693.937 78.936C694.503 78.5627 695.18 78.376 695.969 78.376ZM695.969 79.56C694.508 79.56 693.777 80.6373 693.777 82.792C693.777 84.936 694.503 86.008 695.953 86.008C697.404 86.008 698.129 84.9307 698.129 82.776C698.129 80.632 697.409 79.56 695.969 79.56ZM706.113 78.376C706.881 78.376 707.478 78.6053 707.905 79.064C708.342 79.5227 708.561 80.152 708.561 80.952V87H707.089V81.16C707.089 80.5627 706.977 80.1413 706.753 79.896C706.529 79.6507 706.198 79.528 705.761 79.528C705.313 79.528 704.918 79.656 704.577 79.912C704.236 80.168 703.916 80.536 703.617 81.016V87H702.145V78.568H703.409L703.537 79.816C703.836 79.368 704.204 79.016 704.641 78.76C705.089 78.504 705.58 78.376 706.113 78.376Z" fill="white"/>
</svg>
