<svg width="998" height="501" viewBox="0 0 998 501" fill="none" xmlns="http://www.w3.org/2000/svg">
<g opacity="0.29827">
<path d="M1008.08 168.448L1003 -46L443.182 -742.19L28.1096 -765C24.9043 -757.456 4.36709 -735.714 7.57176 -723.596C11.43 -709.102 30.8387 -713.735 36.4776 -704.409C43.0661 -693.42 31.7291 -648.749 28.3457 -635.86C21.8759 -611.445 7.09676 -591.665 2.82235 -567.25C-4.35982 -526.263 10.1824 -529.53 37.7242 -503.927C84.141 -460.742 46.9244 -415.952 58.6176 -365.223C68.1146 -323.878 109.605 -302.554 124.8 -261.211C136.553 -229.37 152.697 -221.233 177.746 -197.947C177.153 -212.084 164.51 -253.785 188.253 -250.102C211.817 -246.478 202.736 -211.669 207.247 -197.115C211.045 -184.997 237.933 -160.761 215.616 -149.593C208.196 -145.91 187.066 -160.582 178.577 -164.503C184.572 -145.791 180.774 -126.367 190.271 -108.487C201.608 -87.162 213.835 -95.3588 228.853 -83.7754C244.344 -71.8355 242.683 -58.1137 235.797 -40.0554C228.615 -21.2247 221.196 -24.1352 232.592 -1.44342C240.843 14.9512 254.85 35.7421 266.9 48.2164C273.904 55.4634 281.502 57.1267 288.506 66.3932C294.323 74.1155 292.067 84.2142 299.012 91.1638C310.883 103.104 331.006 103.282 340.384 118.904C350.831 136.309 338.96 149.437 369.706 147.833C371.309 182.643 377.897 214.185 377.541 248.994C394.695 255.825 422.414 247.687 440.399 244.063C458.266 268.18 481.355 251.429 501.774 264.558C510.678 270.26 508.837 284.517 514.239 289.506C525.339 299.723 533.529 293.308 547.301 296.872C557.51 299.486 565.404 306.97 575.138 309.703C584.338 312.257 599.475 306.258 606.301 314.396C614.492 324.138 600.78 341.958 613.127 349.799C623.395 356.333 638.115 340.77 648.088 343.027C659.721 345.7 693.079 376.174 701.271 386.212C710.59 397.677 719.969 419.062 725.25 433.793C733.501 456.841 732.373 468.127 749.408 484.998C760.27 495.75 749.942 496.522 767.63 499.67C779.204 501.749 794.518 493.374 806.212 492.067C830.549 489.394 855.122 494.027 879.102 489.453C901.421 485.176 922.729 478.166 945.64 474.899C965.465 472.048 1000.37 474.246 1017.94 464.801C1036.99 454.643 1038.71 431.654 1011.17 435.932C1008.97 421.26 1018.77 401.003 1007.85 390.847C1023.04 370.056 1028.56 355.384 1030.93 329.959C1032 318.792 1032.48 306.436 1038 297.05C1043.4 287.783 1058.59 282.259 1061.56 274.299C1066.13 261.943 1058.83 256.419 1053.25 249.528C1049.69 245.073 1039.54 247.212 1036.63 243.291C1031.23 236.103 1036.57 228.678 1033.6 221.431C1024.94 200.462 1014.61 192.205 1008.08 168.444C1008.26 172.424 1008.44 176.463 1008.2 180.384" stroke="white" stroke-width="2" stroke-linecap="round" stroke-linejoin="round"/>
</g>
<path d="M726.115 83.9394C717.546 107.321 737.614 115.526 753.675 130.807C758.435 135.336 758.889 142.817 753.879 147.342C743.107 157.074 704.855 155 704.855 155C704.855 155 693 154 673.5 150.5C654 147 640.5 146 629.5 147.342C618.5 148.685 595.5 161.5 608.5 187C621.5 212.5 646.709 240.5 704.855 231.5C763 222.5 844.5 236.985 861 244.5C877.5 252.015 987 281.5 963.5 324.5C940 367.5 779 280.5 762 336.5C745 392.5 808 403.5 799 429.5C790 455.5 726.5 466.02 722 467" stroke="white" stroke-width="2"/>
<path fill-rule="evenodd" clip-rule="evenodd" d="M721.5 475C725.09 475 728 472.09 728 468.5C728 464.91 725.09 462 721.5 462C717.91 462 715 464.91 715 468.5C715 472.09 717.91 475 721.5 475Z" fill="#4AF6CD"/>
<path fill-rule="evenodd" clip-rule="evenodd" d="M658 363C659.657 363 661 361.657 661 360C661 358.343 659.657 357 658 357C656.343 357 655 358.343 655 360C655 361.657 656.343 363 658 363Z" fill="#4AF6CD"/>
<path fill-rule="evenodd" clip-rule="evenodd" d="M366 236C367.657 236 369 234.657 369 233C369 231.343 367.657 230 366 230C364.343 230 363 231.343 363 233C363 234.657 364.343 236 366 236Z" fill="#4AF6CD"/>
<path fill-rule="evenodd" clip-rule="evenodd" d="M571 323C572.657 323 574 321.657 574 320C574 318.343 572.657 317 571 317C569.343 317 568 318.343 568 320C568 321.657 569.343 323 571 323Z" fill="#4AF6CD"/>
<path fill-rule="evenodd" clip-rule="evenodd" d="M726.5 91C730.09 91 733 88.0899 733 84.5C733 80.9101 730.09 78 726.5 78C722.91 78 720 80.9101 720 84.5C720 88.0899 722.91 91 726.5 91Z" fill="#4AF6CD"/>
<path d="M547.492 464.784C548.228 464.784 548.857 464.891 549.38 465.104C549.903 465.307 550.409 465.627 550.9 466.064L550.068 466.992C549.652 466.661 549.241 466.421 548.836 466.272C548.441 466.112 548.015 466.032 547.556 466.032C546.98 466.032 546.505 466.165 546.132 466.432C545.759 466.699 545.572 467.088 545.572 467.6C545.572 467.92 545.636 468.192 545.764 468.416C545.892 468.629 546.127 468.827 546.468 469.008C546.82 469.189 547.327 469.381 547.988 469.584C548.681 469.797 549.257 470.027 549.716 470.272C550.175 470.517 550.543 470.859 550.82 471.296C551.108 471.723 551.252 472.267 551.252 472.928C551.252 473.568 551.092 474.133 550.772 474.624C550.463 475.115 550.009 475.499 549.412 475.776C548.825 476.053 548.127 476.192 547.316 476.192C545.791 476.192 544.543 475.717 543.572 474.768L544.404 473.84C544.852 474.203 545.305 474.48 545.764 474.672C546.223 474.853 546.735 474.944 547.3 474.944C547.983 474.944 548.548 474.779 548.996 474.448C549.444 474.107 549.668 473.616 549.668 472.976C549.668 472.613 549.599 472.315 549.46 472.08C549.321 471.835 549.081 471.616 548.74 471.424C548.409 471.232 547.924 471.04 547.284 470.848C546.153 470.507 545.327 470.096 544.804 469.616C544.281 469.136 544.02 468.485 544.02 467.664C544.02 467.109 544.164 466.613 544.452 466.176C544.751 465.739 545.161 465.397 545.684 465.152C546.217 464.907 546.82 464.784 547.492 464.784ZM556.579 467.376C557.763 467.376 558.68 467.771 559.331 468.56C559.992 469.349 560.323 470.421 560.323 471.776C560.323 472.651 560.173 473.424 559.875 474.096C559.576 474.757 559.144 475.275 558.579 475.648C558.013 476.011 557.341 476.192 556.563 476.192C555.379 476.192 554.456 475.797 553.795 475.008C553.133 474.219 552.803 473.147 552.803 471.792C552.803 470.917 552.952 470.149 553.251 469.488C553.549 468.816 553.981 468.299 554.547 467.936C555.112 467.563 555.789 467.376 556.579 467.376ZM556.579 468.56C555.117 468.56 554.387 469.637 554.387 471.792C554.387 473.936 555.112 475.008 556.563 475.008C558.013 475.008 558.739 473.931 558.739 471.776C558.739 469.632 558.019 468.56 556.579 468.56ZM569.026 476H567.762L567.65 474.688C567.33 475.211 566.962 475.595 566.546 475.84C566.13 476.075 565.624 476.192 565.026 476.192C564.29 476.192 563.714 475.968 563.298 475.52C562.882 475.072 562.674 474.437 562.674 473.616V467.568H564.146V473.456C564.146 474.032 564.248 474.443 564.45 474.688C564.653 474.923 564.984 475.04 565.442 475.04C566.264 475.04 566.968 474.555 567.554 473.584V467.568H569.026V476ZM576.323 475.616C575.768 476 575.139 476.192 574.435 476.192C573.72 476.192 573.16 475.989 572.755 475.584C572.36 475.168 572.163 474.571 572.163 473.792V468.704H570.691V467.568H572.163V465.664L573.635 465.488V467.568H575.635L575.475 468.704H573.635V473.728C573.635 474.165 573.71 474.485 573.859 474.688C574.019 474.88 574.28 474.976 574.643 474.976C574.974 474.976 575.347 474.864 575.763 474.64L576.323 475.616ZM581.816 467.376C582.584 467.376 583.181 467.605 583.608 468.064C584.045 468.523 584.264 469.152 584.264 469.952V476H582.792V470.16C582.792 469.563 582.675 469.141 582.44 468.896C582.216 468.651 581.885 468.528 581.448 468.528C581.011 468.528 580.621 468.656 580.28 468.912C579.939 469.168 579.619 469.531 579.32 470V476H577.848V464.192L579.32 464.032V468.736C579.981 467.829 580.813 467.376 581.816 467.376ZM594.258 464.784C594.994 464.784 595.623 464.891 596.146 465.104C596.668 465.307 597.175 465.627 597.666 466.064L596.834 466.992C596.418 466.661 596.007 466.421 595.602 466.272C595.207 466.112 594.78 466.032 594.322 466.032C593.746 466.032 593.271 466.165 592.898 466.432C592.524 466.699 592.338 467.088 592.338 467.6C592.338 467.92 592.402 468.192 592.53 468.416C592.658 468.629 592.892 468.827 593.234 469.008C593.586 469.189 594.092 469.381 594.754 469.584C595.447 469.797 596.023 470.027 596.482 470.272C596.94 470.517 597.308 470.859 597.586 471.296C597.874 471.723 598.017 472.267 598.017 472.928C598.017 473.568 597.858 474.133 597.538 474.624C597.228 475.115 596.775 475.499 596.178 475.776C595.591 476.053 594.892 476.192 594.082 476.192C592.556 476.192 591.308 475.717 590.338 474.768L591.17 473.84C591.618 474.203 592.071 474.48 592.53 474.672C592.988 474.853 593.5 474.944 594.066 474.944C594.748 474.944 595.314 474.779 595.762 474.448C596.21 474.107 596.434 473.616 596.434 472.976C596.434 472.613 596.364 472.315 596.226 472.08C596.087 471.835 595.847 471.616 595.506 471.424C595.175 471.232 594.69 471.04 594.049 470.848C592.919 470.507 592.092 470.096 591.57 469.616C591.047 469.136 590.786 468.485 590.786 467.664C590.786 467.109 590.93 466.613 591.218 466.176C591.516 465.739 591.927 465.397 592.45 465.152C592.983 464.907 593.586 464.784 594.258 464.784ZM604.144 467.376C604.912 467.376 605.51 467.605 605.936 468.064C606.374 468.523 606.592 469.152 606.592 469.952V476H605.12V470.16C605.12 469.563 605.003 469.141 604.768 468.896C604.544 468.651 604.214 468.528 603.776 468.528C603.339 468.528 602.95 468.656 602.608 468.912C602.267 469.168 601.947 469.531 601.648 470V476H600.176V464.192L601.648 464.032V468.736C602.31 467.829 603.142 467.376 604.144 467.376ZM612.719 467.376C613.903 467.376 614.821 467.771 615.471 468.56C616.133 469.349 616.463 470.421 616.463 471.776C616.463 472.651 616.314 473.424 616.015 474.096C615.717 474.757 615.285 475.275 614.719 475.648C614.154 476.011 613.482 476.192 612.703 476.192C611.519 476.192 610.597 475.797 609.935 475.008C609.274 474.219 608.943 473.147 608.943 471.792C608.943 470.917 609.093 470.149 609.391 469.488C609.69 468.816 610.122 468.299 610.687 467.936C611.253 467.563 611.93 467.376 612.719 467.376ZM612.719 468.56C611.258 468.56 610.527 469.637 610.527 471.792C610.527 473.936 611.253 475.008 612.703 475.008C614.154 475.008 614.879 473.931 614.879 471.776C614.879 469.632 614.159 468.56 612.719 468.56ZM622.559 467.376C622.858 467.376 623.135 467.408 623.391 467.472L623.119 468.912C622.863 468.848 622.618 468.816 622.383 468.816C621.86 468.816 621.439 469.008 621.119 469.392C620.799 469.776 620.548 470.373 620.367 471.184V476H618.895V467.568H620.159L620.303 469.28C620.527 468.651 620.831 468.176 621.215 467.856C621.599 467.536 622.047 467.376 622.559 467.376ZM630.951 471.536C630.951 471.781 630.94 472.032 630.919 472.288H625.543C625.607 473.216 625.841 473.899 626.247 474.336C626.652 474.773 627.175 474.992 627.815 474.992C628.22 474.992 628.593 474.933 628.935 474.816C629.276 474.699 629.633 474.512 630.007 474.256L630.647 475.136C629.751 475.84 628.769 476.192 627.703 476.192C626.529 476.192 625.612 475.808 624.951 475.04C624.3 474.272 623.975 473.216 623.975 471.872C623.975 470.997 624.113 470.224 624.391 469.552C624.679 468.869 625.084 468.336 625.607 467.952C626.14 467.568 626.764 467.376 627.479 467.376C628.599 467.376 629.457 467.744 630.055 468.48C630.652 469.216 630.951 470.235 630.951 471.536ZM629.495 471.104C629.495 470.272 629.329 469.637 628.999 469.2C628.668 468.763 628.172 468.544 627.511 468.544C626.305 468.544 625.649 469.429 625.543 471.2H629.495V471.104ZM639.488 463.184V477.568H639.136V463.184H639.488ZM652.315 464.784C652.977 464.784 653.531 464.869 653.979 465.04C654.438 465.211 654.902 465.488 655.371 465.872L654.539 466.848C653.867 466.304 653.158 466.032 652.411 466.032C651.494 466.032 650.753 466.384 650.187 467.088C649.633 467.792 649.355 468.923 649.355 470.48C649.355 471.995 649.633 473.115 650.187 473.84C650.742 474.555 651.478 474.912 652.395 474.912C652.865 474.912 653.275 474.832 653.627 474.672C653.979 474.512 654.353 474.288 654.747 474L655.499 474.96C655.158 475.312 654.721 475.605 654.187 475.84C653.654 476.075 653.041 476.192 652.347 476.192C651.451 476.192 650.651 475.973 649.947 475.536C649.254 475.088 648.71 474.437 648.315 473.584C647.931 472.72 647.739 471.685 647.739 470.48C647.739 469.275 647.942 468.245 648.347 467.392C648.753 466.528 649.302 465.877 649.995 465.44C650.689 465.003 651.462 464.784 652.315 464.784ZM658.856 476.192C658.312 476.192 657.88 476.032 657.56 475.712C657.251 475.381 657.096 474.923 657.096 474.336V464.176L658.568 464V474.304C658.568 474.539 658.606 474.709 658.68 474.816C658.766 474.923 658.904 474.976 659.096 474.976C659.299 474.976 659.48 474.944 659.64 474.88L660.024 475.904C659.672 476.096 659.283 476.192 658.856 476.192ZM664.954 467.376C666.138 467.376 667.055 467.771 667.706 468.56C668.367 469.349 668.698 470.421 668.698 471.776C668.698 472.651 668.548 473.424 668.25 474.096C667.951 474.757 667.519 475.275 666.954 475.648C666.388 476.011 665.716 476.192 664.938 476.192C663.754 476.192 662.831 475.797 662.17 475.008C661.508 474.219 661.178 473.147 661.178 471.792C661.178 470.917 661.327 470.149 661.626 469.488C661.924 468.816 662.356 468.299 662.922 467.936C663.487 467.563 664.164 467.376 664.954 467.376ZM664.954 468.56C663.492 468.56 662.762 469.637 662.762 471.792C662.762 473.936 663.487 475.008 664.938 475.008C666.388 475.008 667.114 473.931 667.114 471.776C667.114 469.632 666.394 468.56 664.954 468.56ZM677.401 476H676.137L676.025 474.688C675.705 475.211 675.337 475.595 674.921 475.84C674.505 476.075 673.999 476.192 673.401 476.192C672.665 476.192 672.089 475.968 671.673 475.52C671.257 475.072 671.049 474.437 671.049 473.616V467.568H672.521V473.456C672.521 474.032 672.623 474.443 672.825 474.688C673.028 474.923 673.359 475.04 673.817 475.04C674.639 475.04 675.343 474.555 675.929 473.584V467.568H677.401V476ZM686.97 464.176V476H685.674L685.53 474.832C685.253 475.259 684.906 475.595 684.49 475.84C684.074 476.075 683.61 476.192 683.098 476.192C682.095 476.192 681.311 475.797 680.746 475.008C680.191 474.219 679.914 473.157 679.914 471.824C679.914 470.96 680.047 470.192 680.314 469.52C680.581 468.848 680.965 468.325 681.466 467.952C681.967 467.568 682.554 467.376 683.226 467.376C684.09 467.376 684.847 467.723 685.498 468.416V464L686.97 464.176ZM683.418 475.024C683.866 475.024 684.25 474.923 684.57 474.72C684.89 474.507 685.199 474.192 685.498 473.776V469.648C685.221 469.285 684.922 469.013 684.602 468.832C684.293 468.64 683.941 468.544 683.546 468.544C682.895 468.544 682.389 468.816 682.026 469.36C681.674 469.904 681.498 470.715 681.498 471.792C681.498 472.88 681.663 473.691 681.994 474.224C682.325 474.757 682.799 475.024 683.418 475.024ZM690.388 473.968C690.708 473.968 690.975 474.075 691.188 474.288C691.402 474.501 691.508 474.763 691.508 475.072C691.508 475.403 691.412 475.781 691.22 476.208L690.148 478.656H689.092L689.732 476C689.594 475.893 689.482 475.76 689.396 475.6C689.322 475.44 689.284 475.264 689.284 475.072C689.284 474.763 689.391 474.501 689.604 474.288C689.818 474.075 690.079 473.968 690.388 473.968ZM700.883 464.784C701.619 464.784 702.248 464.891 702.771 465.104C703.293 465.307 703.8 465.627 704.291 466.064L703.459 466.992C703.043 466.661 702.632 466.421 702.227 466.272C701.832 466.112 701.405 466.032 700.947 466.032C700.371 466.032 699.896 466.165 699.523 466.432C699.149 466.699 698.963 467.088 698.963 467.6C698.963 467.92 699.027 468.192 699.155 468.416C699.283 468.629 699.517 468.827 699.859 469.008C700.211 469.189 700.717 469.381 701.379 469.584C702.072 469.797 702.648 470.027 703.107 470.272C703.565 470.517 703.933 470.859 704.211 471.296C704.499 471.723 704.642 472.267 704.642 472.928C704.642 473.568 704.483 474.133 704.163 474.624C703.853 475.115 703.4 475.499 702.803 475.776C702.216 476.053 701.517 476.192 700.707 476.192C699.181 476.192 697.933 475.717 696.963 474.768L697.795 473.84C698.243 474.203 698.696 474.48 699.155 474.672C699.613 474.853 700.125 474.944 700.691 474.944C701.373 474.944 701.939 474.779 702.387 474.448C702.835 474.107 703.059 473.616 703.059 472.976C703.059 472.613 702.989 472.315 702.851 472.08C702.712 471.835 702.472 471.616 702.131 471.424C701.8 471.232 701.315 471.04 700.674 470.848C699.544 470.507 698.717 470.096 698.195 469.616C697.672 469.136 697.411 468.485 697.411 467.664C697.411 467.109 697.555 466.613 697.843 466.176C698.141 465.739 698.552 465.397 699.075 465.152C699.608 464.907 700.211 464.784 700.883 464.784ZM708.401 464.976V476H706.881V464.976H708.401Z" fill="white"/>
<path d="M595.378 75.784C596.039 75.784 596.594 75.8693 597.042 76.04C597.501 76.2107 597.965 76.488 598.434 76.872L597.602 77.848C596.93 77.304 596.221 77.032 595.474 77.032C594.557 77.032 593.815 77.384 593.25 78.088C592.695 78.792 592.418 79.9227 592.418 81.48C592.418 82.9947 592.695 84.1147 593.25 84.84C593.805 85.5547 594.541 85.912 595.458 85.912C595.927 85.912 596.338 85.832 596.69 85.672C597.042 85.512 597.415 85.288 597.81 85L598.562 85.96C598.221 86.312 597.783 86.6053 597.25 86.84C596.717 87.0747 596.103 87.192 595.41 87.192C594.514 87.192 593.714 86.9733 593.01 86.536C592.317 86.088 591.773 85.4373 591.378 84.584C590.994 83.72 590.802 82.6853 590.802 81.48C590.802 80.2747 591.005 79.2453 591.41 78.392C591.815 77.528 592.365 76.8773 593.058 76.44C593.751 76.0027 594.525 75.784 595.378 75.784ZM606.401 87H605.137L605.025 85.688C604.705 86.2107 604.337 86.5947 603.921 86.84C603.505 87.0747 602.999 87.192 602.401 87.192C601.665 87.192 601.089 86.968 600.673 86.52C600.257 86.072 600.049 85.4373 600.049 84.616V78.568H601.521V84.456C601.521 85.032 601.623 85.4427 601.825 85.688C602.028 85.9227 602.359 86.04 602.817 86.04C603.639 86.04 604.343 85.5547 604.929 84.584V78.568H606.401V87ZM613.106 78.376C613.405 78.376 613.682 78.408 613.938 78.472L613.666 79.912C613.41 79.848 613.165 79.816 612.93 79.816C612.407 79.816 611.986 80.008 611.666 80.392C611.346 80.776 611.095 81.3733 610.914 82.184V87H609.442V78.568H610.706L610.85 80.28C611.074 79.6507 611.378 79.176 611.762 78.856C612.146 78.536 612.594 78.376 613.106 78.376ZM619.278 78.376C619.576 78.376 619.854 78.408 620.11 78.472L619.838 79.912C619.582 79.848 619.336 79.816 619.102 79.816C618.579 79.816 618.158 80.008 617.838 80.392C617.518 80.776 617.267 81.3733 617.086 82.184V87H615.614V78.568H616.878L617.022 80.28C617.246 79.6507 617.55 79.176 617.934 78.856C618.318 78.536 618.766 78.376 619.278 78.376ZM627.669 82.536C627.669 82.7813 627.659 83.032 627.637 83.288H622.261C622.325 84.216 622.56 84.8987 622.965 85.336C623.371 85.7733 623.893 85.992 624.533 85.992C624.939 85.992 625.312 85.9333 625.653 85.816C625.995 85.6987 626.352 85.512 626.725 85.256L627.365 86.136C626.469 86.84 625.488 87.192 624.421 87.192C623.248 87.192 622.331 86.808 621.669 86.04C621.019 85.272 620.693 84.216 620.693 82.872C620.693 81.9973 620.832 81.224 621.109 80.552C621.397 79.8693 621.803 79.336 622.325 78.952C622.859 78.568 623.483 78.376 624.197 78.376C625.317 78.376 626.176 78.744 626.773 79.48C627.371 80.216 627.669 81.2347 627.669 82.536ZM626.213 82.104C626.213 81.272 626.048 80.6373 625.717 80.2C625.387 79.7627 624.891 79.544 624.229 79.544C623.024 79.544 622.368 80.4293 622.261 82.2H626.213V82.104ZM633.988 78.376C634.756 78.376 635.353 78.6053 635.78 79.064C636.217 79.5227 636.436 80.152 636.436 80.952V87H634.964V81.16C634.964 80.5627 634.852 80.1413 634.628 79.896C634.404 79.6507 634.073 79.528 633.636 79.528C633.188 79.528 632.793 79.656 632.452 79.912C632.111 80.168 631.791 80.536 631.492 81.016V87H630.02V78.568H631.284L631.412 79.816C631.711 79.368 632.079 79.016 632.516 78.76C632.964 78.504 633.455 78.376 633.988 78.376ZM643.651 86.616C643.096 87 642.467 87.192 641.763 87.192C641.048 87.192 640.488 86.9893 640.083 86.584C639.688 86.168 639.491 85.5707 639.491 84.792V79.704H638.019V78.568H639.491V76.664L640.963 76.488V78.568H642.963L642.803 79.704H640.963V84.728C640.963 85.1653 641.038 85.4853 641.187 85.688C641.347 85.88 641.608 85.976 641.971 85.976C642.302 85.976 642.675 85.864 643.091 85.64L643.651 86.616ZM651.011 75.976V85.672H655.539L655.363 87H649.491V75.976H651.011ZM660.141 78.376C661.325 78.376 662.242 78.7707 662.893 79.56C663.554 80.3493 663.885 81.4213 663.885 82.776C663.885 83.6507 663.736 84.424 663.437 85.096C663.138 85.7573 662.706 86.2747 662.141 86.648C661.576 87.0107 660.904 87.192 660.125 87.192C658.941 87.192 658.018 86.7973 657.357 86.008C656.696 85.2187 656.365 84.1467 656.365 82.792C656.365 81.9173 656.514 81.1493 656.813 80.488C657.112 79.816 657.544 79.2987 658.109 78.936C658.674 78.5627 659.352 78.376 660.141 78.376ZM660.141 79.56C658.68 79.56 657.949 80.6373 657.949 82.792C657.949 84.936 658.674 86.008 660.125 86.008C661.576 86.008 662.301 84.9307 662.301 82.776C662.301 80.632 661.581 79.56 660.141 79.56ZM669.389 78.376C669.89 78.376 670.349 78.4507 670.765 78.6C671.181 78.7387 671.581 78.968 671.965 79.288L671.261 80.216C670.962 80.0027 670.669 79.848 670.381 79.752C670.104 79.6453 669.794 79.592 669.453 79.592C668.77 79.592 668.237 79.864 667.853 80.408C667.48 80.952 667.293 81.7573 667.293 82.824C667.293 83.8907 667.48 84.68 667.853 85.192C668.226 85.6933 668.76 85.944 669.453 85.944C669.784 85.944 670.088 85.896 670.365 85.8C670.642 85.6933 670.952 85.528 671.293 85.304L671.965 86.264C671.197 86.8827 670.338 87.192 669.389 87.192C668.248 87.192 667.346 86.808 666.685 86.04C666.034 85.272 665.709 84.2107 665.709 82.856C665.709 81.96 665.858 81.176 666.157 80.504C666.456 79.832 666.877 79.3093 667.421 78.936C667.976 78.5627 668.632 78.376 669.389 78.376ZM679.481 85.032C679.481 85.3733 679.54 85.6293 679.657 85.8C679.775 85.96 679.951 86.0827 680.185 86.168L679.849 87.192C679.412 87.1387 679.06 87.016 678.793 86.824C678.527 86.632 678.329 86.3333 678.201 85.928C677.636 86.7707 676.799 87.192 675.689 87.192C674.857 87.192 674.201 86.9573 673.721 86.488C673.241 86.0187 673.001 85.4053 673.001 84.648C673.001 83.752 673.321 83.064 673.961 82.584C674.612 82.104 675.529 81.864 676.713 81.864H678.009V81.24C678.009 80.6427 677.865 80.216 677.577 79.96C677.289 79.704 676.847 79.576 676.249 79.576C675.631 79.576 674.873 79.7253 673.977 80.024L673.609 78.952C674.655 78.568 675.625 78.376 676.521 78.376C677.513 78.376 678.255 78.6213 678.745 79.112C679.236 79.592 679.481 80.28 679.481 81.176V85.032ZM676.025 86.088C676.868 86.088 677.529 85.6507 678.009 84.776V82.84H676.905C675.348 82.84 674.569 83.416 674.569 84.568C674.569 85.0693 674.692 85.448 674.937 85.704C675.183 85.96 675.545 86.088 676.025 86.088ZM686.76 86.616C686.206 87 685.576 87.192 684.872 87.192C684.158 87.192 683.598 86.9893 683.192 86.584C682.798 86.168 682.6 85.5707 682.6 84.792V79.704H681.128V78.568H682.6V76.664L684.072 76.488V78.568H686.072L685.912 79.704H684.072V84.728C684.072 85.1653 684.147 85.4853 684.296 85.688C684.456 85.88 684.718 85.976 685.08 85.976C685.411 85.976 685.784 85.864 686.2 85.64L686.76 86.616ZM689.758 78.568V87H688.286V78.568H689.758ZM689.006 74.52C689.315 74.52 689.566 74.616 689.758 74.808C689.95 75 690.046 75.24 690.046 75.528C690.046 75.816 689.95 76.056 689.758 76.248C689.566 76.4293 689.315 76.52 689.006 76.52C688.707 76.52 688.462 76.4293 688.27 76.248C688.078 76.056 687.982 75.816 687.982 75.528C687.982 75.24 688.078 75 688.27 74.808C688.462 74.616 688.707 74.52 689.006 74.52ZM695.969 78.376C697.153 78.376 698.071 78.7707 698.721 79.56C699.383 80.3493 699.713 81.4213 699.713 82.776C699.713 83.6507 699.564 84.424 699.265 85.096C698.967 85.7573 698.535 86.2747 697.969 86.648C697.404 87.0107 696.732 87.192 695.953 87.192C694.769 87.192 693.847 86.7973 693.185 86.008C692.524 85.2187 692.193 84.1467 692.193 82.792C692.193 81.9173 692.343 81.1493 692.641 80.488C692.94 79.816 693.372 79.2987 693.937 78.936C694.503 78.5627 695.18 78.376 695.969 78.376ZM695.969 79.56C694.508 79.56 693.777 80.6373 693.777 82.792C693.777 84.936 694.503 86.008 695.953 86.008C697.404 86.008 698.129 84.9307 698.129 82.776C698.129 80.632 697.409 79.56 695.969 79.56ZM706.113 78.376C706.881 78.376 707.478 78.6053 707.905 79.064C708.342 79.5227 708.561 80.152 708.561 80.952V87H707.089V81.16C707.089 80.5627 706.977 80.1413 706.753 79.896C706.529 79.6507 706.198 79.528 705.761 79.528C705.313 79.528 704.918 79.656 704.577 79.912C704.236 80.168 703.916 80.536 703.617 81.016V87H702.145V78.568H703.409L703.537 79.816C703.836 79.368 704.204 79.016 704.641 78.76C705.089 78.504 705.58 78.376 706.113 78.376Z" fill="white"/>
</svg>
