<svg width="998" height="501" viewBox="0 0 998 501" fill="none" xmlns="http://www.w3.org/2000/svg">
<g opacity="0.29827">
<path d="M1008.08 168.448L1003 -46L443.182 -742.19L28.1096 -765C24.9043 -757.456 4.36709 -735.714 7.57176 -723.596C11.43 -709.102 30.8387 -713.735 36.4776 -704.409C43.0661 -693.42 31.7291 -648.749 28.3457 -635.86C21.8759 -611.445 7.09676 -591.665 2.82235 -567.25C-4.35982 -526.263 10.1824 -529.53 37.7242 -503.927C84.141 -460.742 46.9244 -415.952 58.6176 -365.223C68.1146 -323.878 109.605 -302.554 124.8 -261.211C136.553 -229.37 152.697 -221.233 177.746 -197.947C177.153 -212.084 164.51 -253.785 188.253 -250.102C211.817 -246.478 202.736 -211.669 207.247 -197.115C211.045 -184.997 237.933 -160.761 215.616 -149.593C208.196 -145.91 187.066 -160.582 178.577 -164.503C184.572 -145.791 180.774 -126.367 190.271 -108.487C201.608 -87.162 213.835 -95.3588 228.853 -83.7754C244.344 -71.8355 242.683 -58.1137 235.797 -40.0554C228.615 -21.2247 221.196 -24.1352 232.592 -1.44342C240.843 14.9512 254.85 35.7421 266.9 48.2164C273.904 55.4634 281.502 57.1267 288.506 66.3932C294.323 74.1155 292.067 84.2142 299.012 91.1638C310.883 103.104 331.006 103.282 340.384 118.904C350.831 136.309 338.96 149.437 369.706 147.833C371.309 182.643 377.897 214.185 377.541 248.994C394.695 255.825 422.414 247.687 440.399 244.063C458.266 268.18 481.355 251.429 501.774 264.558C510.678 270.26 508.837 284.517 514.239 289.506C525.339 299.723 533.529 293.308 547.301 296.872C557.51 299.486 565.404 306.97 575.138 309.703C584.338 312.257 599.475 306.258 606.301 314.396C614.492 324.138 600.78 341.958 613.127 349.799C623.395 356.333 638.115 340.77 648.088 343.027C659.721 345.7 693.079 376.174 701.271 386.212C710.59 397.677 719.969 419.062 725.25 433.793C733.501 456.841 732.373 468.127 749.408 484.998C760.27 495.75 749.942 496.522 767.63 499.67C779.204 501.749 794.518 493.374 806.212 492.067C830.549 489.394 855.122 494.027 879.102 489.453C901.421 485.176 922.729 478.166 945.64 474.899C965.465 472.048 1000.37 474.246 1017.94 464.801C1036.99 454.643 1038.71 431.654 1011.17 435.932C1008.97 421.26 1018.77 401.003 1007.85 390.847C1023.04 370.056 1028.56 355.384 1030.93 329.959C1032 318.792 1032.48 306.436 1038 297.05C1043.4 287.783 1058.59 282.259 1061.56 274.299C1066.13 261.943 1058.83 256.419 1053.25 249.528C1049.69 245.073 1039.54 247.212 1036.63 243.291C1031.23 236.103 1036.57 228.678 1033.6 221.431C1024.94 200.462 1014.61 192.205 1008.08 168.444C1008.26 172.424 1008.44 176.463 1008.2 180.384" stroke="white" stroke-width="2" stroke-linecap="round" stroke-linejoin="round"/>
</g>
<path d="M726.115 83.9394C717.546 107.321 737.614 115.526 753.675 130.807C758.435 135.336 758.889 142.817 753.879 147.342C743.107 157.074 704.855 155 704.855 155C704.855 155 693 154 673.5 150.5C654 147 640.5 146 629.5 147.342C618.5 148.685 595.5 161.5 608.5 187C621.5 212.5 646.709 240.5 704.855 231.5C763 222.5 785.5 208.5 815.5 198.5C845.5 188.5 922 189.5 949 236C976 282.5 835.5 321.5 835.5 321.5C835.5 321.5 766.5 350 724 332.5C681.5 315 663.5 358.52 659 359.5" stroke="white" stroke-width="2"/>
<path fill-rule="evenodd" clip-rule="evenodd" d="M657.5 366C661.09 366 664 363.09 664 359.5C664 355.91 661.09 353 657.5 353C653.91 353 651 355.91 651 359.5C651 363.09 653.91 366 657.5 366Z" fill="#4AF6CD"/>
<path fill-rule="evenodd" clip-rule="evenodd" d="M721 471C722.657 471 724 469.657 724 468C724 466.343 722.657 465 721 465C719.343 465 718 466.343 718 468C718 469.657 719.343 471 721 471Z" fill="#4AF6CD"/>
<path fill-rule="evenodd" clip-rule="evenodd" d="M366 236C367.657 236 369 234.657 369 233C369 231.343 367.657 230 366 230C364.343 230 363 231.343 363 233C363 234.657 364.343 236 366 236Z" fill="#4AF6CD"/>
<path fill-rule="evenodd" clip-rule="evenodd" d="M571 323C572.657 323 574 321.657 574 320C574 318.343 572.657 317 571 317C569.343 317 568 318.343 568 320C568 321.657 569.343 323 571 323Z" fill="#4AF6CD"/>
<path fill-rule="evenodd" clip-rule="evenodd" d="M726.5 91C730.09 91 733 88.0899 733 84.5C733 80.9101 730.09 78 726.5 78C722.91 78 720 80.9101 720 84.5C720 88.0899 722.91 91 726.5 91Z" fill="#4AF6CD"/>
<path d="M527.006 380.976L526.83 382.192H522.558V385.792H526.27V387.008H522.558V390.784H527.134V392H521.038V380.976H527.006ZM535.013 390.032C535.013 390.373 535.071 390.629 535.189 390.8C535.306 390.96 535.482 391.083 535.717 391.168L535.381 392.192C534.943 392.139 534.591 392.016 534.325 391.824C534.058 391.632 533.861 391.333 533.733 390.928C533.167 391.771 532.33 392.192 531.221 392.192C530.389 392.192 529.733 391.957 529.253 391.488C528.773 391.019 528.533 390.405 528.533 389.648C528.533 388.752 528.853 388.064 529.493 387.584C530.143 387.104 531.061 386.864 532.245 386.864H533.541V386.24C533.541 385.643 533.397 385.216 533.109 384.96C532.821 384.704 532.378 384.576 531.781 384.576C531.162 384.576 530.405 384.725 529.509 385.024L529.141 383.952C530.186 383.568 531.157 383.376 532.053 383.376C533.045 383.376 533.786 383.621 534.277 384.112C534.767 384.592 535.013 385.28 535.013 386.176V390.032ZM531.557 391.088C532.399 391.088 533.061 390.651 533.541 389.776V387.84H532.437C530.879 387.84 530.101 388.416 530.101 389.568C530.101 390.069 530.223 390.448 530.469 390.704C530.714 390.96 531.077 391.088 531.557 391.088ZM540.167 383.376C540.743 383.376 541.261 383.456 541.719 383.616C542.178 383.776 542.615 384.016 543.031 384.336L542.407 385.264C542.023 385.019 541.655 384.837 541.303 384.72C540.962 384.603 540.599 384.544 540.215 384.544C539.735 384.544 539.357 384.645 539.079 384.848C538.802 385.04 538.663 385.307 538.663 385.648C538.663 385.989 538.791 386.256 539.047 386.448C539.314 386.64 539.789 386.827 540.471 387.008C541.41 387.243 542.109 387.563 542.567 387.968C543.037 388.373 543.271 388.928 543.271 389.632C543.271 390.464 542.946 391.099 542.295 391.536C541.655 391.973 540.871 392.192 539.943 392.192C538.663 392.192 537.602 391.824 536.759 391.088L537.543 390.192C538.258 390.736 539.047 391.008 539.911 391.008C540.466 391.008 540.903 390.896 541.223 390.672C541.554 390.437 541.719 390.123 541.719 389.728C541.719 389.44 541.661 389.211 541.543 389.04C541.426 388.859 541.223 388.704 540.935 388.576C540.647 388.437 540.226 388.293 539.671 388.144C538.775 387.909 538.125 387.595 537.719 387.2C537.325 386.805 537.127 386.304 537.127 385.696C537.127 385.259 537.255 384.864 537.511 384.512C537.778 384.149 538.141 383.872 538.599 383.68C539.069 383.477 539.591 383.376 540.167 383.376ZM549.604 391.616C549.049 392 548.42 392.192 547.716 392.192C547.001 392.192 546.441 391.989 546.036 391.584C545.641 391.168 545.444 390.571 545.444 389.792V384.704H543.972V383.568H545.444V381.664L546.916 381.488V383.568H548.916L548.756 384.704H546.916V389.728C546.916 390.165 546.991 390.485 547.14 390.688C547.3 390.88 547.561 390.976 547.924 390.976C548.255 390.976 548.628 390.864 549.044 390.64L549.604 391.616ZM558.164 380.784C558.9 380.784 559.529 380.891 560.052 381.104C560.574 381.307 561.081 381.627 561.572 382.064L560.74 382.992C560.324 382.661 559.913 382.421 559.508 382.272C559.113 382.112 558.686 382.032 558.228 382.032C557.652 382.032 557.177 382.165 556.804 382.432C556.43 382.699 556.244 383.088 556.244 383.6C556.244 383.92 556.308 384.192 556.436 384.416C556.564 384.629 556.798 384.827 557.14 385.008C557.492 385.189 557.998 385.381 558.66 385.584C559.353 385.797 559.929 386.027 560.388 386.272C560.846 386.517 561.214 386.859 561.492 387.296C561.78 387.723 561.924 388.267 561.924 388.928C561.924 389.568 561.764 390.133 561.444 390.624C561.134 391.115 560.681 391.499 560.084 391.776C559.497 392.053 558.798 392.192 557.988 392.192C556.462 392.192 555.214 391.717 554.244 390.768L555.076 389.84C555.524 390.203 555.977 390.48 556.436 390.672C556.894 390.853 557.406 390.944 557.972 390.944C558.654 390.944 559.22 390.779 559.668 390.448C560.116 390.107 560.34 389.616 560.34 388.976C560.34 388.613 560.27 388.315 560.132 388.08C559.993 387.835 559.753 387.616 559.412 387.424C559.081 387.232 558.596 387.04 557.956 386.848C556.825 386.507 555.998 386.096 555.476 385.616C554.953 385.136 554.692 384.485 554.692 383.664C554.692 383.109 554.836 382.613 555.124 382.176C555.422 381.739 555.833 381.397 556.356 381.152C556.889 380.907 557.492 380.784 558.164 380.784ZM568.051 383.376C568.819 383.376 569.416 383.605 569.843 384.064C570.28 384.523 570.499 385.152 570.499 385.952V392H569.027V386.16C569.027 385.563 568.909 385.141 568.675 384.896C568.451 384.651 568.12 384.528 567.683 384.528C567.245 384.528 566.856 384.656 566.515 384.912C566.173 385.168 565.853 385.531 565.555 386V392H564.083V380.192L565.555 380.032V384.736C566.216 383.829 567.048 383.376 568.051 383.376ZM576.626 383.376C577.81 383.376 578.727 383.771 579.378 384.56C580.039 385.349 580.37 386.421 580.37 387.776C580.37 388.651 580.22 389.424 579.922 390.096C579.623 390.757 579.191 391.275 578.626 391.648C578.06 392.011 577.388 392.192 576.61 392.192C575.426 392.192 574.503 391.797 573.842 391.008C573.18 390.219 572.85 389.147 572.85 387.792C572.85 386.917 572.999 386.149 573.298 385.488C573.596 384.816 574.028 384.299 574.594 383.936C575.159 383.563 575.836 383.376 576.626 383.376ZM576.626 384.56C575.164 384.56 574.434 385.637 574.434 387.792C574.434 389.936 575.159 391.008 576.61 391.008C578.06 391.008 578.786 389.931 578.786 387.776C578.786 385.632 578.066 384.56 576.626 384.56ZM586.465 383.376C586.764 383.376 587.041 383.408 587.297 383.472L587.025 384.912C586.769 384.848 586.524 384.816 586.289 384.816C585.767 384.816 585.345 385.008 585.025 385.392C584.705 385.776 584.455 386.373 584.273 387.184V392H582.801V383.568H584.065L584.209 385.28C584.433 384.651 584.737 384.176 585.121 383.856C585.505 383.536 585.953 383.376 586.465 383.376ZM594.857 387.536C594.857 387.781 594.846 388.032 594.825 388.288H589.449C589.513 389.216 589.747 389.899 590.153 390.336C590.558 390.773 591.081 390.992 591.721 390.992C592.126 390.992 592.499 390.933 592.841 390.816C593.182 390.699 593.539 390.512 593.913 390.256L594.553 391.136C593.657 391.84 592.675 392.192 591.609 392.192C590.435 392.192 589.518 391.808 588.857 391.04C588.206 390.272 587.881 389.216 587.881 387.872C587.881 386.997 588.019 386.224 588.297 385.552C588.585 384.869 588.99 384.336 589.513 383.952C590.046 383.568 590.67 383.376 591.385 383.376C592.505 383.376 593.363 383.744 593.961 384.48C594.558 385.216 594.857 386.235 594.857 387.536ZM593.401 387.104C593.401 386.272 593.235 385.637 592.905 385.2C592.574 384.763 592.078 384.544 591.417 384.544C590.211 384.544 589.555 385.429 589.449 387.2H593.401V387.104ZM603.394 379.184V393.568H603.042V379.184H603.394ZM619.566 380.976L616.046 392H614.414L610.862 380.976H612.494L615.262 390.352L618.03 380.976H619.566ZM622.648 383.568V392H621.176V383.568H622.648ZM621.896 379.52C622.206 379.52 622.456 379.616 622.648 379.808C622.84 380 622.936 380.24 622.936 380.528C622.936 380.816 622.84 381.056 622.648 381.248C622.456 381.429 622.206 381.52 621.896 381.52C621.598 381.52 621.352 381.429 621.16 381.248C620.968 381.056 620.872 380.816 620.872 380.528C620.872 380.24 620.968 380 621.16 379.808C621.352 379.616 621.598 379.52 621.896 379.52ZM632.06 387.536C632.06 387.781 632.049 388.032 632.028 388.288H626.652C626.716 389.216 626.951 389.899 627.356 390.336C627.761 390.773 628.284 390.992 628.924 390.992C629.329 390.992 629.703 390.933 630.044 390.816C630.385 390.699 630.743 390.512 631.116 390.256L631.756 391.136C630.86 391.84 629.879 392.192 628.812 392.192C627.639 392.192 626.721 391.808 626.06 391.04C625.409 390.272 625.084 389.216 625.084 387.872C625.084 386.997 625.223 386.224 625.5 385.552C625.788 384.869 626.193 384.336 626.716 383.952C627.249 383.568 627.873 383.376 628.588 383.376C629.708 383.376 630.567 383.744 631.164 384.48C631.761 385.216 632.06 386.235 632.06 387.536ZM630.604 387.104C630.604 386.272 630.439 385.637 630.108 385.2C629.777 384.763 629.281 384.544 628.62 384.544C627.415 384.544 626.759 385.429 626.652 387.2H630.604V387.104ZM640.683 392H639.419L639.307 390.688C638.987 391.211 638.619 391.595 638.203 391.84C637.787 392.075 637.28 392.192 636.683 392.192C635.947 392.192 635.371 391.968 634.955 391.52C634.539 391.072 634.331 390.437 634.331 389.616V383.568H635.803V389.456C635.803 390.032 635.904 390.443 636.107 390.688C636.309 390.923 636.64 391.04 637.099 391.04C637.92 391.04 638.624 390.555 639.211 389.584V383.568H640.683V392ZM646.955 387.488L649.883 392H648.107L646.043 388.432L643.947 392H642.283L645.227 387.552L642.619 383.568H644.347L646.107 386.656L647.883 383.568H649.547L646.955 387.488ZM651.873 389.968C652.193 389.968 652.459 390.075 652.673 390.288C652.886 390.501 652.993 390.763 652.993 391.072C652.993 391.403 652.897 391.781 652.705 392.208L651.633 394.656H650.577L651.217 392C651.078 391.893 650.966 391.76 650.881 391.6C650.806 391.44 650.769 391.264 650.769 391.072C650.769 390.763 650.875 390.501 651.089 390.288C651.302 390.075 651.563 389.968 651.873 389.968ZM665.807 392V386.832H661.167V392H659.647V380.976H661.167V385.584H665.807V380.976H667.327V392H665.807ZM674.458 380.784C675.386 380.784 676.197 381.008 676.89 381.456C677.594 381.893 678.138 382.539 678.522 383.392C678.917 384.245 679.114 385.28 679.114 386.496C679.114 387.691 678.917 388.715 678.522 389.568C678.138 390.421 677.594 391.072 676.89 391.52C676.197 391.968 675.386 392.192 674.458 392.192C673.53 392.192 672.714 391.973 672.01 391.536C671.317 391.099 670.773 390.453 670.378 389.6C669.994 388.747 669.802 387.717 669.802 386.512C669.802 385.328 669.994 384.304 670.378 383.44C670.773 382.576 671.322 381.92 672.026 381.472C672.73 381.013 673.541 380.784 674.458 380.784ZM674.458 382.032C673.498 382.032 672.751 382.395 672.218 383.12C671.685 383.845 671.418 384.976 671.418 386.512C671.418 388.037 671.685 389.157 672.218 389.872C672.762 390.587 673.509 390.944 674.458 390.944C676.485 390.944 677.498 389.461 677.498 386.496C677.498 383.52 676.485 382.032 674.458 382.032Z" fill="white"/>
<path d="M595.378 75.784C596.039 75.784 596.594 75.8693 597.042 76.04C597.501 76.2107 597.965 76.488 598.434 76.872L597.602 77.848C596.93 77.304 596.221 77.032 595.474 77.032C594.557 77.032 593.815 77.384 593.25 78.088C592.695 78.792 592.418 79.9227 592.418 81.48C592.418 82.9947 592.695 84.1147 593.25 84.84C593.805 85.5547 594.541 85.912 595.458 85.912C595.927 85.912 596.338 85.832 596.69 85.672C597.042 85.512 597.415 85.288 597.81 85L598.562 85.96C598.221 86.312 597.783 86.6053 597.25 86.84C596.717 87.0747 596.103 87.192 595.41 87.192C594.514 87.192 593.714 86.9733 593.01 86.536C592.317 86.088 591.773 85.4373 591.378 84.584C590.994 83.72 590.802 82.6853 590.802 81.48C590.802 80.2747 591.005 79.2453 591.41 78.392C591.815 77.528 592.365 76.8773 593.058 76.44C593.751 76.0027 594.525 75.784 595.378 75.784ZM606.401 87H605.137L605.025 85.688C604.705 86.2107 604.337 86.5947 603.921 86.84C603.505 87.0747 602.999 87.192 602.401 87.192C601.665 87.192 601.089 86.968 600.673 86.52C600.257 86.072 600.049 85.4373 600.049 84.616V78.568H601.521V84.456C601.521 85.032 601.623 85.4427 601.825 85.688C602.028 85.9227 602.359 86.04 602.817 86.04C603.639 86.04 604.343 85.5547 604.929 84.584V78.568H606.401V87ZM613.106 78.376C613.405 78.376 613.682 78.408 613.938 78.472L613.666 79.912C613.41 79.848 613.165 79.816 612.93 79.816C612.407 79.816 611.986 80.008 611.666 80.392C611.346 80.776 611.095 81.3733 610.914 82.184V87H609.442V78.568H610.706L610.85 80.28C611.074 79.6507 611.378 79.176 611.762 78.856C612.146 78.536 612.594 78.376 613.106 78.376ZM619.278 78.376C619.576 78.376 619.854 78.408 620.11 78.472L619.838 79.912C619.582 79.848 619.336 79.816 619.102 79.816C618.579 79.816 618.158 80.008 617.838 80.392C617.518 80.776 617.267 81.3733 617.086 82.184V87H615.614V78.568H616.878L617.022 80.28C617.246 79.6507 617.55 79.176 617.934 78.856C618.318 78.536 618.766 78.376 619.278 78.376ZM627.669 82.536C627.669 82.7813 627.659 83.032 627.637 83.288H622.261C622.325 84.216 622.56 84.8987 622.965 85.336C623.371 85.7733 623.893 85.992 624.533 85.992C624.939 85.992 625.312 85.9333 625.653 85.816C625.995 85.6987 626.352 85.512 626.725 85.256L627.365 86.136C626.469 86.84 625.488 87.192 624.421 87.192C623.248 87.192 622.331 86.808 621.669 86.04C621.019 85.272 620.693 84.216 620.693 82.872C620.693 81.9973 620.832 81.224 621.109 80.552C621.397 79.8693 621.803 79.336 622.325 78.952C622.859 78.568 623.483 78.376 624.197 78.376C625.317 78.376 626.176 78.744 626.773 79.48C627.371 80.216 627.669 81.2347 627.669 82.536ZM626.213 82.104C626.213 81.272 626.048 80.6373 625.717 80.2C625.387 79.7627 624.891 79.544 624.229 79.544C623.024 79.544 622.368 80.4293 622.261 82.2H626.213V82.104ZM633.988 78.376C634.756 78.376 635.353 78.6053 635.78 79.064C636.217 79.5227 636.436 80.152 636.436 80.952V87H634.964V81.16C634.964 80.5627 634.852 80.1413 634.628 79.896C634.404 79.6507 634.073 79.528 633.636 79.528C633.188 79.528 632.793 79.656 632.452 79.912C632.111 80.168 631.791 80.536 631.492 81.016V87H630.02V78.568H631.284L631.412 79.816C631.711 79.368 632.079 79.016 632.516 78.76C632.964 78.504 633.455 78.376 633.988 78.376ZM643.651 86.616C643.096 87 642.467 87.192 641.763 87.192C641.048 87.192 640.488 86.9893 640.083 86.584C639.688 86.168 639.491 85.5707 639.491 84.792V79.704H638.019V78.568H639.491V76.664L640.963 76.488V78.568H642.963L642.803 79.704H640.963V84.728C640.963 85.1653 641.038 85.4853 641.187 85.688C641.347 85.88 641.608 85.976 641.971 85.976C642.302 85.976 642.675 85.864 643.091 85.64L643.651 86.616ZM651.011 75.976V85.672H655.539L655.363 87H649.491V75.976H651.011ZM660.141 78.376C661.325 78.376 662.242 78.7707 662.893 79.56C663.554 80.3493 663.885 81.4213 663.885 82.776C663.885 83.6507 663.736 84.424 663.437 85.096C663.138 85.7573 662.706 86.2747 662.141 86.648C661.576 87.0107 660.904 87.192 660.125 87.192C658.941 87.192 658.018 86.7973 657.357 86.008C656.696 85.2187 656.365 84.1467 656.365 82.792C656.365 81.9173 656.514 81.1493 656.813 80.488C657.112 79.816 657.544 79.2987 658.109 78.936C658.674 78.5627 659.352 78.376 660.141 78.376ZM660.141 79.56C658.68 79.56 657.949 80.6373 657.949 82.792C657.949 84.936 658.674 86.008 660.125 86.008C661.576 86.008 662.301 84.9307 662.301 82.776C662.301 80.632 661.581 79.56 660.141 79.56ZM669.389 78.376C669.89 78.376 670.349 78.4507 670.765 78.6C671.181 78.7387 671.581 78.968 671.965 79.288L671.261 80.216C670.962 80.0027 670.669 79.848 670.381 79.752C670.104 79.6453 669.794 79.592 669.453 79.592C668.77 79.592 668.237 79.864 667.853 80.408C667.48 80.952 667.293 81.7573 667.293 82.824C667.293 83.8907 667.48 84.68 667.853 85.192C668.226 85.6933 668.76 85.944 669.453 85.944C669.784 85.944 670.088 85.896 670.365 85.8C670.642 85.6933 670.952 85.528 671.293 85.304L671.965 86.264C671.197 86.8827 670.338 87.192 669.389 87.192C668.248 87.192 667.346 86.808 666.685 86.04C666.034 85.272 665.709 84.2107 665.709 82.856C665.709 81.96 665.858 81.176 666.157 80.504C666.456 79.832 666.877 79.3093 667.421 78.936C667.976 78.5627 668.632 78.376 669.389 78.376ZM679.481 85.032C679.481 85.3733 679.54 85.6293 679.657 85.8C679.775 85.96 679.951 86.0827 680.185 86.168L679.849 87.192C679.412 87.1387 679.06 87.016 678.793 86.824C678.527 86.632 678.329 86.3333 678.201 85.928C677.636 86.7707 676.799 87.192 675.689 87.192C674.857 87.192 674.201 86.9573 673.721 86.488C673.241 86.0187 673.001 85.4053 673.001 84.648C673.001 83.752 673.321 83.064 673.961 82.584C674.612 82.104 675.529 81.864 676.713 81.864H678.009V81.24C678.009 80.6427 677.865 80.216 677.577 79.96C677.289 79.704 676.847 79.576 676.249 79.576C675.631 79.576 674.873 79.7253 673.977 80.024L673.609 78.952C674.655 78.568 675.625 78.376 676.521 78.376C677.513 78.376 678.255 78.6213 678.745 79.112C679.236 79.592 679.481 80.28 679.481 81.176V85.032ZM676.025 86.088C676.868 86.088 677.529 85.6507 678.009 84.776V82.84H676.905C675.348 82.84 674.569 83.416 674.569 84.568C674.569 85.0693 674.692 85.448 674.937 85.704C675.183 85.96 675.545 86.088 676.025 86.088ZM686.76 86.616C686.206 87 685.576 87.192 684.872 87.192C684.158 87.192 683.598 86.9893 683.192 86.584C682.798 86.168 682.6 85.5707 682.6 84.792V79.704H681.128V78.568H682.6V76.664L684.072 76.488V78.568H686.072L685.912 79.704H684.072V84.728C684.072 85.1653 684.147 85.4853 684.296 85.688C684.456 85.88 684.718 85.976 685.08 85.976C685.411 85.976 685.784 85.864 686.2 85.64L686.76 86.616ZM689.758 78.568V87H688.286V78.568H689.758ZM689.006 74.52C689.315 74.52 689.566 74.616 689.758 74.808C689.95 75 690.046 75.24 690.046 75.528C690.046 75.816 689.95 76.056 689.758 76.248C689.566 76.4293 689.315 76.52 689.006 76.52C688.707 76.52 688.462 76.4293 688.27 76.248C688.078 76.056 687.982 75.816 687.982 75.528C687.982 75.24 688.078 75 688.27 74.808C688.462 74.616 688.707 74.52 689.006 74.52ZM695.969 78.376C697.153 78.376 698.071 78.7707 698.721 79.56C699.383 80.3493 699.713 81.4213 699.713 82.776C699.713 83.6507 699.564 84.424 699.265 85.096C698.967 85.7573 698.535 86.2747 697.969 86.648C697.404 87.0107 696.732 87.192 695.953 87.192C694.769 87.192 693.847 86.7973 693.185 86.008C692.524 85.2187 692.193 84.1467 692.193 82.792C692.193 81.9173 692.343 81.1493 692.641 80.488C692.94 79.816 693.372 79.2987 693.937 78.936C694.503 78.5627 695.18 78.376 695.969 78.376ZM695.969 79.56C694.508 79.56 693.777 80.6373 693.777 82.792C693.777 84.936 694.503 86.008 695.953 86.008C697.404 86.008 698.129 84.9307 698.129 82.776C698.129 80.632 697.409 79.56 695.969 79.56ZM706.113 78.376C706.881 78.376 707.478 78.6053 707.905 79.064C708.342 79.5227 708.561 80.152 708.561 80.952V87H707.089V81.16C707.089 80.5627 706.977 80.1413 706.753 79.896C706.529 79.6507 706.198 79.528 705.761 79.528C705.313 79.528 704.918 79.656 704.577 79.912C704.236 80.168 703.916 80.536 703.617 81.016V87H702.145V78.568H703.409L703.537 79.816C703.836 79.368 704.204 79.016 704.641 78.76C705.089 78.504 705.58 78.376 706.113 78.376Z" fill="white"/>
</svg>
