<svg width="998" height="501" viewBox="0 0 998 501" fill="none" xmlns="http://www.w3.org/2000/svg">
<g opacity="0.29827">
<path d="M1008.08 168.448L1003 -46L443.182 -742.19L28.1096 -765C24.9043 -757.456 4.36709 -735.714 7.57176 -723.596C11.43 -709.102 30.8387 -713.735 36.4776 -704.409C43.0661 -693.42 31.7291 -648.749 28.3457 -635.86C21.8759 -611.445 7.09676 -591.665 2.82235 -567.25C-4.35982 -526.263 10.1824 -529.53 37.7242 -503.927C84.141 -460.742 46.9244 -415.952 58.6176 -365.223C68.1146 -323.878 109.605 -302.554 124.8 -261.211C136.553 -229.37 152.697 -221.233 177.746 -197.947C177.153 -212.084 164.51 -253.785 188.253 -250.102C211.817 -246.478 202.736 -211.669 207.247 -197.115C211.045 -184.997 237.933 -160.761 215.616 -149.593C208.196 -145.91 187.066 -160.582 178.577 -164.503C184.572 -145.791 180.774 -126.367 190.271 -108.487C201.608 -87.162 213.835 -95.3588 228.853 -83.7754C244.344 -71.8355 242.683 -58.1137 235.797 -40.0554C228.615 -21.2247 221.196 -24.1352 232.592 -1.44342C240.843 14.9512 254.85 35.7421 266.9 48.2164C273.904 55.4634 281.502 57.1267 288.506 66.3932C294.323 74.1155 292.067 84.2142 299.012 91.1638C310.883 103.104 331.006 103.282 340.384 118.904C350.831 136.309 338.96 149.437 369.706 147.833C371.309 182.643 377.897 214.185 377.541 248.994C394.695 255.825 422.414 247.687 440.399 244.063C458.266 268.18 481.355 251.429 501.774 264.558C510.678 270.26 508.837 284.517 514.239 289.506C525.339 299.723 533.529 293.308 547.301 296.872C557.51 299.486 565.404 306.97 575.138 309.703C584.338 312.257 599.475 306.258 606.301 314.396C614.492 324.138 600.78 341.958 613.127 349.799C623.395 356.333 638.115 340.77 648.088 343.027C659.721 345.7 693.079 376.174 701.271 386.212C710.59 397.677 719.969 419.062 725.25 433.793C733.501 456.841 732.373 468.127 749.408 484.998C760.27 495.75 749.942 496.522 767.63 499.67C779.204 501.749 794.518 493.374 806.212 492.067C830.549 489.394 855.122 494.027 879.102 489.453C901.421 485.176 922.729 478.166 945.64 474.899C965.465 472.048 1000.37 474.246 1017.94 464.801C1036.99 454.643 1038.71 431.654 1011.17 435.932C1008.97 421.26 1018.77 401.003 1007.85 390.847C1023.04 370.056 1028.56 355.384 1030.93 329.959C1032 318.792 1032.48 306.436 1038 297.05C1043.4 287.783 1058.59 282.259 1061.56 274.299C1066.13 261.943 1058.83 256.419 1053.25 249.528C1049.69 245.073 1039.54 247.212 1036.63 243.291C1031.23 236.103 1036.57 228.678 1033.6 221.431C1024.94 200.462 1014.61 192.205 1008.08 168.444C1008.26 172.424 1008.44 176.463 1008.2 180.384" stroke="white" stroke-width="2" stroke-linecap="round" stroke-linejoin="round"/>
</g>
<path d="M726.114 83.9394C717.546 107.321 737.614 115.526 753.675 130.807C758.434 135.336 758.888 142.817 753.879 147.342C743.107 157.074 702.264 142.917 704.854 155.745C707.53 168.994 742.061 187.531 743.618 188.799C757.284 199.932 761.735 228.174 754.208 243.658C748.852 254.676 713.342 250.962 702.172 247.293C629.024 223.266 661.985 226.131 579.817 218.67C573.527 218.099 566.935 217.806 560.894 219.65C554.671 221.549 554.869 229.339 556.957 233.55C563.876 247.506 594.849 271.178 586.514 289.523C583.956 295.152 577.963 298.707 575.264 304.27C573.151 308.627 573.385 313.772 572.445 318.523" stroke="white" stroke-width="2"/>
<path fill-rule="evenodd" clip-rule="evenodd" d="M570.5 326C574.09 326 577 323.09 577 319.5C577 315.91 574.09 313 570.5 313C566.91 313 564 315.91 564 319.5C564 323.09 566.91 326 570.5 326Z" fill="#4AF6CD"/>
<path fill-rule="evenodd" clip-rule="evenodd" d="M658 363C659.657 363 661 361.657 661 360C661 358.343 659.657 357 658 357C656.343 357 655 358.343 655 360C655 361.657 656.343 363 658 363Z" fill="#4AF6CD"/>
<path fill-rule="evenodd" clip-rule="evenodd" d="M722 471C723.657 471 725 469.657 725 468C725 466.343 723.657 465 722 465C720.343 465 719 466.343 719 468C719 469.657 720.343 471 722 471Z" fill="#4AF6CD"/>
<path fill-rule="evenodd" clip-rule="evenodd" d="M362 228C363.657 228 365 226.657 365 225C365 223.343 363.657 222 362 222C360.343 222 359 223.343 359 225C359 226.657 360.343 228 362 228Z" fill="#4AF6CD"/>
<path fill-rule="evenodd" clip-rule="evenodd" d="M726.5 91C730.09 91 733 88.0899 733 84.5C733 80.9101 730.09 78 726.5 78C722.91 78 720 80.9101 720 84.5C720 88.0899 722.91 91 726.5 91Z" fill="#4AF6CD"/>
<path d="M395.41 310.976L393.17 322H391.218L389.186 312.768L387.138 322H385.234L382.994 310.976H384.482L386.258 320.672L388.386 310.976H390.002L392.178 320.672L394.018 310.976H395.41ZM403.544 317.536C403.544 317.781 403.534 318.032 403.512 318.288H398.136C398.2 319.216 398.435 319.899 398.84 320.336C399.246 320.773 399.768 320.992 400.408 320.992C400.814 320.992 401.187 320.933 401.528 320.816C401.87 320.699 402.227 320.512 402.6 320.256L403.24 321.136C402.344 321.84 401.363 322.192 400.296 322.192C399.123 322.192 398.206 321.808 397.544 321.04C396.894 320.272 396.568 319.216 396.568 317.872C396.568 316.997 396.707 316.224 396.984 315.552C397.272 314.869 397.678 314.336 398.2 313.952C398.734 313.568 399.358 313.376 400.072 313.376C401.192 313.376 402.051 313.744 402.648 314.48C403.246 315.216 403.544 316.235 403.544 317.536ZM402.088 317.104C402.088 316.272 401.923 315.637 401.592 315.2C401.262 314.763 400.766 314.544 400.104 314.544C398.899 314.544 398.243 315.429 398.136 317.2H402.088V317.104ZM408.183 313.376C408.759 313.376 409.276 313.456 409.735 313.616C410.194 313.776 410.631 314.016 411.047 314.336L410.423 315.264C410.039 315.019 409.671 314.837 409.319 314.72C408.978 314.603 408.615 314.544 408.231 314.544C407.751 314.544 407.372 314.645 407.095 314.848C406.818 315.04 406.679 315.307 406.679 315.648C406.679 315.989 406.807 316.256 407.063 316.448C407.33 316.64 407.804 316.827 408.487 317.008C409.426 317.243 410.124 317.563 410.583 317.968C411.052 318.373 411.287 318.928 411.287 319.632C411.287 320.464 410.962 321.099 410.311 321.536C409.671 321.973 408.887 322.192 407.959 322.192C406.679 322.192 405.618 321.824 404.775 321.088L405.559 320.192C406.274 320.736 407.063 321.008 407.927 321.008C408.482 321.008 408.919 320.896 409.239 320.672C409.57 320.437 409.735 320.123 409.735 319.728C409.735 319.44 409.676 319.211 409.559 319.04C409.442 318.859 409.239 318.704 408.951 318.576C408.663 318.437 408.242 318.293 407.687 318.144C406.791 317.909 406.14 317.595 405.735 317.2C405.34 316.805 405.143 316.304 405.143 315.696C405.143 315.259 405.271 314.864 405.527 314.512C405.794 314.149 406.156 313.872 406.615 313.68C407.084 313.477 407.607 313.376 408.183 313.376ZM417.62 321.616C417.065 322 416.436 322.192 415.732 322.192C415.017 322.192 414.457 321.989 414.052 321.584C413.657 321.168 413.46 320.571 413.46 319.792V314.704H411.988V313.568H413.46V311.664L414.932 311.488V313.568H416.932L416.772 314.704H414.932V319.728C414.932 320.165 415.006 320.485 415.156 320.688C415.316 320.88 415.577 320.976 415.94 320.976C416.27 320.976 416.644 320.864 417.06 320.64L417.62 321.616ZM426.179 310.784C426.915 310.784 427.545 310.891 428.067 311.104C428.59 311.307 429.097 311.627 429.587 312.064L428.755 312.992C428.339 312.661 427.929 312.421 427.523 312.272C427.129 312.112 426.702 312.032 426.243 312.032C425.667 312.032 425.193 312.165 424.819 312.432C424.446 312.699 424.259 313.088 424.259 313.6C424.259 313.92 424.323 314.192 424.451 314.416C424.579 314.629 424.814 314.827 425.155 315.008C425.507 315.189 426.014 315.381 426.675 315.584C427.369 315.797 427.945 316.027 428.403 316.272C428.862 316.517 429.23 316.859 429.507 317.296C429.795 317.723 429.939 318.267 429.939 318.928C429.939 319.568 429.779 320.133 429.459 320.624C429.15 321.115 428.697 321.499 428.099 321.776C427.513 322.053 426.814 322.192 426.003 322.192C424.478 322.192 423.23 321.717 422.259 320.768L423.091 319.84C423.539 320.203 423.993 320.48 424.451 320.672C424.91 320.853 425.422 320.944 425.987 320.944C426.67 320.944 427.235 320.779 427.683 320.448C428.131 320.107 428.355 319.616 428.355 318.976C428.355 318.613 428.286 318.315 428.147 318.08C428.009 317.835 427.769 317.616 427.427 317.424C427.097 317.232 426.611 317.04 425.971 316.848C424.841 316.507 424.014 316.096 423.491 315.616C422.969 315.136 422.707 314.485 422.707 313.664C422.707 313.109 422.851 312.613 423.139 312.176C423.438 311.739 423.849 311.397 424.371 311.152C424.905 310.907 425.507 310.784 426.179 310.784ZM436.066 313.376C436.834 313.376 437.431 313.605 437.858 314.064C438.295 314.523 438.514 315.152 438.514 315.952V322H437.042V316.16C437.042 315.563 436.925 315.141 436.69 314.896C436.466 314.651 436.135 314.528 435.698 314.528C435.261 314.528 434.871 314.656 434.53 314.912C434.189 315.168 433.869 315.531 433.57 316V322H432.098V310.192L433.57 310.032V314.736C434.231 313.829 435.063 313.376 436.066 313.376ZM444.641 313.376C445.825 313.376 446.742 313.771 447.393 314.56C448.054 315.349 448.385 316.421 448.385 317.776C448.385 318.651 448.236 319.424 447.937 320.096C447.638 320.757 447.206 321.275 446.641 321.648C446.076 322.011 445.404 322.192 444.625 322.192C443.441 322.192 442.518 321.797 441.857 321.008C441.196 320.219 440.865 319.147 440.865 317.792C440.865 316.917 441.014 316.149 441.313 315.488C441.612 314.816 442.044 314.299 442.609 313.936C443.174 313.563 443.852 313.376 444.641 313.376ZM444.641 314.56C443.18 314.56 442.449 315.637 442.449 317.792C442.449 319.936 443.174 321.008 444.625 321.008C446.076 321.008 446.801 319.931 446.801 317.776C446.801 315.632 446.081 314.56 444.641 314.56ZM454.481 313.376C454.78 313.376 455.057 313.408 455.313 313.472L455.041 314.912C454.785 314.848 454.54 314.816 454.305 314.816C453.782 314.816 453.361 315.008 453.041 315.392C452.721 315.776 452.47 316.373 452.289 317.184V322H450.817V313.568H452.081L452.225 315.28C452.449 314.651 452.753 314.176 453.137 313.856C453.521 313.536 453.969 313.376 454.481 313.376ZM462.872 317.536C462.872 317.781 462.862 318.032 462.84 318.288H457.464C457.528 319.216 457.763 319.899 458.168 320.336C458.574 320.773 459.096 320.992 459.736 320.992C460.142 320.992 460.515 320.933 460.856 320.816C461.198 320.699 461.555 320.512 461.928 320.256L462.568 321.136C461.672 321.84 460.691 322.192 459.624 322.192C458.451 322.192 457.534 321.808 456.872 321.04C456.222 320.272 455.896 319.216 455.896 317.872C455.896 316.997 456.035 316.224 456.312 315.552C456.6 314.869 457.006 314.336 457.528 313.952C458.062 313.568 458.686 313.376 459.4 313.376C460.52 313.376 461.379 313.744 461.976 314.48C462.574 315.216 462.872 316.235 462.872 317.536ZM461.416 317.104C461.416 316.272 461.251 315.637 460.92 315.2C460.59 314.763 460.094 314.544 459.432 314.544C458.227 314.544 457.571 315.429 457.464 317.2H461.416V317.104ZM471.41 309.184V323.568H471.058V309.184H471.41ZM490.237 322H488.765L488.381 317.024C488.221 315.072 488.131 313.573 488.109 312.528L485.725 320.752H484.301L481.789 312.512C481.789 313.845 481.72 315.387 481.581 317.136L481.213 322H479.773L480.685 310.976H482.733L485.053 318.992L487.261 310.976H489.325L490.237 322ZM498.434 320.032C498.434 320.373 498.493 320.629 498.61 320.8C498.728 320.96 498.904 321.083 499.138 321.168L498.802 322.192C498.365 322.139 498.013 322.016 497.746 321.824C497.48 321.632 497.282 321.333 497.154 320.928C496.589 321.771 495.752 322.192 494.642 322.192C493.81 322.192 493.154 321.957 492.674 321.488C492.194 321.019 491.954 320.405 491.954 319.648C491.954 318.752 492.274 318.064 492.914 317.584C493.565 317.104 494.482 316.864 495.666 316.864H496.962V316.24C496.962 315.643 496.818 315.216 496.53 314.96C496.242 314.704 495.8 314.576 495.202 314.576C494.584 314.576 493.826 314.725 492.93 315.024L492.562 313.952C493.608 313.568 494.578 313.376 495.474 313.376C496.466 313.376 497.208 313.621 497.698 314.112C498.189 314.592 498.434 315.28 498.434 316.176V320.032ZM494.978 321.088C495.821 321.088 496.482 320.651 496.962 319.776V317.84H495.858C494.301 317.84 493.522 318.416 493.522 319.568C493.522 320.069 493.645 320.448 493.89 320.704C494.136 320.96 494.498 321.088 494.978 321.088ZM502.981 322.192C502.437 322.192 502.005 322.032 501.685 321.712C501.376 321.381 501.221 320.923 501.221 320.336V310.176L502.693 310V320.304C502.693 320.539 502.731 320.709 502.805 320.816C502.891 320.923 503.029 320.976 503.221 320.976C503.424 320.976 503.605 320.944 503.765 320.88L504.149 321.904C503.797 322.096 503.408 322.192 502.981 322.192ZM507.461 313.568V322H505.989V313.568H507.461ZM506.709 309.52C507.018 309.52 507.269 309.616 507.461 309.808C507.653 310 507.749 310.24 507.749 310.528C507.749 310.816 507.653 311.056 507.461 311.248C507.269 311.429 507.018 311.52 506.709 311.52C506.41 311.52 506.165 311.429 505.973 311.248C505.781 311.056 505.685 310.816 505.685 310.528C505.685 310.24 505.781 310 505.973 309.808C506.165 309.616 506.41 309.52 506.709 309.52ZM514.36 313.376C515.32 313.376 516.083 313.765 516.648 314.544C517.214 315.312 517.496 316.389 517.496 317.776C517.496 318.651 517.363 319.424 517.096 320.096C516.83 320.757 516.446 321.275 515.944 321.648C515.443 322.011 514.856 322.192 514.184 322.192C513.299 322.192 512.552 321.819 511.944 321.072L511.8 322H510.504V310.176L511.976 310V314.624C512.584 313.792 513.379 313.376 514.36 313.376ZM513.832 321.024C514.483 321.024 514.99 320.763 515.352 320.24C515.726 319.707 515.912 318.885 515.912 317.776C515.912 316.635 515.742 315.813 515.4 315.312C515.059 314.8 514.574 314.544 513.944 314.544C513.198 314.544 512.542 314.981 511.976 315.856V319.888C512.2 320.24 512.472 320.517 512.792 320.72C513.123 320.923 513.47 321.024 513.832 321.024ZM526.276 322H525.012L524.9 320.688C524.58 321.211 524.212 321.595 523.796 321.84C523.38 322.075 522.874 322.192 522.276 322.192C521.54 322.192 520.964 321.968 520.548 321.52C520.132 321.072 519.924 320.437 519.924 319.616V313.568H521.396V319.456C521.396 320.032 521.498 320.443 521.7 320.688C521.903 320.923 522.234 321.04 522.692 321.04C523.514 321.04 524.218 320.555 524.804 319.584V313.568H526.276V322ZM529.701 319.968C530.021 319.968 530.288 320.075 530.501 320.288C530.714 320.501 530.821 320.763 530.821 321.072C530.821 321.403 530.725 321.781 530.533 322.208L529.461 324.656H528.405L529.045 322C528.906 321.893 528.794 321.76 528.709 321.6C528.634 321.44 528.597 321.264 528.597 321.072C528.597 320.763 528.704 320.501 528.917 320.288C529.13 320.075 529.392 319.968 529.701 319.968ZM541.331 310.784C541.992 310.784 542.547 310.869 542.995 311.04C543.454 311.211 543.918 311.488 544.387 311.872L543.555 312.848C542.883 312.304 542.174 312.032 541.427 312.032C540.51 312.032 539.768 312.384 539.203 313.088C538.648 313.792 538.371 314.923 538.371 316.48C538.371 317.995 538.648 319.115 539.203 319.84C539.758 320.555 540.494 320.912 541.411 320.912C541.88 320.912 542.291 320.832 542.643 320.672C542.995 320.512 543.368 320.288 543.763 320L544.515 320.96C544.174 321.312 543.736 321.605 543.203 321.84C542.67 322.075 542.056 322.192 541.363 322.192C540.467 322.192 539.667 321.973 538.963 321.536C538.27 321.088 537.726 320.437 537.331 319.584C536.947 318.72 536.755 317.685 536.755 316.48C536.755 315.275 536.958 314.245 537.363 313.392C537.768 312.528 538.318 311.877 539.011 311.44C539.704 311.003 540.478 310.784 541.331 310.784ZM552.3 322L551.468 319.232H547.292L546.46 322H544.924L548.46 310.976H550.38L553.9 322H552.3ZM547.66 318H551.1L549.388 312.24L547.66 318Z" fill="white"/>
<path d="M595.378 75.784C596.039 75.784 596.594 75.8693 597.042 76.04C597.501 76.2107 597.965 76.488 598.434 76.872L597.602 77.848C596.93 77.304 596.221 77.032 595.474 77.032C594.557 77.032 593.815 77.384 593.25 78.088C592.695 78.792 592.418 79.9227 592.418 81.48C592.418 82.9947 592.695 84.1147 593.25 84.84C593.805 85.5547 594.541 85.912 595.458 85.912C595.927 85.912 596.338 85.832 596.69 85.672C597.042 85.512 597.415 85.288 597.81 85L598.562 85.96C598.221 86.312 597.783 86.6053 597.25 86.84C596.717 87.0747 596.103 87.192 595.41 87.192C594.514 87.192 593.714 86.9733 593.01 86.536C592.317 86.088 591.773 85.4373 591.378 84.584C590.994 83.72 590.802 82.6853 590.802 81.48C590.802 80.2747 591.005 79.2453 591.41 78.392C591.815 77.528 592.365 76.8773 593.058 76.44C593.751 76.0027 594.525 75.784 595.378 75.784ZM606.401 87H605.137L605.025 85.688C604.705 86.2107 604.337 86.5947 603.921 86.84C603.505 87.0747 602.999 87.192 602.401 87.192C601.665 87.192 601.089 86.968 600.673 86.52C600.257 86.072 600.049 85.4373 600.049 84.616V78.568H601.521V84.456C601.521 85.032 601.623 85.4427 601.825 85.688C602.028 85.9227 602.359 86.04 602.817 86.04C603.639 86.04 604.343 85.5547 604.929 84.584V78.568H606.401V87ZM613.106 78.376C613.405 78.376 613.682 78.408 613.938 78.472L613.666 79.912C613.41 79.848 613.165 79.816 612.93 79.816C612.407 79.816 611.986 80.008 611.666 80.392C611.346 80.776 611.095 81.3733 610.914 82.184V87H609.442V78.568H610.706L610.85 80.28C611.074 79.6507 611.378 79.176 611.762 78.856C612.146 78.536 612.594 78.376 613.106 78.376ZM619.278 78.376C619.576 78.376 619.854 78.408 620.11 78.472L619.838 79.912C619.582 79.848 619.336 79.816 619.102 79.816C618.579 79.816 618.158 80.008 617.838 80.392C617.518 80.776 617.267 81.3733 617.086 82.184V87H615.614V78.568H616.878L617.022 80.28C617.246 79.6507 617.55 79.176 617.934 78.856C618.318 78.536 618.766 78.376 619.278 78.376ZM627.669 82.536C627.669 82.7813 627.659 83.032 627.637 83.288H622.261C622.325 84.216 622.56 84.8987 622.965 85.336C623.371 85.7733 623.893 85.992 624.533 85.992C624.939 85.992 625.312 85.9333 625.653 85.816C625.995 85.6987 626.352 85.512 626.725 85.256L627.365 86.136C626.469 86.84 625.488 87.192 624.421 87.192C623.248 87.192 622.331 86.808 621.669 86.04C621.019 85.272 620.693 84.216 620.693 82.872C620.693 81.9973 620.832 81.224 621.109 80.552C621.397 79.8693 621.803 79.336 622.325 78.952C622.859 78.568 623.483 78.376 624.197 78.376C625.317 78.376 626.176 78.744 626.773 79.48C627.371 80.216 627.669 81.2347 627.669 82.536ZM626.213 82.104C626.213 81.272 626.048 80.6373 625.717 80.2C625.387 79.7627 624.891 79.544 624.229 79.544C623.024 79.544 622.368 80.4293 622.261 82.2H626.213V82.104ZM633.988 78.376C634.756 78.376 635.353 78.6053 635.78 79.064C636.217 79.5227 636.436 80.152 636.436 80.952V87H634.964V81.16C634.964 80.5627 634.852 80.1413 634.628 79.896C634.404 79.6507 634.073 79.528 633.636 79.528C633.188 79.528 632.793 79.656 632.452 79.912C632.111 80.168 631.791 80.536 631.492 81.016V87H630.02V78.568H631.284L631.412 79.816C631.711 79.368 632.079 79.016 632.516 78.76C632.964 78.504 633.455 78.376 633.988 78.376ZM643.651 86.616C643.096 87 642.467 87.192 641.763 87.192C641.048 87.192 640.488 86.9893 640.083 86.584C639.688 86.168 639.491 85.5707 639.491 84.792V79.704H638.019V78.568H639.491V76.664L640.963 76.488V78.568H642.963L642.803 79.704H640.963V84.728C640.963 85.1653 641.038 85.4853 641.187 85.688C641.347 85.88 641.608 85.976 641.971 85.976C642.302 85.976 642.675 85.864 643.091 85.64L643.651 86.616ZM651.011 75.976V85.672H655.539L655.363 87H649.491V75.976H651.011ZM660.141 78.376C661.325 78.376 662.242 78.7707 662.893 79.56C663.554 80.3493 663.885 81.4213 663.885 82.776C663.885 83.6507 663.736 84.424 663.437 85.096C663.138 85.7573 662.706 86.2747 662.141 86.648C661.576 87.0107 660.904 87.192 660.125 87.192C658.941 87.192 658.018 86.7973 657.357 86.008C656.696 85.2187 656.365 84.1467 656.365 82.792C656.365 81.9173 656.514 81.1493 656.813 80.488C657.112 79.816 657.544 79.2987 658.109 78.936C658.674 78.5627 659.352 78.376 660.141 78.376ZM660.141 79.56C658.68 79.56 657.949 80.6373 657.949 82.792C657.949 84.936 658.674 86.008 660.125 86.008C661.576 86.008 662.301 84.9307 662.301 82.776C662.301 80.632 661.581 79.56 660.141 79.56ZM669.389 78.376C669.89 78.376 670.349 78.4507 670.765 78.6C671.181 78.7387 671.581 78.968 671.965 79.288L671.261 80.216C670.962 80.0027 670.669 79.848 670.381 79.752C670.104 79.6453 669.794 79.592 669.453 79.592C668.77 79.592 668.237 79.864 667.853 80.408C667.48 80.952 667.293 81.7573 667.293 82.824C667.293 83.8907 667.48 84.68 667.853 85.192C668.226 85.6933 668.76 85.944 669.453 85.944C669.784 85.944 670.088 85.896 670.365 85.8C670.642 85.6933 670.952 85.528 671.293 85.304L671.965 86.264C671.197 86.8827 670.338 87.192 669.389 87.192C668.248 87.192 667.346 86.808 666.685 86.04C666.034 85.272 665.709 84.2107 665.709 82.856C665.709 81.96 665.858 81.176 666.157 80.504C666.456 79.832 666.877 79.3093 667.421 78.936C667.976 78.5627 668.632 78.376 669.389 78.376ZM679.481 85.032C679.481 85.3733 679.54 85.6293 679.657 85.8C679.775 85.96 679.951 86.0827 680.185 86.168L679.849 87.192C679.412 87.1387 679.06 87.016 678.793 86.824C678.527 86.632 678.329 86.3333 678.201 85.928C677.636 86.7707 676.799 87.192 675.689 87.192C674.857 87.192 674.201 86.9573 673.721 86.488C673.241 86.0187 673.001 85.4053 673.001 84.648C673.001 83.752 673.321 83.064 673.961 82.584C674.612 82.104 675.529 81.864 676.713 81.864H678.009V81.24C678.009 80.6427 677.865 80.216 677.577 79.96C677.289 79.704 676.847 79.576 676.249 79.576C675.631 79.576 674.873 79.7253 673.977 80.024L673.609 78.952C674.655 78.568 675.625 78.376 676.521 78.376C677.513 78.376 678.255 78.6213 678.745 79.112C679.236 79.592 679.481 80.28 679.481 81.176V85.032ZM676.025 86.088C676.868 86.088 677.529 85.6507 678.009 84.776V82.84H676.905C675.348 82.84 674.569 83.416 674.569 84.568C674.569 85.0693 674.692 85.448 674.937 85.704C675.183 85.96 675.545 86.088 676.025 86.088ZM686.76 86.616C686.206 87 685.576 87.192 684.872 87.192C684.158 87.192 683.598 86.9893 683.192 86.584C682.798 86.168 682.6 85.5707 682.6 84.792V79.704H681.128V78.568H682.6V76.664L684.072 76.488V78.568H686.072L685.912 79.704H684.072V84.728C684.072 85.1653 684.147 85.4853 684.296 85.688C684.456 85.88 684.718 85.976 685.08 85.976C685.411 85.976 685.784 85.864 686.2 85.64L686.76 86.616ZM689.758 78.568V87H688.286V78.568H689.758ZM689.006 74.52C689.315 74.52 689.566 74.616 689.758 74.808C689.95 75 690.046 75.24 690.046 75.528C690.046 75.816 689.95 76.056 689.758 76.248C689.566 76.4293 689.315 76.52 689.006 76.52C688.707 76.52 688.462 76.4293 688.27 76.248C688.078 76.056 687.982 75.816 687.982 75.528C687.982 75.24 688.078 75 688.27 74.808C688.462 74.616 688.707 74.52 689.006 74.52ZM695.969 78.376C697.153 78.376 698.071 78.7707 698.721 79.56C699.383 80.3493 699.713 81.4213 699.713 82.776C699.713 83.6507 699.564 84.424 699.265 85.096C698.967 85.7573 698.535 86.2747 697.969 86.648C697.404 87.0107 696.732 87.192 695.953 87.192C694.769 87.192 693.847 86.7973 693.185 86.008C692.524 85.2187 692.193 84.1467 692.193 82.792C692.193 81.9173 692.343 81.1493 692.641 80.488C692.94 79.816 693.372 79.2987 693.937 78.936C694.503 78.5627 695.18 78.376 695.969 78.376ZM695.969 79.56C694.508 79.56 693.777 80.6373 693.777 82.792C693.777 84.936 694.503 86.008 695.953 86.008C697.404 86.008 698.129 84.9307 698.129 82.776C698.129 80.632 697.409 79.56 695.969 79.56ZM706.113 78.376C706.881 78.376 707.478 78.6053 707.905 79.064C708.342 79.5227 708.561 80.152 708.561 80.952V87H707.089V81.16C707.089 80.5627 706.977 80.1413 706.753 79.896C706.529 79.6507 706.198 79.528 705.761 79.528C705.313 79.528 704.918 79.656 704.577 79.912C704.236 80.168 703.916 80.536 703.617 81.016V87H702.145V78.568H703.409L703.537 79.816C703.836 79.368 704.204 79.016 704.641 78.76C705.089 78.504 705.58 78.376 706.113 78.376Z" fill="white"/>
</svg>
