<svg width="908" height="697" viewBox="0 0 908 697" fill="none" xmlns="http://www.w3.org/2000/svg">
<g clip-path="url(#clip0)">
<path d="M83.7942 695.912L83.7519 696.188C83.7016 695.919 83.6532 695.644 83.6073 695.373C83.5233 694.934 83.4504 694.495 83.3817 694.054C80.6551 676.803 82.1555 659.143 87.7529 642.607C88.8288 639.379 90.0542 636.21 91.4291 633.1C96.6872 621.059 104.141 610.112 113.406 600.826C116.415 597.732 119.847 595.085 123.599 592.965C124.15 592.672 124.704 592.394 125.271 592.138C128.741 590.445 132.648 589.876 136.454 590.509C137.836 590.77 139.176 591.222 140.435 591.852C140.877 592.068 141.302 592.305 141.719 592.558C144.263 594.235 146.435 596.421 148.099 598.98C149.763 601.539 150.884 604.416 151.391 607.431C152.113 611.927 151.948 616.523 150.904 620.956C150.815 621.379 150.718 621.801 150.615 622.221C149.875 625.175 148.945 628.078 147.831 630.912C136.68 659.747 112.717 685.33 83.7942 695.912Z" fill="#F2F2F2"/>
<path d="M140.361 591.945C131.66 604.511 123.441 617.396 115.704 630.599C107.976 643.791 100.753 657.266 94.0359 671.022C90.2782 678.718 86.6847 686.493 83.2555 694.345C82.8759 695.214 84.1567 695.97 84.5412 695.09C90.6653 681.073 97.3113 667.302 104.479 653.777C111.642 640.267 119.309 627.043 127.478 614.104C132.049 606.866 136.772 599.728 141.647 592.69C142.192 591.902 140.904 591.161 140.361 591.945Z" fill="white"/>
<path d="M149.671 621.031C143.133 629.571 133.509 635.177 122.886 636.633C119.922 637.04 116.922 637.099 113.944 636.811C112.992 636.721 112.985 638.213 113.929 638.303C125.009 639.239 136.01 635.746 144.543 628.58C146.936 626.57 149.089 624.286 150.957 621.776C151.529 621.011 150.239 620.271 149.671 621.031Z" fill="white"/>
<path d="M93.8284 667.357C92.3083 665.181 91.0453 662.834 90.0649 660.364C87.8251 654.734 87.03 648.627 87.7529 642.607C88.8288 639.379 90.0542 636.21 91.4291 633.1C91.5123 633.223 91.5625 633.365 91.5745 633.512C91.5865 633.66 91.56 633.808 91.4976 633.943C90.5295 636.275 89.8335 638.713 89.4235 641.207C87.9519 650.099 89.9948 659.217 95.1167 666.618C95.1815 666.698 95.2247 666.795 95.2419 666.897C95.2592 666.999 95.25 667.104 95.2153 667.202C95.158 667.332 95.0679 667.444 94.954 667.528C94.8401 667.611 94.7064 667.664 94.5662 667.679C94.4259 667.695 94.284 667.674 94.1546 667.617C94.0251 667.561 93.9127 667.471 93.8284 667.357Z" fill="white"/>
<path d="M123.821 592.021C122.032 599.188 122.565 606.741 125.342 613.582C125.441 613.753 125.602 613.878 125.792 613.93C125.981 613.982 126.183 613.957 126.355 613.86C126.522 613.759 126.644 613.596 126.695 613.407C126.747 613.218 126.724 613.016 126.631 612.843C124.03 606.352 123.547 599.198 125.252 592.413C125.297 592.225 125.267 592.027 125.168 591.861C125.07 591.694 124.911 591.573 124.726 591.522C124.54 591.471 124.342 591.495 124.173 591.588C124.004 591.681 123.878 591.836 123.821 592.021H123.821Z" fill="white"/>
<path d="M83.6119 659.899L83.702 660.163C83.5332 659.948 83.3631 659.727 83.197 659.508C82.92 659.159 82.6525 658.804 82.3876 658.445C71.9997 644.441 65.1665 628.103 62.4802 610.845C61.9411 607.484 61.5616 604.106 61.342 600.711C60.4327 587.592 61.9743 574.418 65.8872 561.87C67.1211 557.725 68.9372 553.779 71.2807 550.15C71.633 549.633 71.995 549.128 72.378 548.637C74.6691 545.518 77.8662 543.19 81.5287 541.973C82.8737 541.559 84.2692 541.334 85.6756 541.304C86.1664 541.289 86.6524 541.3 87.1386 541.329C90.1661 541.627 93.1 542.549 95.7566 544.038C98.4131 545.527 100.735 547.552 102.577 549.985C105.296 553.63 107.273 557.777 108.398 562.189C108.514 562.606 108.624 563.025 108.727 563.445C109.437 566.407 109.955 569.411 110.278 572.441C113.731 603.182 104.334 637.024 83.6119 659.899Z" fill="#F2F2F2"/>
<path d="M85.6526 541.421C83.7555 556.611 82.4322 571.858 81.6826 587.163C80.9364 602.453 80.768 617.758 81.1774 633.076C81.407 641.646 81.818 650.208 82.4106 658.763C82.4761 659.71 83.9597 659.781 83.8934 658.822C82.8379 643.55 82.3585 628.252 82.4552 612.929C82.5543 597.621 83.2312 582.331 84.4858 567.059C85.1881 558.515 86.0713 549.989 87.1353 541.48C87.2542 540.528 85.771 540.473 85.6526 541.421V541.421Z" fill="white"/>
<path d="M107.341 562.832C105.498 573.447 99.566 582.904 90.8315 589.153C88.3948 590.897 85.7652 592.351 82.9955 593.486C82.1101 593.85 82.7939 595.175 83.6717 594.813C93.9168 590.47 102.044 582.24 106.288 571.911C107.478 569.013 108.329 565.986 108.823 562.891C108.976 561.947 107.492 561.894 107.341 562.832V562.832Z" fill="white"/>
<path d="M79.3 629.927C76.9479 628.709 74.7448 627.221 72.7351 625.491C68.1491 621.551 64.6227 616.514 62.4801 610.845C61.941 607.484 61.5616 604.106 61.3419 600.711C61.4722 600.78 61.5822 600.882 61.6611 601.008C61.74 601.133 61.7851 601.277 61.7919 601.425C62.0128 603.942 62.5231 606.426 63.3126 608.826C66.1194 617.388 72.1429 624.509 80.099 628.671C80.1937 628.712 80.2763 628.777 80.3389 628.86C80.4015 628.942 80.4419 629.039 80.4564 629.142C80.4655 629.284 80.4376 629.425 80.3755 629.552C80.3133 629.68 80.2191 629.788 80.1021 629.868C79.9852 629.947 79.8496 629.994 79.7089 630.005C79.5682 630.015 79.4272 629.988 79.3 629.927Z" fill="white"/>
<path d="M71.0403 549.21C72.768 556.392 76.7312 562.832 82.3531 567.594C82.5192 567.699 82.7199 567.734 82.9117 567.692C83.1036 567.65 83.271 567.533 83.3777 567.367C83.479 567.199 83.5121 566.999 83.4701 566.807C83.4281 566.615 83.3142 566.447 83.1522 566.337C77.8486 561.803 74.1149 555.694 72.4893 548.889C72.4416 548.702 72.3233 548.54 72.1593 548.439C71.9954 548.338 71.7987 548.304 71.6107 548.346C71.4227 548.387 71.2581 548.501 71.1517 548.662C71.0453 548.823 71.0053 549.02 71.0403 549.21L71.0403 549.21Z" fill="white"/>
<path d="M84.254 696.095L84.4716 696.269C84.2144 696.18 83.9524 696.085 83.6952 695.991C83.2748 695.847 82.8595 695.693 82.4439 695.534C66.187 689.357 51.6741 679.289 40.163 666.202C37.9077 663.662 35.7778 661.021 33.7732 658.279C25.9772 647.717 20.2168 635.783 16.7894 623.092C15.6081 618.931 15.0236 614.623 15.0536 610.297C15.0734 609.671 15.1079 609.05 15.1673 608.428C15.4265 604.56 16.8728 600.868 19.307 597.861C20.2183 596.784 21.2734 595.839 22.4425 595.052C22.8479 594.774 23.2635 594.52 23.6888 594.282C26.3989 592.893 29.3651 592.082 32.4015 591.899C35.438 591.716 38.4793 592.165 41.3352 593.218C45.5788 594.818 49.4675 597.241 52.7794 600.351C53.1008 600.639 53.4174 600.933 53.7292 601.231C55.9145 603.342 57.9613 605.594 59.8568 607.971C79.239 632.004 89.4569 665.605 84.254 696.095Z" fill="#F2F2F2"/>
<path d="M22.4854 595.163C29.0268 608.989 36.0823 622.552 43.652 635.853C51.2169 649.141 59.276 662.127 67.8294 674.812C72.6152 681.909 77.5498 688.901 82.6333 695.788C83.1957 696.551 84.4841 695.808 83.9144 695.036C74.8412 682.739 66.2398 670.109 58.1102 657.145C49.9904 644.193 42.3673 630.943 35.2409 617.397C31.2542 609.817 27.4295 602.155 23.7666 594.41C23.3568 593.544 22.0771 594.3 22.4854 595.163Z" fill="white"/>
<path d="M52.233 601.465C56.3685 611.406 56.4384 622.586 52.4275 632.579C51.3085 635.367 49.872 638.015 48.1465 640.47C47.5958 641.257 48.8817 642.003 49.4276 641.223C55.7325 632.018 58.1702 620.685 56.2114 609.684C55.6616 606.598 54.7564 603.587 53.5141 600.712C53.1368 599.833 51.8582 600.592 52.233 601.465Z" fill="white"/>
<path d="M64.5602 673.176C61.9259 673.423 59.2719 673.361 56.6519 672.992C50.6761 672.154 45.0059 669.819 40.1629 666.202C37.9076 663.662 35.7777 661.021 33.7731 658.279C33.92 658.267 34.0676 658.293 34.2011 658.356C34.3347 658.419 34.4497 658.516 34.5347 658.637C36.07 660.638 37.8309 662.455 39.7821 664.05C46.7349 669.744 55.6262 672.484 64.5602 671.684C64.6621 671.668 64.7665 671.678 64.8635 671.714C64.9604 671.749 65.0466 671.809 65.1139 671.888C65.1974 672.003 65.2497 672.137 65.2656 672.278C65.2815 672.419 65.2604 672.561 65.2044 672.691C65.1484 672.822 65.0595 672.935 64.9465 673.02C64.8334 673.105 64.7003 673.158 64.5602 673.176Z" fill="white"/>
<path d="M14.3474 609.635C19.6517 614.751 26.4423 618.033 33.7307 619.002C34.1312 619.055 34.4687 618.621 34.4725 618.256C34.4679 618.06 34.3882 617.873 34.2501 617.734C34.112 617.595 33.926 617.515 33.7307 617.511C26.8324 616.561 20.4125 613.434 15.3966 608.581C14.7089 607.915 13.6583 608.968 14.3474 609.635H14.3474Z" fill="white"/>
<path d="M185.525 499.422C186.974 498.423 188.188 497.118 189.081 495.597C189.973 494.077 190.523 492.378 190.692 490.62C190.861 488.863 190.644 487.09 190.057 485.426C189.47 483.762 188.527 482.247 187.295 480.989L191.956 376.419L168.225 379.096L169.604 481.38C167.638 483.601 166.551 486.469 166.549 489.442C166.546 492.414 167.629 495.284 169.591 497.508C171.554 499.732 174.26 501.155 177.197 501.508C180.133 501.861 183.097 501.118 185.525 499.422Z" fill="#FFB8B8"/>
<path d="M228.817 676.436L242.323 678.822L255.672 627.6L237.975 624.078L228.817 676.436Z" fill="#FFB8B8"/>
<path d="M266.165 696.029L223.717 688.529L226.601 672.046L252.648 676.648C254.802 677.029 256.86 677.832 258.705 679.012C260.55 680.192 262.145 681.725 263.401 683.525C264.656 685.325 265.546 687.355 266.02 689.501C266.495 691.646 266.544 693.864 266.165 696.029Z" fill="#2F2E41"/>
<path d="M191.745 683.231L205.459 683.23L211.982 630.069L191.743 630.07L191.745 683.231Z" fill="#FFB8B8"/>
<path d="M231.906 696.027L188.807 696.029L188.806 679.293L215.253 679.292C219.67 679.292 223.905 681.055 227.028 684.193C230.151 687.332 231.906 691.588 231.906 696.027L231.906 696.027Z" fill="#2F2E41"/>
<path d="M250.081 668.673C249.867 668.673 249.653 668.661 249.44 668.635L233.3 667.3C232.565 667.213 231.855 666.977 231.214 666.606C230.572 666.235 230.013 665.737 229.569 665.142C229.125 664.547 228.806 663.867 228.632 663.145C228.457 662.422 228.431 661.671 228.554 660.938L243.458 576.982L233.387 523.612C233.305 523.178 233.07 522.789 232.725 522.516C232.38 522.243 231.948 522.105 231.509 522.127C231.071 522.149 230.655 522.329 230.338 522.635C230.022 522.941 229.826 523.352 229.787 523.792L217.197 666.146C217.058 667.574 216.373 668.893 215.286 669.823C214.199 670.754 212.795 671.224 211.369 671.134L196.163 670.565C194.83 670.47 193.578 669.888 192.643 668.929C191.709 667.97 191.155 666.7 191.089 665.359L190.066 494.742L268.904 484.839L274.411 570.323L274.389 570.413L255.384 664.48C255.094 665.675 254.414 666.737 253.453 667.497C252.491 668.258 251.304 668.672 250.081 668.673Z" fill="#2F2E41"/>
<path d="M216.059 308.656C231.232 308.656 243.532 296.294 243.532 281.045C243.532 265.795 231.232 253.433 216.059 253.433C200.886 253.433 188.586 265.795 188.586 281.045C188.586 296.294 200.886 308.656 216.059 308.656Z" fill="#FFB8B8"/>
<path d="M241.945 507.212C237.649 507.238 233.434 506.027 229.801 503.721C216.493 495.362 201.378 498.684 193.552 501.408C192.776 501.682 191.948 501.775 191.13 501.681C190.313 501.588 189.527 501.31 188.831 500.868C188.144 500.434 187.563 499.849 187.132 499.158C186.701 498.467 186.431 497.686 186.343 496.875L172.112 369.138C169.728 347.736 182.555 327.614 202.613 321.293C203.366 321.055 204.133 320.83 204.912 320.617C211.154 318.916 217.69 318.611 224.062 319.722C230.434 320.834 236.486 323.335 241.793 327.05C247.198 330.806 251.718 335.707 255.036 341.409C258.354 347.11 260.388 353.472 260.995 360.049L272.975 488.642C273.057 489.474 272.945 490.315 272.648 491.096C272.352 491.878 271.879 492.58 271.267 493.147C267.067 497.051 254.878 507.211 241.945 507.212Z" fill="#F19427"/>
<path d="M198.611 396.53L166.505 392.982C165.591 392.881 164.71 392.584 163.921 392.11C163.133 391.636 162.455 390.996 161.934 390.235C161.413 389.474 161.062 388.609 160.904 387.699C160.746 386.79 160.785 385.856 161.018 384.963L169.19 353.658C169.73 348.964 172.101 344.676 175.782 341.736C179.463 338.795 184.154 337.442 188.826 337.972C193.499 338.502 197.771 340.873 200.707 344.564C203.643 348.256 205.002 352.966 204.488 357.664L205.701 389.9C205.735 390.823 205.571 391.743 205.22 392.597C204.869 393.45 204.339 394.218 203.666 394.847C202.994 395.476 202.194 395.952 201.321 396.243C200.449 396.533 199.525 396.631 198.611 396.53V396.53Z" fill="#F19427"/>
<path d="M272.847 494.944C274.165 493.778 275.213 492.335 275.917 490.717C276.621 489.099 276.963 487.346 276.92 485.581C276.877 483.816 276.449 482.082 275.667 480.501C274.885 478.92 273.767 477.531 272.393 476.431L264.481 372.059L241.228 377.319L254.878 478.962C253.193 481.405 252.457 484.384 252.811 487.335C253.165 490.287 254.584 493.005 256.799 494.975C259.014 496.944 261.871 498.029 264.829 498.024C267.786 498.018 270.639 496.922 272.847 494.944V494.944Z" fill="#FFB8B8"/>
<path d="M232.313 389.969C231.64 389.341 231.11 388.573 230.759 387.719C230.408 386.866 230.244 385.946 230.279 385.023L231.493 352.787C230.978 348.089 232.337 343.378 235.273 339.687C238.209 335.996 242.482 333.625 247.154 333.095C251.826 332.564 256.517 333.918 260.198 336.858C263.879 339.799 266.25 344.086 266.79 348.781L274.962 380.085C275.196 380.979 275.234 381.912 275.076 382.822C274.918 383.732 274.567 384.597 274.046 385.358C273.525 386.119 272.847 386.759 272.059 387.233C271.27 387.707 270.389 388.004 269.475 388.105L237.369 391.653C236.455 391.755 235.531 391.657 234.658 391.366C233.786 391.076 232.986 390.599 232.313 389.969Z" fill="#F19427"/>
<path d="M214.425 309.696C213.937 309.696 213.45 309.639 212.975 309.526L212.835 309.492C188.68 305.778 183.342 291.717 182.171 285.844C180.958 279.765 182.339 273.896 185.459 271.617C183.758 266.218 184.031 261.431 186.273 257.382C190.183 250.322 198.668 247.935 199.806 247.643C206.582 242.618 214.69 245.972 216.165 246.653C229.273 241.779 234.283 245.836 235.189 246.741C241.048 247.799 244.62 250.074 245.805 253.504C248.032 259.947 240.989 267.961 240.688 268.299L240.532 268.474L230.04 268.977C229.044 269.024 228.07 269.282 227.18 269.733C226.29 270.183 225.504 270.817 224.873 271.592C224.242 272.368 223.78 273.268 223.518 274.235C223.256 275.201 223.198 276.212 223.35 277.202C223.634 278.48 223.992 279.739 224.424 280.974C226.216 286.603 227.559 291.411 225.827 293.238C225.435 293.592 224.951 293.828 224.432 293.918C223.912 294.009 223.378 293.95 222.89 293.75C221.25 293.31 220.136 293.402 219.581 294.025C218.72 294.991 218.983 297.437 220.322 300.911C220.742 302.01 220.855 303.203 220.649 304.362C220.443 305.521 219.925 306.6 219.152 307.485C218.57 308.175 217.846 308.73 217.03 309.112C216.214 309.493 215.325 309.693 214.425 309.696Z" fill="#2F2E41"/>
<path d="M538.876 397.965H403.531C398.489 397.959 393.656 395.943 390.091 392.361C386.526 388.778 384.521 383.92 384.515 378.853V174.439C384.521 169.373 386.526 164.515 390.091 160.932C393.656 157.349 398.489 155.334 403.531 155.328H538.876C543.917 155.334 548.751 157.349 552.316 160.932C555.881 164.515 557.886 169.373 557.891 174.439V378.853C557.886 383.92 555.881 388.778 552.316 392.361C548.751 395.943 543.917 397.959 538.876 397.965ZM403.531 157.577C399.082 157.582 394.817 159.36 391.672 162.521C388.527 165.682 386.757 169.969 386.752 174.439V378.853C386.757 383.324 388.527 387.61 391.672 390.772C394.817 393.933 399.082 395.711 403.531 395.716H538.876C543.324 395.711 547.589 393.933 550.735 390.772C553.88 387.61 555.649 383.324 555.654 378.853V174.439C555.649 169.969 553.88 165.682 550.735 162.521C547.589 159.36 543.324 157.582 538.876 157.577H403.531Z" fill="#3F3D56"/>
<path d="M518.183 253.601H424.224C421.703 253.598 419.286 252.59 417.504 250.799C415.722 249.007 414.719 246.578 414.716 244.045V199.077C414.719 196.544 415.722 194.115 417.504 192.323C419.286 190.532 421.703 189.524 424.224 189.521H518.183C520.703 189.524 523.12 190.532 524.902 192.323C526.685 194.115 527.688 196.544 527.69 199.077V244.045C527.688 246.578 526.685 249.007 524.902 250.799C523.12 252.59 520.703 253.598 518.183 253.601Z" fill="#F19427"/>
<path d="M511.471 295.758H430.935C428.562 295.758 426.286 294.81 424.608 293.124C422.93 291.437 421.987 289.15 421.987 286.764C421.987 284.379 422.93 282.092 424.608 280.405C426.286 278.718 428.562 277.771 430.935 277.771H511.471C513.845 277.771 516.121 278.718 517.799 280.405C519.477 282.092 520.42 284.379 520.42 286.764C520.42 289.15 519.477 291.437 517.799 293.124C516.121 294.81 513.845 295.758 511.471 295.758Z" fill="#CCCCCC"/>
<path d="M511.471 329.484H430.935C428.562 329.484 426.286 328.536 424.608 326.85C422.93 325.163 421.987 322.875 421.987 320.49C421.987 318.105 422.93 315.817 424.608 314.131C426.286 312.444 428.562 311.497 430.935 311.497H511.471C513.845 311.497 516.121 312.444 517.799 314.131C519.477 315.817 520.42 318.105 520.42 320.49C520.42 322.875 519.477 325.163 517.799 326.85C516.121 328.536 513.845 329.484 511.471 329.484Z" fill="#CCCCCC"/>
<path d="M511.471 363.209H430.935C428.562 363.209 426.286 362.262 424.608 360.575C422.93 358.889 421.987 356.601 421.987 354.216C421.987 351.831 422.93 349.543 424.608 347.857C426.286 346.17 428.562 345.222 430.935 345.222H511.471C513.845 345.222 516.121 346.17 517.799 347.857C519.477 349.543 520.42 351.831 520.42 354.216C520.42 356.601 519.477 358.889 517.799 360.575C516.121 362.262 513.845 363.209 511.471 363.209Z" fill="#CCCCCC"/>
<path d="M868.85 512.632H733.505C728.464 512.627 723.63 510.611 720.065 507.028C716.5 503.446 714.495 498.588 714.49 493.521V289.107C714.495 284.04 716.5 279.183 720.065 275.6C723.63 272.017 728.464 270.002 733.505 269.996H868.85C873.892 270.002 878.725 272.017 882.29 275.6C885.855 279.183 887.86 284.04 887.866 289.107V493.521C887.86 498.588 885.855 503.446 882.29 507.028C878.725 510.611 873.892 512.627 868.85 512.632ZM733.505 272.244C729.057 272.249 724.792 274.028 721.646 277.189C718.501 280.35 716.732 284.636 716.727 289.107V493.521C716.732 497.992 718.501 502.278 721.646 505.439C724.792 508.601 729.057 510.379 733.505 510.384H868.85C873.299 510.379 877.564 508.601 880.709 505.439C883.854 502.278 885.624 497.992 885.629 493.521V289.107C885.624 284.636 883.854 280.35 880.709 277.189C877.564 274.028 873.299 272.249 868.85 272.244H733.505Z" fill="#3F3D56"/>
<path d="M841.446 320.49H760.91C758.536 320.49 756.26 319.542 754.582 317.856C752.904 316.169 751.961 313.882 751.961 311.496C751.961 309.111 752.904 306.824 754.582 305.137C756.26 303.45 758.536 302.503 760.91 302.503H841.446C843.819 302.503 846.095 303.45 847.773 305.137C849.452 306.824 850.394 309.111 850.394 311.496C850.394 313.882 849.452 316.169 847.773 317.856C846.095 319.542 843.819 320.49 841.446 320.49Z" fill="#CCCCCC"/>
<path d="M841.446 354.216H760.91C758.536 354.216 756.26 353.268 754.582 351.582C752.904 349.895 751.961 347.608 751.961 345.222C751.961 342.837 752.904 340.55 754.582 338.863C756.26 337.176 758.536 336.229 760.91 336.229H841.446C843.819 336.229 846.095 337.176 847.773 338.863C849.452 340.55 850.394 342.837 850.394 345.222C850.394 347.608 849.452 349.895 847.773 351.582C846.095 353.268 843.819 354.216 841.446 354.216Z" fill="#CCCCCC"/>
<path d="M848.157 440.216H754.198C751.678 440.213 749.261 439.205 747.479 437.414C745.696 435.623 744.694 433.194 744.691 430.661V385.693C744.694 383.159 745.696 380.731 747.479 378.939C749.261 377.148 751.678 376.14 754.198 376.137H848.157C850.678 376.14 853.094 377.148 854.877 378.939C856.659 380.731 857.662 383.159 857.665 385.693V430.661C857.662 433.194 856.659 435.623 854.877 437.414C853.094 439.205 850.678 440.213 848.157 440.216Z" fill="#E6E6E6"/>
<path d="M841.446 480.125H760.91C758.536 480.125 756.26 479.178 754.582 477.491C752.904 475.805 751.961 473.517 751.961 471.132C751.961 468.747 752.904 466.459 754.582 464.773C756.26 463.086 758.536 462.138 760.91 462.138H841.446C843.819 462.138 846.095 463.086 847.773 464.773C849.452 466.459 850.394 468.747 850.394 471.132C850.394 473.517 849.452 475.805 847.773 477.491C846.095 479.178 843.819 480.125 841.446 480.125Z" fill="#CCCCCC"/>
<path d="M786.077 187.74H650.732C645.69 187.735 640.857 185.719 637.292 182.137C633.727 178.554 631.722 173.696 631.716 168.629V41.7846C631.722 36.7178 633.727 31.86 637.292 28.2772C640.857 24.6944 645.69 22.679 650.732 22.6733H786.077C791.119 22.679 795.952 24.6944 799.517 28.2772C803.082 31.86 805.087 36.7178 805.093 41.7846V168.629C805.087 173.696 803.082 178.554 799.517 182.137C795.952 185.719 791.119 187.735 786.077 187.74ZM650.732 24.9217C646.283 24.9268 642.019 26.705 638.873 29.8664C635.728 33.0277 633.959 37.3139 633.953 41.7846V168.629C633.959 173.1 635.728 177.386 638.873 180.547C642.019 183.709 646.283 185.487 650.732 185.492H786.077C790.526 185.487 794.79 183.709 797.936 180.547C801.081 177.386 802.851 173.1 802.856 168.629V41.7846C802.851 37.3139 801.081 33.0277 797.936 29.8664C794.79 26.705 790.526 24.9268 786.077 24.9217H650.732Z" fill="#3F3D56"/>
<path d="M758.673 147.926H678.137C675.763 147.926 673.487 146.979 671.809 145.292C670.131 143.606 669.188 141.318 669.188 138.933C669.188 136.548 670.131 134.26 671.809 132.573C673.487 130.887 675.763 129.939 678.137 129.939H758.673C761.046 129.939 763.322 130.887 765 132.573C766.678 134.26 767.621 136.548 767.621 138.933C767.621 141.318 766.678 143.606 765 145.292C763.322 146.979 761.046 147.926 758.673 147.926Z" fill="#CCCCCC"/>
<path d="M758.673 114.2H678.137C675.763 114.2 673.487 113.253 671.809 111.566C670.131 109.88 669.188 107.592 669.188 105.207C669.188 102.822 670.131 100.534 671.809 98.8475C673.487 97.1609 675.763 96.2134 678.137 96.2134H758.673C761.046 96.2134 763.322 97.1609 765 98.8475C766.678 100.534 767.621 102.822 767.621 105.207C767.621 107.592 766.678 109.88 765 111.566C763.322 113.253 761.046 114.2 758.673 114.2Z" fill="#CCCCCC"/>
<path d="M758.673 80.4746H678.137C675.763 80.4746 673.487 79.5271 671.809 77.8405C670.131 76.1539 669.188 73.8663 669.188 71.4811C669.188 69.0959 670.131 66.8083 671.809 65.1217C673.487 63.4351 675.763 62.4875 678.137 62.4875H758.673C761.046 62.4875 763.322 63.4351 765 65.1217C766.678 66.8083 767.621 69.0959 767.621 71.4811C767.621 73.8663 766.678 76.1539 765 77.8405C763.322 79.5271 761.046 80.4746 758.673 80.4746Z" fill="#CCCCCC"/>
<path d="M546.706 186.616C560.915 186.616 572.433 175.04 572.433 160.76C572.433 146.48 560.915 134.903 546.706 134.903C532.497 134.903 520.979 146.48 520.979 160.76C520.979 175.04 532.497 186.616 546.706 186.616Z" fill="#F19427"/>
<path d="M544.156 170.623C543.577 170.624 543.014 170.436 542.55 170.087L542.522 170.066L536.476 165.413C536.194 165.198 535.958 164.929 535.78 164.622C535.602 164.315 535.487 163.976 535.44 163.624C535.393 163.271 535.415 162.913 535.506 162.57C535.597 162.227 535.755 161.905 535.97 161.623C536.185 161.341 536.453 161.104 536.759 160.926C537.065 160.749 537.404 160.634 537.754 160.588C538.105 160.542 538.461 160.566 538.802 160.658C539.143 160.751 539.463 160.91 539.743 161.127L543.659 164.145L552.914 152.015C553.128 151.734 553.396 151.498 553.701 151.321C554.007 151.143 554.344 151.028 554.694 150.982C555.043 150.935 555.399 150.959 555.739 151.05C556.08 151.142 556.4 151.3 556.68 151.516L556.622 151.594L556.681 151.517C557.246 151.953 557.615 152.597 557.708 153.306C557.802 154.016 557.611 154.734 557.178 155.302L546.293 169.57C546.041 169.898 545.717 170.165 545.347 170.347C544.976 170.53 544.569 170.624 544.156 170.623Z" fill="white"/>
<path d="M882.273 302.408C896.482 302.408 908 290.832 908 276.552C908 262.271 896.482 250.695 882.273 250.695C868.065 250.695 856.546 262.271 856.546 276.552C856.546 290.832 868.065 302.408 882.273 302.408Z" fill="#3F3D56"/>
<path d="M879.723 286.415C879.144 286.416 878.581 286.228 878.118 285.879L878.089 285.858L872.043 281.205C871.762 280.99 871.525 280.721 871.347 280.414C871.17 280.107 871.054 279.768 871.007 279.416C870.96 279.063 870.982 278.705 871.073 278.362C871.164 278.019 871.322 277.697 871.537 277.415C871.752 277.133 872.02 276.896 872.326 276.718C872.633 276.541 872.971 276.426 873.321 276.38C873.672 276.334 874.028 276.358 874.369 276.45C874.711 276.543 875.03 276.702 875.31 276.919L879.226 279.937L888.481 267.807C888.696 267.526 888.963 267.29 889.269 267.113C889.574 266.935 889.911 266.82 890.261 266.774C890.611 266.727 890.966 266.751 891.307 266.842C891.648 266.934 891.967 267.092 892.247 267.308L892.189 267.386L892.249 267.309C892.813 267.745 893.183 268.389 893.276 269.098C893.369 269.808 893.178 270.525 892.746 271.094L881.86 285.362C881.608 285.69 881.285 285.957 880.914 286.139C880.543 286.322 880.136 286.416 879.723 286.415Z" fill="white"/>
<path d="M800.618 51.7129C814.827 51.7129 826.345 40.1366 826.345 25.8565C826.345 11.5763 814.827 0 800.618 0C786.41 0 774.892 11.5763 774.892 25.8565C774.892 40.1366 786.41 51.7129 800.618 51.7129Z" fill="#3F3D56"/>
<path d="M798.069 35.7202C797.49 35.7213 796.926 35.5332 796.463 35.1842L796.434 35.1625L790.388 30.5102C790.107 30.2951 789.871 30.0263 789.693 29.7192C789.515 29.412 789.399 29.0727 789.352 28.7205C789.305 28.3683 789.328 28.0103 789.419 27.6669C789.51 27.3236 789.667 27.0016 789.882 26.7196C790.097 26.4375 790.366 26.2009 790.672 26.0233C790.978 25.8457 791.316 25.7306 791.667 25.6846C792.017 25.6386 792.373 25.6626 792.715 25.7552C793.056 25.8478 793.376 26.0073 793.656 26.2244L797.572 29.2423L806.826 17.1124C807.041 16.8311 807.309 16.595 807.614 16.4176C807.919 16.2402 808.257 16.125 808.606 16.0786C808.956 16.0322 809.311 16.0555 809.652 16.1472C809.993 16.2388 810.312 16.397 810.592 16.6128L810.535 16.6913L810.594 16.6139C811.158 17.05 811.528 17.6935 811.621 18.4031C811.714 19.1127 811.524 19.8304 811.091 20.3989L800.206 34.6666C799.954 34.9954 799.63 35.2614 799.259 35.4441C798.889 35.6269 798.481 35.7213 798.069 35.7202Z" fill="white"/>
<path d="M427.289 697H1.11856C0.821898 697 0.537387 696.881 0.327617 696.671C0.117847 696.46 0 696.174 0 695.876C0 695.577 0.117847 695.292 0.327617 695.081C0.537387 694.87 0.821898 694.751 1.11856 694.751H427.289C427.586 694.751 427.87 694.87 428.08 695.081C428.29 695.292 428.407 695.577 428.407 695.876C428.407 696.174 428.29 696.46 428.08 696.671C427.87 696.881 427.586 697 427.289 697Z" fill="#3F3D56"/>
</g>
<defs>
<clipPath id="clip0">
<rect width="908" height="697" fill="white"/>
</clipPath>
</defs>
</svg>
