<svg width="702" height="441" viewBox="0 0 702 441" fill="none" xmlns="http://www.w3.org/2000/svg">
<g clip-path="url(#clip0)">
<path d="M669.42 441H76.0846C70.8081 441 65.7478 438.905 62.0168 435.175C58.2858 431.446 56.1897 426.388 56.1897 421.114C271.274 396.128 482.316 396.128 689.315 421.114C689.315 426.388 687.219 431.446 683.488 435.175C679.757 438.905 674.697 441 669.42 441Z" fill="#CCCCCC"/>
<path d="M689.315 422.284L56.1897 421.114L129.567 297.704L129.918 297.119V25.1382C129.918 21.8369 130.568 18.5679 131.832 15.5179C133.095 12.4678 134.948 9.69654 137.283 7.36219C139.619 5.02784 142.391 3.17619 145.443 1.91297C148.494 0.64976 151.765 -0.000275772 155.067 8.77643e-08H586.927C590.23 -0.000275772 593.5 0.64976 596.551 1.91297C599.603 3.17619 602.375 5.02784 604.711 7.36219C607.046 9.69654 608.899 12.4678 610.162 15.5179C611.426 18.5679 612.077 21.8369 612.076 25.1382V298.991L689.315 422.284Z" fill="#E6E6E6"/>
<path d="M154.494 17.5464C152.322 17.5488 150.24 18.4123 148.704 19.9474C147.168 21.4825 146.304 23.5638 146.302 25.7347V273.724C146.304 275.895 147.168 277.976 148.704 279.511C150.24 281.046 152.322 281.91 154.494 281.912H591.011C593.183 281.91 595.265 281.046 596.801 279.511C598.337 277.976 599.201 275.895 599.203 273.724V25.7347C599.201 23.5638 598.337 21.4825 596.801 19.9475C595.265 18.4124 593.183 17.5489 591.011 17.5464H154.494Z" fill="white"/>
<path d="M157.363 314.666C156.692 314.667 156.035 314.86 155.47 315.222C154.904 315.584 154.455 316.099 154.173 316.708L131.563 365.838C131.317 366.373 131.209 366.961 131.25 367.548C131.291 368.135 131.479 368.703 131.796 369.198C132.114 369.694 132.551 370.101 133.068 370.384C133.584 370.666 134.164 370.814 134.752 370.814H610.223C610.822 370.814 611.41 370.661 611.933 370.37C612.456 370.079 612.895 369.659 613.21 369.15C613.524 368.641 613.703 368.06 613.73 367.463C613.757 366.865 613.631 366.27 613.363 365.735L588.787 316.605C588.497 316.021 588.049 315.53 587.494 315.187C586.939 314.845 586.3 314.664 585.647 314.666L157.363 314.666Z" fill="#CCCCCC"/>
<path d="M370.997 13.4522C373.906 13.4522 376.263 11.0954 376.263 8.18824C376.263 5.28106 373.906 2.92432 370.997 2.92432C368.089 2.92432 365.731 5.28106 365.731 8.18824C365.731 11.0954 368.089 13.4522 370.997 13.4522Z" fill="white"/>
<path d="M324.262 380.172C323.49 380.173 322.74 380.428 322.128 380.897C321.515 381.367 321.074 382.024 320.872 382.769L315.201 403.825C315.061 404.345 315.042 404.89 315.147 405.419C315.251 405.947 315.476 406.444 315.804 406.872C316.132 407.299 316.554 407.646 317.037 407.884C317.52 408.123 318.052 408.247 318.591 408.247H426.449C427.008 408.247 427.56 408.113 428.057 407.856C428.555 407.6 428.984 407.228 429.308 406.773C429.633 406.317 429.844 405.79 429.923 405.236C430.003 404.683 429.948 404.118 429.765 403.589L422.474 382.534C422.235 381.844 421.787 381.246 421.192 380.823C420.598 380.4 419.886 380.173 419.156 380.172H324.262Z" fill="#CCCCCC"/>
<path d="M612.077 293.025V297.705H129.567L129.93 297.119V293.025H612.077Z" fill="#CCCCCC"/>
<path d="M552.52 303.744C552.332 303.744 552.149 303.806 552 303.92C551.851 304.034 551.743 304.195 551.694 304.376L550.313 309.503C550.279 309.63 550.275 309.763 550.3 309.891C550.326 310.02 550.38 310.141 550.46 310.245C550.54 310.349 550.643 310.434 550.76 310.492C550.878 310.55 551.008 310.58 551.139 310.58H577.404C577.54 310.58 577.674 310.548 577.795 310.485C577.917 310.423 578.021 310.332 578.1 310.221C578.179 310.11 578.231 309.982 578.25 309.847C578.269 309.712 578.256 309.575 578.211 309.446L576.436 304.319C576.378 304.151 576.269 304.005 576.124 303.902C575.979 303.799 575.806 303.744 575.628 303.744H552.52Z" fill="#CCCCCC"/>
<path d="M514.17 303.744C513.982 303.744 513.799 303.806 513.65 303.92C513.501 304.034 513.393 304.195 513.344 304.376L511.963 309.503C511.929 309.63 511.925 309.763 511.95 309.891C511.975 310.02 512.03 310.141 512.11 310.245C512.19 310.349 512.293 310.434 512.41 310.492C512.528 310.55 512.657 310.58 512.789 310.58H539.054C539.19 310.58 539.324 310.548 539.445 310.485C539.566 310.423 539.671 310.332 539.75 310.221C539.829 310.11 539.88 309.982 539.9 309.847C539.919 309.712 539.906 309.575 539.861 309.446L538.086 304.319C538.027 304.151 537.918 304.005 537.774 303.902C537.629 303.799 537.455 303.744 537.278 303.744H514.17Z" fill="#CCCCCC"/>
<path d="M403.061 336.323H405.12L401.003 61.2939H398.944L399.026 66.7808H352.889L352.971 61.2939H350.913L346.796 336.323H348.854L349.121 318.491H402.794L403.061 336.323ZM400.094 138.11H351.821L352.324 104.503H399.591L400.094 138.11ZM400.125 140.168L400.628 173.775H351.287L351.79 140.168H400.125ZM400.659 175.832L401.162 209.439H350.754L351.257 175.832H400.659ZM401.193 211.497L401.696 245.104H350.22L350.723 211.497H401.193ZM401.727 247.162L402.23 280.769H349.686L350.189 247.162H401.727ZM399.057 68.8384L399.56 102.445H352.355L352.858 68.8384H399.057ZM349.152 316.433L349.655 282.826H402.261L402.764 316.433H349.152Z" fill="#3F3D56"/>
<path d="M365.76 156.023C384.298 156.023 399.326 141.002 399.326 122.472C399.326 103.942 384.298 88.9207 365.76 88.9207C347.222 88.9207 332.194 103.942 332.194 122.472C332.194 141.002 347.222 156.023 365.76 156.023Z" fill="#2F2E41"/>
<path d="M385.504 145.658L375.47 147.474L378.724 165.444L388.759 163.628L385.504 145.658Z" fill="#2F2E41"/>
<path d="M365.436 149.29L355.401 151.105L358.656 169.075L368.69 167.26L365.436 149.29Z" fill="#2F2E41"/>
<path d="M363.983 172.857C367.564 169.825 369.545 166.279 368.408 164.937C367.271 163.595 363.445 164.964 359.864 167.996C356.282 171.027 354.301 174.573 355.439 175.916C356.576 177.258 360.401 175.889 363.983 172.857Z" fill="#2F2E41"/>
<path d="M383.633 169.301C387.215 166.27 389.196 162.724 388.058 161.381C386.921 160.039 383.096 161.408 379.514 164.44C375.933 167.472 373.952 171.018 375.089 172.36C376.226 173.703 380.052 172.333 383.633 169.301Z" fill="#2F2E41"/>
<path d="M363.41 125.732C369.746 125.732 374.882 120.598 374.882 114.265C374.882 107.932 369.746 102.798 363.41 102.798C357.074 102.798 351.938 107.932 351.938 114.265C351.938 120.598 357.074 125.732 363.41 125.732Z" fill="white"/>
<path d="M358.695 113.977C360.807 113.977 362.519 112.266 362.519 110.155C362.519 108.044 360.807 106.333 358.695 106.333C356.583 106.333 354.871 108.044 354.871 110.155C354.871 112.266 356.583 113.977 358.695 113.977Z" fill="#3F3D56"/>
<path d="M392.239 85.9718C392.744 73.5506 382.034 63.0299 368.318 62.473C354.601 61.9161 343.073 71.5339 342.568 83.955C342.063 96.3762 351.598 99.1983 365.314 99.7553C379.031 100.312 391.735 98.3929 392.239 85.9718Z" fill="#F19427"/>
<path d="M351.125 120.107C351.775 117.272 344.978 113.296 335.944 111.226C326.909 109.156 319.058 109.776 318.407 112.611C317.757 115.446 324.554 119.423 333.589 121.493C342.624 123.563 350.475 122.942 351.125 120.107Z" fill="#2F2E41"/>
<path d="M417.014 131.06C417.665 128.225 410.868 124.249 401.833 122.179C392.798 120.109 384.947 120.729 384.297 123.564C383.647 126.399 390.444 130.375 399.478 132.445C408.513 134.515 416.364 133.895 417.014 131.06Z" fill="#2F2E41"/>
<path d="M374.979 135.694C375.16 136.682 375.144 137.696 374.933 138.678C374.721 139.66 374.318 140.591 373.747 141.417C373.175 142.243 372.447 142.949 371.602 143.493C370.758 144.038 369.814 144.41 368.826 144.59C367.837 144.77 366.823 144.754 365.841 144.541C364.858 144.329 363.928 143.926 363.101 143.354C362.275 142.782 361.57 142.053 361.026 141.208C360.482 140.364 360.11 139.421 359.931 138.432L359.928 138.417C359.175 134.263 362.389 132.793 366.545 132.041C370.702 131.289 374.227 131.539 374.979 135.694Z" fill="white"/>
<path d="M252.073 236.424C255.465 227.552 255.957 219.498 253.17 218.433C250.384 217.369 245.375 223.697 241.983 232.569C238.59 241.441 238.099 249.496 240.885 250.56C243.672 251.625 248.68 245.296 252.073 236.424Z" fill="#2F2E41"/>
<path d="M249.188 265.978C252.232 247.228 239.493 229.562 220.735 226.519C201.977 223.477 184.303 236.21 181.259 254.96C178.214 273.709 190.953 291.376 209.712 294.418C228.47 297.461 246.144 284.728 249.188 265.978Z" fill="#2F2E41"/>
<path d="M209.997 287.461H199.543V306.182H209.997V287.461Z" fill="#2F2E41"/>
<path d="M230.904 287.461H220.45V306.182H230.904V287.461Z" fill="#2F2E41"/>
<path d="M208.254 309.665C213.065 309.665 216.966 308.203 216.966 306.4C216.966 304.596 213.065 303.134 208.254 303.134C203.443 303.134 199.543 304.596 199.543 306.4C199.543 308.203 203.443 309.665 208.254 309.665Z" fill="#2F2E41"/>
<path d="M229.161 309.229C233.972 309.229 237.872 307.768 237.872 305.964C237.872 304.161 233.972 302.699 229.161 302.699C224.35 302.699 220.45 304.161 220.45 305.964C220.45 307.768 224.35 309.229 229.161 309.229Z" fill="#2F2E41"/>
<path d="M181.845 228.484C179.067 216.046 187.948 203.479 201.682 200.414C215.417 197.348 228.803 204.946 231.581 217.383C234.359 229.82 225.257 234.407 211.523 237.473C197.789 240.538 184.624 240.921 181.845 228.484Z" fill="#F19427"/>
<path d="M192.012 251.879C193.29 249.185 187.367 243.702 178.782 239.632C170.196 235.562 162.201 234.447 160.922 237.141C159.644 239.834 165.567 245.318 174.153 249.388C182.738 253.458 190.734 254.573 192.012 251.879Z" fill="#2F2E41"/>
<path d="M66.2346 329.688C85.2382 329.688 100.644 314.289 100.644 295.294C100.644 276.299 85.2382 260.9 66.2346 260.9C47.2309 260.9 31.8254 276.299 31.8254 295.294C31.8254 314.289 47.2309 329.688 66.2346 329.688Z" fill="#2F2E41"/>
<path d="M61.0079 322.286H50.5544V341.007H61.0079V322.286Z" fill="#2F2E41"/>
<path d="M81.9146 322.286H71.4612V341.007H81.9146V322.286Z" fill="#2F2E41"/>
<path d="M59.2656 344.49C64.0767 344.49 67.9768 343.028 67.9768 341.225C67.9768 339.421 64.0767 337.959 59.2656 337.959C54.4546 337.959 50.5544 339.421 50.5544 341.225C50.5544 343.028 54.4546 344.49 59.2656 344.49Z" fill="#2F2E41"/>
<path d="M80.1724 344.054C84.9835 344.054 88.8836 342.592 88.8836 340.789C88.8836 338.986 84.9835 337.524 80.1724 337.524C75.3614 337.524 71.4612 338.986 71.4612 340.789C71.4612 342.592 75.3614 344.054 80.1724 344.054Z" fill="#2F2E41"/>
<path d="M67.1057 298.341C73.6006 298.341 78.8658 293.079 78.8658 286.587C78.8658 280.095 73.6006 274.832 67.1057 274.832C60.6108 274.832 55.3456 280.095 55.3456 286.587C55.3456 293.079 60.6108 298.341 67.1057 298.341Z" fill="white"/>
<path d="M67.1058 290.505C69.2707 290.505 71.0258 288.75 71.0258 286.586C71.0258 284.422 69.2707 282.668 67.1058 282.668C64.9408 282.668 63.1857 284.422 63.1857 286.586C63.1857 288.75 64.9408 290.505 67.1058 290.505Z" fill="#3F3D56"/>
<path d="M32.8565 263.309C30.0781 250.872 38.9595 238.304 52.6936 235.239C66.4277 232.174 79.8137 239.771 82.5921 252.208C85.3705 264.646 76.2684 269.233 62.5343 272.298C48.8002 275.363 35.6349 275.746 32.8565 263.309Z" fill="#E6E6E6"/>
<path d="M91.324 172.422C94.7164 163.55 95.2078 155.495 92.4214 154.431C89.6351 153.366 84.6263 159.695 81.2338 168.567C77.8414 177.439 77.3501 185.493 80.1364 186.558C82.9227 187.622 87.9316 181.293 91.324 172.422Z" fill="#2F2E41"/>
<path d="M88.4394 201.976C91.4834 183.226 78.7445 165.56 59.9863 162.517C41.228 159.474 23.5537 172.207 20.5097 190.957C17.4656 209.707 30.2045 227.373 48.9628 230.416C67.7211 233.459 85.3953 220.726 88.4394 201.976Z" fill="#2F2E41"/>
<path d="M49.2477 223.459H38.7943V242.18H49.2477V223.459Z" fill="#2F2E41"/>
<path d="M70.1545 223.459H59.7011V242.18H70.1545V223.459Z" fill="#2F2E41"/>
<path d="M47.5055 245.663C52.3166 245.663 56.2167 244.201 56.2167 242.397C56.2167 240.594 52.3166 239.132 47.5055 239.132C42.6944 239.132 38.7943 240.594 38.7943 242.397C38.7943 244.201 42.6944 245.663 47.5055 245.663Z" fill="#2F2E41"/>
<path d="M68.4123 245.227C73.2234 245.227 77.1235 243.765 77.1235 241.962C77.1235 240.158 73.2234 238.697 68.4123 238.697C63.6012 238.697 59.7011 240.158 59.7011 241.962C59.7011 243.765 63.6012 245.227 68.4123 245.227Z" fill="#2F2E41"/>
<path d="M55.3456 199.514C61.8405 199.514 67.1057 194.251 67.1057 187.759C67.1057 181.267 61.8405 176.004 55.3456 176.004C48.8507 176.004 43.5855 181.267 43.5855 187.759C43.5855 194.251 48.8507 199.514 55.3456 199.514Z" fill="white"/>
<path d="M55.3456 191.677C57.5106 191.677 59.2657 189.923 59.2657 187.759C59.2657 185.595 57.5106 183.841 55.3456 183.841C53.1807 183.841 51.4256 185.595 51.4256 187.759C51.4256 189.923 53.1807 191.677 55.3456 191.677Z" fill="#3F3D56"/>
<path d="M21.0965 164.481C18.3181 152.044 27.1995 139.477 40.9336 136.411C54.6677 133.346 68.0537 140.943 70.8321 153.381C73.6104 165.818 64.5084 170.405 50.7743 173.47C37.0402 176.536 23.8748 176.919 21.0965 164.481Z" fill="#F19427"/>
<path d="M31.2631 187.877C32.5414 185.183 26.618 179.7 18.0328 175.63C9.44762 171.56 1.45172 170.444 0.17345 173.138C-1.10481 175.832 4.81861 181.315 13.4038 185.385C21.9889 189.455 29.9848 190.571 31.2631 187.877Z" fill="#2F2E41"/>
<path d="M37.5728 208.874C37.5728 212.24 46.2442 218.888 55.8663 218.888C65.4884 218.888 74.5102 209.411 74.5102 206.044C74.5102 202.678 65.4883 206.697 55.8663 206.697C46.2442 206.697 37.5728 205.508 37.5728 208.874Z" fill="white"/>
<path d="M88.3042 65.1409C87.6688 65.1416 87.0595 65.3942 86.6101 65.8434C86.1608 66.2925 85.908 66.9015 85.9073 67.5367V166.563C85.908 167.199 86.1608 167.808 86.6101 168.257C87.0595 168.706 87.6688 168.959 88.3042 168.959H317.606C318.242 168.959 318.851 168.706 319.3 168.257C319.75 167.808 320.002 167.199 320.003 166.563V67.5367C320.002 66.9015 319.75 66.2925 319.3 65.8434C318.851 65.3942 318.242 65.1416 317.606 65.1409H88.3042Z" fill="#F19427"/>
<path d="M150.219 140.306C163.069 140.306 173.486 129.894 173.486 117.05C173.486 104.206 163.069 93.7939 150.219 93.7939C137.37 93.7939 126.953 104.206 126.953 117.05C126.953 129.894 137.37 140.306 150.219 140.306Z" fill="white"/>
<path d="M202.731 113.956C202.018 113.968 201.337 114.259 200.837 114.768C200.336 115.277 200.055 115.962 200.055 116.675C200.055 117.389 200.336 118.073 200.837 118.582C201.337 119.091 202.018 119.382 202.731 119.394H276.193C276.55 119.4 276.905 119.336 277.238 119.205C277.57 119.074 277.874 118.878 278.131 118.63C278.388 118.382 278.593 118.085 278.735 117.757C278.878 117.43 278.954 117.077 278.96 116.72C278.966 116.362 278.901 116.008 278.77 115.675C278.638 115.343 278.442 115.04 278.194 114.783C277.945 114.527 277.648 114.321 277.32 114.179C276.992 114.037 276.639 113.962 276.282 113.956C276.252 113.955 276.222 113.955 276.193 113.956H202.731Z" fill="white"/>
<path d="M202.731 98.2018C202.018 98.2135 201.337 98.5052 200.837 99.0138C200.336 99.5225 200.055 100.207 200.055 100.921C200.055 101.634 200.336 102.319 200.837 102.828C201.337 103.337 202.018 103.628 202.731 103.64H239.416C239.774 103.646 240.129 103.582 240.461 103.451C240.794 103.32 241.097 103.124 241.354 102.876C241.611 102.628 241.817 102.331 241.959 102.003C242.101 101.675 242.178 101.323 242.183 100.966C242.189 100.608 242.125 100.253 241.993 99.9211C241.862 99.5888 241.666 99.2857 241.418 99.029C241.169 98.7723 240.872 98.5672 240.544 98.4252C240.216 98.2833 239.863 98.2074 239.506 98.2018C239.476 98.2013 239.446 98.2013 239.416 98.2018H202.731Z" fill="white"/>
<path d="M202.731 130.46C202.018 130.472 201.337 130.764 200.837 131.272C200.336 131.781 200.055 132.466 200.055 133.179C200.055 133.893 200.336 134.578 200.837 135.087C201.337 135.595 202.018 135.887 202.731 135.899H276.193C276.55 135.905 276.905 135.84 277.238 135.709C277.57 135.578 277.874 135.383 278.131 135.135C278.388 134.886 278.593 134.59 278.735 134.262C278.878 133.934 278.954 133.581 278.96 133.224C278.966 132.867 278.901 132.512 278.77 132.18C278.638 131.847 278.442 131.544 278.194 131.288C277.945 131.031 277.648 130.826 277.32 130.684C276.992 130.542 276.639 130.466 276.282 130.46C276.252 130.46 276.222 130.46 276.193 130.46H202.731Z" fill="white"/>
<path d="M559.506 313.631C562.292 312.566 561.8 304.512 558.408 295.64C555.016 286.768 550.007 280.439 547.22 281.504C544.434 282.568 544.926 290.623 548.318 299.495C551.71 308.367 556.719 314.695 559.506 313.631Z" fill="#2F2E41"/>
<path d="M583.488 364.677C602.247 361.634 614.986 343.968 611.942 325.218C608.898 306.468 591.223 293.735 572.465 296.777C553.707 299.82 540.968 317.486 544.012 336.236C547.056 354.986 564.73 367.719 583.488 364.677Z" fill="#2F2E41"/>
<path d="M593.656 357.72H583.204L585.249 380.139L593.675 377.851L593.656 357.72Z" fill="#2F2E41"/>
<path d="M570.868 357.778H560.414L562.46 380.197L570.505 377.851L570.868 357.778Z" fill="#2F2E41"/>
<path d="M562.162 381.25C566.961 380.9 570.744 379.157 570.612 377.359C570.481 375.56 566.484 374.386 561.686 374.737C556.888 375.088 553.105 376.83 553.236 378.629C553.368 380.427 557.364 381.601 562.162 381.25Z" fill="#2F2E41"/>
<path d="M577.106 333.775C583.601 333.775 588.866 328.512 588.866 322.02C588.866 315.528 583.601 310.265 577.106 310.265C570.611 310.265 565.346 315.528 565.346 322.02C565.346 328.512 570.611 333.775 577.106 333.775Z" fill="white"/>
<path d="M577.106 325.938C579.271 325.938 581.026 324.184 581.026 322.02C581.026 319.856 579.271 318.101 577.106 318.101C574.941 318.101 573.186 319.856 573.186 322.02C573.186 324.184 574.941 325.938 577.106 325.938Z" fill="#3F3D56"/>
<path d="M618.681 309.99C624.326 302.35 626.957 294.721 624.558 292.949C622.158 291.178 615.637 295.935 609.992 303.575C604.346 311.214 601.715 318.843 604.114 320.615C606.514 322.386 613.035 317.629 618.681 309.99Z" fill="#2F2E41"/>
<path d="M561.188 348.461C561.188 345.687 568.335 340.208 576.265 340.208C584.196 340.208 591.631 348.019 591.631 350.794C591.631 353.568 584.196 350.255 576.265 350.255C568.335 350.255 561.188 351.236 561.188 348.461Z" fill="white"/>
<path d="M674.465 302.304L486.113 276.205C484.645 276 483.318 275.221 482.423 274.039C481.529 272.857 481.14 271.368 481.341 269.9L502.515 117.23C502.721 115.762 503.5 114.436 504.683 113.542C505.865 112.647 507.354 112.259 508.823 112.46L697.175 138.56C698.643 138.765 699.97 139.544 700.865 140.726C701.759 141.908 702.148 143.396 701.947 144.864L680.773 297.535C680.567 299.002 679.788 300.329 678.605 301.223C677.423 302.117 675.934 302.506 674.465 302.304Z" fill="#F19427"/>
<path d="M606.989 254.658L510.83 241.334C510.71 241.319 510.591 241.292 510.475 241.255L566.874 168.817C567.22 168.365 567.679 168.013 568.206 167.797C568.732 167.58 569.306 167.508 569.87 167.586C570.433 167.664 570.966 167.89 571.414 168.241C571.861 168.593 572.208 169.056 572.417 169.585L595.611 226.655L596.722 229.386L606.989 254.658Z" fill="white"/>
<path opacity="0.2" d="M606.989 254.657L574.158 250.109L593.52 228.942L594.914 227.418L595.611 226.655L596.722 229.386L606.989 254.657Z" fill="black"/>
<path d="M660.529 262.077L577.36 250.552L596.722 229.386L598.116 227.861L623.346 200.277C623.782 199.863 624.3 199.545 624.867 199.344C625.434 199.143 626.037 199.063 626.637 199.11C627.237 199.157 627.82 199.329 628.349 199.616C628.878 199.903 629.34 200.297 629.706 200.775C629.799 200.909 629.882 201.049 629.956 201.193L660.529 262.077Z" fill="white"/>
<path d="M608.159 193.408C616.101 193.408 622.54 186.973 622.54 179.034C622.54 171.095 616.101 164.659 608.159 164.659C600.216 164.659 593.777 171.095 593.777 179.034C593.777 186.973 600.216 193.408 608.159 193.408Z" fill="white"/>
<path d="M529.447 126.609L512.036 124.197L509.622 141.599L527.033 144.012L529.447 126.609Z" fill="#3F3D56"/>
<path d="M611.355 298.742C614.133 286.304 605.252 273.737 591.518 270.672C577.784 267.606 564.398 275.204 561.619 287.641C558.841 300.078 567.943 304.665 581.677 307.731C595.411 310.796 608.576 311.179 611.355 298.742Z" fill="#F2F2F2"/>
<path d="M585.087 381.195C589.885 380.844 593.668 379.102 593.536 377.304C593.405 375.505 589.408 374.331 584.61 374.682C579.812 375.033 576.029 376.775 576.16 378.573C576.292 380.372 580.288 381.546 585.087 381.195Z" fill="#2F2E41"/>
</g>
<defs>
<clipPath id="clip0">
<rect width="702" height="441" fill="white"/>
</clipPath>
</defs>
</svg>
