<svg width="75" height="75" viewBox="0 0 75 75" fill="none" xmlns="http://www.w3.org/2000/svg">
<circle cx="37.5" cy="37.5" r="37.5" fill="url(#paint0_linear)"/>
<path d="M49.2451 56H25.9541V52.7529L38.2588 39.0811C40.0817 37.014 41.335 35.3376 42.0186 34.0518C42.7184 32.7497 43.0684 31.4069 43.0684 30.0234C43.0684 28.168 42.5068 26.6462 41.3838 25.458C40.2607 24.2699 38.7633 23.6758 36.8916 23.6758C34.6455 23.6758 32.8958 24.3187 31.6426 25.6045C30.4056 26.874 29.7871 28.6481 29.7871 30.9268H25.2705C25.2705 27.6553 26.3203 25.0104 28.4199 22.9922C30.5358 20.974 33.3597 19.9648 36.8916 19.9648C40.1956 19.9648 42.8079 20.8356 44.7285 22.5771C46.6491 24.3024 47.6094 26.6055 47.6094 29.4863C47.6094 32.9857 45.3796 37.1523 40.9199 41.9863L31.3984 52.3135H49.2451V56Z" fill="white"/>
<defs>
<linearGradient id="paint0_linear" x1="37.5" y1="0" x2="37.5" y2="75" gradientUnits="userSpaceOnUse">
<stop stop-color="#EDA95A"/>
<stop offset="1" stop-color="#F19427"/>
</linearGradient>
</defs>
</svg>
