<svg width="75" height="75" viewBox="0 0 75 75" fill="none" xmlns="http://www.w3.org/2000/svg">
<circle cx="37.5" cy="37.5" r="37.5" fill="url(#paint0_linear)"/>
<path d="M32.5215 35.0293H35.915C38.0472 34.9967 39.7236 34.4352 40.9443 33.3447C42.165 32.2542 42.7754 30.7812 42.7754 28.9258C42.7754 24.7591 40.7002 22.6758 36.5498 22.6758C34.5967 22.6758 33.0342 23.2373 31.8623 24.3604C30.7067 25.4671 30.1289 26.9401 30.1289 28.7793H25.6123C25.6123 25.9635 26.6377 23.6279 28.6885 21.7725C30.7555 19.9007 33.376 18.9648 36.5498 18.9648C39.9027 18.9648 42.5312 19.8519 44.4355 21.626C46.3398 23.4001 47.292 25.8659 47.292 29.0234C47.292 30.5697 46.7874 32.0671 45.7783 33.5156C44.7855 34.9642 43.4264 36.0465 41.7012 36.7627C43.6543 37.3812 45.1598 38.4066 46.2178 39.8389C47.292 41.2712 47.8291 43.0208 47.8291 45.0879C47.8291 48.278 46.7874 50.8089 44.7041 52.6807C42.6208 54.5524 39.9108 55.4883 36.5742 55.4883C33.2376 55.4883 30.5195 54.585 28.4199 52.7783C26.3366 50.9717 25.2949 48.5872 25.2949 45.625H29.8359C29.8359 47.4967 30.4463 48.9941 31.667 50.1172C32.8877 51.2402 34.5234 51.8018 36.5742 51.8018C38.7552 51.8018 40.4235 51.2321 41.5791 50.0928C42.7347 48.9535 43.3125 47.3177 43.3125 45.1855C43.3125 43.1185 42.6777 41.5316 41.4082 40.4248C40.1387 39.318 38.3076 38.7484 35.915 38.7158H32.5215V35.0293Z" fill="white"/>
<defs>
<linearGradient id="paint0_linear" x1="37.5" y1="0" x2="37.5" y2="75" gradientUnits="userSpaceOnUse">
<stop stop-color="#EDA95A"/>
<stop offset="1" stop-color="#F19427"/>
</linearGradient>
</defs>
</svg>
