<svg width="75" height="75" viewBox="0 0 75 75" fill="none" xmlns="http://www.w3.org/2000/svg">
<circle cx="37.5" cy="37.5" r="37.5" fill="url(#paint0_linear)"/>
<path d="M28.0293 38.1777L29.8359 20.4531H48.0488V24.6279H33.6689L32.5947 34.3203C34.3363 33.2949 36.3138 32.7822 38.5273 32.7822C41.7663 32.7822 44.3379 33.8564 46.2422 36.0049C48.1465 38.137 49.0986 41.026 49.0986 44.6719C49.0986 48.334 48.1058 51.223 46.1201 53.3389C44.1507 55.4385 41.3919 56.4883 37.8438 56.4883C34.7025 56.4883 32.139 55.6175 30.1533 53.876C28.1676 52.1344 27.0365 49.7256 26.7598 46.6494H31.0322C31.3089 48.6839 32.0332 50.222 33.2051 51.2637C34.377 52.2891 35.9232 52.8018 37.8438 52.8018C39.9434 52.8018 41.5872 52.0856 42.7754 50.6533C43.9798 49.221 44.582 47.2435 44.582 44.7207C44.582 42.3444 43.931 40.4401 42.6289 39.0078C41.3431 37.5592 39.626 36.835 37.4775 36.835C35.5081 36.835 33.9619 37.2663 32.8389 38.1289L31.6426 39.1055L28.0293 38.1777Z" fill="white"/>
<defs>
<linearGradient id="paint0_linear" x1="37.5" y1="0" x2="37.5" y2="75" gradientUnits="userSpaceOnUse">
<stop stop-color="#EDA95A"/>
<stop offset="1" stop-color="#F19427"/>
</linearGradient>
</defs>
</svg>
