<svg width="75" height="75" viewBox="0 0 75 75" fill="none" xmlns="http://www.w3.org/2000/svg">
<circle cx="37.5" cy="37.5" r="37.5" fill="url(#paint0_linear)"/>
<path d="M43.6787 19.4287V23.2617H42.8486C39.333 23.3268 36.5335 24.3685 34.4502 26.3867C32.3669 28.4049 31.1624 31.2451 30.8369 34.9072C32.7087 32.7588 35.264 31.6846 38.5029 31.6846C41.5954 31.6846 44.0612 32.7751 45.9004 34.9561C47.7559 37.137 48.6836 39.9528 48.6836 43.4033C48.6836 47.0654 47.6826 49.9951 45.6807 52.1924C43.695 54.3896 41.0257 55.4883 37.6729 55.4883C34.2712 55.4883 31.5124 54.1862 29.3965 51.582C27.2806 48.9616 26.2227 45.5924 26.2227 41.4746V39.7412C26.2227 33.1982 27.6143 28.2015 30.3975 24.751C33.1969 21.2842 37.3555 19.5101 42.873 19.4287H43.6787ZM37.7461 35.4443C36.1999 35.4443 34.7757 35.9082 33.4736 36.8359C32.1715 37.7637 31.2682 38.9274 30.7637 40.3271V41.9873C30.7637 44.917 31.4229 47.277 32.7412 49.0674C34.0596 50.8577 35.7035 51.7529 37.6729 51.7529C39.7074 51.7529 41.3024 51.0042 42.458 49.5068C43.6299 48.0094 44.2158 46.0482 44.2158 43.623C44.2158 41.1816 43.6217 39.2122 42.4336 37.7148C41.2617 36.2012 39.6992 35.4443 37.7461 35.4443Z" fill="white"/>
<defs>
<linearGradient id="paint0_linear" x1="37.5" y1="0" x2="37.5" y2="75" gradientUnits="userSpaceOnUse">
<stop stop-color="#EDA95A"/>
<stop offset="1" stop-color="#F19427"/>
</linearGradient>
</defs>
</svg>
