<svg width="869" height="612" viewBox="0 0 869 612" fill="none" xmlns="http://www.w3.org/2000/svg">
<g clip-path="url(#clip0)">
<path d="M443.816 610.703C469.953 610.703 491.141 589.529 491.141 563.41C491.141 537.29 469.953 516.116 443.816 516.116C417.679 516.116 396.491 537.29 396.491 563.41C396.491 589.529 417.679 610.703 443.816 610.703Z" fill="#6A4796"/>
<path d="M726.536 608.046C753.012 600.1 781.159 591.814 802.156 572.924C820.919 556.045 833.586 530.269 825.813 504.954C818.056 479.691 794.821 462.846 770.832 454.468C757.227 449.716 742.992 447.08 728.763 445.009C713.296 442.757 697.759 440.913 682.231 439.138C619.352 431.951 556.238 427.561 492.887 425.967C461.627 425.18 430.373 425.199 399.109 425.653C371.188 426.058 341.783 426.047 315.881 414.188C295.738 404.966 277.457 388.189 271.845 366.141C265.366 340.69 277.316 314.772 294.458 296.34C303.493 286.624 314.053 278.447 324.947 270.927C336.765 262.77 348.996 255.19 361.491 248.115C386.101 234.187 411.83 222.333 438.411 212.677C451.523 207.913 464.831 203.802 478.254 200.01C489.588 196.807 500.957 193.6 511.912 189.237C533.088 180.803 553.229 166.516 558.614 143.094C563.717 120.895 555.113 96.7971 540.028 80.3062C522.577 61.2274 496.264 52.8638 471.037 51.5106C442.716 49.9914 415.047 57.0748 388.428 66.0645C360.037 75.6528 332.257 86.6775 303.266 94.4439C274.517 102.138 245.212 107.582 215.617 110.726C201.129 112.267 186.203 114.008 171.629 112.828C159.415 111.839 147.263 108.249 138.261 99.5862C130.542 92.1583 125.944 81.9499 127.525 71.1768C127.812 69.2201 130.787 70.052 130.501 71.9968C128.577 85.1106 137.497 97.1946 148.489 103.385C161.193 110.539 176.651 110.548 190.795 109.73C221.462 107.879 251.922 103.479 281.859 96.5747C311.275 89.8605 339.64 80.2622 367.973 70.009C394.882 60.2712 422.393 50.767 451.141 48.6578C476.085 46.8276 502.325 50.4593 524.056 63.4865C543.155 74.9356 557.199 94.029 561.674 115.939C566.047 137.349 559.99 158.899 543.773 173.84C526.981 189.309 503.958 195.923 482.501 202.014C455.287 209.74 428.657 218.771 402.88 230.496C376.752 242.348 351.694 256.426 327.983 272.575C305.096 288.205 282.51 307.871 275.271 335.754C271.9 348.743 272.522 362.519 278.164 374.787C283.18 385.695 291.442 394.871 301.067 401.948C324.03 418.834 352.972 422.301 380.71 422.646C411.864 423.034 443.018 421.983 474.182 422.494C537.692 423.536 601.072 427.399 664.323 434.084C680.172 435.76 696.001 437.613 711.809 439.643C726.029 441.469 740.297 443.283 754.277 446.526C779.135 452.292 803.323 463.378 818.774 484.441C825.631 493.57 829.879 504.389 831.065 515.743C832.147 527.591 829.244 539.461 823.884 550.001C812.019 573.329 789.796 588.167 766.196 597.916C753.555 603.137 740.443 607.093 727.357 611.02C725.451 611.592 724.636 608.617 726.536 608.046L726.536 608.046Z" fill="#F2F2F2"/>
<path d="M129.518 96.129C143.155 96.129 154.209 85.0817 154.209 71.4542C154.209 57.8266 143.155 46.7793 129.518 46.7793C115.882 46.7793 104.827 57.8266 104.827 71.4542C104.827 85.0817 115.882 96.129 129.518 96.129Z" fill="#F2F2F2"/>
<path d="M300.813 142.909C314.45 142.909 325.504 131.861 325.504 118.234C325.504 104.606 314.45 93.5591 300.813 93.5591C287.176 93.5591 276.122 104.606 276.122 118.234C276.122 131.861 287.176 142.909 300.813 142.909Z" fill="#F2F2F2"/>
<path d="M445.873 49.3497C459.51 49.3497 470.565 38.3024 470.565 24.6749C470.565 11.0473 459.51 0 445.873 0C432.237 0 421.182 11.0473 421.182 24.6749C421.182 38.3024 432.237 49.3497 445.873 49.3497Z" fill="#F2F2F2"/>
<path d="M536.408 154.218C550.044 154.218 561.099 143.171 561.099 129.543C561.099 115.915 550.044 104.868 536.408 104.868C522.771 104.868 511.717 115.915 511.717 129.543C511.717 143.171 522.771 154.218 536.408 154.218Z" fill="#F2F2F2"/>
<path d="M413.981 275.536C427.617 275.536 438.672 264.489 438.672 250.861C438.672 237.234 427.617 226.187 413.981 226.187C400.344 226.187 389.29 237.234 389.29 250.861C389.29 264.489 400.344 275.536 413.981 275.536Z" fill="#F2F2F2"/>
<path d="M258.632 334.139C272.269 334.139 283.323 323.091 283.323 309.464C283.323 295.836 272.269 284.789 258.632 284.789C244.996 284.789 233.941 295.836 233.941 309.464C233.941 323.091 244.996 334.139 258.632 334.139Z" fill="#F2F2F2"/>
<path d="M423.24 425.641C436.876 425.641 447.931 414.594 447.931 400.966C447.931 387.339 436.876 376.292 423.24 376.292C409.603 376.292 398.549 387.339 398.549 400.966C398.549 414.594 409.603 425.641 423.24 425.641Z" fill="#F2F2F2"/>
<path d="M600.193 477.048C613.83 477.048 624.884 466 624.884 452.373C624.884 438.745 613.83 427.698 600.193 427.698C586.557 427.698 575.502 438.745 575.502 452.373C575.502 466 586.557 477.048 600.193 477.048Z" fill="#F2F2F2"/>
<path d="M806.981 465.738C820.618 465.738 831.673 454.691 831.673 441.063C831.673 427.436 820.618 416.388 806.981 416.388C793.345 416.388 782.29 427.436 782.29 441.063C782.29 454.691 793.345 465.738 806.981 465.738Z" fill="#F2F2F2"/>
<path d="M438.746 69.9157C364.784 70.4378 304.225 130.503 303.174 204.411C303.165 205.093 303.16 209.891 303.161 216.166C303.161 225.367 306.819 234.192 313.329 240.698C319.839 247.204 328.669 250.86 337.876 250.861H337.876C342.44 250.86 346.96 249.96 351.176 248.213C355.392 246.466 359.222 243.906 362.448 240.679C365.673 237.452 368.231 233.622 369.975 229.407C371.718 225.191 372.614 220.674 372.61 216.113C372.606 211.844 372.604 208.89 372.604 208.708C372.602 197.286 375.575 186.06 381.231 176.134C386.887 166.208 395.031 157.925 404.862 152.098C414.693 146.272 425.873 143.103 437.301 142.905C448.729 142.706 460.012 145.483 470.04 150.964C480.069 156.444 488.496 164.44 494.495 174.163C500.493 183.886 503.856 195.002 504.251 206.417C504.647 217.833 502.062 229.154 496.751 239.269C491.44 249.383 483.586 257.942 473.961 264.103L473.973 264.117C473.973 264.117 424.562 295.906 409.498 339.515L409.511 339.518C406.862 348.452 405.519 357.721 405.526 367.039C405.526 370.869 405.751 404.381 406.187 431.582C406.339 440.967 410.177 449.916 416.873 456.498C423.569 463.081 432.586 466.768 441.979 466.766H441.979C446.698 466.766 451.371 465.833 455.729 464.021C460.086 462.21 464.042 459.555 467.369 456.21C470.695 452.864 473.328 448.894 475.113 444.529C476.899 440.163 477.804 435.487 477.775 430.771C477.623 405.861 477.541 376.855 477.541 374.75C477.541 347.972 503.39 321.293 524.623 303.894C549.073 283.859 566.668 256.557 573.735 225.758C575.298 219.417 576.161 212.924 576.306 206.395C576.306 188.389 572.741 170.561 565.815 153.938C558.89 137.315 548.742 122.225 535.955 109.539C523.169 96.8529 507.996 86.8205 491.313 80.0201C474.629 73.2197 456.764 69.7856 438.746 69.9157Z" fill="#6A4796"/>
<path d="M867.775 612H1.22491C0.900641 611.999 0.589982 611.87 0.361021 611.64C0.132061 611.411 0.003479 611.1 0.003479 610.776C0.003479 610.452 0.132061 610.141 0.361021 609.912C0.589982 609.682 0.900641 609.553 1.22491 609.552H867.775C868.1 609.552 868.411 609.681 868.641 609.91C868.871 610.14 869 610.451 869 610.776C869 611.101 868.871 611.412 868.641 611.642C868.411 611.871 868.1 612 867.775 612Z" fill="#3F3D56"/>
<path d="M646.547 280.673C663.592 280.673 677.411 266.863 677.411 249.829C677.411 232.795 663.592 218.985 646.547 218.985C629.501 218.985 615.683 232.795 615.683 249.829C615.683 266.863 629.501 280.673 646.547 280.673Z" fill="#2F2E41"/>
<path d="M589.513 598.498H576.901L570.9 549.88H589.516L589.513 598.498Z" fill="#A0616A"/>
<path d="M567.892 594.896H592.216V610.202H552.576C552.576 608.192 552.972 606.202 553.742 604.345C554.512 602.488 555.64 600.801 557.062 599.379C558.484 597.958 560.173 596.831 562.031 596.062C563.889 595.292 565.88 594.896 567.892 594.896Z" fill="#2F2E41"/>
<path d="M687.249 598.498H674.637L668.636 549.88H687.252L687.249 598.498Z" fill="#A0616A"/>
<path d="M665.628 594.896H689.952V610.202H650.312C650.312 608.192 650.708 606.202 651.478 604.345C652.248 602.488 653.376 600.801 654.798 599.379C656.22 597.958 657.908 596.831 659.767 596.062C661.625 595.292 663.616 594.896 665.628 594.896Z" fill="#2F2E41"/>
<path d="M641.856 280.852C655.812 280.852 667.125 269.547 667.125 255.601C667.125 241.655 655.812 230.349 641.856 230.349C627.901 230.349 616.588 241.655 616.588 255.601C616.588 269.547 627.901 280.852 641.856 280.852Z" fill="#A0616A"/>
<path d="M656.917 362.315L668.223 336.355C670.969 330.265 671.756 323.474 670.476 316.918C669.195 310.362 665.91 304.365 661.074 299.754C660.08 298.773 659.025 297.856 657.915 297.009C652.336 292.648 645.461 290.271 638.378 290.254C633.616 290.273 628.914 291.318 624.592 293.318C624.222 293.483 623.862 293.657 623.491 293.832C622.781 294.172 622.082 294.542 621.403 294.922C616.974 297.463 613.205 301.009 610.399 305.274C607.593 309.539 605.83 314.403 605.251 319.474L600.261 361.256C599.006 364.536 554.233 482.975 569.891 573.399C570.058 574.364 570.529 575.251 571.236 575.93C571.943 576.609 572.849 577.044 573.821 577.172L589.696 579.331C590.855 579.489 592.031 579.203 592.987 578.53C593.944 577.856 594.609 576.846 594.85 575.702L621.485 448.821C621.651 448.033 622.077 447.323 622.694 446.805C623.312 446.287 624.085 445.99 624.89 445.963C625.696 445.936 626.488 446.179 627.139 446.655C627.789 447.13 628.262 447.81 628.481 448.585L666.115 582.014C666.383 582.984 666.962 583.839 667.763 584.448C668.563 585.057 669.542 585.387 670.549 585.386C670.849 585.385 671.148 585.357 671.444 585.304L690.836 581.572C691.964 581.362 692.972 580.738 693.663 579.823C694.354 578.908 694.678 577.768 694.571 576.627C691.721 544.868 676.577 385.787 656.917 362.315Z" fill="#2F2E41"/>
<path d="M543.657 276.616C543.482 278.117 543.638 279.638 544.115 281.073C544.591 282.507 545.377 283.82 546.416 284.918C547.455 286.016 548.723 286.873 550.129 287.429C551.536 287.984 553.047 288.225 554.557 288.134L568.681 322.054L579.365 306.227L564.314 276.442C563.993 273.918 562.756 271.599 560.838 269.925C558.921 268.251 556.455 267.338 553.909 267.36C551.362 267.381 548.912 268.335 547.023 270.041C545.134 271.747 543.936 274.086 543.657 276.616L543.657 276.616Z" fill="#A0616A"/>
<path d="M640.455 396.47C641.957 396.29 643.401 395.784 644.686 394.987C645.971 394.189 647.065 393.12 647.891 391.854C648.718 390.589 649.257 389.157 649.47 387.661C649.683 386.164 649.565 384.64 649.124 383.194L678.842 361.564L660.95 354.868L635.473 376.435C633.092 377.335 631.123 379.078 629.941 381.331C628.759 383.585 628.445 386.194 629.06 388.664C629.674 391.133 631.173 393.292 633.273 394.731C635.374 396.169 637.929 396.788 640.455 396.47Z" fill="#A0616A"/>
<path d="M592.011 344.668C590.872 344.667 589.735 344.555 588.618 344.334C585.915 343.819 583.38 342.649 581.236 340.925C579.092 339.2 577.406 336.976 576.326 334.447L556.538 310.334C556.119 309.825 555.815 309.231 555.645 308.594C555.474 307.957 555.442 307.291 555.551 306.641C555.659 305.991 555.905 305.371 556.272 304.823C556.64 304.276 557.12 303.813 557.681 303.466L571.759 294.757C572.279 294.435 572.857 294.22 573.461 294.123C574.065 294.026 574.681 294.049 575.276 294.191C575.87 294.334 576.431 294.593 576.925 294.953C577.419 295.313 577.836 295.767 578.154 296.289L592.1 319.251L618.809 299.525C620.936 298.411 623.393 298.098 625.731 298.645C628.069 299.191 630.132 300.56 631.544 302.501C632.956 304.442 633.621 306.826 633.42 309.217C633.218 311.608 632.162 313.847 630.445 315.524L603.787 339.825C600.654 342.929 596.422 344.669 592.011 344.668Z" fill="#2F2E41"/>
<path d="M664.181 380.932C664.145 380.932 664.109 380.932 664.072 380.931C663.423 380.915 662.785 380.764 662.198 380.485C661.611 380.207 661.089 379.809 660.666 379.317L648.15 364.724C647.723 364.227 647.407 363.646 647.223 363.018C647.038 362.39 646.989 361.729 647.078 361.081C647.168 360.433 647.394 359.811 647.742 359.256C648.09 358.701 648.552 358.227 649.097 357.864L672.534 342.249L651.301 316.739C650.066 314.681 649.613 312.248 650.025 309.884C650.437 307.52 651.686 305.383 653.544 303.863C655.402 302.344 657.746 301.543 660.146 301.607C662.546 301.671 664.843 302.597 666.617 304.214L692.423 329.416C694.454 331.27 696.005 333.589 696.941 336.174C697.878 338.759 698.173 341.532 697.801 344.256C697.43 346.98 696.402 349.573 694.807 351.812C693.211 354.052 691.096 355.871 688.642 357.114L667.55 379.479C667.117 379.938 666.595 380.303 666.016 380.553C665.436 380.803 664.812 380.932 664.181 380.932Z" fill="#2F2E41"/>
<path d="M635.431 327.162C635.231 327.162 635.03 327.15 634.831 327.124C633.959 327.018 633.136 326.665 632.46 326.105C631.783 325.546 631.281 324.805 631.013 323.969L621.608 295.152C621.372 294.423 621.408 293.634 621.71 292.93C622.011 292.226 622.558 291.655 623.248 291.322L623.553 291.178C623.83 291.047 624.104 290.917 624.383 290.792C628.769 288.759 633.544 287.699 638.378 287.684C644.654 287.696 650.791 289.538 656.034 292.986C656.737 293.453 657.228 294.178 657.401 295.004C657.575 295.83 657.417 296.691 656.961 297.401L639.317 325.024C638.903 325.68 638.33 326.22 637.65 326.594C636.971 326.968 636.207 327.164 635.431 327.162Z" fill="#E6E6E6"/>
<path d="M670.88 236.059C676.458 236.059 680.979 231.54 680.979 225.966C680.979 220.392 676.458 215.874 670.88 215.874C665.302 215.874 660.781 220.392 660.781 225.966C660.781 231.54 665.302 236.059 670.88 236.059Z" fill="#2F2E41"/>
<path d="M636.259 214.873C629.164 214.873 622.361 217.689 617.344 222.702C612.328 227.715 609.51 234.514 609.51 241.604V252.913H623.429L630.086 241.604L632.083 252.913H674.324L663.007 241.604C663.007 234.514 660.189 227.715 655.173 222.702C650.156 217.689 643.353 214.873 636.259 214.873Z" fill="#2F2E41"/>
<path d="M676.071 219.053C677.188 215.563 679.5 212.578 682.601 210.624C685.702 208.669 689.393 207.869 693.026 208.365C699.462 209.44 704.551 214.61 707.583 220.385C710.615 226.159 712.015 232.622 714.054 238.817C716.092 245.012 718.983 251.24 724.129 255.25C729.275 259.261 737.171 260.348 742.225 256.223C741.647 260.522 739.732 264.531 736.75 267.683C733.768 270.835 729.869 272.97 725.606 273.786C721.343 274.602 716.932 274.059 712.995 272.232C709.058 270.405 705.795 267.388 703.669 263.606C701.002 258.865 700.313 253.308 699.523 247.926C698.732 242.545 697.704 236.977 694.521 232.566C691.337 228.155 685.377 225.273 680.319 227.283L676.071 219.053Z" fill="#2F2E41"/>
<path d="M347.679 234.451C338.471 234.45 329.642 230.794 323.131 224.288C316.621 217.781 312.963 208.957 312.963 199.756C312.962 193.48 312.967 188.682 312.976 188C313.269 166.506 318.686 145.391 328.777 126.407C312.197 149.09 303.08 176.362 302.688 204.45C302.679 205.132 302.674 209.93 302.675 216.206C302.675 225.407 306.333 234.231 312.843 240.737C319.354 247.244 328.183 250.9 337.391 250.901C344.956 250.898 352.314 248.427 358.347 243.864C364.38 239.301 368.757 232.895 370.814 225.619C364.457 231.315 356.217 234.461 347.679 234.451Z" fill="#3F3D56"/>
<path d="M441.1 143.021C451.744 143.529 462.106 146.611 471.295 152.003C480.485 157.394 488.228 164.934 493.859 173.975C499.491 183.015 502.843 193.287 503.627 203.907C504.411 214.528 502.604 225.18 498.362 234.948C504.498 227.746 509.009 219.306 511.586 210.204C514.163 201.101 514.745 191.551 513.294 182.203C511.842 172.856 508.391 163.931 503.175 156.037C497.959 148.143 491.101 141.466 483.069 136.46C475.037 131.455 466.019 128.24 456.631 127.033C447.242 125.826 437.704 126.657 428.666 129.468C419.627 132.279 411.302 137.005 404.257 143.323C397.212 149.641 391.613 157.403 387.842 166.08C394.36 158.417 402.552 152.354 411.785 148.356C421.019 144.358 431.048 142.533 441.1 143.021Z" fill="#3F3D56"/>
<path d="M451.781 450.356C442.388 450.358 433.371 446.67 426.675 440.088C419.979 433.505 416.141 424.556 415.989 415.171C415.553 387.971 415.328 354.458 415.328 350.628C415.322 341.311 416.664 332.041 419.313 323.108L419.3 323.104C420.864 318.62 422.754 314.256 424.953 310.046C418.202 319.037 412.83 328.982 409.012 339.554L409.025 339.557C406.376 348.491 405.034 357.761 405.04 367.078C405.04 370.908 405.265 404.421 405.701 431.621C405.853 441.006 409.691 449.955 416.387 456.537C423.083 463.12 432.1 466.808 441.493 466.806C449.237 466.804 456.772 464.294 462.968 459.65C469.164 455.007 473.686 448.482 475.856 441.053C469.275 447.05 460.687 450.368 451.781 450.356Z" fill="#3F3D56"/>
<path d="M130.185 598.967L142.797 598.966L148.798 550.348L130.182 550.349L130.185 598.967Z" fill="#FFB8B8"/>
<path d="M167.123 610.669L127.482 610.671L127.482 595.366L151.807 595.365C155.868 595.364 159.764 596.977 162.636 599.847C165.509 602.717 167.123 606.61 167.123 610.669L167.123 610.669Z" fill="#2F2E41"/>
<path d="M84.918 598.967L97.53 598.966L103.531 550.348L84.9149 550.349L84.918 598.967Z" fill="#FFB8B8"/>
<path d="M121.856 610.669L82.2153 610.671L82.2146 595.366L106.539 595.365C110.601 595.364 114.497 596.977 117.369 599.847C120.242 602.717 121.855 606.61 121.856 610.669L121.856 610.669Z" fill="#2F2E41"/>
<path d="M95.9397 584.015L83.6199 583.367C82.9846 583.334 82.3623 583.175 81.789 582.899C81.2156 582.624 80.7027 582.237 80.2799 581.762C79.8571 581.287 79.5328 580.733 79.3258 580.132C79.1188 579.531 79.0333 578.895 79.0741 578.26L93.799 415.338L161.608 433.624L168.141 431.843L147.711 576.073C147.537 577.158 146.998 578.151 146.183 578.888C145.367 579.625 144.325 580.063 143.227 580.128L129.947 580.746C129.283 580.783 128.618 580.682 127.995 580.449C127.372 580.216 126.804 579.857 126.328 579.393C125.851 578.93 125.475 578.373 125.225 577.757C124.975 577.141 124.855 576.48 124.873 575.816L127.279 489.252C127.291 488.852 127.152 488.462 126.889 488.159C126.627 487.856 126.261 487.662 125.863 487.616C125.465 487.569 125.064 487.674 124.739 487.908C124.414 488.142 124.189 488.49 124.108 488.882L100.901 580.192C100.682 581.275 100.094 582.249 99.2365 582.947C98.3793 583.646 97.3063 584.026 96.2003 584.022C96.114 584.022 96.0271 584.02 95.9397 584.015Z" fill="#2F2E41"/>
<path d="M132.45 282.034C146.405 282.034 157.718 270.728 157.718 256.782C157.718 242.836 146.405 231.53 132.45 231.53C118.494 231.53 107.181 242.836 107.181 256.782C107.181 270.728 118.494 282.034 132.45 282.034Z" fill="#FFB8B8"/>
<path d="M90.3794 330.97L93.1578 390.876L94.1621 412.671C94.2022 413.619 94.5245 414.535 95.0879 415.299C95.6514 416.064 96.4303 416.643 97.325 416.963L162.485 440.552C163.011 440.747 163.569 440.845 164.131 440.84C164.772 440.843 165.408 440.717 166 440.469C166.592 440.221 167.128 439.857 167.576 439.397C168.024 438.938 168.374 438.393 168.607 437.795C168.839 437.197 168.949 436.558 168.929 435.917L166.257 328.204C166.082 319.367 162.826 310.868 157.053 304.172C151.279 297.476 143.348 293.003 134.628 291.524C133.998 291.428 133.357 291.332 132.715 291.246C127.308 290.575 121.82 291.097 116.636 292.774C111.452 294.451 106.699 297.243 102.71 300.953C98.5809 304.749 95.336 309.404 93.2052 314.591C91.0745 319.778 90.1098 325.369 90.3794 330.97L90.3794 330.97Z" fill="#CCCCCC"/>
<path d="M193.612 428.598C192.071 428.12 190.663 427.289 189.5 426.17C188.337 425.052 187.453 423.678 186.916 422.157C186.379 420.636 186.206 419.011 186.41 417.411C186.613 415.811 187.188 414.282 188.088 412.943L165.992 383.58L185.06 382.401L203.12 410.465C205.053 411.959 206.398 414.086 206.92 416.472C207.441 418.858 207.105 421.351 205.971 423.514C204.837 425.678 202.976 427.373 200.716 428.302C198.456 429.232 195.941 429.337 193.612 428.598H193.612Z" fill="#FFB8B8"/>
<path d="M178.076 407.63C177.49 407.392 176.958 407.041 176.509 406.597C176.06 406.152 175.704 405.623 175.461 405.04L142.171 325.778C141.518 324.226 141.177 322.561 141.168 320.878C141.16 319.194 141.483 317.525 142.119 315.966C142.756 314.408 143.694 312.99 144.88 311.794C146.065 310.597 147.475 309.646 149.028 308.995C150.582 308.343 152.248 308.004 153.933 307.996C155.618 307.989 157.287 308.313 158.846 308.951C160.406 309.588 161.824 310.527 163.02 311.712C164.216 312.898 165.167 314.307 165.818 315.86L199.108 395.123C199.6 396.298 199.605 397.621 199.123 398.8C198.641 399.979 197.71 400.919 196.535 401.414L181.756 407.612C181.174 407.858 180.549 407.986 179.918 407.989C179.286 407.993 178.66 407.87 178.076 407.63L178.076 407.63Z" fill="#CCCCCC"/>
<path d="M124.326 404.834L156.3 343.652C156.916 342.475 157.975 341.591 159.243 341.194C160.511 340.796 161.885 340.917 163.064 341.531L209.475 365.753C210.652 366.369 211.537 367.427 211.935 368.694C212.333 369.962 212.212 371.335 211.598 372.513L179.623 433.695C179.007 434.872 177.948 435.756 176.68 436.154C175.412 436.551 174.038 436.43 172.859 435.817L126.448 411.594C125.271 410.978 124.386 409.92 123.988 408.653C123.59 407.385 123.712 406.012 124.326 404.834Z" fill="#3F3D56"/>
<path d="M145.769 376.882C145.2 375.372 144.287 374.017 143.101 372.923C141.915 371.829 140.49 371.028 138.939 370.582C137.388 370.137 135.755 370.06 134.169 370.357C132.583 370.655 131.088 371.319 129.805 372.296L99.1688 351.986L99.1167 371.078L128.217 387.437C129.823 389.278 132.027 390.495 134.441 390.874C136.856 391.253 139.326 390.771 141.42 389.511C143.514 388.252 145.098 386.296 145.893 383.987C146.688 381.677 146.644 379.162 145.769 376.882Z" fill="#FFB8B8"/>
<path d="M107.034 381.175L81.9967 361.355C79.2881 360.446 76.8407 358.894 74.8645 356.832C72.8883 354.77 71.4424 352.259 70.6509 349.516C69.8593 346.772 69.7458 343.878 70.3201 341.08C70.8944 338.283 72.1393 335.667 73.948 333.457L96.6814 303.683C98.2612 301.754 100.483 300.457 102.941 300.03C105.398 299.603 107.928 300.075 110.066 301.358C112.205 302.641 113.81 304.65 114.588 307.019C115.366 309.387 115.266 311.956 114.304 314.257L96.317 343.661L122.751 356.191C123.366 356.482 123.911 356.9 124.352 357.418C124.793 357.936 125.119 358.541 125.309 359.194C125.498 359.847 125.547 360.533 125.451 361.206C125.356 361.879 125.119 362.524 124.755 363.099L114.085 379.975C113.724 380.544 113.248 381.032 112.686 381.406C112.125 381.78 111.492 382.031 110.827 382.145C110.8 382.15 110.774 382.154 110.747 382.158C110.094 382.256 109.428 382.22 108.789 382.051C108.15 381.882 107.553 381.584 107.034 381.175Z" fill="#CCCCCC"/>
<path d="M113.356 273.691C113.248 273.374 113.213 273.036 113.256 272.704C113.298 272.372 113.416 272.054 113.6 271.774C113.784 271.494 114.03 271.26 114.319 271.09C114.608 270.92 114.932 270.818 115.266 270.793C115.95 270.83 116.62 271.005 117.235 271.308C117.849 271.611 118.396 272.036 118.842 272.556C119.757 273.61 120.821 274.523 122.002 275.267C123.224 275.883 124.882 275.795 125.579 274.621C126.233 273.519 125.785 272.043 125.388 270.762C124.38 267.504 123.816 264.126 123.712 260.717C123.598 256.913 124.135 252.943 126.242 249.976C128.962 246.146 133.826 244.692 138.429 244.798C143.032 244.903 147.56 246.323 152.119 247.221C153.693 247.53 155.543 247.689 156.596 246.47C157.715 245.174 157.304 243.076 156.828 241.325C155.593 236.784 154.282 232.088 151.411 228.42C148.307 224.609 143.874 222.114 139.003 221.439C134.327 220.86 129.58 221.399 125.153 223.01C117.94 225.282 111.593 229.701 106.961 235.675C102.186 242.029 100.123 250.013 101.222 257.883C102.296 264.737 105.931 270.929 111.393 275.212L113.356 273.691Z" fill="#2F2E41"/>
<path d="M433.389 599.167C426.667 596.241 420.716 591.794 416.008 586.176C411.3 580.558 407.963 573.924 406.26 566.796C404.556 559.669 404.534 552.243 406.195 545.106C407.855 537.968 411.153 531.314 415.827 525.668C410.408 529.623 405.891 534.684 402.579 540.517C399.266 546.349 397.232 552.818 396.613 559.496C395.993 566.174 396.802 572.907 398.985 579.248C401.168 585.589 404.676 591.394 409.276 596.277C413.876 601.16 419.463 605.01 425.665 607.57C431.867 610.131 438.544 611.343 445.251 611.128C451.958 610.913 458.543 609.275 464.568 606.322C470.593 603.369 475.921 599.169 480.198 594.001C473.527 598.874 465.696 601.915 457.483 602.821C449.27 603.727 440.963 602.468 433.389 599.167Z" fill="#3F3D56"/>
</g>
<defs>
<clipPath id="clip0">
<rect width="869" height="612" fill="white"/>
</clipPath>
</defs>
</svg>
