<svg width="222" height="198" viewBox="0 0 222 198" fill="none" xmlns="http://www.w3.org/2000/svg">
<g clip-path="url(#clip0)">
<path d="M1.31607 183.788C3.84715 189.581 9.46986 193.126 15.2271 196.008C16.031 196.41 16.8336 196.801 17.6349 197.18C17.6402 197.182 17.646 197.186 17.6514 197.188C17.6899 197.206 17.7285 197.224 17.7646 197.242C17.93 197.321 18.0954 197.399 18.2593 197.476L18.1813 197.524L17.9377 197.673C18.0221 197.625 18.1055 197.578 18.1899 197.53C18.2149 197.515 18.2414 197.502 18.2664 197.487C21.1721 195.842 24.1203 194.098 26.1658 191.466C28.2873 188.733 29.2135 184.764 27.4735 181.773C27.245 181.381 26.9735 181.016 26.6641 180.684C26.5366 180.545 26.4018 180.414 26.2625 180.285C25.416 179.492 24.3734 178.938 23.2421 178.681C22.1108 178.424 20.9316 178.474 19.8257 178.824C18.7197 179.175 17.727 179.813 16.9497 180.675C16.1723 181.537 15.6382 182.59 15.4025 183.727C14.5361 180.161 17.1157 176.737 19.6882 174.122C22.2621 171.507 25.2007 168.643 25.2798 164.972C25.2779 163.974 25.0649 162.988 24.6549 162.078C24.2448 161.168 23.6469 160.356 22.9005 159.694C22.855 159.652 22.8096 159.61 22.7632 159.569C20.9814 157.96 18.6586 157.083 16.2587 157.113C11.7985 157.238 7.83298 160.134 5.04144 163.618C0.548259 169.225 -1.56144 177.202 1.31607 183.788Z" fill="#F2F2F2"/>
<path d="M8.54432 174.816C7.87376 176.243 7.41466 177.759 7.18152 179.319C6.99391 180.709 7.01514 182.12 7.24449 183.505C7.7406 186.35 8.91234 189.035 10.6611 191.333C11.9802 193.078 13.5144 194.648 15.2271 196.008C16.031 196.41 16.8336 196.801 17.6349 197.181C17.6402 197.182 17.6459 197.186 17.6513 197.188C17.6898 197.206 17.7284 197.224 17.7646 197.243C17.9299 197.321 18.0953 197.399 18.2593 197.476L18.1812 197.524L17.9377 197.673C18.022 197.625 18.1055 197.578 18.1898 197.53C18.2149 197.516 18.2414 197.502 18.2664 197.487C17.6928 195.267 17.6595 192.941 18.1692 190.704C18.6789 188.468 19.7168 186.387 21.1959 184.635C22.6822 182.905 24.5558 181.552 26.6641 180.685C26.5366 180.545 26.4017 180.414 26.2625 180.285C25.45 180.634 24.67 181.054 23.9314 181.54C21.2901 183.269 19.2753 185.803 18.1851 188.767C17.2107 191.456 17.0234 194.368 17.6449 197.16C17.5037 197.062 17.362 196.962 17.2242 196.863C14.559 195.037 12.2521 192.736 10.4187 190.075C8.87949 187.794 7.92422 185.17 7.63702 182.434C7.35828 179.445 8.17799 176.534 9.57505 173.909C11.1155 171.103 13.0322 168.52 15.2719 166.233C17.5229 163.881 20.0529 161.814 22.8057 160.078C22.8677 160.038 22.9121 159.976 22.9298 159.905C22.9474 159.833 22.9369 159.758 22.9005 159.694C22.8729 159.636 22.8235 159.591 22.7631 159.569C22.7324 159.56 22.7 159.559 22.6686 159.564C22.6371 159.57 22.6073 159.582 22.5813 159.601C22.2415 159.816 21.9044 160.032 21.5713 160.256C18.7962 162.118 16.2631 164.317 14.03 166.804C11.8107 169.185 9.96151 171.886 8.54432 174.816Z" fill="white"/>
<path d="M98.6365 134.525C96.7838 134.525 94.9726 133.975 93.4321 132.945C91.8916 131.915 90.6909 130.451 89.9819 128.738C89.2728 127.025 89.0873 125.14 89.4488 123.322C89.8103 121.503 90.7024 119.833 92.0125 118.522C93.3226 117.211 94.9918 116.318 96.8089 115.957C98.6261 115.595 100.51 115.78 102.221 116.49C103.933 117.199 105.396 118.401 106.425 119.943C107.455 121.484 108.004 123.297 108.004 125.151C108.001 127.636 107.014 130.019 105.257 131.776C103.501 133.534 101.12 134.522 98.6365 134.525ZM98.6365 116.503C96.9274 116.503 95.2566 117.01 93.8355 117.96C92.4144 118.911 91.3068 120.261 90.6527 121.841C89.9986 123.422 89.8275 125.16 90.1609 126.838C90.4944 128.515 91.3174 130.056 92.526 131.266C93.7345 132.475 95.2743 133.299 96.9506 133.632C98.6269 133.966 100.364 133.795 101.944 133.14C103.523 132.486 104.872 131.377 105.822 129.955C106.771 128.533 107.278 126.861 107.278 125.151C107.276 122.858 106.364 120.66 104.744 119.039C103.124 117.417 100.928 116.506 98.6365 116.503Z" fill="#6A4796"/>
<path d="M97.7442 128.588C97.5416 128.589 97.3444 128.523 97.1824 128.401L97.1723 128.394L95.0561 126.774C94.9581 126.699 94.8758 126.605 94.814 126.498C94.7523 126.391 94.7121 126.273 94.696 126.15C94.6798 126.028 94.6879 125.903 94.7198 125.784C94.7517 125.664 94.8068 125.552 94.8819 125.454C94.9571 125.356 95.0508 125.274 95.1577 125.212C95.2647 125.15 95.3827 125.11 95.5051 125.094C95.6276 125.078 95.752 125.086 95.8713 125.118C95.9906 125.15 96.1024 125.205 96.2005 125.28L97.5712 126.332L100.81 122.103C100.885 122.005 100.979 121.923 101.086 121.861C101.193 121.799 101.311 121.759 101.433 121.743C101.556 121.727 101.68 121.735 101.799 121.767C101.918 121.799 102.03 121.854 102.128 121.929L102.128 121.929L102.108 121.957L102.129 121.929C102.327 122.081 102.456 122.306 102.489 122.553C102.521 122.8 102.454 123.05 102.303 123.248L98.4931 128.22C98.4049 128.335 98.2916 128.427 98.1619 128.491C98.0322 128.555 97.8895 128.588 97.7451 128.587L97.7442 128.588Z" fill="#6A4796"/>
<path d="M65.4811 78.1665C70.4057 78.1665 74.3978 74.1715 74.3978 69.2434C74.3978 64.3153 70.4057 60.3203 65.4811 60.3203C60.5565 60.3203 56.5643 64.3153 56.5643 69.2434C56.5643 74.1715 60.5565 78.1665 65.4811 78.1665Z" fill="#A0616A"/>
<path d="M62.2618 122.043C62.1495 122.043 62.0367 122.038 61.9234 122.028C61.3626 121.981 60.818 121.816 60.3253 121.544C59.8326 121.272 59.403 120.899 59.0645 120.449C58.726 119.999 58.4863 119.482 58.3612 118.933C58.236 118.384 58.2282 117.815 58.3383 117.263C58.3643 117.134 58.397 117.008 58.4363 116.883L45.276 101.307C44.8471 100.795 44.5946 100.159 44.5557 99.4926C44.5168 98.826 44.6937 98.1647 45.0601 97.6068L45.084 97.5777L56.9299 85.8888C57.252 85.5711 57.6338 85.3203 58.0533 85.151C58.4727 84.9817 58.9216 84.8973 59.3738 84.9026C59.8261 84.9079 60.2728 85.0027 60.6883 85.1818C61.1037 85.3608 61.4795 85.6204 61.7942 85.9456C62.1088 86.2708 62.3559 86.6551 62.5212 87.0764C62.6865 87.4977 62.7668 87.9476 62.7574 88.4001C62.7481 88.8526 62.6492 89.2988 62.4665 89.7129C62.2839 90.1269 62.0211 90.5007 61.6933 90.8126L53.1137 98.9748L62.5062 114.06C62.6841 114.07 62.8611 114.092 63.036 114.126C64.0075 114.32 64.8723 114.868 65.4625 115.664C66.0526 116.461 66.326 117.448 66.2295 118.435C66.133 119.422 65.6735 120.337 64.9403 121.004C64.2071 121.671 63.2524 122.041 62.2617 122.043L62.2618 122.043Z" fill="#A0616A"/>
<path d="M80.167 193.43L84.6179 193.43L86.7352 176.25L80.1663 176.25L80.167 193.43Z" fill="#A0616A"/>
<path d="M79.0317 191.976L87.797 191.976H87.7974C88.5309 191.976 89.2573 192.12 89.935 192.401C90.6127 192.682 91.2285 193.094 91.7472 193.613C92.266 194.132 92.6774 194.748 92.9581 195.426C93.2389 196.104 93.3833 196.831 93.3833 197.565V197.747L79.032 197.748L79.0317 191.976Z" fill="#2F2E41"/>
<path d="M35.9279 187.272L39.7522 189.551L50.3549 175.873L44.7106 172.511L35.9279 187.272Z" fill="#A0616A"/>
<path d="M35.6961 185.441L43.2275 189.929L43.2278 189.929C43.8581 190.304 44.4083 190.801 44.847 191.389C45.2857 191.977 45.6042 192.646 45.7846 193.358C45.9649 194.069 46.0033 194.81 45.8978 195.536C45.7923 196.262 45.5448 196.961 45.1695 197.592L45.0766 197.748L32.7455 190.401L35.6961 185.441Z" fill="#2F2E41"/>
<path d="M85.6681 187.362H80.6842C80.2806 187.363 79.8911 187.214 79.5911 186.944C79.291 186.674 79.1016 186.302 79.0597 185.9L74.0351 138.636C74.0224 138.517 73.971 138.405 73.8887 138.318C73.8064 138.232 73.6979 138.174 73.5798 138.155C73.4618 138.136 73.3408 138.157 73.2355 138.213C73.1302 138.27 73.0465 138.36 72.9972 138.469L63.9328 158.555L47.8848 184.741C47.6771 185.077 47.3555 185.327 46.9789 185.445C46.6023 185.562 46.1959 185.54 45.8341 185.383L39.4231 182.56C39.2111 182.467 39.0214 182.329 38.8665 182.157C38.7116 181.985 38.5951 181.781 38.5247 181.561C38.4543 181.34 38.4316 181.106 38.4581 180.876C38.4847 180.646 38.5598 180.424 38.6785 180.225L53.4311 155.505L57.9556 134.678C56.5326 125.646 62.633 112.217 62.6948 112.083L62.7251 112.017L81.0681 104.674L81.1524 104.778C92.0519 118.092 90.2782 150.731 87.2966 185.864C87.2598 186.272 87.0726 186.651 86.7715 186.928C86.4705 187.205 86.077 187.36 85.6681 187.362Z" fill="#2F2E41"/>
<path d="M62.0481 114.217L61.9699 114.053C61.9325 113.974 58.196 106.088 55.3157 97.6592C54.7621 96.0292 54.5529 94.302 54.7011 92.5869C54.8494 90.8718 55.352 89.2062 56.1771 87.6957C57.0129 86.1695 58.1564 84.8336 59.535 83.7727C60.9136 82.7118 62.4974 81.949 64.1861 81.5326C67.1175 80.8295 70.2039 81.2036 72.8828 82.5869C75.5618 83.9701 77.655 86.2704 78.7811 89.0687C81.0658 94.7861 81.8769 100.119 81.1917 104.918L81.178 105.014L81.0907 105.056L62.0481 114.217Z" fill="#6A4796"/>
<path d="M93.423 127.012C93.0443 127.486 92.5655 127.87 92.0209 128.137C91.4762 128.404 90.8792 128.547 90.2728 128.556C89.7197 128.564 89.1708 128.459 88.6589 128.249C88.1471 128.039 87.683 127.728 87.2944 127.334C86.9059 126.94 86.6009 126.471 86.3979 125.957C86.1948 125.442 86.0978 124.891 86.1128 124.338C86.1191 124.135 86.1409 123.934 86.178 123.735L68.62 91.0098C68.3904 90.6423 68.2356 90.2329 68.1646 89.8053C68.0936 89.3777 68.1077 88.9403 68.2062 88.5182C68.3048 88.0961 68.4857 87.6976 68.7386 87.3458C68.9916 86.9939 69.3116 86.6955 69.6801 86.4678C70.0487 86.2401 70.4587 86.0876 70.8863 86.019C71.314 85.9504 71.7511 85.9671 72.1723 86.0681C72.5935 86.1691 72.9906 86.3525 73.3408 86.6076C73.691 86.8627 73.9873 87.1846 74.2127 87.5548L91.3655 120.509C92.0126 120.697 92.6035 121.042 93.0856 121.513C93.5678 121.985 93.9265 122.568 94.1299 123.211C94.3334 123.854 94.3753 124.537 94.252 125.2C94.1287 125.863 93.844 126.485 93.423 127.012V127.012Z" fill="#A0616A"/>
<path d="M76.2924 64.2027H62.1337V58.0266C65.2413 56.7911 68.2824 55.7404 70.1206 58.0266C71.7575 58.0266 73.3273 58.6773 74.4847 59.8355C75.6421 60.9938 76.2924 62.5647 76.2924 64.2027Z" fill="#2F2E41"/>
<path d="M61.3498 56.9365C52.8854 56.9365 50.5162 67.5538 50.5162 73.5436C50.5162 76.884 52.0258 78.0787 54.398 78.483L55.2358 74.0118L57.198 78.6754C57.8643 78.6787 58.5644 78.6658 59.2901 78.6523L59.9554 77.2815L61.4389 78.6277C67.3808 78.6366 72.1831 79.5033 72.1831 73.5436C72.1831 67.5538 70.1054 56.9365 61.3498 56.9365Z" fill="#2F2E41"/>
<path d="M138.137 57.765C139.741 57.765 141.041 56.4637 141.041 54.8586C141.041 53.2534 139.741 51.9521 138.137 51.9521C136.533 51.9521 135.232 53.2534 135.232 54.8586C135.232 56.4637 136.533 57.765 138.137 57.765Z" fill="#CCCCCC"/>
<path d="M212.632 90.2024C210.78 90.2024 208.968 89.6526 207.428 88.6225C205.887 87.5924 204.687 86.1284 203.978 84.4154C203.269 82.7025 203.083 80.8176 203.445 78.9991C203.806 77.1807 204.698 75.5103 206.008 74.1993C207.318 72.8883 208.988 71.9955 210.805 71.6337C212.622 71.272 214.506 71.4577 216.217 72.1672C217.929 72.8767 219.392 74.0783 220.421 75.6199C221.451 77.1615 222 78.9739 222 80.828C221.997 83.3134 221.009 85.6962 219.253 87.4536C217.497 89.211 215.116 90.1996 212.632 90.2024ZM212.632 72.1802C210.923 72.1802 209.252 72.6874 207.831 73.6376C206.41 74.5879 205.303 75.9385 204.649 77.5186C203.994 79.0988 203.823 80.8376 204.157 82.5151C204.49 84.1926 205.313 85.7335 206.522 86.9429C207.73 88.1523 209.27 88.9759 210.946 89.3096C212.623 89.6433 214.36 89.472 215.939 88.8175C217.518 88.163 218.868 87.0546 219.818 85.6324C220.767 84.2103 221.274 82.5384 221.274 80.828C221.271 78.5353 220.36 76.3372 218.74 74.716C217.12 73.0947 214.923 72.1828 212.632 72.1802Z" fill="#6A4796"/>
<path d="M211.74 84.2649C211.537 84.2653 211.34 84.1997 211.178 84.0781L211.168 84.0705L209.052 82.4506C208.854 82.2987 208.724 82.0744 208.692 81.8269C208.659 81.5795 208.726 81.3292 208.878 81.1311C209.03 80.933 209.254 80.8034 209.501 80.7707C209.748 80.738 209.998 80.805 210.196 80.9568L211.567 82.0087L214.806 77.78C214.881 77.6819 214.975 77.5997 215.082 77.5379C215.189 77.476 215.307 77.4359 215.429 77.4197C215.551 77.4035 215.676 77.4116 215.795 77.4436C215.914 77.4755 216.026 77.5306 216.124 77.6058L216.124 77.606L216.104 77.6339L216.125 77.606C216.322 77.758 216.452 77.9823 216.484 78.2296C216.517 78.4769 216.45 78.727 216.299 78.9252L212.489 83.8968C212.401 84.0114 212.287 84.104 212.158 84.1677C212.028 84.2313 211.885 84.2642 211.741 84.2638L211.74 84.2649Z" fill="#6A4796"/>
<path d="M211.472 55.2222H147.576C147.48 55.2222 147.387 55.1839 147.319 55.1158C147.251 55.0477 147.213 54.9553 147.213 54.8589C147.213 54.7626 147.251 54.6702 147.319 54.602C147.387 54.5339 147.48 54.4956 147.576 54.4956H211.472C211.568 54.4956 211.66 54.5339 211.728 54.602C211.796 54.6702 211.835 54.7626 211.835 54.8589C211.835 54.9553 211.796 55.0477 211.728 55.1158C211.66 55.1839 211.568 55.2222 211.472 55.2222Z" fill="#3F3D56"/>
<path d="M211.472 62.1246H147.576C147.48 62.1246 147.387 62.0863 147.319 62.0181C147.251 61.95 147.213 61.8576 147.213 61.7613C147.213 61.6649 147.251 61.5725 147.319 61.5044C147.387 61.4362 147.48 61.3979 147.576 61.3979H211.472C211.568 61.3979 211.66 61.4362 211.728 61.5044C211.796 61.5725 211.835 61.6649 211.835 61.7613C211.835 61.8576 211.796 61.95 211.728 62.0181C211.66 62.0863 211.568 62.1246 211.472 62.1246Z" fill="#3F3D56"/>
<path d="M211.472 69.0274H147.576C147.48 69.0274 147.387 68.9891 147.319 68.921C147.251 68.8528 147.213 68.7604 147.213 68.6641C147.213 68.5677 147.251 68.4753 147.319 68.4072C147.387 68.3391 147.48 68.3008 147.576 68.3008H211.472C211.568 68.3008 211.66 68.3391 211.728 68.4072C211.796 68.4753 211.835 68.5677 211.835 68.6641C211.835 68.7604 211.796 68.8528 211.728 68.921C211.66 68.9891 211.568 69.0274 211.472 69.0274Z" fill="#3F3D56"/>
<path d="M196.95 75.9302H147.576C147.48 75.9302 147.387 75.8919 147.319 75.8238C147.251 75.7557 147.213 75.6633 147.213 75.5669C147.213 75.4706 147.251 75.3782 147.319 75.31C147.387 75.2419 147.48 75.2036 147.576 75.2036H196.95C197.046 75.2036 197.139 75.2419 197.207 75.31C197.275 75.3782 197.313 75.4706 197.313 75.5669C197.313 75.6633 197.275 75.7557 197.207 75.8238C197.139 75.8919 197.046 75.9302 196.95 75.9302Z" fill="#3F3D56"/>
<path d="M196.587 82.833H147.576C147.48 82.833 147.387 82.7948 147.319 82.7266C147.251 82.6585 147.213 82.5661 147.213 82.4697C147.213 82.3734 147.251 82.281 147.319 82.2129C147.387 82.1447 147.48 82.1064 147.576 82.1064H196.587C196.683 82.1064 196.775 82.1447 196.844 82.2129C196.912 82.281 196.95 82.3734 196.95 82.4697C196.95 82.5661 196.912 82.6585 196.844 82.7266C196.775 82.7948 196.683 82.833 196.587 82.833Z" fill="#3F3D56"/>
<path d="M138.137 5.81284C139.741 5.81284 141.041 4.51159 141.041 2.90642C141.041 1.30125 139.741 0 138.137 0C136.533 0 135.232 1.30125 135.232 2.90642C135.232 4.51159 136.533 5.81284 138.137 5.81284Z" fill="#CCCCCC"/>
<path d="M212.632 38.2497C210.78 38.2497 208.968 37.6999 207.428 36.6699C205.887 35.6398 204.687 34.1757 203.978 32.4628C203.269 30.7498 203.083 28.865 203.445 27.0465C203.806 25.2281 204.698 23.5577 206.008 22.2467C207.318 20.9356 208.988 20.0428 210.805 19.6811C212.622 19.3194 214.506 19.505 216.217 20.2146C217.929 20.9241 219.392 22.1256 220.421 23.6672C221.451 25.2088 222 27.0213 222 28.8754C221.997 31.3607 221.009 33.7435 219.253 35.501C217.497 37.2584 215.116 38.247 212.632 38.2497ZM212.632 20.2276C210.923 20.2276 209.252 20.7348 207.831 21.685C206.41 22.6352 205.303 23.9858 204.649 25.566C203.994 27.1462 203.823 28.885 204.157 30.5625C204.49 32.24 205.313 33.7809 206.522 34.9903C207.73 36.1997 209.27 37.0233 210.946 37.357C212.623 37.6907 214.36 37.5194 215.939 36.8649C217.518 36.2103 218.868 35.1019 219.818 33.6798C220.767 32.2577 221.274 30.5857 221.274 28.8754C221.271 26.5826 220.36 24.3845 218.74 22.7633C217.12 21.1421 214.923 20.2302 212.632 20.2276Z" fill="#6A4796"/>
<path d="M211.74 32.3128C211.537 32.3131 211.34 32.2476 211.178 32.1259L211.168 32.1184L209.052 30.4984C208.854 30.3466 208.724 30.1222 208.692 29.8748C208.659 29.6274 208.726 29.3771 208.878 29.179C209.03 28.9809 209.254 28.8513 209.501 28.8186C209.748 28.7859 209.998 28.8528 210.196 29.0047L211.567 30.0566L214.806 25.8278C214.881 25.7298 214.975 25.6475 215.082 25.5857C215.189 25.5239 215.307 25.4838 215.429 25.4676C215.551 25.4514 215.676 25.4595 215.795 25.4914C215.914 25.5233 216.026 25.5785 216.124 25.6536L216.124 25.6538L216.104 25.6818L216.125 25.6538C216.322 25.8058 216.452 26.0301 216.484 26.2774C216.517 26.5247 216.45 26.7749 216.299 26.973L212.489 31.9447C212.401 32.0592 212.287 32.1519 212.158 32.2156C212.028 32.2792 211.885 32.3121 211.741 32.3117L211.74 32.3128Z" fill="#6A4796"/>
<path d="M211.472 3.26957H147.576C147.48 3.26957 147.387 3.2313 147.319 3.16317C147.251 3.09503 147.213 3.00263 147.213 2.90627C147.213 2.80992 147.251 2.71751 147.319 2.64938C147.387 2.58124 147.48 2.54297 147.576 2.54297H211.472C211.568 2.54297 211.66 2.58124 211.728 2.64938C211.796 2.71751 211.835 2.80992 211.835 2.90627C211.835 3.00263 211.796 3.09503 211.728 3.16317C211.66 3.2313 211.568 3.26957 211.472 3.26957Z" fill="#3F3D56"/>
<path d="M211.472 10.1724H147.576C147.48 10.1724 147.387 10.1341 147.319 10.066C147.251 9.99787 147.213 9.90546 147.213 9.8091C147.213 9.71275 147.251 9.62034 147.319 9.55221C147.387 9.48408 147.48 9.4458 147.576 9.4458H211.472C211.568 9.4458 211.66 9.48408 211.728 9.55221C211.796 9.62034 211.835 9.71275 211.835 9.8091C211.835 9.90546 211.796 9.99787 211.728 10.066C211.66 10.1341 211.568 10.1724 211.472 10.1724Z" fill="#3F3D56"/>
<path d="M211.472 17.0752H147.576C147.48 17.0752 147.387 17.037 147.319 16.9688C147.251 16.9007 147.213 16.8083 147.213 16.7119C147.213 16.6156 147.251 16.5232 147.319 16.455C147.387 16.3869 147.48 16.3486 147.576 16.3486H211.472C211.568 16.3486 211.66 16.3869 211.728 16.455C211.796 16.5232 211.835 16.6156 211.835 16.7119C211.835 16.8083 211.796 16.9007 211.728 16.9688C211.66 17.037 211.568 17.0752 211.472 17.0752Z" fill="#3F3D56"/>
<path d="M196.95 23.9781H147.576C147.48 23.9781 147.387 23.9398 147.319 23.8717C147.251 23.8035 147.213 23.7111 147.213 23.6148C147.213 23.5184 147.251 23.426 147.319 23.3579C147.387 23.2897 147.48 23.2515 147.576 23.2515H196.95C197.046 23.2515 197.139 23.2897 197.207 23.3579C197.275 23.426 197.313 23.5184 197.313 23.6148C197.313 23.7111 197.275 23.8035 197.207 23.8717C197.139 23.9398 197.046 23.9781 196.95 23.9781Z" fill="#3F3D56"/>
<path d="M196.587 30.8809H147.576C147.48 30.8809 147.387 30.8426 147.319 30.7745C147.251 30.7064 147.213 30.614 147.213 30.5176C147.213 30.4212 147.251 30.3288 147.319 30.2607C147.387 30.1926 147.48 30.1543 147.576 30.1543H196.587C196.683 30.1543 196.775 30.1926 196.844 30.2607C196.912 30.3288 196.95 30.4212 196.95 30.5176C196.95 30.614 196.912 30.7064 196.844 30.7745C196.775 30.8426 196.683 30.8809 196.587 30.8809Z" fill="#3F3D56"/>
<path d="M138.137 109.354C139.741 109.354 141.041 108.053 141.041 106.447C141.041 104.842 139.741 103.541 138.137 103.541C136.533 103.541 135.232 104.842 135.232 106.447C135.232 108.053 136.533 109.354 138.137 109.354Z" fill="#CCCCCC"/>
<path d="M212.632 141.791C210.78 141.791 208.968 141.241 207.428 140.211C205.887 139.181 204.687 137.717 203.978 136.004C203.269 134.291 203.083 132.406 203.445 130.588C203.806 128.77 204.698 127.099 206.008 125.788C207.318 124.477 208.988 123.584 210.805 123.223C212.622 122.861 214.506 123.047 216.217 123.756C217.929 124.466 219.392 125.667 220.421 127.209C221.451 128.75 222 130.563 222 132.417C221.997 134.902 221.009 137.285 219.253 139.042C217.497 140.8 215.116 141.788 212.632 141.791ZM212.632 123.769C210.923 123.769 209.252 124.276 207.831 125.227C206.41 126.177 205.303 127.527 204.649 129.108C203.994 130.688 203.823 132.426 204.157 134.104C204.49 135.781 205.313 137.322 206.522 138.532C207.73 139.741 209.27 140.565 210.946 140.898C212.623 141.232 214.36 141.061 215.939 140.406C217.518 139.752 218.868 138.643 219.818 137.221C220.767 135.799 221.274 134.127 221.274 132.417C221.271 130.124 220.36 127.926 218.74 126.305C217.12 124.684 214.923 123.772 212.632 123.769Z" fill="#E6E6E6"/>
<path d="M211.74 135.854C211.537 135.855 211.34 135.789 211.178 135.667L211.168 135.66L209.052 134.04C208.954 133.965 208.872 133.871 208.81 133.764C208.748 133.657 208.708 133.539 208.692 133.416C208.676 133.294 208.684 133.169 208.716 133.05C208.748 132.931 208.803 132.819 208.878 132.721C208.953 132.622 209.047 132.54 209.154 132.478C209.26 132.416 209.379 132.376 209.501 132.36C209.623 132.344 209.748 132.352 209.867 132.384C209.986 132.416 210.098 132.471 210.196 132.546L211.567 133.598L214.806 129.369C214.881 129.271 214.975 129.189 215.082 129.127C215.189 129.065 215.307 129.025 215.429 129.009C215.551 128.993 215.676 129.001 215.795 129.033C215.914 129.065 216.026 129.12 216.124 129.195L216.124 129.195L216.104 129.223L216.125 129.195C216.322 129.347 216.452 129.572 216.484 129.819C216.517 130.066 216.45 130.316 216.299 130.515L212.489 135.486C212.401 135.601 212.287 135.693 212.158 135.757C212.028 135.821 211.885 135.854 211.741 135.853L211.74 135.854Z" fill="#E6E6E6"/>
<path d="M211.472 106.811H147.576C147.48 106.811 147.387 106.773 147.319 106.705C147.251 106.637 147.213 106.544 147.213 106.448C147.213 106.351 147.251 106.259 147.319 106.191C147.387 106.123 147.48 106.084 147.576 106.084H211.472C211.568 106.084 211.66 106.123 211.728 106.191C211.796 106.259 211.835 106.351 211.835 106.448C211.835 106.544 211.796 106.637 211.728 106.705C211.66 106.773 211.568 106.811 211.472 106.811Z" fill="#3F3D56"/>
<path d="M211.472 113.714H147.576C147.48 113.714 147.387 113.676 147.319 113.607C147.251 113.539 147.213 113.447 147.213 113.351C147.213 113.254 147.251 113.162 147.319 113.094C147.387 113.026 147.48 112.987 147.576 112.987H211.472C211.568 112.987 211.66 113.026 211.728 113.094C211.796 113.162 211.835 113.254 211.835 113.351C211.835 113.447 211.796 113.539 211.728 113.607C211.66 113.676 211.568 113.714 211.472 113.714Z" fill="#3F3D56"/>
<path d="M211.472 120.617H147.576C147.48 120.617 147.387 120.578 147.319 120.51C147.251 120.442 147.213 120.35 147.213 120.253C147.213 120.157 147.251 120.065 147.319 119.997C147.387 119.928 147.48 119.89 147.576 119.89H211.472C211.568 119.89 211.66 119.928 211.728 119.997C211.796 120.065 211.835 120.157 211.835 120.253C211.835 120.35 211.796 120.442 211.728 120.51C211.66 120.578 211.568 120.617 211.472 120.617Z" fill="#3F3D56"/>
<path d="M196.95 127.519H147.576C147.48 127.519 147.387 127.481 147.319 127.413C147.251 127.345 147.213 127.252 147.213 127.156C147.213 127.059 147.251 126.967 147.319 126.899C147.387 126.831 147.48 126.792 147.576 126.792H196.95C197.046 126.792 197.139 126.831 197.207 126.899C197.275 126.967 197.313 127.059 197.313 127.156C197.313 127.252 197.275 127.345 197.207 127.413C197.139 127.481 197.046 127.519 196.95 127.519Z" fill="#3F3D56"/>
<path d="M196.587 134.422H147.576C147.48 134.422 147.387 134.384 147.319 134.316C147.251 134.247 147.213 134.155 147.213 134.059C147.213 133.962 147.251 133.87 147.319 133.802C147.387 133.734 147.48 133.695 147.576 133.695H196.587C196.683 133.695 196.775 133.734 196.844 133.802C196.912 133.87 196.95 133.962 196.95 134.059C196.95 134.155 196.912 134.247 196.844 134.316C196.775 134.384 196.683 134.422 196.587 134.422Z" fill="#3F3D56"/>
<path d="M140.231 198H1.91102C1.81473 198 1.7224 197.962 1.65431 197.894C1.58623 197.825 1.54797 197.733 1.54797 197.637C1.54797 197.54 1.58623 197.448 1.65431 197.38C1.7224 197.312 1.81473 197.273 1.91102 197.273H140.231C140.327 197.273 140.419 197.312 140.487 197.38C140.556 197.448 140.594 197.54 140.594 197.637C140.594 197.733 140.556 197.825 140.487 197.894C140.419 197.962 140.327 198 140.231 198Z" fill="#3F3D56"/>
</g>
<defs>
<clipPath id="clip0">
<rect width="222" height="198" fill="white"/>
</clipPath>
</defs>
</svg>
