<svg width="211" height="194" viewBox="0 0 211 194" fill="none" xmlns="http://www.w3.org/2000/svg">
<path d="M149.549 177.915H53.3058C51.0201 177.913 48.8288 177.004 47.2129 175.389C45.5969 173.774 44.6884 171.584 44.6866 169.3V132.332C44.4874 132.559 44.2788 132.783 44.0641 133.001V169.3C44.0663 171.748 45.0406 174.096 46.7732 175.828C48.5058 177.56 50.8552 178.534 53.3058 178.537H149.82C149.726 178.332 149.636 178.124 149.549 177.915ZM44.6866 41.275C44.6884 38.991 45.5969 36.8011 47.2129 35.1858C48.8288 33.5704 51.0201 32.6618 53.3058 32.6592H85.3734C85.3142 32.4508 85.2581 32.2455 85.2053 32.0371H53.3058C50.8552 32.0402 48.5058 33.0145 46.7732 34.7464C45.0406 36.4783 44.0663 38.8262 44.0641 41.275V97.9467C44.2788 98.1645 44.4843 98.3884 44.6866 98.6155V41.275ZM173.916 48.541L153.807 32.625C153.327 32.2447 152.733 32.0375 152.12 32.0371H134.225C134.175 32.2455 134.119 32.4539 134.06 32.6592H152.12C152.592 32.6603 153.05 32.8191 153.421 33.1102L173.529 49.0293C173.72 49.1797 173.875 49.3716 173.98 49.5904C174.086 49.8092 174.14 50.0492 174.14 50.2921V142.929C174.348 142.936 174.557 142.951 174.762 142.967V50.2921C174.763 49.9552 174.688 49.6224 174.541 49.319C174.394 49.0155 174.18 48.7495 173.916 48.541Z" fill="#3F3D56"/>
<path d="M173.65 49.3626H157.424C156.838 49.3626 156.257 49.2472 155.715 49.0229C155.173 48.7986 154.681 48.4699 154.266 48.0555C153.852 47.6411 153.523 47.1491 153.298 46.6076C153.074 46.0662 152.958 45.4859 152.958 44.8998V32.9249C152.958 32.8725 152.973 32.8211 153.001 32.7767C153.029 32.7323 153.069 32.6966 153.116 32.6738C153.163 32.651 153.216 32.6419 153.268 32.6477C153.32 32.6534 153.37 32.6737 153.411 32.7063L173.823 48.865C173.869 48.901 173.902 48.9502 173.918 49.0058C173.934 49.0614 173.932 49.1207 173.913 49.1754C173.894 49.2301 173.859 49.2775 173.812 49.311C173.764 49.3446 173.708 49.3626 173.65 49.3626Z" fill="#E6E6E6"/>
<path d="M173.65 49.6737H157.425C156.158 49.6722 154.944 49.1688 154.048 48.2738C153.152 47.3789 152.648 46.1654 152.647 44.8998V32.925C152.647 32.8141 152.678 32.7055 152.737 32.6115C152.796 32.5176 152.88 32.4421 152.98 32.3939C153.08 32.3456 153.192 32.3264 153.302 32.3385C153.412 32.3506 153.517 32.3936 153.604 32.4624L174.016 48.6213C174.113 48.6974 174.183 48.8014 174.217 48.9191C174.251 49.0367 174.248 49.162 174.208 49.2777C174.167 49.3934 174.092 49.4937 173.992 49.5647C173.892 49.6356 173.772 49.6737 173.65 49.6737ZM153.27 32.9914V44.8998C153.271 46.0005 153.709 47.0558 154.488 47.8342C155.267 48.6125 156.323 49.0504 157.425 49.0516H173.558L153.27 32.9914Z" fill="#3F3D56"/>
<path d="M141.442 70.0033H93.7095C93.1172 70.0033 92.5492 69.7683 92.1304 69.3498C91.7116 68.9313 91.4764 68.3637 91.4764 67.7719C91.4764 67.1801 91.7116 66.6126 92.1304 66.1941C92.5492 65.7756 93.1172 65.5405 93.7095 65.5405H141.442C142.034 65.5405 142.602 65.7756 143.021 66.1941C143.439 66.6126 143.675 67.1801 143.675 67.7719C143.675 68.3637 143.439 68.9313 143.021 69.3498C142.602 69.7683 142.034 70.0033 141.442 70.0033Z" fill="#CCCCCC"/>
<path d="M150.653 77.5341H93.7095C93.1172 77.5341 92.5492 77.299 92.1304 76.8806C91.7116 76.4621 91.4764 75.8945 91.4764 75.3027C91.4764 74.7109 91.7116 74.1433 92.1304 73.7249C92.5492 73.3064 93.1172 73.0713 93.7095 73.0713H150.653C151.245 73.0713 151.813 73.3064 152.232 73.7249C152.651 74.1433 152.886 74.7109 152.886 75.3027C152.886 75.8945 152.651 76.4621 152.232 76.8806C151.813 77.299 151.245 77.5341 150.653 77.5341H150.653Z" fill="#CCCCCC"/>
<path d="M141.442 103.753H93.7095C93.1172 103.753 92.5492 103.518 92.1304 103.1C91.7116 102.681 91.4764 102.114 91.4764 101.522C91.4764 100.93 91.7116 100.363 92.1304 99.9441C92.5492 99.5256 93.1172 99.2905 93.7095 99.2905H141.442C142.034 99.2905 142.602 99.5256 143.021 99.9441C143.439 100.363 143.675 100.93 143.675 101.522C143.675 102.114 143.439 102.681 143.021 103.1C142.602 103.518 142.034 103.753 141.442 103.753Z" fill="#CCCCCC"/>
<path d="M150.653 111.284H93.7095C93.1172 111.284 92.5492 111.049 92.1304 110.631C91.7116 110.212 91.4764 109.645 91.4764 109.053C91.4764 108.461 91.7116 107.893 92.1304 107.475C92.5492 107.056 93.1172 106.821 93.7095 106.821H150.653C151.245 106.821 151.813 107.056 152.232 107.475C152.651 107.893 152.886 108.461 152.886 109.053C152.886 109.645 152.651 110.212 152.232 110.631C151.813 111.049 151.245 111.284 150.653 111.284H150.653Z" fill="#CCCCCC"/>
<path d="M141.442 137.503H93.7095C93.4162 137.503 93.1258 137.446 92.8549 137.333C92.584 137.221 92.3378 137.057 92.1304 136.85C91.9231 136.643 91.7586 136.397 91.6464 136.126C91.5341 135.855 91.4764 135.565 91.4764 135.272C91.4764 134.979 91.5341 134.689 91.6464 134.418C91.7586 134.147 91.9231 133.901 92.1304 133.694C92.3378 133.487 92.584 133.323 92.8549 133.21C93.1258 133.098 93.4162 133.041 93.7095 133.041H141.442C142.034 133.041 142.602 133.276 143.021 133.694C143.439 134.113 143.675 134.68 143.675 135.272C143.675 135.864 143.439 136.431 143.021 136.85C142.602 137.268 142.034 137.503 141.442 137.503Z" fill="#CCCCCC"/>
<path d="M150.653 145.035H93.7095C93.4162 145.035 93.1258 144.977 92.8549 144.865C92.584 144.753 92.3378 144.588 92.1304 144.381C91.9231 144.174 91.7586 143.928 91.6464 143.657C91.5341 143.386 91.4764 143.096 91.4764 142.803C91.4764 142.51 91.5341 142.22 91.6464 141.949C91.7586 141.679 91.9231 141.433 92.1304 141.225C92.3378 141.018 92.584 140.854 92.8549 140.742C93.1258 140.629 93.4162 140.572 93.7095 140.572H150.653C150.946 140.572 151.237 140.629 151.508 140.742C151.779 140.854 152.025 141.018 152.232 141.225C152.44 141.433 152.604 141.679 152.716 141.949C152.828 142.22 152.886 142.51 152.886 142.803C152.886 143.096 152.828 143.386 152.716 143.657C152.604 143.928 152.44 144.174 152.232 144.381C152.025 144.588 151.779 144.753 151.508 144.865C151.237 144.977 150.946 145.035 150.653 145.035H150.653Z" fill="#CCCCCC"/>
<path d="M73.8327 79.424C78.1917 79.424 81.7254 75.8929 81.7254 71.5372C81.7254 67.1814 78.1917 63.6504 73.8327 63.6504C69.4736 63.6504 65.9399 67.1814 65.9399 71.5372C65.9399 75.8929 69.4736 79.424 73.8327 79.424Z" fill="#6A4796"/>
<path d="M73.0504 74.5461C72.8729 74.5464 72.7 74.489 72.558 74.3826L72.5492 74.376L70.6943 72.9581C70.6082 72.8924 70.5359 72.8103 70.4816 72.7166C70.4273 72.623 70.3919 72.5195 70.3777 72.4122C70.3634 72.3048 70.3704 72.1957 70.3984 72.0911C70.4264 71.9865 70.4747 71.8884 70.5406 71.8025C70.6065 71.7166 70.6888 71.6445 70.7826 71.5904C70.8764 71.5362 70.98 71.5011 71.0875 71.487C71.1949 71.4729 71.3041 71.4801 71.4087 71.5082C71.5134 71.5363 71.6114 71.5848 71.6973 71.6508L72.8988 72.5714L75.7379 68.8703C75.8037 68.7845 75.8858 68.7124 75.9795 68.6583C76.0732 68.6042 76.1766 68.5691 76.2839 68.5549C76.3911 68.5408 76.5002 68.5479 76.6047 68.5758C76.7092 68.6038 76.8072 68.652 76.8931 68.7178L76.8933 68.718L76.8757 68.7424L76.8938 68.718C77.067 68.851 77.1804 69.0473 77.209 69.2638C77.2375 69.4802 77.179 69.6992 77.0462 69.8726L73.7068 74.2239C73.6296 74.3242 73.5302 74.4053 73.4165 74.461C73.3028 74.5167 73.1778 74.5455 73.0512 74.5452L73.0504 74.5461Z" fill="white"/>
<path d="M73.8327 113.174C78.1917 113.174 81.7254 109.643 81.7254 105.288C81.7254 100.932 78.1917 97.4009 73.8327 97.4009C69.4736 97.4009 65.9399 100.932 65.9399 105.288C65.9399 109.643 69.4736 113.174 73.8327 113.174Z" fill="#E6E6E6"/>
<path d="M73.0506 108.296C72.873 108.296 72.7002 108.239 72.5581 108.133L72.5493 108.126L70.6944 106.708C70.5209 106.575 70.4074 106.379 70.3787 106.162C70.3501 105.946 70.4088 105.727 70.5418 105.553C70.6748 105.38 70.8713 105.266 71.088 105.238C71.3047 105.209 71.524 105.268 71.6975 105.401L72.8989 106.321L75.738 102.62C75.8038 102.534 75.886 102.462 75.9796 102.408C76.0733 102.354 76.1768 102.319 76.284 102.305C76.3913 102.291 76.5003 102.298 76.6048 102.326C76.7094 102.354 76.8074 102.402 76.8932 102.468L76.8935 102.468L76.8759 102.492L76.894 102.468C77.0672 102.601 77.1805 102.797 77.2091 103.014C77.2377 103.23 77.1792 103.449 77.0464 103.623L73.707 107.974C73.6297 108.074 73.5304 108.155 73.4167 108.211C73.303 108.267 73.178 108.296 73.0513 108.295L73.0506 108.296Z" fill="white"/>
<path d="M73.8327 146.924C78.1917 146.924 81.7254 143.393 81.7254 139.038C81.7254 134.682 78.1917 131.151 73.8327 131.151C69.4736 131.151 65.9399 134.682 65.9399 139.038C65.9399 143.393 69.4736 146.924 73.8327 146.924Z" fill="#E6E6E6"/>
<path d="M73.0504 142.046C72.8729 142.046 72.7 141.989 72.558 141.883L72.5492 141.876L70.6943 140.458C70.6082 140.392 70.5359 140.31 70.4816 140.217C70.4273 140.123 70.3919 140.019 70.3777 139.912C70.3634 139.805 70.3704 139.696 70.3984 139.591C70.4264 139.487 70.4747 139.388 70.5406 139.303C70.6065 139.217 70.6888 139.144 70.7826 139.09C70.8764 139.036 70.98 139.001 71.0875 138.987C71.1949 138.973 71.3041 138.98 71.4087 139.008C71.5134 139.036 71.6114 139.085 71.6973 139.151L72.8988 140.071L75.7379 136.37C75.8037 136.284 75.8858 136.212 75.9795 136.158C76.0732 136.104 76.1766 136.069 76.2839 136.055C76.3911 136.041 76.5002 136.048 76.6047 136.076C76.7092 136.104 76.8072 136.152 76.8931 136.218L76.8933 136.218L76.8757 136.242L76.8938 136.218C77.067 136.351 77.1804 136.547 77.209 136.764C77.2375 136.98 77.179 137.199 77.0462 137.373L73.7068 141.724C73.6296 141.824 73.5302 141.905 73.4165 141.961C73.3028 142.017 73.1778 142.046 73.0512 142.045L73.0504 142.046Z" fill="white"/>
<path d="M184.803 191.08C184.357 191.313 183.904 191.533 183.444 191.74C183.024 191.93 182.598 192.108 182.165 192.274C182.007 192.335 181.846 192.395 181.685 192.455C180.413 192.916 179.107 193.276 177.778 193.532C177.12 193.661 176.453 193.763 175.778 193.836C175.221 193.899 174.658 193.944 174.089 193.971C173.684 193.991 173.278 194 172.87 194C171.255 194.001 169.642 193.85 168.055 193.549C167.641 193.474 167.236 193.385 166.831 193.288C164.871 192.819 162.974 192.119 161.179 191.204C161.019 191.123 160.858 191.037 160.697 190.954C160.458 190.827 160.226 190.695 159.993 190.558C160.105 190.402 160.226 190.25 160.349 190.101C161.693 188.436 163.374 187.073 165.281 186.101C167.188 185.128 169.278 184.568 171.416 184.457C173.555 184.346 175.692 184.686 177.69 185.456C179.687 186.226 181.5 187.407 183.01 188.924C183.534 189.449 184.02 190.012 184.464 190.606C184.581 190.761 184.694 190.919 184.803 191.08Z" fill="#6A4796"/>
<path d="M173.444 178.469C180.412 178.469 186.06 172.824 186.06 165.862C186.06 158.9 180.412 153.255 173.444 153.255C166.476 153.255 160.828 158.9 160.828 165.862C160.828 172.824 166.476 178.469 173.444 178.469Z" fill="#2F2E41"/>
<path d="M176.799 178.486C181.35 176.001 183.022 170.3 180.535 165.753C178.047 161.206 172.342 159.535 167.792 162.02C163.241 164.506 161.569 170.207 164.056 174.754C166.544 179.301 172.249 180.972 176.799 178.486Z" fill="#A0616A"/>
<path d="M182.162 164.352C180.016 165.829 177.469 166.616 174.863 166.605C175.793 167.25 176.851 167.685 177.965 167.881C174.5 168.623 170.92 168.643 167.447 167.94C166.675 167.816 165.93 167.56 165.245 167.184C164.903 166.993 164.606 166.733 164.372 166.42C164.137 166.107 163.972 165.749 163.885 165.368C163.655 164.05 164.682 162.853 165.75 162.047C167.384 160.83 169.269 159.993 171.267 159.594C173.266 159.194 175.328 159.244 177.304 159.739C178.595 160.073 179.888 160.636 180.727 161.672C181.565 162.708 181.813 164.305 181.015 165.371L182.162 164.352Z" fill="#2F2E41"/>
<path d="M174.762 142.388C174.557 142.373 174.348 142.36 174.139 142.351C173.719 142.329 173.296 142.32 172.869 142.32C168.629 142.32 164.454 143.362 160.712 145.354C156.969 147.347 153.775 150.228 151.409 153.745C149.044 157.261 147.58 161.305 147.147 165.52C146.714 169.735 147.325 173.992 148.926 177.915C149.01 178.124 149.098 178.332 149.191 178.537C151.33 183.38 154.896 187.455 159.413 190.22L159.578 190.317C159.718 190.401 159.855 190.481 159.992 190.556C160.226 190.696 160.459 190.827 160.696 190.954C160.857 191.038 161.019 191.122 161.178 191.203C162.973 192.119 164.871 192.818 166.831 193.287C167.235 193.387 167.64 193.474 168.054 193.548C169.642 193.849 171.254 194 172.869 193.999C173.277 193.999 173.682 193.99 174.09 193.971C174.656 193.946 175.22 193.9 175.777 193.838C176.452 193.763 177.119 193.661 177.778 193.533C179.107 193.276 180.413 192.917 181.685 192.457C181.847 192.394 182.009 192.335 182.164 192.273C182.6 192.108 183.023 191.931 183.444 191.741C183.904 191.533 184.358 191.312 184.804 191.079C189.276 188.737 192.973 185.15 195.446 180.752C195.458 180.729 195.47 180.706 195.484 180.684C197.59 176.891 198.706 172.629 198.73 168.292C198.753 163.954 197.684 159.68 195.619 155.865C193.555 152.049 190.562 148.815 186.916 146.459C183.271 144.104 179.091 142.704 174.762 142.388L174.762 142.388ZM197.709 172.901C197.209 175.51 196.299 178.024 195.011 180.348C194.989 180.388 194.967 180.429 194.945 180.466C192.522 184.8 188.878 188.326 184.464 190.606C184.022 190.836 183.575 191.052 183.123 191.253C182.746 191.421 182.36 191.583 181.971 191.732C181.809 191.794 181.641 191.859 181.476 191.915C180.377 192.316 179.25 192.639 178.105 192.88C177.256 193.061 176.398 193.196 175.534 193.284C175.002 193.343 174.463 193.383 173.918 193.402C173.57 193.418 173.221 193.427 172.869 193.427C171.306 193.428 169.746 193.282 168.21 192.992C167.275 192.82 166.351 192.594 165.442 192.313C164.059 191.887 162.714 191.343 161.424 190.687C161.274 190.609 161.125 190.531 160.979 190.45C160.767 190.338 160.555 190.223 160.35 190.102C160.194 190.015 160.039 189.922 159.886 189.831C159.796 189.778 159.709 189.726 159.619 189.67C155.318 187.014 151.907 183.138 149.82 178.537C149.726 178.332 149.636 178.124 149.549 177.915C147.94 174.076 147.306 169.898 147.703 165.754C148.099 161.611 149.514 157.629 151.822 154.164C154.13 150.698 157.259 147.856 160.931 145.89C164.603 143.924 168.704 142.896 172.869 142.895C173.296 142.895 173.719 142.905 174.139 142.929C174.348 142.936 174.557 142.951 174.762 142.967C178.314 143.236 181.769 144.251 184.901 145.946C188.033 147.641 190.772 149.978 192.938 152.804C195.104 155.63 196.649 158.88 197.471 162.344C198.293 165.807 198.374 169.405 197.709 172.901L197.709 172.901Z" fill="#3F3D56"/>
<path d="M167.055 153.429C166.919 152.003 165.171 151.125 163.803 151.556C162.436 151.987 161.538 153.363 161.267 154.769C161.136 155.362 161.124 155.974 161.231 156.572C161.337 157.169 161.561 157.739 161.889 158.25C162.58 159.244 163.85 159.864 165.035 159.612C166.387 159.324 167.324 158.004 167.592 156.649C167.86 155.293 167.594 153.895 167.328 152.539L167.055 153.429Z" fill="#2F2E41"/>
<path d="M186.3 155.467C186.164 154.041 184.416 153.163 183.048 153.593C181.681 154.024 180.783 155.4 180.512 156.807C180.381 157.399 180.369 158.012 180.476 158.609C180.582 159.206 180.806 159.777 181.134 160.287C181.825 161.281 183.095 161.902 184.28 161.649C185.632 161.361 186.569 160.042 186.837 158.686C187.105 157.331 186.839 155.933 186.573 154.577L186.3 155.467Z" fill="#2F2E41"/>
<path d="M123.508 47.3549C119.505 49.9161 114.867 51.3128 110.115 51.3883C105.362 51.4639 100.682 50.2154 96.6002 47.7827C97.3183 46.4469 98.2283 45.2233 99.3011 44.1509C100.956 42.4889 102.971 41.2283 105.19 40.4657C107.409 39.7032 109.773 39.4591 112.101 39.7521C114.429 40.0452 116.659 40.8676 118.62 42.1562C120.58 43.4448 122.219 45.1653 123.41 47.1855C123.441 47.2401 123.476 47.2975 123.508 47.3549Z" fill="#6A4796"/>
<path d="M108.931 33.6254C115.945 33.6254 121.63 27.9437 121.63 20.935C121.63 13.9263 115.945 8.24463 108.931 8.24463C101.917 8.24463 96.2306 13.9263 96.2306 20.935C96.2306 27.9437 101.917 33.6254 108.931 33.6254Z" fill="#2F2E41"/>
<path d="M117.135 29.886C119.639 25.3089 117.956 19.57 113.375 17.0679C108.795 14.5658 103.052 16.248 100.548 20.8251C98.0436 25.4023 99.727 31.1411 104.308 33.6432C108.888 36.1453 114.631 34.4632 117.135 29.886Z" fill="#FFB8B8"/>
<path d="M100.154 19.4147C102.314 20.9023 104.878 21.694 107.501 21.6836C106.566 22.3319 105.5 22.7699 104.379 22.9672C107.867 23.7148 111.472 23.7351 114.968 23.0267C115.745 22.9022 116.495 22.6448 117.184 22.2659C117.528 22.0742 117.827 21.8122 118.063 21.4972C118.299 21.1822 118.466 20.8211 118.552 20.4375C118.785 19.1113 117.751 17.9065 116.676 17.0945C115.03 15.8703 113.133 15.0268 111.122 14.6251C109.11 14.2234 107.034 14.2735 105.044 14.7719C103.745 15.1075 102.443 15.6745 101.599 16.7172C100.755 17.7599 100.505 19.3674 101.309 20.4411L100.154 19.4147Z" fill="#2F2E41"/>
<path d="M109.709 0C102.853 0.00761702 96.2802 2.73219 91.4321 7.57605C86.584 12.4199 83.8566 18.9875 83.8481 25.8382C83.8492 27.928 84.1064 30.0099 84.6139 32.0372C84.6668 32.2456 84.7197 32.454 84.7757 32.6593C86.2674 38.1241 89.5165 42.9469 94.0223 46.3841C98.5281 49.8213 104.04 51.6821 109.709 51.6795C115.379 51.6793 120.891 49.8178 125.399 46.3813C129.907 42.9448 133.16 38.1236 134.658 32.6593C134.714 32.4509 134.767 32.2456 134.816 32.0372C135.754 28.2309 135.813 24.2614 134.99 20.4288C134.167 16.5962 132.482 13.0008 130.063 9.91457C127.644 6.82833 124.555 4.33201 121.029 2.61437C117.503 0.896733 113.632 0.00274231 109.709 0ZM134.225 32.0372C134.175 32.2456 134.119 32.454 134.06 32.6593C133.01 36.3969 131.112 39.8425 128.514 42.729C125.916 45.6155 122.688 47.8653 119.08 49.304C115.471 50.7427 111.58 51.3317 107.707 51.0251C103.834 50.7186 100.084 49.5248 96.7474 47.5364C91.2018 44.2019 87.135 38.8825 85.3734 32.6593C85.3143 32.4509 85.2582 32.2456 85.2053 32.0372C84.6865 30.0117 84.4241 27.929 84.4241 25.8382C84.4281 22.2592 85.1931 18.7218 86.6683 15.4605C88.1436 12.1992 90.2955 9.28829 92.9814 6.92062C95.6674 4.55295 98.8261 2.78256 102.248 1.7267C105.671 0.670838 109.278 0.353616 112.833 0.796037C116.387 1.23846 119.807 2.43042 122.865 4.29299C125.924 6.15556 128.551 8.64621 130.574 11.6C132.596 14.5538 133.968 17.9032 134.597 21.4265C135.227 24.9499 135.1 28.5666 134.225 32.0372H134.225Z" fill="#3F3D56"/>
<path d="M39.6596 136.976C35.657 139.537 31.0197 140.934 26.2673 141.01C21.5149 141.086 16.8353 139.838 12.753 137.405C12.7965 137.321 12.8431 137.237 12.893 137.156C14.2025 134.798 16.1108 132.826 18.4258 131.438C20.7409 130.051 23.3808 129.298 26.0798 129.255C28.7788 129.212 31.4416 129.88 33.7999 131.192C36.1582 132.505 38.1288 134.415 39.5132 136.73C39.5319 136.755 39.5474 136.783 39.563 136.808C39.5942 136.861 39.6284 136.92 39.6596 136.976Z" fill="#6A4796"/>
<path d="M37.7824 110.556C37.7824 113.066 37.0376 115.52 35.6421 117.607C34.2466 119.694 32.2631 121.32 29.9425 122.281C27.6219 123.241 25.0683 123.493 22.6048 123.003C20.1412 122.513 17.8783 121.305 16.1022 119.53C14.3261 117.755 13.1166 115.494 12.6265 113.032C12.1365 110.57 12.388 108.019 13.3492 105.7C14.3105 103.381 15.9383 101.399 18.0268 100.005C20.1153 98.6101 22.5707 97.8659 25.0825 97.8659C26.7525 97.8579 28.4075 98.1807 29.952 98.8156C31.4964 99.4506 32.8996 100.385 34.0805 101.565C35.2614 102.745 36.1966 104.147 36.832 105.69C37.4674 107.234 37.7904 108.888 37.7824 110.556Z" fill="#2F2E41"/>
<path d="M35.0339 118.441C34.8885 118.807 34.7211 119.163 34.5328 119.508C33.3302 121.706 31.3032 123.337 28.8976 124.041C26.492 124.746 23.9048 124.467 21.7051 123.266C20.615 122.671 19.6529 121.868 18.8736 120.902C18.0943 119.936 17.5132 118.826 17.1634 117.635C16.8137 116.444 16.7022 115.196 16.8353 113.963C16.9684 112.729 17.3434 111.533 17.9391 110.445C18.5347 109.356 19.3392 108.395 20.3067 107.617C21.2741 106.839 22.3855 106.259 23.5773 105.91C24.7691 105.562 26.018 105.451 27.2526 105.585C28.4872 105.719 29.6833 106.094 30.7725 106.69C32.7932 107.794 34.3411 109.598 35.1257 111.761C35.9103 113.925 35.8776 116.3 35.0339 118.441Z" fill="#A0616A"/>
<path d="M44.6867 97.7725C44.4874 97.5548 44.2789 97.3402 44.0642 97.1318C40.6054 93.7066 36.2485 91.3275 31.4956 90.2687C26.7427 89.2099 21.7872 89.5144 17.1999 91.1472C12.6127 92.78 8.58039 95.6746 5.56767 99.4974C2.55496 103.32 0.684407 107.916 0.171529 112.755C-0.341349 117.594 0.524318 122.479 2.6688 126.848C4.81327 131.216 8.1493 134.891 12.2925 137.447C16.4357 140.004 21.2175 141.339 26.0869 141.299C30.9563 141.258 35.7152 139.844 39.8153 137.219C41.3465 136.237 42.7706 135.097 44.0642 133.819C44.2759 133.611 44.4844 133.399 44.6867 133.181C49.2031 128.391 51.7184 122.058 51.7184 115.477C51.7184 108.896 49.2031 102.563 44.6867 97.7725V97.7725ZM44.0642 133.001C42.6971 134.416 41.1699 135.668 39.5133 136.73C39.5102 136.733 39.5071 136.733 39.504 136.737C35.5461 139.269 30.9608 140.649 26.2618 140.724C21.5628 140.799 16.9358 139.565 12.8993 137.16C12.8962 137.16 12.8962 137.157 12.8931 137.157C9.79721 135.312 7.13191 132.827 5.07591 129.868C3.01992 126.91 1.62077 123.546 0.972306 120.003C0.323842 116.46 0.441056 112.82 1.31609 109.326C2.19112 105.832 3.80373 102.565 6.04578 99.7447C8.28782 96.9244 11.1075 94.6158 14.3156 92.9737C17.5237 91.3317 21.0461 90.394 24.6466 90.2237C28.2471 90.0535 31.8424 90.6545 35.1914 91.9865C38.5404 93.3184 41.5656 95.3506 44.0642 97.9467C44.2789 98.1644 44.4844 98.3883 44.6867 98.6154C48.8436 103.248 51.1425 109.252 51.1425 115.474C51.1425 121.696 48.8436 127.699 44.6867 132.332C44.4875 132.559 44.2789 132.783 44.0642 133.001Z" fill="#3F3D56"/>
<path d="M35.3757 100.018C34.7501 98.9564 33.8431 98.0886 32.755 97.5101C31.6669 96.9316 30.4399 96.6648 29.2096 96.7393C27.9183 96.8359 26.6896 97.3114 25.4832 97.7816L19.3496 100.172C17.7625 100.791 16.0243 101.549 15.3356 103.106C14.6963 104.551 15.1732 106.22 15.656 107.724L17.9508 114.876C18.2653 113.27 18.5846 111.647 19.2512 110.152C19.9178 108.657 20.9721 107.278 22.4297 106.531C24.0228 105.714 25.9007 105.731 27.6892 105.817C30.2222 105.939 32.9763 106.261 34.7761 108.046C35.7314 109.06 36.3791 110.324 36.6439 111.691C36.9044 113.051 37.0356 114.433 37.0356 115.817C38.0743 114.033 38.9493 112.159 39.6498 110.217C40.2261 108.771 40.5545 107.238 40.6212 105.684C40.6349 104.131 40.1949 102.529 39.1587 101.372C38.1225 100.214 36.4341 99.5896 34.9492 100.048" fill="#2F2E41"/>
<path d="M16.0345 65.8919L15.412 65.8846C15.4195 65.2625 15.4374 64.6311 15.4654 64.0083L16.0873 64.0362C16.0596 64.6522 16.0419 65.2766 16.0345 65.8919Z" fill="#E6E6E6"/>
<path d="M16.3608 60.4839L15.7419 60.4165C15.8719 59.2275 16.0421 58.0283 16.2479 56.8523L16.8611 56.9595C16.6576 58.1223 16.4893 59.3081 16.3608 60.4839ZM17.5879 53.4744L16.9828 53.328C17.2646 52.1663 17.5881 50.999 17.9445 49.8583L18.5388 50.0436C18.1864 51.1715 17.8664 52.3259 17.5879 53.4744ZM19.7115 46.6777L19.1306 46.4541C19.5605 45.3382 20.0329 44.2214 20.5345 43.1349L21.0998 43.3955C20.6038 44.4699 20.1367 45.5742 19.7115 46.6777ZM22.6973 40.2102L22.1501 39.9138C22.72 38.8634 23.3322 37.8171 23.9697 36.804L24.4967 37.1351C23.8663 38.137 23.261 39.1715 22.6973 40.2102L22.6973 40.2102ZM26.4899 34.1821L25.9852 33.8179C26.6856 32.8488 27.4267 31.8897 28.1878 30.9674L28.6681 31.3632C27.9154 32.2753 27.1826 33.2236 26.4899 34.1821V34.1821ZM31.0221 28.6895L30.5681 28.264C31.386 27.3928 32.2433 26.5364 33.1161 25.7182L33.542 26.1721C32.6788 26.9811 31.831 27.8281 31.0221 28.6895V28.6895ZM36.2172 23.8207L35.8212 23.3408C36.744 22.5805 37.7034 21.8404 38.6726 21.1412L39.0371 21.6454C38.0786 22.337 37.1299 23.0689 36.2172 23.8207V23.8207ZM41.9901 19.6555L41.6588 19.1288C42.6714 18.4928 43.7173 17.8818 44.7676 17.3127L45.0643 17.8594C44.0258 18.4223 42.9914 19.0265 41.9901 19.6555V19.6555ZM48.2471 16.2655L47.9863 15.7005C49.0712 15.2004 50.1866 14.7291 51.3017 14.2998L51.5255 14.8802C50.4228 15.3048 49.3199 15.7709 48.2471 16.2655V16.2655ZM54.8855 13.71L54.6997 13.1162C55.8408 12.7598 57.0089 12.436 58.1716 12.1539L58.3184 12.7584C57.1688 13.0374 56.0138 13.3575 54.8855 13.7101V13.71ZM61.8058 12.0308L61.6983 11.4181C62.8749 11.212 64.0749 11.0414 65.265 10.9111L65.3328 11.5296C64.1559 11.6584 62.9693 11.8271 61.8058 12.0308V12.0308Z" fill="#E6E6E6"/>
<path d="M68.9089 11.2539L68.881 10.6324C69.5046 10.6045 70.1363 10.5865 70.7586 10.5791L70.7661 11.2012C70.1505 11.2085 69.5256 11.2262 68.9089 11.2539Z" fill="#E6E6E6"/>
<path d="M18.3339 63.8921L17.8891 63.4563L15.7431 65.6495L13.7105 63.3506L13.2439 63.7633L15.7201 66.5627L18.3339 63.8921Z" fill="#E6E6E6"/>
<path d="M68.765 13.4987L68.3289 13.0543L70.5237 10.9099L68.223 8.87885L68.6361 8.4126L71.4376 10.8869L68.765 13.4987Z" fill="#E6E6E6"/>
<path d="M161.902 17.4048C161.354 17.1166 160.802 16.8334 160.246 16.5552L160.524 15.999C161.084 16.2789 161.64 16.564 162.192 16.8542L161.902 17.4048Z" fill="#E6E6E6"/>
<path d="M204.206 132.218L203.629 131.982C204.098 130.84 204.548 129.675 204.968 128.52L205.553 128.732C205.131 129.896 204.677 131.069 204.206 132.218ZM206.758 125.193L206.164 125.005C206.538 123.83 206.891 122.632 207.216 121.444L207.816 121.608C207.49 122.804 207.134 124.011 206.758 125.193ZM208.726 117.982L208.12 117.843C208.395 116.641 208.649 115.418 208.874 114.208L209.486 114.322C209.259 115.54 209.004 116.772 208.726 117.982V117.982ZM210.094 110.633L209.478 110.545C209.654 109.325 209.806 108.085 209.931 106.86L210.55 106.923C210.424 108.157 210.271 109.405 210.094 110.633V110.633ZM210.852 103.196L210.23 103.159C210.304 101.929 210.354 100.681 210.377 99.4483L211 99.4602C210.976 100.701 210.926 101.958 210.852 103.196ZM210.994 95.7215L210.372 95.7351C210.36 95.194 210.343 94.6534 210.321 94.1133C210.294 93.4207 210.257 92.718 210.213 92.0248L210.835 91.9857C210.879 92.6835 210.915 93.391 210.943 94.0884C210.965 94.6322 210.982 95.1765 210.994 95.7215L210.994 95.7215ZM209.903 88.3262C209.775 87.1006 209.62 85.8613 209.442 84.6429L210.058 84.5529C210.237 85.7798 210.394 87.0275 210.523 88.2616L209.903 88.3262ZM208.831 80.9808C208.603 79.7708 208.347 78.548 208.07 77.3466L208.677 77.2068C208.956 78.4165 209.214 79.6475 209.443 80.8661L208.831 80.9808ZM207.162 73.7459C206.837 72.5565 206.482 71.3585 206.108 70.1849L206.702 69.9964C207.078 71.178 207.435 72.3843 207.763 73.5818L207.162 73.7459ZM204.91 66.6695C204.489 65.511 204.038 64.3454 203.57 63.2052L204.146 62.969C204.617 64.1172 205.071 65.2907 205.496 66.457L204.91 66.6695ZM202.09 59.7979C201.575 58.6772 201.031 57.552 200.471 56.4536L201.026 56.1714C201.589 57.2773 202.138 58.4101 202.655 59.5385L202.09 59.7979ZM198.718 53.1776C198.114 52.1029 197.479 51.0257 196.832 49.976L197.362 49.6496C198.014 50.7064 198.653 51.791 199.261 52.8732L198.718 53.1776ZM194.816 46.854C194.125 45.8314 193.404 44.8095 192.673 43.8168L193.175 43.448C193.911 44.4476 194.637 45.4766 195.332 46.5062L194.816 46.854ZM190.407 40.8696C189.635 39.9064 188.832 38.9471 188.022 38.0181L188.491 37.6093C189.307 38.5447 190.115 39.5107 190.893 40.4805L190.407 40.8696ZM185.52 35.2669C184.671 34.3703 183.792 33.4802 182.907 32.6207L183.341 32.1747C184.232 33.04 185.117 33.9365 185.972 34.839L185.52 35.2669ZM180.186 30.0842C179.266 29.2611 178.316 28.4461 177.362 27.6619L177.758 27.1816C178.718 27.9712 179.675 28.7919 180.601 29.6207L180.186 30.0842ZM174.44 25.3578C173.458 24.6158 172.446 23.8828 171.431 23.1792L171.786 22.668C172.808 23.3765 173.827 24.1145 174.816 24.8616L174.44 25.3578ZM168.334 21.1261C167.295 20.4671 166.226 19.8193 165.157 19.2005L165.469 18.6621C166.546 19.2851 167.622 19.9374 168.668 20.6008L168.334 21.1261Z" fill="#E6E6E6"/>
<path d="M201.917 137.347L201.357 137.077C201.627 136.517 201.891 135.956 202.149 135.394L202.715 135.652C202.455 136.219 202.19 136.784 201.917 137.347Z" fill="#E6E6E6"/>
<path d="M161.025 19.5003L161.613 19.2934L160.59 16.4017L163.551 15.593L163.386 14.9927L159.78 15.9781L161.025 19.5003Z" fill="#E6E6E6"/>
<path d="M200.174 134.269L200.766 134.075L201.723 136.989L204.562 135.822L204.799 136.398L201.341 137.819L200.174 134.269Z" fill="#E6E6E6"/>
</svg>
