<svg width="213" height="201" viewBox="0 0 213 201" fill="none" xmlns="http://www.w3.org/2000/svg">
<g clip-path="url(#clip0)">
<path d="M170.706 155.652C168.972 155.652 167.276 155.136 165.834 154.169C164.392 153.202 163.268 151.828 162.604 150.22C161.94 148.612 161.767 146.843 162.105 145.136C162.443 143.43 163.279 141.862 164.505 140.631C165.732 139.401 167.294 138.563 168.995 138.223C170.697 137.884 172.46 138.058 174.062 138.724C175.665 139.39 177.035 140.518 177.998 141.965C178.962 143.412 179.476 145.113 179.476 146.853C179.474 149.186 178.549 151.422 176.905 153.072C175.261 154.721 173.031 155.649 170.706 155.652Z" fill="#CCCCCC"/>
<path d="M174.754 146.515H171.044V142.285C171.044 142.195 171.008 142.109 170.945 142.045C170.882 141.982 170.796 141.946 170.706 141.946C170.617 141.946 170.531 141.982 170.468 142.045C170.405 142.109 170.369 142.195 170.369 142.285V146.515H166.659C166.569 146.515 166.484 146.551 166.42 146.614C166.357 146.678 166.322 146.764 166.322 146.853C166.322 146.943 166.357 147.029 166.42 147.093C166.484 147.156 166.569 147.192 166.659 147.192H170.369V151.422C170.369 151.512 170.405 151.598 170.468 151.661C170.531 151.725 170.617 151.76 170.706 151.76C170.796 151.76 170.882 151.725 170.945 151.661C171.008 151.598 171.044 151.512 171.044 151.422V147.192H174.754C174.844 147.192 174.929 147.156 174.993 147.093C175.056 147.029 175.091 146.943 175.091 146.853C175.091 146.764 175.056 146.678 174.993 146.614C174.929 146.551 174.844 146.515 174.754 146.515Z" fill="white"/>
<path d="M204.479 196.884L200.623 196.884L198.789 181.961L204.48 181.961L204.479 196.884Z" fill="#FFB8B8"/>
<path d="M197.868 195.778H205.305V200.476H193.186C193.186 199.859 193.307 199.248 193.542 198.678C193.778 198.108 194.123 197.591 194.557 197.154C194.992 196.718 195.508 196.372 196.077 196.136C196.645 195.9 197.254 195.778 197.868 195.778Z" fill="#2F2E41"/>
<path d="M189.131 196.884L185.275 196.884L183.442 181.961L189.133 181.961L189.131 196.884Z" fill="#FFB8B8"/>
<path d="M182.521 195.778H189.958V200.476H177.839C177.839 199.859 177.96 199.248 178.195 198.678C178.431 198.108 178.776 197.591 179.21 197.154C179.645 196.718 180.161 196.372 180.729 196.136C181.297 195.9 181.906 195.778 182.521 195.778Z" fill="#2F2E41"/>
<path d="M207.449 145.292C207.139 144.948 206.908 144.54 206.771 144.097C206.635 143.654 206.598 143.186 206.661 142.726C206.725 142.267 206.888 141.827 207.139 141.437C207.391 141.048 207.724 140.718 208.116 140.472L206.922 133.32L211.076 131.532L212.622 141.656C212.99 142.344 213.094 143.144 212.914 143.904C212.734 144.663 212.283 145.331 211.645 145.779C211.008 146.227 210.228 146.425 209.455 146.335C208.682 146.246 207.968 145.874 207.449 145.292Z" fill="#FFB8B8"/>
<path d="M174.921 141.913C175.283 141.625 175.579 141.261 175.786 140.846C175.993 140.432 176.108 139.976 176.121 139.513C176.134 139.049 176.045 138.588 175.861 138.162C175.677 137.737 175.403 137.356 175.057 137.049L177.412 130.193L173.609 127.741L170.418 137.469C169.941 138.087 169.707 138.858 169.759 139.637C169.812 140.417 170.147 141.15 170.702 141.697C171.257 142.245 171.993 142.57 172.771 142.609C173.548 142.649 174.313 142.401 174.921 141.913Z" fill="#FFB8B8"/>
<path d="M194.67 91.4074C199.245 91.4074 202.954 87.6861 202.954 83.0956C202.954 78.505 199.245 74.7837 194.67 74.7837C190.095 74.7837 186.385 78.505 186.385 83.0956C186.385 87.6861 190.095 91.4074 194.67 91.4074Z" fill="#FFB8B8"/>
<path d="M174.664 136.784C174.522 136.784 174.381 136.764 174.244 136.724L171.83 136.029C171.444 135.917 171.118 135.657 170.923 135.305C170.728 134.953 170.68 134.538 170.788 134.15L175.771 116.498L182.721 99.382C183.412 97.6805 184.855 96.5646 186.488 96.4699C187.234 96.4334 187.974 96.6146 188.62 96.9916C189.265 97.3686 189.787 97.9253 190.124 98.5941C190.497 99.31 190.703 100.102 190.723 100.91C190.744 101.718 190.58 102.52 190.244 103.254L182.345 120.585L176.066 135.842C175.952 136.12 175.757 136.359 175.508 136.526C175.258 136.694 174.965 136.784 174.664 136.784Z" fill="#3F3D56"/>
<path d="M199.345 90.0663L194.742 90.1484C194.263 90.1579 193.788 90.0542 193.355 89.8457C192.923 89.6372 192.546 89.3297 192.254 88.948C191.962 88.5663 191.763 88.1212 191.674 87.6484C191.585 87.1756 191.608 86.6885 191.741 86.2262C191.84 85.8922 191.914 85.5515 191.963 85.2067C192.014 84.8307 192.024 84.45 191.993 84.0718C191.964 83.693 191.807 83.3354 191.549 83.0576C191.29 82.7799 190.946 82.5984 190.571 82.543C190.196 82.4876 189.814 82.5616 189.487 82.7527C189.16 82.9439 188.907 83.2409 188.77 83.5952C187.996 83.6062 186.347 83.3531 185.573 83.3641C183.93 79.1374 187.511 73.6065 191.366 71.529C195.296 69.4112 200.397 71.5658 201.904 75.9798C203.995 76.0175 205.693 78.0863 205.963 80.4152C206.232 82.7441 205.277 85.1759 203.816 86.9608C202.356 88.7458 200.437 90.0468 199.345 90.0663Z" fill="#2F2E41"/>
<path d="M184.214 195.491C183.841 195.489 183.482 195.35 183.205 195.1C182.927 194.849 182.751 194.506 182.709 194.134L181.001 136.523L202.517 138.06L202.534 138.199C207.396 179.033 205.734 193.169 205.716 193.307C205.704 193.515 205.65 193.72 205.555 193.906C205.461 194.093 205.33 194.258 205.169 194.392C205.009 194.525 204.822 194.624 204.622 194.682C204.421 194.74 204.211 194.756 204.004 194.729L199.25 194.843C198.889 194.802 198.555 194.633 198.308 194.366C198.061 194.1 197.918 193.753 197.904 193.389L193.461 151.662C193.434 151.554 193.369 151.459 193.279 151.394C193.188 151.328 193.078 151.297 192.967 151.305C192.852 151.305 192.741 151.344 192.653 151.417C192.564 151.49 192.504 151.591 192.481 151.703L190.765 193.567C190.783 193.956 190.652 194.336 190.398 194.63C190.144 194.925 189.788 195.11 189.402 195.147L184.365 195.483C184.315 195.488 184.265 195.491 184.214 195.491Z" fill="#2F2E41"/>
<path d="M193.142 143.407C193.013 143.407 192.885 143.405 192.756 143.401C186.569 143.214 181.729 138.518 180.393 137.083C180.223 136.9 180.1 136.677 180.037 136.435C179.973 136.194 179.97 135.94 180.028 135.696L183.597 120.547L182.65 107.377C182.502 105.549 182.741 103.71 183.351 101.982C183.962 100.253 184.931 98.6743 186.194 97.3486C187.246 96.2331 188.526 95.3577 189.945 94.7816C191.364 94.2056 192.89 93.9424 194.42 94.0099C200.442 94.2982 205.193 99.6992 205.236 106.305C205.303 116.537 205.003 117.24 204.904 117.471C201.899 124.509 203.54 134.389 204.115 137.249C204.166 137.504 204.152 137.768 204.073 138.016C203.994 138.264 203.853 138.488 203.664 138.666C200.358 141.813 196.82 143.407 193.142 143.407Z" fill="#3F3D56"/>
<path d="M208.68 139.556C208.336 139.556 208.003 139.439 207.735 139.224C207.466 139.009 207.279 138.709 207.202 138.374L203.52 122.279L198.585 103.884C198.374 103.104 198.344 102.286 198.498 101.492C198.652 100.699 198.985 99.9517 199.471 99.3077C199.913 98.7041 200.52 98.2419 201.218 97.977C201.917 97.7121 202.677 97.6559 203.406 97.8152C205.001 98.1794 206.241 99.5192 206.643 101.312L210.675 119.326L212.686 137.58C212.729 137.98 212.613 138.382 212.363 138.696C212.112 139.011 211.748 139.214 211.35 139.26L208.854 139.546C208.796 139.553 208.738 139.556 208.68 139.556Z" fill="#3F3D56"/>
<path d="M10.3996 141.292C10.8365 140.991 11.2025 140.598 11.4717 140.141C11.7408 139.683 11.9067 139.172 11.9576 138.642C12.0084 138.113 11.9431 137.58 11.7661 137.079C11.5891 136.578 11.3048 136.122 10.9332 135.743L12.3388 104.264L5.18276 105.07L5.5985 135.861C5.00565 136.529 4.67782 137.393 4.67713 138.288C4.67643 139.183 5.00291 140.046 5.59471 140.716C6.18651 141.385 7.00251 141.814 7.88809 141.92C8.77366 142.026 9.66728 141.803 10.3996 141.292Z" fill="#FFB8B8"/>
<path d="M23.454 194.578L27.5269 195.297L31.5522 179.877L26.2158 178.817L23.454 194.578Z" fill="#FFB8B8"/>
<path d="M34.7166 200.477L21.9164 198.219L22.7858 193.257L30.6405 194.642C31.2899 194.757 31.9105 194.999 32.4668 195.354C33.0232 195.709 33.5043 196.171 33.8828 196.712C34.2613 197.254 34.5298 197.865 34.6728 198.511C34.8159 199.157 34.8307 199.825 34.7166 200.477Z" fill="#2F2E41"/>
<path d="M12.2751 196.624H16.4104L18.3775 180.621L12.2744 180.621L12.2751 196.624Z" fill="#FFB8B8"/>
<path d="M24.3856 200.476L11.3892 200.477L11.3889 195.439L19.364 195.438C20.6958 195.438 21.973 195.969 22.9147 196.914C23.8565 197.859 24.3856 199.14 24.3856 200.476Z" fill="#2F2E41"/>
<path d="M29.8663 192.242C29.8017 192.242 29.7372 192.238 29.6731 192.23L24.8059 191.828C24.5843 191.802 24.3703 191.731 24.1769 191.62C23.9835 191.508 23.8148 191.358 23.681 191.179C23.5471 191 23.451 190.795 23.3984 190.578C23.3457 190.36 23.3378 190.134 23.3749 189.913L27.8693 164.64L24.8324 148.574C24.8077 148.443 24.7367 148.326 24.6326 148.244C24.5285 148.162 24.3983 148.12 24.2661 148.127C24.1338 148.133 24.0084 148.188 23.9129 148.28C23.8174 148.372 23.7584 148.496 23.7466 148.628L19.9501 191.481C19.9084 191.911 19.7018 192.308 19.374 192.588C19.0461 192.868 18.6226 193.01 18.1929 192.983L13.6073 192.811C13.2055 192.783 12.8279 192.607 12.546 192.319C12.2641 192.03 12.0973 191.648 12.0772 191.244L11.7689 139.883L35.5423 136.902L37.2031 162.635L37.1964 162.663L31.4655 190.98C31.3781 191.339 31.1731 191.659 30.8832 191.888C30.5932 192.117 30.2352 192.241 29.8663 192.242Z" fill="#2F2E41"/>
<path d="M19.607 83.8655C24.1824 83.8655 27.8914 80.1441 27.8914 75.5536C27.8914 70.9631 24.1824 67.2417 19.607 67.2417C15.0316 67.2417 11.3225 70.9631 11.3225 75.5536C11.3225 80.1441 15.0316 83.8655 19.607 83.8655Z" fill="#FFB8B8"/>
<path d="M27.4131 143.637C26.1174 143.644 24.8466 143.28 23.751 142.586C19.738 140.069 15.18 141.069 12.8201 141.89C12.5859 141.972 12.3363 142 12.0898 141.972C11.8432 141.944 11.6063 141.86 11.3965 141.727C11.1892 141.596 11.014 141.42 10.8841 141.212C10.7542 141.004 10.6728 140.769 10.6462 140.525L6.35491 102.072C5.63579 95.6293 9.50391 89.572 15.5523 87.6691C15.7796 87.5975 16.0106 87.5297 16.2456 87.4656C18.1278 86.9536 20.099 86.8617 22.0204 87.1963C23.9419 87.5308 25.7669 88.2838 27.3671 89.4022C28.997 90.533 30.3602 92.0084 31.3606 93.7246C32.361 95.4408 32.9743 97.3562 33.1575 99.3359L36.7701 138.046C36.7947 138.297 36.761 138.55 36.6716 138.785C36.5822 139.021 36.4396 139.232 36.255 139.403C34.9886 140.578 31.313 143.636 27.4131 143.637Z" fill="#6A4796"/>
<path d="M14.3456 110.318L4.66388 109.25C4.38841 109.22 4.1227 109.13 3.88486 108.987C3.64701 108.845 3.44262 108.652 3.2856 108.423C3.12858 108.194 3.02262 107.934 2.97493 107.66C2.92725 107.386 2.93896 107.105 3.00927 106.836L5.47361 97.4123C5.63657 95.9991 6.35141 94.7084 7.46141 93.8232C8.5714 92.938 9.98596 92.5306 11.3949 92.6902C12.8039 92.8498 14.0923 93.5635 14.9776 94.6747C15.8629 95.786 16.2729 97.2041 16.1176 98.6181L16.4835 108.322C16.4939 108.6 16.4444 108.877 16.3386 109.134C16.2327 109.391 16.0729 109.622 15.87 109.811C15.6671 110.001 15.4259 110.144 15.1629 110.232C14.8998 110.319 14.621 110.349 14.3456 110.318V110.318Z" fill="#6A4796"/>
<path d="M36.7313 139.944C37.129 139.593 37.445 139.159 37.6572 138.672C37.8695 138.185 37.9727 137.657 37.9597 137.126C37.9466 136.594 37.8176 136.072 37.5817 135.596C37.3459 135.12 37.0089 134.702 36.5945 134.371L34.2088 102.952L27.1968 104.535L31.3128 135.133C30.8046 135.868 30.5829 136.765 30.6897 137.654C30.7964 138.542 31.2243 139.36 31.8922 139.953C32.5601 140.546 33.4216 140.873 34.3135 140.871C35.2054 140.869 36.0656 140.54 36.7313 139.944Z" fill="#FFB8B8"/>
<path d="M24.5084 108.343C24.3055 108.154 24.1456 107.923 24.0397 107.666C23.9339 107.409 23.8845 107.132 23.8951 106.854L24.2609 97.1499C24.1057 95.7358 24.5157 94.3177 25.401 93.2065C26.2863 92.0952 27.5746 91.3816 28.9836 91.2219C30.3926 91.0623 31.8071 91.4698 32.9171 92.355C34.0271 93.2401 34.742 94.5308 34.9049 95.944L37.3693 105.368C37.4396 105.637 37.4513 105.918 37.4036 106.192C37.3559 106.465 37.2499 106.726 37.0929 106.955C36.9359 107.184 36.7315 107.377 36.4937 107.519C36.2558 107.662 35.9901 107.752 35.7147 107.782L26.033 108.85C25.7575 108.881 25.4786 108.851 25.2155 108.764C24.9524 108.676 24.7112 108.533 24.5084 108.343Z" fill="#6A4796"/>
<path d="M19.1143 84.1783C18.967 84.1782 18.8203 84.161 18.6769 84.1271L18.6349 84.1169C11.351 82.9988 9.74133 78.766 9.38797 76.9982C9.02226 75.168 9.4387 73.4014 10.3797 72.7153C9.86666 71.0899 9.94901 69.6489 10.625 68.4302C11.804 66.3048 14.3627 65.5862 14.7058 65.4983C16.7492 63.9858 19.1941 64.9955 19.6389 65.2002C23.5916 63.733 25.1024 64.9543 25.3756 65.227C27.1425 65.5454 28.2195 66.2301 28.577 67.2627C29.2486 69.2022 27.1248 71.6147 27.034 71.7165L26.9869 71.7692L23.823 71.9204C23.5228 71.9348 23.2289 72.0123 22.9605 72.148C22.692 72.2836 22.455 72.4744 22.2648 72.7079C22.0746 72.9414 21.9354 73.2123 21.8563 73.5033C21.7771 73.7942 21.7599 74.0986 21.8055 74.3966C21.8912 74.7812 21.9993 75.1604 22.1295 75.5322C22.6699 77.2264 23.0747 78.6738 22.5525 79.224C22.4342 79.3305 22.2884 79.4014 22.1318 79.4286C21.9752 79.4559 21.8142 79.4383 21.667 79.378C21.1724 79.2455 20.8365 79.2733 20.6691 79.4608C20.4093 79.7516 20.4886 80.4878 20.8925 81.5338C21.0192 81.8645 21.0533 82.2237 20.9911 82.5725C20.9289 82.9213 20.7728 83.2464 20.5397 83.5126C20.3641 83.7203 20.1458 83.8874 19.8998 84.0023C19.6537 84.1172 19.3857 84.1773 19.1143 84.1783Z" fill="#2F2E41"/>
<path d="M47.5595 201H0.337301C0.247843 201 0.162044 200.964 0.0987879 200.901C0.0355316 200.837 0 200.751 0 200.662C0 200.572 0.0355316 200.486 0.0987879 200.422C0.162044 200.359 0.247843 200.323 0.337301 200.323H47.5595C47.649 200.323 47.7347 200.359 47.798 200.422C47.8613 200.486 47.8968 200.572 47.8968 200.662C47.8968 200.751 47.8613 200.837 47.798 200.901C47.7347 200.964 47.649 201 47.5595 201Z" fill="#CCCCCC"/>
<path d="M212.163 201H164.94C164.851 201 164.765 200.964 164.702 200.901C164.639 200.837 164.603 200.751 164.603 200.662C164.603 200.572 164.639 200.486 164.702 200.422C164.765 200.359 164.851 200.323 164.94 200.323H212.163C212.252 200.323 212.338 200.359 212.401 200.422C212.464 200.486 212.5 200.572 212.5 200.662C212.5 200.751 212.464 200.837 212.401 200.901C212.338 200.964 212.252 201 212.163 201Z" fill="#CCCCCC"/>
<path d="M144.605 143.489H62.9784C59.8485 143.485 56.8477 142.236 54.6345 140.016C52.4213 137.795 51.1764 134.785 51.1729 131.644V11.8446C51.1764 8.70432 52.4213 5.69367 54.6345 3.47314C56.8477 1.25262 59.8485 0.00356399 62.9784 0H144.605C147.735 0.00356399 150.736 1.25262 152.949 3.47314C155.162 5.69367 156.407 8.70432 156.411 11.8446V131.644C156.407 134.785 155.162 137.795 152.949 140.016C150.736 142.236 147.735 143.485 144.605 143.489Z" fill="white"/>
<path d="M131.788 95.1055H75.7959C70.0763 95.0779 70.0525 86.3366 75.7962 86.3067L131.788 86.3066C137.504 86.3335 137.535 95.0755 131.788 95.1055Z" fill="#CCCCCC"/>
<path d="M131.788 24.6944H75.7959C70.0763 24.6667 70.0525 15.9255 75.7962 15.8955L131.788 15.8955C137.504 15.9224 137.535 24.6643 131.788 24.6944Z" fill="#CCCCCC"/>
<path d="M131.788 111.35H75.7959C70.0763 111.322 70.0525 102.581 75.7962 102.551L131.788 102.551C137.504 102.578 137.535 111.32 131.788 111.35Z" fill="#CCCCCC"/>
<path d="M131.788 127.593H75.7959C70.0763 127.566 70.0525 118.824 75.7962 118.794L131.788 118.794C137.504 118.821 137.535 127.563 131.788 127.593Z" fill="#CCCCCC"/>
<path d="M130.776 75.7477H76.8077C75.3321 75.746 73.9175 75.1572 72.8741 74.1103C71.8308 73.0635 71.2439 71.6442 71.2422 70.1638V39.8417C71.2439 38.3613 71.8308 36.942 72.8741 35.8951C73.9175 34.8483 75.3321 34.2595 76.8077 34.2578H130.776C132.251 34.2595 133.666 34.8483 134.709 35.8951C135.753 36.942 136.34 38.3613 136.341 39.8417V70.1638C136.34 71.6442 135.753 73.0635 134.709 74.1103C133.666 75.1572 132.251 75.746 130.776 75.7477Z" fill="#6A4796"/>
<path d="M144.605 143.489H62.9784C59.8485 143.485 56.8477 142.236 54.6345 140.016C52.4213 137.795 51.1764 134.785 51.1729 131.644V11.8446C51.1764 8.70432 52.4213 5.69367 54.6345 3.47314C56.8477 1.25262 59.8485 0.00356399 62.9784 0H144.605C147.735 0.00356399 150.736 1.25262 152.949 3.47314C155.162 5.69367 156.407 8.70432 156.411 11.8446V131.644C156.407 134.785 155.162 137.795 152.949 140.016C150.736 142.236 147.735 143.485 144.605 143.489ZM62.9784 2.0305C60.385 2.03345 57.8987 3.06838 56.0649 4.90824C54.2311 6.74811 53.1996 9.24265 53.1967 11.8446V131.644C53.1996 134.246 54.2311 136.741 56.0649 138.581C57.8987 140.421 60.385 141.456 62.9784 141.458H144.605C147.199 141.456 149.685 140.421 151.519 138.581C153.353 136.741 154.384 134.246 154.387 131.644V11.8446C154.384 9.24265 153.353 6.7481 151.519 4.90823C149.685 3.06836 147.199 2.03344 144.605 2.0305H62.9784Z" fill="#E6E6E6"/>
</g>
<defs>
<clipPath id="clip0">
<rect width="213" height="201" fill="white"/>
</clipPath>
</defs>
</svg>
