<svg width="275" height="159" viewBox="0 0 275 159" fill="none" xmlns="http://www.w3.org/2000/svg">
<g clip-path="url(#clip0)">
<path d="M275 108.924H0V109.566H275V108.924Z" fill="#3F3D56"/>
<path d="M198.855 154.267H15.5138C13.8834 154.267 12.3197 153.62 11.1669 152.468C10.014 151.315 9.36629 149.752 9.36629 148.123C75.8275 140.402 141.04 140.402 205.003 148.123C205.003 148.93 204.844 149.729 204.535 150.474C204.226 151.22 203.773 151.897 203.202 152.468C202.631 153.038 201.954 153.491 201.208 153.8C200.462 154.109 199.663 154.267 198.855 154.267Z" fill="#2F2E41"/>
<path d="M205.003 148.484L9.36629 148.123L32.0399 109.99L32.1484 109.809V25.7685C32.1483 24.7484 32.3492 23.7383 32.7397 22.7959C33.1302 21.8535 33.7027 20.9971 34.4243 20.2758C35.1459 19.5545 36.0027 18.9824 36.9456 18.5921C37.8884 18.2017 38.899 18.0009 39.9196 18.001H173.365C174.385 18.0009 175.396 18.2017 176.339 18.5921C177.282 18.9824 178.138 19.5545 178.86 20.2758C179.582 20.9971 180.154 21.8535 180.544 22.7959C180.935 23.7383 181.136 24.7484 181.136 25.7685V110.387L205.003 148.484Z" fill="#3F3D56"/>
<path d="M39.7427 23.4229C39.0716 23.4236 38.4282 23.6904 37.9536 24.1647C37.479 24.6391 37.2121 25.2822 37.2113 25.953V102.58C37.2121 103.251 37.4791 103.894 37.9536 104.368C38.4282 104.843 39.0716 105.11 39.7427 105.11H174.627C175.298 105.11 175.941 104.843 176.416 104.368C176.891 103.894 177.158 103.251 177.158 102.58V25.953C177.158 25.2822 176.891 24.6391 176.416 24.1648C175.941 23.6904 175.298 23.4236 174.627 23.4229H39.7427Z" fill="white"/>
<path d="M40.3077 115.231C40.1003 115.231 39.8973 115.291 39.7227 115.403C39.5481 115.515 39.4091 115.674 39.3221 115.862L32.3356 131.043C32.2596 131.208 32.2263 131.39 32.2389 131.571C32.2515 131.753 32.3095 131.928 32.4077 132.081C32.5058 132.234 32.6409 132.36 32.8005 132.448C32.9601 132.535 33.1391 132.581 33.3211 132.581H180.242C180.427 132.581 180.609 132.533 180.77 132.443C180.932 132.353 181.068 132.223 181.165 132.066C181.262 131.909 181.318 131.729 181.326 131.545C181.334 131.36 181.295 131.176 181.212 131.011L173.618 115.83C173.529 115.65 173.39 115.498 173.219 115.392C173.047 115.286 172.85 115.23 172.648 115.231H40.3077Z" fill="#2F2E41"/>
<path d="M106.642 22.1578C107.541 22.1578 108.269 21.4296 108.269 20.5313C108.269 19.633 107.541 18.9048 106.642 18.9048C105.743 18.9048 105.015 19.633 105.015 20.5313C105.015 21.4296 105.743 22.1578 106.642 22.1578Z" fill="white"/>
<path d="M92.201 135.472C91.9626 135.472 91.7308 135.551 91.5415 135.696C91.3522 135.841 91.2159 136.044 91.1536 136.274L89.4011 142.781C89.3578 142.941 89.3521 143.11 89.3844 143.273C89.4167 143.436 89.4862 143.59 89.5875 143.722C89.6887 143.854 89.8191 143.961 89.9684 144.035C90.1177 144.109 90.282 144.147 90.4486 144.147H123.777C123.95 144.147 124.12 144.106 124.274 144.026C124.428 143.947 124.56 143.832 124.66 143.692C124.761 143.551 124.826 143.388 124.85 143.217C124.875 143.046 124.858 142.871 124.802 142.708L122.549 136.202C122.475 135.989 122.336 135.804 122.153 135.673C121.969 135.543 121.749 135.472 121.523 135.472H92.201Z" fill="#2F2E41"/>
<path d="M181.136 108.544V109.99H32.0402L32.1523 109.809V108.544H181.136Z" fill="#2F2E41"/>
<path d="M56.3128 39.333C55.785 39.3412 55.2819 39.5582 54.9139 39.9366C54.546 40.3149 54.3431 40.8237 54.3499 41.3513V87.0999C54.3431 87.6276 54.546 88.1363 54.9139 88.5147C55.2819 88.8931 55.785 89.1101 56.3128 89.1183H158.057C158.585 89.1101 159.088 88.893 159.456 88.5147C159.824 88.1363 160.027 87.6276 160.02 87.0999V41.3513C160.027 40.8237 159.824 40.3149 159.456 39.9366C159.088 39.5582 158.585 39.3412 158.057 39.333H56.3128Z" fill="#E6E6E6"/>
<path d="M114.762 89.2001H151.799C152.035 89.2001 152.266 89.1301 152.462 88.9992C152.658 88.8683 152.811 88.6822 152.901 88.4644C152.991 88.2467 153.015 88.0071 152.969 87.7759C152.923 87.5448 152.809 87.3324 152.643 87.1658L128.938 63.4727C128.715 63.2496 128.411 63.1242 128.095 63.1242C127.779 63.1242 127.476 63.2496 127.252 63.4727L121.358 69.3646C121.125 69.5967 120.85 69.7808 120.546 69.9065C120.243 70.0321 119.918 70.0968 119.589 70.0968C119.261 70.0968 118.936 70.0321 118.632 69.9065C118.329 69.7808 118.053 69.5967 117.821 69.3646L99.3582 50.9105C99.1345 50.6873 98.8312 50.562 98.5151 50.562C98.199 50.562 97.8958 50.6873 97.672 50.9105L61.5632 87.0023C61.3965 87.1689 61.2829 87.3813 61.237 87.6124C61.191 87.8436 61.2146 88.0832 61.3048 88.3009C61.3951 88.5187 61.5479 88.7048 61.7439 88.8357C61.94 88.9667 62.1705 89.0366 62.4063 89.0366H114.81L114.762 89.2001Z" fill="#6A4796"/>
<path d="M70.7074 54.7018C73.237 54.7018 75.2876 52.6522 75.2876 50.1239C75.2876 47.5955 73.237 45.5459 70.7074 45.5459C68.1779 45.5459 66.1273 47.5955 66.1273 50.1239C66.1273 52.6522 68.1779 54.7018 70.7074 54.7018Z" fill="#6A4796"/>
<path d="M58.7546 55.8938C58.6678 55.8938 58.5846 55.8594 58.5233 55.798C58.4619 55.7367 58.4274 55.6536 58.4274 55.5668V33.6581C58.4274 33.5713 58.4619 33.4882 58.5233 33.4268C58.5846 33.3655 58.6678 33.3311 58.7546 33.3311H83.9452C83.9883 33.3309 84.0309 33.3393 84.0707 33.3557C84.1105 33.372 84.1467 33.3961 84.1772 33.4265C84.2077 33.4569 84.2319 33.4929 84.2484 33.5327C84.2649 33.5724 84.2734 33.615 84.2734 33.6581C84.2734 33.7011 84.2649 33.7437 84.2484 33.7834C84.2319 33.8232 84.2077 33.8593 84.1772 33.8896C84.1467 33.92 84.1105 33.9441 84.0707 33.9605C84.0309 33.9768 83.9883 33.9852 83.9452 33.9851H59.0817V55.5668C59.0817 55.6536 59.0473 55.7367 58.9859 55.7981C58.9246 55.8594 58.8413 55.8938 58.7546 55.8938Z" fill="#3F3D56"/>
<path d="M155.591 56.221C155.548 56.221 155.506 56.2125 155.466 56.1961C155.426 56.1797 155.39 56.1556 155.36 56.1252C155.329 56.0949 155.305 56.0588 155.289 56.0191C155.273 55.9795 155.264 55.9369 155.264 55.894V34.3122H130.401C130.314 34.3122 130.231 34.2777 130.169 34.2164C130.108 34.1551 130.073 34.0719 130.073 33.9852C130.073 33.8985 130.108 33.8153 130.169 33.754C130.231 33.6926 130.314 33.6582 130.401 33.6582H155.591C155.634 33.6582 155.677 33.6666 155.716 33.6831C155.756 33.6995 155.792 33.7236 155.823 33.754C155.853 33.7843 155.877 33.8204 155.893 33.86C155.91 33.8997 155.918 33.9422 155.918 33.9852V55.894C155.918 55.9369 155.91 55.9794 155.893 56.0191C155.877 56.0588 155.853 56.0949 155.823 56.1252C155.792 56.1556 155.756 56.1797 155.716 56.1961C155.677 56.2125 155.634 56.221 155.591 56.221Z" fill="#3F3D56"/>
<path d="M83.9452 94.8065H58.7546C58.7116 94.8065 58.6691 94.798 58.6294 94.7816C58.5897 94.7652 58.5536 94.7411 58.5232 94.7107C58.4928 94.6804 58.4687 94.6443 58.4523 94.6046C58.4359 94.5649 58.4274 94.5224 58.4274 94.4795V72.5707C58.4273 72.5277 58.4357 72.485 58.452 72.4453C58.4684 72.4055 58.4925 72.3693 58.5229 72.3388C58.5533 72.3083 58.5894 72.2842 58.6291 72.2677C58.6689 72.2512 58.7115 72.2427 58.7546 72.2427C58.7976 72.2427 58.8403 72.2512 58.88 72.2677C58.9198 72.2842 58.9559 72.3083 58.9863 72.3388C59.0167 72.3693 59.0407 72.4055 59.0571 72.4453C59.0735 72.485 59.0819 72.5277 59.0817 72.5707V94.1525H83.9452C83.9883 94.1523 84.0309 94.1607 84.0707 94.1771C84.1105 94.1934 84.1467 94.2175 84.1772 94.2479C84.2077 94.2783 84.2319 94.3144 84.2484 94.3541C84.2649 94.3938 84.2734 94.4364 84.2734 94.4795C84.2734 94.5225 84.2649 94.5651 84.2484 94.6048C84.2319 94.6446 84.2077 94.6807 84.1772 94.7111C84.1467 94.7414 84.1105 94.7655 84.0707 94.7819C84.0309 94.7982 83.9883 94.8066 83.9452 94.8065Z" fill="#3F3D56"/>
<path d="M155.591 95.1336H130.401C130.314 95.1336 130.231 95.0991 130.169 95.0378C130.108 94.9765 130.073 94.8933 130.073 94.8066C130.073 94.7199 130.108 94.6367 130.169 94.5754C130.231 94.514 130.314 94.4796 130.401 94.4796H155.264V72.8978C155.264 72.8111 155.299 72.7279 155.36 72.6666C155.421 72.6053 155.504 72.5708 155.591 72.5708C155.678 72.5708 155.761 72.6053 155.823 72.6666C155.884 72.7279 155.918 72.8111 155.918 72.8978V94.8066C155.918 94.8495 155.91 94.8921 155.894 94.9317C155.877 94.9714 155.853 95.0075 155.823 95.0379C155.792 95.0682 155.756 95.0923 155.716 95.1087C155.677 95.1252 155.634 95.1336 155.591 95.1336Z" fill="#3F3D56"/>
<path d="M261.376 90.2182C261.888 90.2681 262.406 90.2104 262.894 90.0486C263.383 89.8868 263.833 89.6246 264.214 89.2788C264.595 88.933 264.9 88.5113 265.109 88.0408C265.317 87.5703 265.425 87.0613 265.425 86.5467V78.6862L260.282 78.0693L258.181 85.5497C258.035 86.0689 258.005 86.6137 258.093 87.1458C258.18 87.6779 258.384 88.1843 258.688 88.6294C258.993 89.0745 259.391 89.4474 259.856 89.7219C260.32 89.9964 260.839 90.1658 261.376 90.2182Z" fill="#FFB8B8"/>
<path d="M216.892 93.8735C217.404 93.8228 217.9 93.6656 218.348 93.4118C218.796 93.158 219.186 92.8134 219.493 92.4C219.8 91.9866 220.016 91.5137 220.129 91.0116C220.242 90.5095 220.249 89.9893 220.149 89.4845L218.618 81.7744L213.453 82.1699L212.849 89.9159C212.807 90.4535 212.884 90.9938 213.073 91.4987C213.263 92.0036 213.561 92.4607 213.946 92.8381C214.332 93.2154 214.795 93.5036 215.304 93.6825C215.813 93.8614 216.355 93.9266 216.892 93.8735Z" fill="#FFB8B8"/>
<path d="M231.48 152.098L237.49 152.354C236.205 128.072 236.605 107.532 240.121 93.9033C244.495 109.463 246 129.882 246.115 152.652L252.67 152.098C255.472 125.134 256.893 100.205 253.905 81.7709C244.529 76.3263 234.146 76.3097 222.633 82.3878C222.375 103.039 225.919 126.755 231.48 152.098Z" fill="#2F2E41"/>
<path d="M232.577 150.848L230.027 151.698C230.027 151.698 224.643 150.282 226.06 153.964C227.476 157.646 231.444 157.079 231.444 157.079C231.444 157.079 236.261 160.761 238.244 157.929L237.111 151.981L232.577 150.848Z" fill="#2F2E41"/>
<path d="M250.544 150.848L253.094 151.698C253.094 151.698 258.478 150.282 257.061 153.964C255.644 157.646 251.677 157.079 251.677 157.079C251.677 157.079 246.86 160.761 244.876 157.929L246.01 151.981L250.544 150.848Z" fill="#2F2E41"/>
<path d="M230.039 19.0529C234.698 19.0529 238.474 15.2782 238.474 10.6219C238.474 5.9656 234.698 2.19092 230.039 2.19092C225.381 2.19092 221.604 5.9656 221.604 10.6219C221.604 15.2782 225.381 19.0529 230.039 19.0529Z" fill="#FFB8B8"/>
<path d="M229.011 27.4836L241.766 23.9878C238.539 20.0329 237.369 15.5613 238.063 10.6216H229.011V27.4836Z" fill="#FFB8B8"/>
<path d="M221.81 84.2384C233.207 80.0383 244.37 79.2563 255.139 84.2384C252.026 63.7752 251.04 45.3108 254.369 32.469C254.696 31.2258 254.569 29.9071 254.012 28.7486C253.455 27.5902 252.504 26.6678 251.328 26.1463L239.914 21.1089L229.011 22.7539L219.806 29.4315C218.835 30.1353 218.126 31.1423 217.791 32.2935C217.456 33.4448 217.515 34.6747 217.957 35.7892C222.807 48.001 223.696 64.5873 221.81 84.2384Z" fill="#6A4796"/>
<path d="M260.076 78.6867L266.042 79.3036L259.96 36.3976C259.625 34.0358 258.629 31.8166 257.088 29.9956C255.546 28.1746 253.521 26.8259 251.246 26.1049L250.407 25.8389L251.641 48.8698L260.076 78.6867Z" fill="#6A4796"/>
<path d="M218.98 82.7625L213.187 84.3168L212.389 40.9895C212.345 38.6045 212.976 36.2556 214.209 34.2134C215.443 32.1712 217.228 30.5188 219.36 29.4465L220.147 29.0508L222.58 51.9862L218.98 82.7625Z" fill="#6A4796"/>
<path d="M238.344 16.997C238.344 16.997 245.26 8.61701 238.829 2.49031C234.368 -1.76005 228.041 0.358375 224.585 2.05459C223.65 2.49831 222.837 3.16261 222.216 3.99023C221.595 4.81786 221.185 5.78398 221.021 6.80531C220.791 8.39159 221.171 9.81507 223.612 9.1638C228.495 7.86126 227.031 12.1729 227.031 12.1729C227.031 12.1729 230.503 12.1179 230.45 15.182C230.396 18.246 238.344 16.997 238.344 16.997Z" fill="#2F2E41"/>
</g>
<defs>
<clipPath id="clip0">
<rect width="275" height="159" fill="white"/>
</clipPath>
</defs>
</svg>
