<svg width="299" height="204" viewBox="0 0 299 204" fill="none" xmlns="http://www.w3.org/2000/svg">
<g clip-path="url(#clip0)">
<path d="M67.9121 5.30126C69.3744 5.30126 70.5599 4.11453 70.5599 2.65063C70.5599 1.18673 69.3744 0 67.9121 0C66.4498 0 65.2644 1.18673 65.2644 2.65063C65.2644 4.11453 66.4498 5.30126 67.9121 5.30126Z" fill="#E6E6E6"/>
<path d="M81.315 5.30126C82.7772 5.30126 83.9627 4.11453 83.9627 2.65063C83.9627 1.18673 82.7772 0 81.315 0C79.8527 0 78.6672 1.18673 78.6672 2.65063C78.6672 4.11453 79.8527 5.30126 81.315 5.30126Z" fill="#E6E6E6"/>
<path d="M94.7176 5.30126C96.1799 5.30126 97.3653 4.11453 97.3653 2.65063C97.3653 1.18673 96.1799 0 94.7176 0C93.2553 0 92.0698 1.18673 92.0698 2.65063C92.0698 4.11453 93.2553 5.30126 94.7176 5.30126Z" fill="#E6E6E6"/>
<path d="M108.12 5.30126C109.583 5.30126 110.768 4.11453 110.768 2.65063C110.768 1.18673 109.583 0 108.12 0C106.658 0 105.473 1.18673 105.473 2.65063C105.473 4.11453 106.658 5.30126 108.12 5.30126Z" fill="#E6E6E6"/>
<path d="M121.523 5.30126C122.986 5.30126 124.171 4.11453 124.171 2.65063C124.171 1.18673 122.986 0 121.523 0C120.061 0 118.875 1.18673 118.875 2.65063C118.875 4.11453 120.061 5.30126 121.523 5.30126Z" fill="#E6E6E6"/>
<path d="M67.9121 18.8872C69.3744 18.8872 70.5599 17.7005 70.5599 16.2366C70.5599 14.7727 69.3744 13.5859 67.9121 13.5859C66.4498 13.5859 65.2644 14.7727 65.2644 16.2366C65.2644 17.7005 66.4498 18.8872 67.9121 18.8872Z" fill="#E6E6E6"/>
<path d="M81.315 18.8872C82.7772 18.8872 83.9627 17.7005 83.9627 16.2366C83.9627 14.7727 82.7772 13.5859 81.315 13.5859C79.8527 13.5859 78.6672 14.7727 78.6672 16.2366C78.6672 17.7005 79.8527 18.8872 81.315 18.8872Z" fill="#E6E6E6"/>
<path d="M94.7176 18.8872C96.1799 18.8872 97.3653 17.7005 97.3653 16.2366C97.3653 14.7727 96.1799 13.5859 94.7176 13.5859C93.2553 13.5859 92.0698 14.7727 92.0698 16.2366C92.0698 17.7005 93.2553 18.8872 94.7176 18.8872Z" fill="#E6E6E6"/>
<path d="M108.12 18.8872C109.583 18.8872 110.768 17.7005 110.768 16.2366C110.768 14.7727 109.583 13.5859 108.12 13.5859C106.658 13.5859 105.473 14.7727 105.473 16.2366C105.473 17.7005 106.658 18.8872 108.12 18.8872Z" fill="#6A4796"/>
<path d="M121.523 18.8872C122.986 18.8872 124.171 17.7005 124.171 16.2366C124.171 14.7727 122.986 13.5859 121.523 13.5859C120.061 13.5859 118.875 14.7727 118.875 16.2366C118.875 17.7005 120.061 18.8872 121.523 18.8872Z" fill="#E6E6E6"/>
<path d="M148.329 18.8872C149.791 18.8872 150.976 17.7005 150.976 16.2366C150.976 14.7727 149.791 13.5859 148.329 13.5859C146.866 13.5859 145.681 14.7727 145.681 16.2366C145.681 17.7005 146.866 18.8872 148.329 18.8872Z" fill="#E6E6E6"/>
<path d="M67.9121 32.4731C69.3744 32.4731 70.5599 31.2864 70.5599 29.8225C70.5599 28.3586 69.3744 27.1719 67.9121 27.1719C66.4498 27.1719 65.2644 28.3586 65.2644 29.8225C65.2644 31.2864 66.4498 32.4731 67.9121 32.4731Z" fill="#E6E6E6"/>
<path d="M81.315 32.4731C82.7772 32.4731 83.9627 31.2864 83.9627 29.8225C83.9627 28.3586 82.7772 27.1719 81.315 27.1719C79.8527 27.1719 78.6672 28.3586 78.6672 29.8225C78.6672 31.2864 79.8527 32.4731 81.315 32.4731Z" fill="#E6E6E6"/>
<path d="M94.7176 32.4731C96.1799 32.4731 97.3653 31.2864 97.3653 29.8225C97.3653 28.3586 96.1799 27.1719 94.7176 27.1719C93.2553 27.1719 92.0698 28.3586 92.0698 29.8225C92.0698 31.2864 93.2553 32.4731 94.7176 32.4731Z" fill="#E6E6E6"/>
<path d="M108.12 32.4731C109.583 32.4731 110.768 31.2864 110.768 29.8225C110.768 28.3586 109.583 27.1719 108.12 27.1719C106.658 27.1719 105.473 28.3586 105.473 29.8225C105.473 31.2864 106.658 32.4731 108.12 32.4731Z" fill="#E6E6E6"/>
<path d="M121.523 32.4731C122.986 32.4731 124.171 31.2864 124.171 29.8225C124.171 28.3586 122.986 27.1719 121.523 27.1719C120.061 27.1719 118.875 28.3586 118.875 29.8225C118.875 31.2864 120.061 32.4731 121.523 32.4731Z" fill="#E6E6E6"/>
<path d="M67.9121 46.0591C69.3744 46.0591 70.5599 44.8723 70.5599 43.4084C70.5599 41.9445 69.3744 40.7578 67.9121 40.7578C66.4498 40.7578 65.2644 41.9445 65.2644 43.4084C65.2644 44.8723 66.4498 46.0591 67.9121 46.0591Z" fill="#E6E6E6"/>
<path d="M81.315 46.0591C82.7772 46.0591 83.9627 44.8723 83.9627 43.4084C83.9627 41.9445 82.7772 40.7578 81.315 40.7578C79.8527 40.7578 78.6672 41.9445 78.6672 43.4084C78.6672 44.8723 79.8527 46.0591 81.315 46.0591Z" fill="#E6E6E6"/>
<path d="M94.7176 46.0591C96.1799 46.0591 97.3653 44.8723 97.3653 43.4084C97.3653 41.9445 96.1799 40.7578 94.7176 40.7578C93.2553 40.7578 92.0698 41.9445 92.0698 43.4084C92.0698 44.8723 93.2553 46.0591 94.7176 46.0591Z" fill="#E6E6E6"/>
<path d="M108.12 46.0591C109.583 46.0591 110.768 44.8723 110.768 43.4084C110.768 41.9445 109.583 40.7578 108.12 40.7578C106.658 40.7578 105.473 41.9445 105.473 43.4084C105.473 44.8723 106.658 46.0591 108.12 46.0591Z" fill="#E6E6E6"/>
<path d="M121.523 46.0591C122.986 46.0591 124.171 44.8723 124.171 43.4084C124.171 41.9445 122.986 40.7578 121.523 40.7578C120.061 40.7578 118.875 41.9445 118.875 43.4084C118.875 44.8723 120.061 46.0591 121.523 46.0591Z" fill="#E6E6E6"/>
<path d="M134.926 46.0591C136.388 46.0591 137.574 44.8723 137.574 43.4084C137.574 41.9445 136.388 40.7578 134.926 40.7578C133.464 40.7578 132.278 41.9445 132.278 43.4084C132.278 44.8723 133.464 46.0591 134.926 46.0591Z" fill="#E6E6E6"/>
<path d="M148.329 46.0591C149.791 46.0591 150.976 44.8723 150.976 43.4084C150.976 41.9445 149.791 40.7578 148.329 40.7578C146.866 40.7578 145.681 41.9445 145.681 43.4084C145.681 44.8723 146.866 46.0591 148.329 46.0591Z" fill="#E6E6E6"/>
<path d="M161.731 46.0591C163.194 46.0591 164.379 44.8723 164.379 43.4084C164.379 41.9445 163.194 40.7578 161.731 40.7578C160.269 40.7578 159.084 41.9445 159.084 43.4084C159.084 44.8723 160.269 46.0591 161.731 46.0591Z" fill="#E6E6E6"/>
<path d="M175.134 46.0591C176.596 46.0591 177.782 44.8723 177.782 43.4084C177.782 41.9445 176.596 40.7578 175.134 40.7578C173.672 40.7578 172.486 41.9445 172.486 43.4084C172.486 44.8723 173.672 46.0591 175.134 46.0591Z" fill="#E6E6E6"/>
<path d="M188.537 46.0591C189.999 46.0591 191.185 44.8723 191.185 43.4084C191.185 41.9445 189.999 40.7578 188.537 40.7578C187.075 40.7578 185.889 41.9445 185.889 43.4084C185.889 44.8723 187.075 46.0591 188.537 46.0591Z" fill="#E6E6E6"/>
<path d="M121.523 59.6445C122.986 59.6445 124.171 58.4578 124.171 56.9939C124.171 55.53 122.986 54.3433 121.523 54.3433C120.061 54.3433 118.875 55.53 118.875 56.9939C118.875 58.4578 120.061 59.6445 121.523 59.6445Z" fill="#E6E6E6"/>
<path d="M134.926 59.6445C136.388 59.6445 137.574 58.4578 137.574 56.9939C137.574 55.53 136.388 54.3433 134.926 54.3433C133.464 54.3433 132.278 55.53 132.278 56.9939C132.278 58.4578 133.464 59.6445 134.926 59.6445Z" fill="#6A4796"/>
<path d="M148.329 59.6445C149.791 59.6445 150.976 58.4578 150.976 56.9939C150.976 55.53 149.791 54.3433 148.329 54.3433C146.866 54.3433 145.681 55.53 145.681 56.9939C145.681 58.4578 146.866 59.6445 148.329 59.6445Z" fill="#E6E6E6"/>
<path d="M161.731 59.6445C163.194 59.6445 164.379 58.4578 164.379 56.9939C164.379 55.53 163.194 54.3433 161.731 54.3433C160.269 54.3433 159.084 55.53 159.084 56.9939C159.084 58.4578 160.269 59.6445 161.731 59.6445Z" fill="#E6E6E6"/>
<path d="M175.134 59.6445C176.596 59.6445 177.782 58.4578 177.782 56.9939C177.782 55.53 176.596 54.3433 175.134 54.3433C173.672 54.3433 172.486 55.53 172.486 56.9939C172.486 58.4578 173.672 59.6445 175.134 59.6445Z" fill="#E6E6E6"/>
<path d="M188.537 59.6445C189.999 59.6445 191.185 58.4578 191.185 56.9939C191.185 55.53 189.999 54.3433 188.537 54.3433C187.075 54.3433 185.889 55.53 185.889 56.9939C185.889 58.4578 187.075 59.6445 188.537 59.6445Z" fill="#E6E6E6"/>
<path d="M121.523 73.2305C122.986 73.2305 124.171 72.0437 124.171 70.5798C124.171 69.1159 122.986 67.9292 121.523 67.9292C120.061 67.9292 118.875 69.1159 118.875 70.5798C118.875 72.0437 120.061 73.2305 121.523 73.2305Z" fill="#E6E6E6"/>
<path d="M134.926 73.2305C136.388 73.2305 137.574 72.0437 137.574 70.5798C137.574 69.1159 136.388 67.9292 134.926 67.9292C133.464 67.9292 132.278 69.1159 132.278 70.5798C132.278 72.0437 133.464 73.2305 134.926 73.2305Z" fill="#E6E6E6"/>
<path d="M148.329 73.2305C149.791 73.2305 150.976 72.0437 150.976 70.5798C150.976 69.1159 149.791 67.9292 148.329 67.9292C146.866 67.9292 145.681 69.1159 145.681 70.5798C145.681 72.0437 146.866 73.2305 148.329 73.2305Z" fill="#E6E6E6"/>
<path d="M161.731 73.2305C163.194 73.2305 164.379 72.0437 164.379 70.5798C164.379 69.1159 163.194 67.9292 161.731 67.9292C160.269 67.9292 159.084 69.1159 159.084 70.5798C159.084 72.0437 160.269 73.2305 161.731 73.2305Z" fill="#E6E6E6"/>
<path d="M175.134 73.2305C176.596 73.2305 177.782 72.0437 177.782 70.5798C177.782 69.1159 176.596 67.9292 175.134 67.9292C173.672 67.9292 172.486 69.1159 172.486 70.5798C172.486 72.0437 173.672 73.2305 175.134 73.2305Z" fill="#6A4796"/>
<path d="M188.537 73.2305C189.999 73.2305 191.185 72.0437 191.185 70.5798C191.185 69.1159 189.999 67.9292 188.537 67.9292C187.075 67.9292 185.889 69.1159 185.889 70.5798C185.889 72.0437 187.075 73.2305 188.537 73.2305Z" fill="#E6E6E6"/>
<path d="M121.523 86.8164C122.986 86.8164 124.171 85.6297 124.171 84.1658C124.171 82.7019 122.986 81.5151 121.523 81.5151C120.061 81.5151 118.875 82.7019 118.875 84.1658C118.875 85.6297 120.061 86.8164 121.523 86.8164Z" fill="#E6E6E6"/>
<path d="M134.926 86.8164C136.388 86.8164 137.574 85.6297 137.574 84.1658C137.574 82.7019 136.388 81.5151 134.926 81.5151C133.464 81.5151 132.278 82.7019 132.278 84.1658C132.278 85.6297 133.464 86.8164 134.926 86.8164Z" fill="#E6E6E6"/>
<path d="M148.329 86.8164C149.791 86.8164 150.976 85.6297 150.976 84.1658C150.976 82.7019 149.791 81.5151 148.329 81.5151C146.866 81.5151 145.681 82.7019 145.681 84.1658C145.681 85.6297 146.866 86.8164 148.329 86.8164Z" fill="#E6E6E6"/>
<path d="M161.731 86.8164C163.194 86.8164 164.379 85.6297 164.379 84.1658C164.379 82.7019 163.194 81.5151 161.731 81.5151C160.269 81.5151 159.084 82.7019 159.084 84.1658C159.084 85.6297 160.269 86.8164 161.731 86.8164Z" fill="#E6E6E6"/>
<path d="M175.134 86.8164C176.596 86.8164 177.782 85.6297 177.782 84.1658C177.782 82.7019 176.596 81.5151 175.134 81.5151C173.672 81.5151 172.486 82.7019 172.486 84.1658C172.486 85.6297 173.672 86.8164 175.134 86.8164Z" fill="#E6E6E6"/>
<path d="M188.537 86.8164C189.999 86.8164 191.185 85.6297 191.185 84.1658C191.185 82.7019 189.999 81.5151 188.537 81.5151C187.075 81.5151 185.889 82.7019 185.889 84.1658C185.889 85.6297 187.075 86.8164 188.537 86.8164Z" fill="#E6E6E6"/>
<path d="M67.9121 100.402C69.3744 100.402 70.5599 99.2156 70.5599 97.7517C70.5599 96.2878 69.3744 95.1011 67.9121 95.1011C66.4498 95.1011 65.2644 96.2878 65.2644 97.7517C65.2644 99.2156 66.4498 100.402 67.9121 100.402Z" fill="#E6E6E6"/>
<path d="M81.315 100.402C82.7772 100.402 83.9627 99.2156 83.9627 97.7517C83.9627 96.2878 82.7772 95.1011 81.315 95.1011C79.8527 95.1011 78.6672 96.2878 78.6672 97.7517C78.6672 99.2156 79.8527 100.402 81.315 100.402Z" fill="#E6E6E6"/>
<path d="M94.7176 100.402C96.1799 100.402 97.3653 99.2156 97.3653 97.7517C97.3653 96.2878 96.1799 95.1011 94.7176 95.1011C93.2553 95.1011 92.0698 96.2878 92.0698 97.7517C92.0698 99.2156 93.2553 100.402 94.7176 100.402Z" fill="#E6E6E6"/>
<path d="M108.12 100.402C109.583 100.402 110.768 99.2156 110.768 97.7517C110.768 96.2878 109.583 95.1011 108.12 95.1011C106.658 95.1011 105.473 96.2878 105.473 97.7517C105.473 99.2156 106.658 100.402 108.12 100.402Z" fill="#E6E6E6"/>
<path d="M121.523 100.402C122.986 100.402 124.171 99.2156 124.171 97.7517C124.171 96.2878 122.986 95.1011 121.523 95.1011C120.061 95.1011 118.875 96.2878 118.875 97.7517C118.875 99.2156 120.061 100.402 121.523 100.402Z" fill="#E6E6E6"/>
<path d="M134.926 100.402C136.388 100.402 137.574 99.2156 137.574 97.7517C137.574 96.2878 136.388 95.1011 134.926 95.1011C133.464 95.1011 132.278 96.2878 132.278 97.7517C132.278 99.2156 133.464 100.402 134.926 100.402Z" fill="#E6E6E6"/>
<path d="M148.329 100.402C149.791 100.402 150.976 99.2156 150.976 97.7517C150.976 96.2878 149.791 95.1011 148.329 95.1011C146.866 95.1011 145.681 96.2878 145.681 97.7517C145.681 99.2156 146.866 100.402 148.329 100.402Z" fill="#E6E6E6"/>
<path d="M161.731 100.402C163.194 100.402 164.379 99.2156 164.379 97.7517C164.379 96.2878 163.194 95.1011 161.731 95.1011C160.269 95.1011 159.084 96.2878 159.084 97.7517C159.084 99.2156 160.269 100.402 161.731 100.402Z" fill="#E6E6E6"/>
<path d="M175.134 100.402C176.596 100.402 177.782 99.2156 177.782 97.7517C177.782 96.2878 176.596 95.1011 175.134 95.1011C173.672 95.1011 172.486 96.2878 172.486 97.7517C172.486 99.2156 173.672 100.402 175.134 100.402Z" fill="#E6E6E6"/>
<path d="M188.537 100.402C189.999 100.402 191.185 99.2156 191.185 97.7517C191.185 96.2878 189.999 95.1011 188.537 95.1011C187.075 95.1011 185.889 96.2878 185.889 97.7517C185.889 99.2156 187.075 100.402 188.537 100.402Z" fill="#E6E6E6"/>
<path d="M67.9107 113.988C69.373 113.988 70.5584 112.801 70.5584 111.337C70.5584 109.873 69.373 108.687 67.9107 108.687C66.4484 108.687 65.2629 109.873 65.2629 111.337C65.2629 112.801 66.4484 113.988 67.9107 113.988Z" fill="#E6E6E6"/>
<path d="M81.315 113.988C82.7772 113.988 83.9627 112.802 83.9627 111.338C83.9627 109.874 82.7772 108.687 81.315 108.687C79.8527 108.687 78.6672 109.874 78.6672 111.338C78.6672 112.802 79.8527 113.988 81.315 113.988Z" fill="#E6E6E6"/>
<path d="M67.9107 127.573C69.373 127.573 70.5584 126.387 70.5584 124.923C70.5584 123.459 69.373 122.272 67.9107 122.272C66.4484 122.272 65.2629 123.459 65.2629 124.923C65.2629 126.387 66.4484 127.573 67.9107 127.573Z" fill="#E6E6E6"/>
<path d="M81.315 127.574C82.7772 127.574 83.9627 126.387 83.9627 124.924C83.9627 123.46 82.7772 122.273 81.315 122.273C79.8527 122.273 78.6672 123.46 78.6672 124.924C78.6672 126.387 79.8527 127.574 81.315 127.574Z" fill="#E6E6E6"/>
<path d="M108.12 127.574C109.583 127.574 110.768 126.387 110.768 124.924C110.768 123.46 109.583 122.273 108.12 122.273C106.658 122.273 105.473 123.46 105.473 124.924C105.473 126.387 106.658 127.574 108.12 127.574Z" fill="#E6E6E6"/>
<path d="M241.715 31.2723H136.79C136.275 31.2717 135.781 31.0666 135.417 30.7019C135.053 30.3373 134.848 29.8429 134.847 29.3272V3.27135C134.848 2.75564 135.053 2.26123 135.417 1.89657C135.781 1.53191 136.275 1.32678 136.79 1.32617H241.715C242.23 1.32678 242.724 1.53191 243.088 1.89657C243.452 2.26123 243.657 2.75564 243.658 3.27135V29.3272C243.657 29.8429 243.452 30.3373 243.088 30.7019C242.724 31.0666 242.23 31.2717 241.715 31.2723ZM136.79 2.10424C136.481 2.10458 136.185 2.22765 135.966 2.44645C135.748 2.66525 135.625 2.96191 135.624 3.27135V29.3272C135.625 29.6366 135.748 29.9333 135.966 30.1521C136.185 30.3709 136.481 30.4939 136.79 30.4943H241.715C242.024 30.4939 242.32 30.3709 242.539 30.1521C242.757 29.9333 242.88 29.6366 242.881 29.3272V3.27135C242.88 2.96191 242.757 2.66525 242.539 2.44645C242.32 2.22765 242.024 2.10458 241.715 2.10424H136.79Z" fill="#E6E6E6"/>
<path d="M150.391 24.4689C154.899 24.4689 158.552 20.8111 158.552 16.2991C158.552 11.7871 154.899 8.12939 150.391 8.12939C145.884 8.12939 142.231 11.7871 142.231 16.2991C142.231 20.8111 145.884 24.4689 150.391 24.4689Z" fill="#6A4796"/>
<path d="M169.239 10.8525C168.878 10.8525 168.532 10.996 168.277 11.2513C168.022 11.5067 167.879 11.853 167.879 12.2142C167.879 12.5753 168.022 12.9216 168.277 13.177C168.532 13.4323 168.878 13.5758 169.239 13.5758H205.38C205.74 13.5758 206.086 13.4323 206.341 13.177C206.597 12.9216 206.74 12.5753 206.74 12.2142C206.74 11.853 206.597 11.5067 206.341 11.2513C206.086 10.996 205.74 10.8525 205.38 10.8525H169.239Z" fill="#E6E6E6"/>
<path d="M169.239 19.022C168.878 19.022 168.532 19.1654 168.277 19.4208C168.022 19.6761 167.879 20.0225 167.879 20.3836C167.879 20.7447 168.022 21.091 168.277 21.3464C168.532 21.6018 168.878 21.7452 169.239 21.7452H233.36C233.72 21.7452 234.066 21.6018 234.321 21.3464C234.576 21.091 234.72 20.7447 234.72 20.3836C234.72 20.0225 234.576 19.6761 234.321 19.4208C234.066 19.1654 233.72 19.022 233.36 19.022H169.239Z" fill="#E6E6E6"/>
<path d="M106.868 84.181H1.94304C1.4279 84.1804 0.934034 83.9753 0.569773 83.6106C0.205512 83.246 0.000603714 82.7516 0 82.2358V56.18C0.000603714 55.6643 0.205512 55.1699 0.569773 54.8053C0.934034 54.4406 1.4279 54.2355 1.94304 54.2349H106.868C107.383 54.2355 107.877 54.4406 108.241 54.8053C108.605 55.1699 108.81 55.6643 108.811 56.18V82.2359C108.81 82.7516 108.605 83.246 108.241 83.6106C107.877 83.9753 107.383 84.1804 106.868 84.181ZM1.94304 55.0129C1.63395 55.0133 1.33761 55.1363 1.11905 55.3551C0.900491 55.5739 0.777555 55.8706 0.777218 56.18V82.2359C0.777555 82.5453 0.900491 82.842 1.11905 83.0608C1.33761 83.2796 1.63395 83.4026 1.94304 83.403H106.868C107.177 83.4026 107.473 83.2796 107.692 83.0608C107.91 82.842 108.033 82.5453 108.033 82.2359V56.18C108.033 55.8706 107.91 55.5739 107.692 55.3551C107.473 55.1363 107.177 55.0133 106.868 55.0129H1.94304Z" fill="#E6E6E6"/>
<path d="M15.5443 77.3776C20.0514 77.3776 23.7051 73.7198 23.7051 69.2078C23.7051 64.6958 20.0514 61.0381 15.5443 61.0381C11.0373 61.0381 7.38354 64.6958 7.38354 69.2078C7.38354 73.7198 11.0373 77.3776 15.5443 77.3776Z" fill="#6A4796"/>
<path d="M34.3919 63.7612C34.0311 63.7612 33.6852 63.9047 33.4301 64.16C33.175 64.4154 33.0317 64.7617 33.0317 65.1228C33.0317 65.484 33.175 65.8303 33.4301 66.0857C33.6852 66.341 34.0311 66.4845 34.3919 66.4845H72.0869C72.4476 66.4845 72.7936 66.341 73.0487 66.0857C73.3038 65.8303 73.447 65.484 73.447 65.1228C73.447 64.7617 73.3038 64.4154 73.0487 64.16C72.7936 63.9047 72.4476 63.7612 72.0869 63.7612H34.3919Z" fill="#E6E6E6"/>
<path d="M34.3919 71.9307C34.0311 71.9307 33.6852 72.0741 33.4301 72.3295C33.175 72.5848 33.0317 72.9312 33.0317 73.2923C33.0317 73.6534 33.175 73.9997 33.4301 74.2551C33.6852 74.5105 34.0311 74.6539 34.3919 74.6539H98.5123C98.873 74.6539 99.219 74.5105 99.4741 74.2551C99.7291 73.9997 99.8724 73.6534 99.8724 73.2923C99.8724 72.9312 99.7291 72.5848 99.4741 72.3295C99.219 72.0741 98.873 71.9307 98.5123 71.9307H34.3919Z" fill="#E6E6E6"/>
<path d="M201.688 141.369H96.7636C96.2485 141.368 95.7546 141.163 95.3903 140.799C95.0261 140.434 94.8212 139.94 94.8206 139.424V113.368C94.8212 112.852 95.0261 112.358 95.3903 111.993C95.7546 111.629 96.2485 111.423 96.7636 111.423H201.688C202.203 111.423 202.697 111.629 203.061 111.993C203.426 112.358 203.631 112.852 203.631 113.368V139.424C203.631 139.94 203.426 140.434 203.061 140.799C202.697 141.163 202.203 141.368 201.688 141.369ZM96.7636 112.201C96.4545 112.201 96.1582 112.324 95.9396 112.543C95.721 112.762 95.5981 113.059 95.5978 113.368V139.424C95.5981 139.733 95.721 140.03 95.9396 140.249C96.1582 140.468 96.4545 140.591 96.7636 140.591H201.688C201.997 140.591 202.294 140.468 202.512 140.249C202.731 140.03 202.854 139.733 202.854 139.424V113.368C202.854 113.059 202.731 112.762 202.512 112.543C202.294 112.324 201.997 112.201 201.688 112.201H96.7636Z" fill="#3F3D56"/>
<path d="M110.365 134.566C114.872 134.566 118.526 130.908 118.526 126.396C118.526 121.884 114.872 118.226 110.365 118.226C105.858 118.226 102.204 121.884 102.204 126.396C102.204 130.908 105.858 134.566 110.365 134.566Z" fill="#6A4796"/>
<path d="M129.212 120.949C128.852 120.949 128.506 121.093 128.251 121.348C127.996 121.603 127.852 121.95 127.852 122.311C127.852 122.672 127.996 123.018 128.251 123.274C128.506 123.529 128.852 123.672 129.212 123.672H163.799C164.159 123.672 164.505 123.529 164.76 123.274C165.015 123.018 165.159 122.672 165.159 122.311C165.159 121.95 165.015 121.603 164.76 121.348C164.505 121.093 164.159 120.949 163.799 120.949H129.212Z" fill="#E6E6E6"/>
<path d="M129.212 129.119C128.852 129.119 128.506 129.263 128.251 129.518C127.996 129.773 127.852 130.12 127.852 130.481C127.852 130.842 127.996 131.188 128.251 131.444C128.506 131.699 128.852 131.842 129.212 131.842H193.333C193.694 131.842 194.04 131.699 194.295 131.444C194.55 131.188 194.693 130.842 194.693 130.481C194.693 130.12 194.55 129.773 194.295 129.518C194.04 129.263 193.694 129.119 193.333 129.119H129.212Z" fill="#E6E6E6"/>
<path d="M258.133 134.761C253.576 148.446 234.935 133.932 234.935 133.932L239.906 82.0938C247.363 76.2879 255.233 81.2644 255.233 81.2644L258.133 134.761Z" fill="#E6E6E6"/>
<path d="M257.155 180.69L263.506 180.757L261.92 199.087L257.155 199.087L257.155 180.69Z" fill="#FFB8B8"/>
<path d="M255.94 197.529H265.322C266.908 197.531 268.428 198.162 269.549 199.285C270.67 200.407 271.3 201.928 271.302 203.515V203.71H255.94V197.529Z" fill="#2F2E41"/>
<path d="M239.935 180.69L232.904 180.69L235.17 199.087L239.934 199.087L239.935 180.69Z" fill="#FFB8B8"/>
<path d="M225.787 203.71V203.515C225.787 201.928 226.417 200.405 227.539 199.282C228.66 198.16 230.181 197.529 231.767 197.529L241.15 197.53L241.149 203.71L225.787 203.71Z" fill="#2F2E41"/>
<path d="M256.726 195.911L248.404 147.351L240.694 195.286L232.883 195.72L230.8 131.496L230.957 131.461C232.249 131.171 262.643 124.488 267.626 134.049L267.651 134.097L263.492 196.13L256.726 195.911Z" fill="#2F2E41"/>
<path d="M247.907 76.0189C253.178 76.0189 257.451 71.7409 257.451 66.4638C257.451 61.1866 253.178 56.9087 247.907 56.9087C242.635 56.9087 238.362 61.1866 238.362 66.4638C238.362 71.7409 242.635 76.0189 247.907 76.0189Z" fill="#FFB8B8"/>
<path d="M255.925 138.856C254.806 138.546 254 137.26 253.388 134.808C253.282 134.386 243.373 92.1267 251.753 84.4705L253.685 79.0986L256.328 80.863C257.264 80.8717 266.829 81.1141 267.646 87.252C268.447 93.26 270.625 133.513 268.435 136.017C268.392 136.072 268.338 136.117 268.276 136.149C268.213 136.18 268.145 136.198 268.075 136.2C265.856 136.2 265.182 133.735 265.024 132.949C264.496 133.168 262.925 133.972 260.342 136.557C258.742 138.159 257.487 138.927 256.451 138.927C256.273 138.927 256.096 138.904 255.925 138.856Z" fill="#2F2E41"/>
<path d="M235.212 136.557C232.628 133.97 231.057 133.167 230.53 132.948C230.372 133.734 229.698 136.199 227.479 136.199C227.409 136.197 227.34 136.18 227.278 136.148C227.216 136.117 227.161 136.072 227.118 136.017C224.929 133.513 227.107 93.2597 227.907 87.2515C228.725 81.1136 238.29 80.8712 239.226 80.8625L241.869 79.0981L243.801 84.47C252.181 92.1257 242.271 134.385 242.166 134.808C241.554 137.259 240.747 138.546 239.629 138.856C239.457 138.903 239.281 138.927 239.103 138.926C238.067 138.926 236.812 138.158 235.212 136.557Z" fill="#2F2E41"/>
<path d="M255.787 71.9216C257.401 70.7589 258.624 69.1316 259.292 67.2562C259.961 65.3807 260.043 63.3461 259.528 61.4228C259.013 59.4995 257.925 57.7788 256.409 56.4895C254.894 55.2001 253.022 54.4033 251.043 54.205C250.164 54.1169 249.218 54.13 248.489 53.6305C247.842 53.1867 247.493 52.417 246.899 51.9049C246.521 51.6123 246.087 51.401 245.624 51.2841C245.16 51.1672 244.678 51.1473 244.207 51.2256C243.266 51.388 242.355 51.6878 241.501 52.1156C239.385 53.0602 237.135 54.2228 236.172 56.3327C235.338 58.1603 235.706 60.4139 236.887 62.0387C238.129 63.6468 239.939 64.7169 241.945 65.0287C243.94 65.327 245.976 65.1434 247.885 64.4933C249.145 64.0965 250.388 63.5557 251.708 63.5116C252.738 63.4771 253.756 63.7502 254.63 64.296C255.505 64.8419 256.198 65.6358 256.62 66.577C257.043 67.5181 257.177 68.5638 257.004 69.581C256.831 70.5983 256.36 71.5412 255.651 72.2898" fill="#2F2E41"/>
<path d="M203.764 128.763C204.315 128.75 204.858 128.629 205.362 128.406C205.866 128.183 206.322 127.863 206.702 127.464C207.083 127.065 207.381 126.594 207.58 126.08C207.779 125.565 207.875 125.016 207.863 124.465L213.429 115.063L209.128 111.116L203.265 120.379C202.183 120.483 201.184 121.004 200.477 121.83C199.771 122.657 199.412 123.726 199.476 124.812C199.541 125.898 200.024 126.917 200.824 127.654C201.623 128.391 202.677 128.788 203.764 128.763Z" fill="#FFB8B8"/>
<path d="M268.34 139.063C268.802 138.762 269.199 138.372 269.511 137.917C269.822 137.462 270.041 136.949 270.155 136.409C270.268 135.869 270.275 135.312 270.173 134.77C270.072 134.228 269.865 133.71 269.564 133.248L269.351 122.321L263.618 121.233L263.506 132.199C262.641 132.857 262.065 133.826 261.899 134.902C261.733 135.977 261.991 137.075 262.617 137.964C263.243 138.853 264.189 139.465 265.257 139.67C266.324 139.875 267.429 139.657 268.34 139.063Z" fill="#FFB8B8"/>
<path d="M205.457 113.646L205.392 113.543L205.456 113.44C213.805 100.018 231.33 83.2531 231.506 83.0853L231.561 83.0325L233.726 83.0103L236.065 88.8458C235.337 90.2487 215.704 117.677 213.111 119.496C212.905 119.639 212.671 119.737 212.424 119.784C212.178 119.83 211.924 119.824 211.68 119.766C211.248 119.667 210.836 119.491 210.465 119.249C208.073 117.765 205.579 113.84 205.457 113.646Z" fill="#2F2E41"/>
<path d="M262.528 128.961C262.295 128.882 262.081 128.755 261.9 128.589C261.719 128.422 261.575 128.22 261.476 127.995C260.226 125.075 265.583 88.1958 265.812 86.6273L265.855 86.3306L267.666 87.4794L267.684 87.5577C267.737 87.7932 273.013 111.288 271.583 126.899L271.572 127.011L271.471 127.058C271.253 127.159 266.859 129.179 263.93 129.179C263.453 129.192 262.978 129.118 262.528 128.961Z" fill="#2F2E41"/>
<path d="M298.612 204H195.242C195.139 204 195.04 203.959 194.967 203.886C194.894 203.813 194.853 203.714 194.853 203.611C194.853 203.508 194.894 203.409 194.967 203.336C195.04 203.263 195.139 203.222 195.242 203.222H298.612C298.715 203.222 298.813 203.263 298.886 203.336C298.959 203.409 299 203.508 299 203.611C299 203.714 298.959 203.813 298.886 203.886C298.813 203.959 298.715 204 298.612 204Z" fill="#3F3D56"/>
</g>
<defs>
<clipPath id="clip0">
<rect width="299" height="204" fill="white"/>
</clipPath>
</defs>
</svg>
