<svg width="266" height="162" viewBox="0 0 266 162" fill="none" xmlns="http://www.w3.org/2000/svg">
<g clip-path="url(#clip0)">
<path d="M265.878 162H0V161.324H266L265.878 162Z" fill="#3F3D56"/>
<path d="M232.164 54.3979L225.436 67.7452L205.318 76.9098C203.17 80.548 196.343 80.8265 195.847 78.4737C195.29 75.8343 204.137 71.5861 204.137 71.5861L220.963 60.1813L222.436 50.3633L232.164 54.3979Z" fill="#A0616A"/>
<path d="M231.37 143.969L232.611 153.916L225.414 154.414L224.67 143.969H231.37Z" fill="#A0616A"/>
<path d="M230.377 152.424C231.021 151.742 231.614 151.015 232.153 150.248C233.184 148.818 234.1 156.154 234.1 156.154C234.1 156.154 235.092 159.138 234.844 160.63C234.596 162.122 228.888 162.122 227.896 161.874C226.903 161.625 221.94 161.874 221.94 161.874H214.495C208.043 158.89 214.495 156.9 214.495 156.9C216.481 156.652 223.181 150.435 223.181 150.435L224.67 147.699C225.662 147.451 226.655 151.181 226.655 151.181L230.377 152.424Z" fill="#2F2E41"/>
<path d="M249.982 144.094L251.223 154.041L244.026 154.538L243.281 144.094H249.982Z" fill="#A0616A"/>
<path d="M248.989 152.549C249.632 151.867 250.226 151.14 250.765 150.372C251.796 148.942 252.711 156.279 252.711 156.279C252.711 156.279 253.704 159.014 253.456 160.506C253.208 161.998 247.5 161.998 246.507 161.75C245.515 161.501 240.552 161.998 240.552 161.998H233.107C226.655 159.014 233.107 157.025 233.107 157.025C235.092 156.776 241.792 150.559 241.792 150.559L243.281 147.824C244.274 147.575 245.267 151.305 245.267 151.305L248.989 152.549Z" fill="#2F2E41"/>
<path d="M241.793 79.9364C242.785 81.1797 242.289 85.4072 242.289 85.4072C242.289 85.4072 244.026 99.0842 243.281 100.328C242.537 101.571 243.778 102.566 244.522 104.306C245.267 106.047 246.011 110.275 246.011 110.275C250.23 113.756 249.982 129.671 249.982 129.671L251.471 143.845C250.974 145.337 244.026 145.586 243.033 145.337C242.041 145.089 239.063 122.708 239.063 122.708L232.363 110.026C232.363 110.026 232.859 143.845 232.859 145.337C232.859 146.829 226.159 146.083 224.67 146.083C223.181 146.083 223.181 121.216 223.181 121.216L221.692 114.751L213.751 85.1585V81.6771L214.992 79.9364C214.992 79.9364 240.8 78.693 241.793 79.9364Z" fill="#2F2E41"/>
<path d="M230.874 23.4875C235.122 23.4875 238.566 20.0362 238.566 15.7787C238.566 11.5212 235.122 8.06982 230.874 8.06982C226.625 8.06982 223.181 11.5212 223.181 15.7787C223.181 20.0362 226.625 23.4875 230.874 23.4875Z" fill="#A0616A"/>
<path d="M227.027 19.3843C228.587 22.8638 227.663 27.7239 224.546 33.0613L237.202 27.0932L235.216 25.3524L235.713 20.379L227.027 19.3843Z" fill="#A0616A"/>
<path d="M227.027 27.342C225.37 28.3293 224.378 30.1434 223.809 31.9894C222.756 35.407 222.121 38.9406 221.921 42.5119L221.319 53.2039L213.875 81.5526C220.327 87.0234 224.049 85.7801 232.735 81.3039C241.42 76.8278 242.413 82.796 242.413 82.796C242.413 82.796 243.157 82.5473 242.413 81.8013C241.668 81.0553 242.413 81.8013 243.157 81.0553C243.902 80.3092 243.157 81.0553 242.909 80.3092C242.661 79.5632 242.909 80.0606 243.157 79.8119C243.405 79.5632 242.165 77.3252 242.165 77.3252L244.15 58.6747L246.631 32.3154C243.654 28.5853 235.216 25.3525 235.216 25.3525L227.523 30.8233C225.042 31.818 227.027 27.8393 227.027 27.8393V27.342Z" fill="#6A4796"/>
<path d="M250.726 48.106L251.719 63.0263L239.063 81.1795C239.063 85.4069 236.829 86.4016 236.829 86.4016C235.983 85.0487 235.237 83.6358 234.596 82.1741C233.355 79.4388 235.34 77.2007 235.34 77.2007L244.026 58.7989L240.303 49.598L250.726 48.106Z" fill="#A0616A"/>
<path d="M246.507 32.4396C250.726 33.9317 251.47 50.0954 251.47 50.0954C246.507 47.36 240.552 51.8361 240.552 51.8361C240.552 51.8361 239.311 47.6087 237.822 42.1379C237.372 40.599 237.319 38.9712 237.666 37.406C238.013 35.8407 238.749 34.3889 239.807 33.1857C239.807 33.1857 242.289 30.9476 246.507 32.4396Z" fill="#6A4796"/>
<path d="M237.946 18.1409C236.967 17.3558 235.631 18.7829 235.631 18.7829L234.847 11.717C234.847 11.717 229.951 12.3058 226.817 11.5207C223.683 10.7356 223.193 14.3667 223.193 14.3667C223.032 12.9003 222.999 11.4226 223.095 9.95051C223.291 8.18404 225.837 6.41756 230.342 5.23991C234.847 4.06227 237.198 9.16541 237.198 9.16541C240.332 10.7356 238.925 18.926 237.946 18.1409Z" fill="#2F2E41"/>
<path d="M12.5044 121.902C13.3502 125.267 20.5622 132.833 28.0039 139.938C16.5281 111.534 23.0674 80.4478 23.0674 80.4478C20.9366 92.6566 50.1397 154.095 50.1397 154.095L43.4883 158.026L41.2413 161.194C18.7169 150.828 12.5044 121.902 12.5044 121.902Z" fill="#E6E6E6"/>
<path d="M206.572 58.917H112.496V77.5297H206.572V58.917Z" fill="#E6E6E6"/>
<path d="M206.572 29.5068H112.496V48.1195H206.572V29.5068Z" fill="#E6E6E6"/>
<path d="M206.572 0H112.496V18.6127H206.572V0Z" fill="#E6E6E6"/>
<path d="M114.502 16.6029H204.567V2.00977H114.502V16.6029Z" fill="white"/>
<path d="M114.502 46.1747H204.567V31.5815H114.502V46.1747Z" fill="white"/>
<path d="M114.502 75.5199H204.567V60.9268H114.502V75.5199Z" fill="white"/>
<path d="M122.386 14.7452C125.45 14.7452 127.934 12.2561 127.934 9.1856C127.934 6.11511 125.45 3.62598 122.386 3.62598C119.322 3.62598 116.838 6.11511 116.838 9.1856C116.838 12.2561 119.322 14.7452 122.386 14.7452Z" fill="#6A4796"/>
<path d="M190.411 7.00977H135.653V8.21838H190.411V7.00977Z" fill="#6A4796"/>
<path d="M190.411 10.1523H135.653V11.361H190.411V10.1523Z" fill="#6A4796"/>
<path d="M122.386 44.4938C125.45 44.4938 127.934 42.0046 127.934 38.9341C127.934 35.8636 125.45 33.3745 122.386 33.3745C119.322 33.3745 116.838 35.8636 116.838 38.9341C116.838 42.0046 119.322 44.4938 122.386 44.4938Z" fill="#CCCCCC"/>
<path d="M190.411 36.7588H135.653V37.9674H190.411V36.7588Z" fill="#CCCCCC"/>
<path d="M190.411 39.9009H135.653V41.1095H190.411V39.9009Z" fill="#CCCCCC"/>
<path d="M122.386 73.9039C125.45 73.9039 127.934 71.4148 127.934 68.3443C127.934 65.2738 125.45 62.7847 122.386 62.7847C119.322 62.7847 116.838 65.2738 116.838 68.3443C116.838 71.4148 119.322 73.9039 122.386 73.9039Z" fill="#CCCCCC"/>
<path d="M190.411 66.1685H135.653V67.3771H190.411V66.1685Z" fill="#CCCCCC"/>
<path d="M190.411 69.311H135.653V70.5196H190.411V69.311Z" fill="#CCCCCC"/>
<path d="M43.1365 53.6898C43.1365 53.6898 41.8393 61.8601 47.2132 61.1174C47.2132 61.1174 68.5232 56.2894 69.6351 57.4036C70.7469 58.5177 77.659 58.897 77.2985 54.1998C76.9367 49.4868 70.0057 52.2042 70.0057 52.2042C70.0057 52.2042 59.258 53.6897 57.0343 52.5756C54.8107 51.4615 48.5103 51.8328 48.5103 51.8328L43.1365 53.6898Z" fill="#A0616A"/>
<path d="M59.3986 80.334L56.4437 108.428C56.4437 108.428 55.5172 119.57 52.7377 121.984C52.7377 121.984 52.7376 125.512 51.8111 126.626L50.514 141.295C50.514 141.295 52.367 146.68 52.1817 147.609C51.9964 148.537 52.923 151.508 52.7377 151.88C52.5523 152.251 43.843 151.88 43.843 151.88L45.6961 121.984L51.4405 80.3889L59.3986 80.334Z" fill="#2F2E41"/>
<path d="M43.1642 150.361C43.1642 150.361 39.278 160.181 41.3056 161.367C43.3332 162.552 64.6227 161.705 64.6227 161.705C64.6227 161.705 68.171 159.504 64.1158 157.98C64.1158 157.98 60.7365 157.811 58.54 156.456C56.3435 155.102 53.809 152.562 53.809 152.562C53.809 152.562 53.6401 148.837 52.2883 149.684C51.8839 149.951 51.5397 150.3 51.2778 150.708C51.0159 151.116 50.8422 151.575 50.7677 152.054L43.1642 150.361Z" fill="#2F2E41"/>
<path d="M37.1721 149.029C37.1721 149.029 32.9101 159.799 35.1337 161.099C37.3574 162.399 60.7058 161.471 60.7058 161.471C60.7058 161.471 64.5972 159.057 60.1499 157.385C60.1499 157.385 56.4438 157.2 54.0349 155.714C51.6259 154.229 48.8463 151.443 48.8463 151.443C48.8463 151.443 48.661 147.358 47.1786 148.287C46.7351 148.58 46.3576 148.962 46.0703 149.41C45.7831 149.857 45.5925 150.36 45.5108 150.886L37.1721 149.029Z" fill="#2F2E41"/>
<path d="M54.4055 79.9529C54.4055 79.9529 52.3671 99.079 51.4406 103.164C50.8581 105.854 50.4863 108.586 50.3288 111.335C50.3288 111.335 50.1435 117.277 48.4757 118.948C47.9878 119.432 47.6044 120.012 47.3494 120.65C47.0943 121.289 46.9731 121.974 46.9933 122.662C46.9933 122.662 45.3255 141.416 46.2521 143.645C47.1786 145.873 48.4364 148.768 47.5099 150.253C46.5834 151.739 36.0603 150.701 36.0603 149.587C36.0603 148.473 36.0603 147.544 35.5044 146.987C34.9485 146.43 35.5044 142.902 35.5044 142.902C35.5044 142.902 33.2807 126.376 35.3191 121.548C37.3574 116.72 38.284 103.536 38.284 103.536C38.284 103.536 36.8015 88.4947 34.9485 86.0807C33.0954 83.6668 35.3191 75.125 35.3191 75.125L54.4055 79.9529Z" fill="#2F2E41"/>
<path d="M49.1884 20.558C49.4038 21.0498 49.9194 21.3236 50.3888 21.5827C53.1095 23.0847 55.3868 25.2623 57.6305 27.4148C57.0706 25.5136 57.1899 23.4763 57.9678 21.6537C58.2357 21.0321 58.5868 20.3639 58.3953 19.7145C58.2064 19.2503 57.878 18.8566 57.4557 18.5879C56.5401 17.8784 55.5832 17.2242 54.59 16.6287C53.8962 16.2128 52.4697 15.1054 51.6735 15.2259C51.6317 16.3039 51.6099 17.2677 51.1388 18.2753C51.027 18.5143 49.2707 20.746 49.1884 20.558Z" fill="#A0616A"/>
<path d="M58.6673 22.9459C62.8633 22.9459 66.2648 19.5373 66.2648 15.3325C66.2648 11.1278 62.8633 7.71924 58.6673 7.71924C54.4713 7.71924 51.0698 11.1278 51.0698 15.3325C51.0698 19.5373 54.4713 22.9459 58.6673 22.9459Z" fill="#A0616A"/>
<path d="M59.0381 33.3446C59.0381 33.3446 60.3353 26.8454 56.6292 24.6171C52.9231 22.3889 48.6611 19.7892 48.6611 19.7892C48.6611 19.7892 47.3639 19.6035 46.808 22.3889C46.808 22.3889 36.2456 24.4315 35.1338 34.4588C34.022 44.486 35.875 59.1556 35.875 59.1556C35.875 59.1556 34.2073 71.9682 32.1689 78.8388C32.1689 78.8388 30.5012 80.3243 37.9134 78.096C45.3256 75.8677 58.2969 84.4094 58.2969 84.4094C58.2969 84.4094 59.594 83.1096 59.594 82.1812C59.594 81.2527 62.3736 53.0278 62.9295 50.4281C63.4854 47.8284 60.7059 33.716 59.0381 33.3446Z" fill="#E6E6E6"/>
<path d="M56.8768 16.1168C57.3332 15.8633 57.8451 15.7267 58.3669 15.7192C58.8893 15.7113 59.3993 15.559 59.8408 15.279C60.5585 14.7269 60.6111 13.6599 61.1362 12.9215C61.8963 11.8525 63.4126 11.7238 64.7215 11.7773C65.522 11.81 66.3841 11.858 67.0582 11.4241C67.7502 10.9787 68.0639 10.1394 68.2973 9.34909C68.5732 8.41447 68.7517 7.27152 68.0679 6.57835C67.5931 6.09702 66.8436 6.00181 66.3161 5.5791C66.0306 5.35031 62.2569 4.43163 58.7143 3.60559C56.9507 3.195 55.098 3.44618 53.5067 4.31163C51.9154 5.17708 50.6956 6.59682 50.0781 8.30241C49.2601 10.5564 48.559 12.6743 48.6314 13.1317C48.9777 15.3211 50.9099 17.0614 51.043 19.274C51.1699 18.663 51.4462 18.0932 51.8471 17.6155C52.2479 17.1379 52.7608 16.7674 53.3397 16.5373C53.4849 16.4662 53.6497 16.4462 53.8077 16.4805C53.9996 16.5419 54.1118 16.7341 54.233 16.8955C54.5504 17.3184 55.5476 17.96 56.1128 17.66C56.6185 17.3915 56.241 16.549 56.8768 16.1168Z" fill="#3F3D56"/>
<path d="M60.351 56.1439C60.192 56.3002 60.101 56.513 60.0978 56.7362C60.0945 56.9593 60.1793 57.1747 60.3337 57.3356L65.6762 62.8765C65.7539 62.957 65.8468 63.0213 65.9495 63.0656C66.0522 63.1098 66.1626 63.1332 66.2744 63.1343C66.3862 63.1354 66.4971 63.1141 66.6007 63.0719C66.7042 63.0296 66.7984 62.9671 66.8776 62.8881L83.1797 46.6228C83.2688 46.5339 83.3369 46.4262 83.3791 46.3076C83.4212 46.189 83.4364 46.0624 83.4235 45.9371C83.4106 45.8119 83.3699 45.6911 83.3044 45.5836C83.2389 45.4761 83.1502 45.3846 83.0449 45.3159L76.6346 41.132C76.4743 41.0263 76.2826 40.9789 76.0916 40.9977C75.9006 41.0165 75.7219 41.1005 75.5852 41.2355L60.351 56.1439Z" fill="#3F3D56"/>
<path d="M83.2917 45.563C83.2594 45.6128 83.2219 45.659 83.1799 45.7009L66.9161 62.2736C66.8369 62.3526 66.7427 62.4151 66.6392 62.4573C66.5357 62.4996 66.4248 62.5208 66.313 62.5197C66.2012 62.5186 66.0907 62.4953 65.988 62.451C65.8853 62.4068 65.7924 62.3425 65.7147 62.2619L60.2573 56.4906C60.2201 56.4518 60.1867 56.4096 60.1575 56.3645C60.0664 56.5209 60.0341 56.7047 60.0665 56.8828C60.0988 57.0608 60.1937 57.2215 60.3339 57.3356L65.6764 62.8765C65.754 62.9571 65.8469 63.0213 65.9497 63.0656C66.0524 63.1099 66.1628 63.1332 66.2746 63.1343C66.3864 63.1354 66.4973 63.1142 66.6009 63.0719C66.7044 63.0296 66.7985 62.9672 66.8778 62.8881L83.1799 46.6228C83.3171 46.4858 83.4031 46.3057 83.4235 46.1128C83.4438 45.9198 83.3973 45.7257 83.2917 45.563H83.2917Z" fill="#4D2389"/>
<path d="M81.7822 45.7632L81.1188 45.3394C81.1887 45.4641 81.2144 45.609 81.1916 45.7502C81.1689 45.8915 81.0991 46.0209 80.9936 46.1173C80.8881 46.2137 80.7532 46.2715 80.6107 46.2813C80.4683 46.291 80.3267 46.2522 80.2091 46.171L75.9162 43.2135C75.8186 43.1463 75.7418 43.0531 75.6945 42.9444C75.6473 42.8356 75.6314 42.7158 75.6488 42.5984C75.6662 42.4811 75.7162 42.3711 75.793 42.2808C75.8698 42.1906 75.9703 42.1238 76.0832 42.088L75.7414 41.8696C75.6971 41.8413 75.6443 41.8291 75.5921 41.8349C75.5398 41.8408 75.4911 41.8645 75.4542 41.902L61.0124 56.1239C60.9908 56.1457 60.9739 56.1717 60.9625 56.2002C60.9511 56.2287 60.9455 56.2592 60.946 56.2899C60.9466 56.3207 60.9532 56.351 60.9656 56.3791C60.978 56.4071 60.9959 56.4325 61.0182 56.4536L66.2631 61.5748C66.3066 61.6158 66.3643 61.6383 66.4241 61.6375C66.4838 61.6367 66.5409 61.6126 66.5832 61.5703L81.821 46.1208C81.8454 46.0964 81.864 46.0668 81.8755 46.0343C81.8869 46.0017 81.891 45.967 81.8873 45.9327C81.8835 45.8984 81.8722 45.8653 81.854 45.836C81.8358 45.8066 81.8113 45.7818 81.7822 45.7632Z" fill="white"/>
<path d="M65.1141 52.9837L69.5444 57.1696L80.082 46.7366L74.734 43.2485L65.1141 52.9837Z" fill="#E6E6E6"/>
<path d="M79.6727 49.3117C79.7019 49.3396 79.7407 49.3552 79.7811 49.3552C79.8215 49.3552 79.8603 49.3396 79.8895 49.3117L80.811 48.3882C80.8397 48.3594 80.8559 48.3203 80.8559 48.2796C80.8559 48.2389 80.8397 48.1998 80.811 48.171C80.7818 48.143 80.743 48.1274 80.7026 48.1274C80.6622 48.1274 80.6234 48.143 80.5942 48.171L79.6727 49.0944C79.644 49.1232 79.6279 49.1623 79.6279 49.203C79.6279 49.2437 79.644 49.2828 79.6727 49.3117Z" fill="#3F3D56"/>
<path d="M78.1202 50.867C78.149 50.8958 78.1879 50.9119 78.2286 50.9119C78.2692 50.9119 78.3082 50.8958 78.337 50.867L79.2585 49.9436C79.2871 49.9147 79.3032 49.8757 79.3031 49.835C79.303 49.7944 79.2869 49.7554 79.2582 49.7266C79.2295 49.6979 79.1906 49.6817 79.15 49.6816C79.1094 49.6816 79.0705 49.6976 79.0417 49.7263L78.1202 50.6497C78.0915 50.6786 78.0753 50.7176 78.0753 50.7584C78.0753 50.7991 78.0915 50.8382 78.1202 50.867Z" fill="#3F3D56"/>
<path d="M65.2163 57.6137C65.7879 57.6137 66.2512 57.1494 66.2512 56.5766C66.2512 56.0039 65.7879 55.5396 65.2163 55.5396C64.6447 55.5396 64.1814 56.0039 64.1814 56.5766C64.1814 57.1494 64.6447 57.6137 65.2163 57.6137Z" fill="#4D2389"/>
<path d="M37.728 50.7991C37.728 50.7991 36.4308 58.9695 41.8047 58.2267C41.8047 58.2267 63.1147 53.3988 64.2265 54.5129C65.3384 55.6271 72.2505 56.0063 71.89 51.3092C71.5282 46.5962 64.5972 49.3136 64.5972 49.3136C64.5972 49.3136 53.8495 50.7991 51.6258 49.685C49.4022 48.5708 43.1018 48.9422 43.1018 48.9422L37.728 50.7991Z" fill="#A0616A"/>
<path d="M45.3255 24.9883C45.3255 24.9883 36.9868 25.9167 36.9868 37.9866V53.3989L47.1785 49.128C47.1785 49.128 51.4405 39.1008 51.0699 36.3154C50.6993 33.53 50.8846 25.3597 45.3255 24.9883Z" fill="#E6E6E6"/>
</g>
<defs>
<clipPath id="clip0">
<rect width="266" height="162" fill="white"/>
</clipPath>
</defs>
</svg>
