<svg width="267" height="186" viewBox="0 0 267 186" fill="none" xmlns="http://www.w3.org/2000/svg">
<g clip-path="url(#clip0)">
<path d="M265.188 79.0675C265.188 56.9623 247.329 4.50781 225.3 4.50781C203.27 4.50781 185.412 56.9623 185.412 79.0675C185.419 89.6856 189.624 99.8665 197.104 107.372C204.583 114.878 214.725 119.094 225.3 119.094C235.874 119.094 246.016 114.878 253.496 107.372C260.976 99.8665 265.181 89.6856 265.188 79.0675Z" fill="#F2F2F2"/>
<path d="M225.3 176.443C225.387 176.443 225.47 176.409 225.532 176.347C225.593 176.285 225.628 176.202 225.628 176.114V38.1213C225.628 38.034 225.593 37.9502 225.532 37.8885C225.47 37.8267 225.387 37.792 225.3 37.792C225.213 37.792 225.13 37.8267 225.068 37.8885C225.006 37.9502 224.972 38.034 224.972 38.1213V176.114C224.972 176.202 225.007 176.285 225.068 176.347C225.13 176.409 225.213 176.443 225.3 176.443Z" fill="#E6E6E6"/>
<path d="M225.3 64.7624C225.343 64.7625 225.386 64.754 225.425 64.7374C225.465 64.7209 225.501 64.6966 225.532 64.666L241.319 48.8242C241.35 48.7937 241.375 48.7574 241.392 48.7174C241.408 48.6773 241.417 48.6343 241.417 48.5908C241.418 48.5473 241.409 48.5042 241.393 48.464C241.376 48.4238 241.352 48.3873 241.321 48.3566C241.291 48.3259 241.254 48.3015 241.214 48.285C241.174 48.2685 241.131 48.26 241.088 48.2603C241.045 48.2605 241.002 48.2693 240.962 48.2862C240.922 48.3031 240.886 48.3278 240.855 48.3588L225.068 64.2006C225.022 64.2466 224.991 64.3053 224.978 64.3692C224.966 64.433 224.972 64.4992 224.997 64.5593C225.022 64.6195 225.064 64.6709 225.118 64.707C225.172 64.7432 225.235 64.7624 225.3 64.7624Z" fill="#E6E6E6"/>
<path d="M225.3 92.1873C225.365 92.1874 225.428 92.1681 225.482 92.1319C225.536 92.0958 225.578 92.0444 225.603 91.9843C225.628 91.9241 225.634 91.8579 225.621 91.7941C225.609 91.7302 225.578 91.6716 225.532 91.6255L199.093 65.0954C199.031 65.0345 198.948 65.0006 198.861 65.001C198.775 65.0013 198.692 65.036 198.631 65.0973C198.57 65.1587 198.535 65.2418 198.535 65.3286C198.534 65.4154 198.568 65.4988 198.629 65.5608L225.068 92.0909C225.098 92.1215 225.134 92.1458 225.174 92.1624C225.214 92.1789 225.257 92.1874 225.3 92.1873Z" fill="#E6E6E6"/>
<path d="M249.028 185.065C248.971 185.11 248.912 185.149 248.854 185.193H199.953C198.995 181.297 198.657 177.397 200.088 174.011C202.127 169.185 208.162 166.172 212.96 168.245C214.097 168.749 215.087 169.535 215.838 170.53C217.713 167.162 221.077 164.622 224.959 164.625C229.823 164.628 233.867 168.62 235.187 173.23C237.312 169.631 241.51 167.115 245.613 168.197C252.475 170.007 254.643 180.712 249.028 185.065Z" fill="#F2F2F2"/>
<path d="M124.323 92.773C124.774 92.8918 125.193 93.1085 125.552 93.4078C125.91 93.707 126.199 94.0815 126.398 94.5049C126.597 94.9284 126.7 95.3904 126.702 95.8585C126.704 96.3266 126.603 96.7893 126.407 97.2142L134.564 105.113L128.818 106.406L121.953 98.7072C121.264 98.3298 120.737 97.7116 120.472 96.97C120.206 96.2284 120.221 95.4147 120.513 94.6832C120.805 93.9518 121.355 93.3533 122.057 93.0012C122.759 92.6491 123.565 92.5679 124.323 92.773Z" fill="#FFB8B8"/>
<path d="M135.793 113.55L125.731 104.072C125.592 103.941 125.481 103.783 125.403 103.609C125.326 103.434 125.284 103.245 125.281 103.054C125.277 102.863 125.311 102.673 125.382 102.495C125.453 102.318 125.558 102.156 125.692 102.02L127.747 99.9306C127.991 99.6829 128.316 99.533 128.663 99.5087C129.009 99.4845 129.352 99.5877 129.628 99.7989L138.061 106.27L143.321 93.4585C143.529 92.9529 143.838 92.4956 144.228 92.1146C144.619 91.7336 145.083 91.4371 145.593 91.2435C146.102 91.0498 146.645 90.9632 147.189 90.9888C147.733 91.0144 148.266 91.1517 148.755 91.3924C149.526 91.7669 150.155 92.3823 150.548 93.1463C150.941 93.9103 151.076 94.7817 150.934 95.6295C149.979 101.457 144.196 109.161 140.833 113.234C140.374 113.789 139.755 114.188 139.061 114.375C138.367 114.562 137.632 114.528 136.958 114.279C136.525 114.116 136.129 113.869 135.793 113.55Z" fill="#6A4796"/>
<path d="M130.147 104.355L122.739 93.566C122.643 93.4269 122.607 93.2556 122.637 93.0895C122.668 92.9235 122.763 92.7763 122.901 92.6803L123.199 92.4743C123.267 92.4268 123.344 92.3934 123.426 92.3759C123.507 92.3584 123.591 92.3572 123.673 92.3723C123.755 92.3875 123.833 92.4186 123.903 92.4641C123.973 92.5095 124.033 92.5684 124.081 92.6372L131.489 103.427C131.536 103.495 131.569 103.573 131.587 103.655C131.604 103.736 131.605 103.821 131.59 103.903C131.575 103.985 131.544 104.064 131.499 104.134C131.454 104.204 131.395 104.265 131.327 104.312L131.029 104.518C130.89 104.614 130.72 104.651 130.554 104.62C130.389 104.589 130.242 104.494 130.147 104.355Z" fill="white"/>
<path d="M128.076 104.436L121.928 95.4812C121.666 95.0987 121.566 94.6274 121.649 94.1707C121.733 93.7141 121.993 93.3094 122.374 93.0454L123 92.6118L131.128 104.45L130.502 104.883H130.502C130.121 105.147 129.651 105.247 129.197 105.163C128.742 105.079 128.339 104.818 128.076 104.436Z" fill="#3F3D56"/>
<path d="M128.819 181.723L124.958 181.275L125.469 166.178L130.539 166.766L128.819 181.723Z" fill="#FFB8B8"/>
<path d="M129.372 185.596L116.92 184.152L116.938 183.994C117.012 183.355 117.21 182.737 117.521 182.175C117.832 181.612 118.251 181.117 118.753 180.717C119.255 180.318 119.831 180.021 120.447 179.845C121.063 179.668 121.708 179.615 122.344 179.689L122.345 179.689L129.95 180.57L129.372 185.596Z" fill="#2F2E41"/>
<path d="M173.728 178.856L170.014 180.008L163.821 166.17L169.303 164.469L173.728 178.856Z" fill="#FFB8B8"/>
<path d="M175.788 182.177L163.811 185.892L163.764 185.739C163.575 185.125 163.508 184.479 163.568 183.838C163.628 183.198 163.812 182.575 164.111 182.006C164.41 181.437 164.818 180.933 165.312 180.522C165.805 180.112 166.374 179.802 166.986 179.613L166.986 179.613L174.301 177.344L175.788 182.177Z" fill="#2F2E41"/>
<path d="M124.508 178.242C124.116 178.121 123.786 177.85 123.589 177.489C123.391 177.127 123.342 176.703 123.45 176.306L125.778 149.397C125.886 148.17 126.27 146.983 126.902 145.927L140.994 122.444L153.604 124.719L153.686 124.753C159.814 128.522 165.255 146.798 170.518 164.472C171.336 167.22 172.182 170.062 173.008 172.778C173.162 173.166 173.158 173.599 172.998 173.984C172.838 174.369 172.535 174.676 172.153 174.84L168.334 176.454C167.973 176.608 167.567 176.621 167.196 176.491C166.825 176.361 166.515 176.097 166.328 175.75L146.699 139.666C146.674 139.621 146.639 139.582 146.597 139.554C146.554 139.525 146.506 139.507 146.455 139.502C146.404 139.495 146.353 139.502 146.305 139.52C146.258 139.539 146.216 139.569 146.183 139.608L134.791 152.551L130.605 177.218L130.588 177.272C130.437 177.624 130.164 177.91 129.819 178.077C129.475 178.244 129.082 178.28 128.713 178.179L124.607 178.257L124.581 178.257L124.508 178.242Z" fill="#2F2E41"/>
<path d="M140.312 125.017L140.232 124.992L140.208 124.911C140.149 124.715 134.386 105.131 139.58 92.6452L139.585 92.6338C139.737 92.3366 143.36 85.3465 147.57 84.6471L147.682 84.6284L149.05 87.1974C149.48 87.6304 156.887 95.3523 153.525 108.625C153.827 109.713 157.917 124.656 155.693 126.889C155.192 127.392 154.187 127.588 152.918 127.588C148.452 127.588 140.728 125.15 140.312 125.017Z" fill="#6A4796"/>
<path d="M146.702 82.1993C152.131 82.1993 156.532 77.78 156.532 72.3286C156.532 66.8772 152.131 62.458 146.702 62.458C141.273 62.458 136.872 66.8772 136.872 72.3286C136.872 77.78 141.273 82.1993 146.702 82.1993Z" fill="#2F2E41"/>
<path d="M142.797 82.1521C147.099 82.1521 150.585 78.6507 150.585 74.3316C150.585 70.0125 147.099 66.5112 142.797 66.5112C138.496 66.5112 135.009 70.0125 135.009 74.3316C135.009 78.6507 138.496 82.1521 142.797 82.1521Z" fill="#FFB8B8"/>
<path d="M147.809 81.9284C147.098 82.1814 146.227 82.4045 145.668 81.8797C145.122 81.3675 145.221 80.4307 145.543 79.7405C145.865 79.0504 146.363 78.4362 146.516 77.6851C146.735 76.6085 146.169 75.49 145.36 74.7881C144.551 74.0863 143.533 73.7176 142.539 73.3628L137.087 71.4167C135.737 70.935 134.283 70.3692 133.528 69.1015C132.435 67.2673 133.434 64.6454 135.227 63.5751C137.019 62.5048 139.283 62.7042 141.217 63.4568C142.286 63.873 143.304 64.4466 144.41 64.7396C146.593 65.3179 149.075 64.7991 150.994 66.0351C152.663 67.1109 153.438 69.3062 153.382 71.3602C153.325 73.4142 152.572 75.3704 151.778 77.2489C151.305 78.3665 150.8 79.4969 150 80.3858C149.199 81.2747 148.042 81.8965 146.887 81.733L147.809 81.9284Z" fill="#2F2E41"/>
<path d="M154.947 73.9208C158.45 73.9208 161.289 71.0697 161.289 67.5527C161.289 64.0357 158.45 61.1846 154.947 61.1846C151.444 61.1846 148.605 64.0357 148.605 67.5527C148.605 71.0697 151.444 73.9208 154.947 73.9208Z" fill="#2F2E41"/>
<path d="M144.482 76.7865C144.482 76.6709 144.513 76.5575 144.573 76.4584C144.632 76.3592 144.717 76.2781 144.818 76.2238C144.92 76.1694 145.034 76.1438 145.149 76.1498C145.264 76.1557 145.375 76.193 145.471 76.2575C145.566 76.3221 145.643 76.4115 145.691 76.5162C145.74 76.6209 145.759 76.737 145.747 76.8519C145.735 76.9669 145.693 77.0764 145.623 77.1687C145.554 77.2611 145.461 77.3327 145.354 77.3761V78.7765C145.354 78.8399 145.329 78.9006 145.285 78.9454C145.24 78.9902 145.18 79.0153 145.117 79.0153C145.054 79.0153 144.993 78.9902 144.948 78.9454C144.904 78.9006 144.879 78.8399 144.879 78.7765V77.3761C144.762 77.3286 144.662 77.2471 144.591 77.1421C144.52 77.0371 144.482 76.9132 144.482 76.7865Z" fill="white"/>
<path d="M124.709 99.4572C125.173 99.4108 125.641 99.4671 126.081 99.6221C126.521 99.7771 126.922 100.027 127.255 100.354C127.588 100.682 127.846 101.078 128.01 101.517C128.174 101.955 128.24 102.424 128.204 102.89L138.591 107.439L133.654 110.662L124.548 105.849C123.771 105.736 123.062 105.341 122.556 104.739C122.05 104.137 121.781 103.369 121.801 102.581C121.821 101.793 122.128 101.04 122.664 100.464C123.2 99.8886 123.927 99.5302 124.709 99.4572V99.4572Z" fill="#FFB8B8"/>
<path d="M142.672 114.917L129.95 109.554C129.775 109.48 129.616 109.372 129.483 109.235C129.35 109.098 129.245 108.936 129.175 108.758C129.105 108.58 129.072 108.39 129.076 108.199C129.081 108.008 129.124 107.819 129.202 107.645L130.402 104.968C130.545 104.65 130.798 104.395 131.115 104.251C131.431 104.108 131.788 104.084 132.12 104.185L142.27 107.299L142.754 93.4503C142.773 92.9038 142.904 92.3671 143.137 91.8733C143.371 91.3795 143.704 90.9391 144.114 90.5794C144.524 90.2197 145.003 89.9482 145.522 89.7819C146.041 89.6155 146.588 89.5577 147.13 89.6121C147.982 89.6934 148.785 90.0501 149.419 90.6287C150.052 91.2073 150.481 91.9766 150.642 92.8211C151.77 98.6172 149.024 107.862 147.286 112.857C147.048 113.538 146.606 114.128 146.021 114.546C145.435 114.964 144.735 115.19 144.016 115.192C143.554 115.191 143.097 115.098 142.672 114.917Z" fill="#6A4796"/>
<path d="M87.8374 186H266.683C266.767 186 266.848 185.967 266.907 185.907C266.967 185.847 267 185.766 267 185.682C267 185.597 266.967 185.516 266.907 185.457C266.848 185.397 266.767 185.363 266.683 185.363H87.8374C87.7533 185.363 87.6726 185.397 87.6131 185.457C87.5537 185.516 87.5203 185.597 87.5203 185.682C87.5203 185.766 87.5537 185.847 87.6131 185.907C87.6726 185.967 87.7533 186 87.8374 186Z" fill="#3F3D56"/>
<path d="M56.0111 117.314C56.0111 105.807 46.715 78.5024 35.2477 78.5024C23.7804 78.5024 14.4844 105.807 14.4844 117.314C14.4874 122.841 16.6763 128.141 20.5699 132.049C24.4634 135.956 29.7429 138.151 35.2477 138.151C40.7525 138.151 46.032 135.956 49.9256 132.049C53.8191 128.141 56.008 122.841 56.0111 117.314Z" fill="#F2F2F2"/>
<path d="M35.2475 166.692C35.2775 166.692 35.3071 166.686 35.3348 166.675C35.3624 166.663 35.3876 166.647 35.4087 166.625C35.4299 166.604 35.4467 166.579 35.4582 166.551C35.4697 166.523 35.4756 166.494 35.4756 166.464V86.1329C35.4753 86.0723 35.4512 86.0143 35.4085 85.9716C35.3657 85.9288 35.3079 85.9048 35.2475 85.9048C35.1872 85.9048 35.1294 85.9288 35.0866 85.9716C35.0439 86.0143 35.0198 86.0723 35.0195 86.1329V166.464C35.0195 166.494 35.0254 166.523 35.0369 166.551C35.0484 166.579 35.0652 166.604 35.0863 166.625C35.1075 166.647 35.1327 166.663 35.1603 166.675C35.188 166.686 35.2176 166.692 35.2475 166.692Z" fill="#E6E6E6"/>
<path d="M35.2477 104.335C35.2777 104.335 35.3073 104.329 35.335 104.318C35.3627 104.306 35.3878 104.289 35.409 104.268L46.3845 93.2549C46.4272 93.212 46.4512 93.1537 46.4512 93.093C46.4511 93.0323 46.4271 92.9741 46.3843 92.9312C46.3416 92.8883 46.2836 92.8642 46.2231 92.8643C46.1627 92.8643 46.1047 92.8884 46.062 92.9314L35.0865 103.945C35.0546 103.977 35.0329 104.017 35.0241 104.062C35.0154 104.106 35.0199 104.152 35.0371 104.194C35.0544 104.236 35.0836 104.271 35.1211 104.297C35.1586 104.322 35.2027 104.335 35.2477 104.335Z" fill="#E6E6E6"/>
<path d="M35.2476 123.401C35.2927 123.401 35.3368 123.388 35.3742 123.363C35.4117 123.337 35.441 123.302 35.4582 123.26C35.4755 123.218 35.48 123.172 35.4712 123.128C35.4624 123.083 35.4407 123.043 35.4089 123.011L21.7849 109.661C21.7422 109.618 21.6842 109.594 21.6238 109.594C21.5633 109.594 21.5053 109.618 21.4626 109.661C21.4198 109.704 21.3958 109.762 21.3958 109.823C21.3957 109.884 21.4197 109.942 21.4624 109.985L35.0864 123.334C35.1075 123.355 35.1327 123.372 35.1603 123.384C35.188 123.395 35.2177 123.401 35.2476 123.401Z" fill="#E6E6E6"/>
<path d="M51.7437 172.686C51.7041 172.717 51.6624 172.745 51.6223 172.775H17.6265C16.9604 170.066 16.7252 167.355 17.7202 165.001C19.1378 161.646 23.3335 159.552 26.6692 160.993C27.4594 161.343 28.1478 161.89 28.6697 162.581C29.9732 160.239 32.3115 158.474 35.0106 158.476C38.392 158.478 41.2035 161.253 42.1209 164.458C43.5984 161.956 46.5167 160.207 49.369 160.96C54.1398 162.218 55.6468 169.659 51.7437 172.686Z" fill="#F2F2F2"/>
<path d="M0.317102 173.264H70.3967C70.4808 173.264 70.5614 173.23 70.6209 173.171C70.6804 173.111 70.7138 173.03 70.7138 172.945C70.7138 172.861 70.6804 172.78 70.6209 172.72C70.5614 172.661 70.4808 172.627 70.3967 172.627H0.317102C0.233001 172.627 0.152345 172.661 0.0928768 172.72C0.0334086 172.78 0 172.861 0 172.945C0 173.03 0.0334086 173.111 0.0928768 173.171C0.152345 173.23 0.233001 173.264 0.317102 173.264Z" fill="#CCCCCC"/>
<path d="M122.255 66.8655H11.9036C10.5164 66.864 9.18647 66.31 8.20559 65.325C7.2247 64.3401 6.67295 63.0047 6.67139 61.6118V5.25372C6.67295 3.86083 7.2247 2.52544 8.20559 1.54052C9.18647 0.555594 10.5164 0.00157257 11.9036 0H122.255C123.642 0.00157341 124.972 0.555594 125.953 1.54052C126.934 2.52544 127.486 3.86083 127.487 5.25372V61.6118C127.486 63.0047 126.934 64.3401 125.953 65.325C124.972 66.31 123.642 66.864 122.255 66.8655Z" fill="#E6E6E6"/>
<path d="M120.987 63.0446H13.1722C12.4576 63.0438 11.7724 62.7584 11.2671 62.251C10.7618 61.7436 10.4776 61.0557 10.4768 60.3381V6.52726C10.4776 5.80971 10.7618 5.12178 11.2671 4.61439C11.7724 4.107 12.4576 3.8216 13.1722 3.8208H120.987C121.702 3.8216 122.387 4.107 122.892 4.61439C123.397 5.12178 123.681 5.80971 123.682 6.52726V60.3381C123.681 61.0557 123.397 61.7436 122.892 62.251C122.387 62.7584 121.702 63.0438 120.987 63.0446Z" fill="white"/>
<path d="M114.743 76.6308L102.618 64.4556L118.163 64.8502V75.2083C118.167 75.6071 118.051 75.9979 117.831 76.3295C117.61 76.6611 117.295 76.9181 116.926 77.0669C116.679 77.1706 116.415 77.2244 116.147 77.2251C115.885 77.2243 115.627 77.1713 115.386 77.0693C115.145 76.9672 114.926 76.8182 114.743 76.6308Z" fill="#E6E6E6"/>
<path d="M107.86 31.0198H53.3183C52.6455 31.0198 52.0003 30.7514 51.5245 30.2737C51.0488 29.796 50.7815 29.1481 50.7815 28.4726C50.7815 27.797 51.0488 27.1491 51.5245 26.6714C52.0003 26.1937 52.6455 25.9253 53.3183 25.9253H107.86C108.533 25.9253 109.178 26.1937 109.654 26.6714C110.129 27.1491 110.397 27.797 110.397 28.4726C110.397 29.1481 110.129 29.796 109.654 30.2737C109.178 30.7514 108.533 31.0198 107.86 31.0198Z" fill="#CCCCCC"/>
<path d="M90.1019 20.1936H53.3181C52.6453 20.1936 52 19.9253 51.5243 19.4476C51.0485 18.9699 50.7812 18.322 50.7812 17.6464C50.7812 16.9708 51.0485 16.3229 51.5243 15.8452C52 15.3675 52.6453 15.0991 53.3181 15.0991H90.1019C90.7747 15.0991 91.42 15.3675 91.8957 15.8452C92.3715 16.3229 92.6387 16.9708 92.6387 17.6464C92.6387 18.322 92.3715 18.9699 91.8957 19.4476C91.42 19.9253 90.7747 20.1936 90.1019 20.1936Z" fill="#CCCCCC"/>
<path d="M30.7403 31.0195C35.1186 31.0195 38.6679 27.4556 38.6679 23.0593C38.6679 18.663 35.1186 15.0991 30.7403 15.0991C26.362 15.0991 22.8127 18.663 22.8127 23.0593C22.8127 27.4556 26.362 31.0195 30.7403 31.0195Z" fill="#6A4796"/>
<path d="M91.0517 51.7664C92.4528 51.7664 93.5885 50.6259 93.5885 49.2191C93.5885 47.8123 92.4528 46.6719 91.0517 46.6719C89.6507 46.6719 88.5149 47.8123 88.5149 49.2191C88.5149 50.6259 89.6507 51.7664 91.0517 51.7664Z" fill="#E6E6E6"/>
<path d="M99.9306 51.7664C101.332 51.7664 102.467 50.6259 102.467 49.2191C102.467 47.8123 101.332 46.6719 99.9306 46.6719C98.5296 46.6719 97.3938 47.8123 97.3938 49.2191C97.3938 50.6259 98.5296 51.7664 99.9306 51.7664Z" fill="#E6E6E6"/>
<path d="M108.809 51.7664C110.21 51.7664 111.346 50.6259 111.346 49.2191C111.346 47.8123 110.21 46.6719 108.809 46.6719C107.408 46.6719 106.272 47.8123 106.272 49.2191C106.272 50.6259 107.408 51.7664 108.809 51.7664Z" fill="#E6E6E6"/>
</g>
<defs>
<clipPath id="clip0">
<rect width="267" height="186" fill="white"/>
</clipPath>
</defs>
</svg>
