<svg width="302" height="190" viewBox="0 0 302 190" fill="none" xmlns="http://www.w3.org/2000/svg">
<g clip-path="url(#clip0)">
<path d="M259.263 153.6H32.6437C31.0968 153.598 29.6136 152.983 28.5198 151.89C27.4259 150.797 26.8106 149.314 26.8088 147.768V8.09223C26.8101 6.95941 27.2609 5.87334 28.0622 5.07229C28.8636 4.27124 29.9501 3.82064 31.0835 3.81934H260.75C261.903 3.82065 263.008 4.27903 263.823 5.09392C264.638 5.90882 265.097 7.01368 265.098 8.1661V147.768C265.097 149.314 264.481 150.797 263.387 151.89C262.294 152.983 260.81 153.598 259.263 153.6Z" fill="#F2F2F2"/>
<path d="M250.997 146.401H39.793C36.697 146.401 34.1782 144.044 34.1782 141.146V19.5144C34.1782 17.3652 36.0447 15.6167 38.3389 15.6167H252.382C254.714 15.6167 256.611 17.3941 256.611 19.5786V141.146C256.611 144.044 254.093 146.401 250.997 146.401Z" fill="white"/>
<path d="M265.017 8.81919H26.7271V5.84988C26.7293 4.29846 27.3471 2.81127 28.445 1.71459C29.5428 0.617903 31.0311 0.0012808 32.5832 0H259.161C260.713 0.00127333 262.201 0.61789 263.299 1.71458C264.397 2.81126 265.015 4.29846 265.017 5.84988V8.81919Z" fill="#6A4796"/>
<path d="M37.3697 5.93243C38.2063 5.93243 38.8845 5.25456 38.8845 4.41836C38.8845 3.58217 38.2063 2.9043 37.3697 2.9043C36.5332 2.9043 35.855 3.58217 35.855 4.41836C35.855 5.25456 36.5332 5.93243 37.3697 5.93243Z" fill="white"/>
<path d="M43.1192 5.93243C43.9558 5.93243 44.634 5.25456 44.634 4.41836C44.634 3.58217 43.9558 2.9043 43.1192 2.9043C42.2827 2.9043 41.6045 3.58217 41.6045 4.41836C41.6045 5.25456 42.2827 5.93243 43.1192 5.93243Z" fill="white"/>
<path d="M48.8687 5.93243C49.7053 5.93243 50.3835 5.25456 50.3835 4.41836C50.3835 3.58217 49.7053 2.9043 48.8687 2.9043C48.0322 2.9043 47.354 3.58217 47.354 4.41836C47.354 5.25456 48.0322 5.93243 48.8687 5.93243Z" fill="white"/>
<path d="M139.147 130.708H65.6492C64.0085 130.706 62.4355 130.054 61.2753 128.894C60.1152 127.735 59.4626 126.162 59.4607 124.522V35.7465C59.4621 34.5199 59.9501 33.344 60.8178 32.4767C61.6855 31.6094 62.8619 31.1215 64.089 31.1201H140.633C141.88 31.1215 143.075 31.6172 143.957 32.4984C144.838 33.3795 145.334 34.5742 145.336 35.8204V124.522C145.334 126.162 144.681 127.735 143.521 128.894C142.361 130.054 140.788 130.706 139.147 130.708ZM64.089 31.8271C63.0494 31.8283 62.0527 32.2416 61.3176 32.9764C60.5826 33.7111 60.1691 34.7074 60.168 35.7465V124.522C60.1696 125.975 60.7476 127.367 61.7752 128.395C62.8028 129.422 64.196 129.999 65.6492 130.001H139.147C140.6 129.999 141.994 129.422 143.021 128.395C144.049 127.367 144.627 125.975 144.628 124.522V35.8204C144.627 34.7616 144.206 33.7466 143.457 32.998C142.708 32.2494 141.693 31.8283 140.633 31.8271H64.089Z" fill="#CCCCCC"/>
<path d="M71.3072 124.522H133.489C134.99 124.522 136.429 123.926 137.49 122.865C138.551 121.805 139.147 120.366 139.147 118.866V43.0296C139.147 41.5296 138.551 40.0911 137.49 39.0305C136.429 37.9699 134.99 37.374 133.489 37.374H71.3072C69.8066 37.374 68.3675 37.9699 67.3064 39.0305C66.2453 40.0911 65.6492 41.5296 65.6492 43.0296V118.866C65.6492 120.366 66.2453 121.805 67.3064 122.865C68.3675 123.926 69.8066 124.522 71.3072 124.522Z" fill="#E6E6E6"/>
<path d="M119.549 52.8466H85.2471C84.6375 52.8466 84.0528 52.6045 83.6217 52.1737C83.1907 51.7428 82.9485 51.1584 82.9485 50.549C82.9485 49.9397 83.1907 49.3553 83.6217 48.9244C84.0528 48.4935 84.6375 48.2515 85.2471 48.2515H119.549C120.159 48.2515 120.743 48.4935 121.175 48.9244C121.606 49.3553 121.848 49.9397 121.848 50.549C121.848 51.1584 121.606 51.7428 121.175 52.1737C120.743 52.6045 120.159 52.8466 119.549 52.8466Z" fill="white"/>
<path d="M119.549 102.686H85.2471C84.6375 102.686 84.0528 102.444 83.6217 102.013C83.1907 101.583 82.9485 100.998 82.9485 100.389C82.9485 99.7795 83.1907 99.1951 83.6217 98.7643C84.0528 98.3334 84.6375 98.0913 85.2471 98.0913H119.549C120.159 98.0913 120.743 98.3334 121.175 98.7643C121.606 99.1951 121.848 99.7795 121.848 100.389C121.848 100.998 121.606 101.583 121.175 102.013C120.743 102.444 120.159 102.686 119.549 102.686Z" fill="white"/>
<path d="M119.549 113.644H85.2471C84.6375 113.644 84.0528 113.402 83.6217 112.971C83.1907 112.54 82.9485 111.956 82.9485 111.346C82.9485 110.737 83.1907 110.153 83.6217 109.722C84.0528 109.291 84.6375 109.049 85.2471 109.049H119.549C120.159 109.049 120.743 109.291 121.175 109.722C121.606 110.153 121.848 110.737 121.848 111.346C121.848 111.956 121.606 112.54 121.175 112.971C120.743 113.402 120.159 113.644 119.549 113.644Z" fill="white"/>
<path d="M102.575 86.6035C110.192 86.6035 116.367 80.4316 116.367 72.8181C116.367 65.2046 110.192 59.0327 102.575 59.0327C94.9581 59.0327 88.7834 65.2046 88.7834 72.8181C88.7834 80.4316 94.9581 86.6035 102.575 86.6035Z" fill="white"/>
<path d="M191.295 60.1858L185.27 61.456C185.217 61.4672 185.167 61.4904 185.125 61.5239C185.082 61.5574 185.048 61.6003 185.024 61.6492C185.001 61.6981 184.989 61.7517 184.99 61.8059C184.99 61.8601 185.003 61.9135 185.028 61.9618L185.589 63.0673L158.344 76.8905C158.303 76.9116 158.266 76.9405 158.235 76.9758C158.205 77.011 158.182 77.0519 158.168 77.096C158.153 77.1401 158.148 77.1866 158.151 77.2329C158.155 77.2792 158.168 77.3243 158.189 77.3657C158.21 77.4071 158.239 77.4439 158.274 77.4741C158.309 77.5043 158.35 77.5273 158.394 77.5417C158.438 77.5561 158.485 77.5617 158.531 77.5581C158.578 77.5545 158.623 77.5419 158.664 77.5209L185.909 63.6976L186.471 64.8031C186.495 64.8515 186.531 64.8935 186.574 64.926C186.617 64.9585 186.668 64.9806 186.721 64.9906C186.774 65.0006 186.829 64.9981 186.881 64.9835C186.934 64.9689 186.982 64.9424 187.022 64.9062L191.604 60.7947C191.662 60.7428 191.701 60.6731 191.716 60.5966C191.73 60.5201 191.718 60.4411 191.683 60.3717C191.648 60.3023 191.591 60.2465 191.521 60.2129C191.45 60.1793 191.371 60.1698 191.295 60.1858Z" fill="#E6E6E6"/>
<path d="M191.295 94.5457L185.27 93.2755C185.217 93.2643 185.167 93.2411 185.125 93.2076C185.082 93.1741 185.048 93.1312 185.024 93.0824C185.001 93.0335 184.989 92.9798 184.99 92.9256C184.99 92.8714 185.003 92.818 185.028 92.7697L185.589 91.6642L158.344 77.841C158.303 77.8199 158.266 77.791 158.235 77.7557C158.205 77.7205 158.182 77.6796 158.168 77.6355C158.153 77.5914 158.148 77.5449 158.151 77.4986C158.155 77.4523 158.168 77.4072 158.189 77.3658C158.21 77.3244 158.239 77.2876 158.274 77.2574C158.309 77.2272 158.35 77.2042 158.394 77.1898C158.438 77.1754 158.485 77.1698 158.531 77.1734C158.578 77.177 158.623 77.1896 158.664 77.2106L185.909 91.0339L186.471 89.9284C186.495 89.88 186.531 89.838 186.574 89.8055C186.617 89.773 186.668 89.7509 186.721 89.7409C186.774 89.7309 186.829 89.7334 186.881 89.748C186.934 89.7627 186.982 89.7891 187.022 89.8253L191.604 93.9368C191.662 93.9887 191.701 94.0584 191.716 94.1349C191.73 94.2113 191.719 94.2904 191.683 94.3598C191.648 94.4292 191.591 94.485 191.521 94.5186C191.45 94.5522 191.371 94.5617 191.295 94.5457Z" fill="#E6E6E6"/>
<path d="M211.153 68.0523C209.615 68.0523 208.111 67.5962 206.831 66.7417C205.552 65.8872 204.555 64.6727 203.966 63.2518C203.377 61.8308 203.223 60.2673 203.523 58.7588C203.823 57.2503 204.564 55.8647 205.652 54.7772C206.74 53.6896 208.126 52.949 209.636 52.6489C211.145 52.3489 212.709 52.5029 214.131 53.0915C215.552 53.68 216.767 54.6768 217.622 55.9556C218.477 57.2344 218.933 58.7379 218.933 60.2759C218.931 62.3376 218.111 64.3142 216.652 65.772C215.194 67.2299 213.216 68.0499 211.153 68.0523ZM211.153 53.2065C209.755 53.2065 208.387 53.6211 207.224 54.3979C206.061 55.1747 205.154 56.2788 204.619 57.5705C204.084 58.8623 203.944 60.2837 204.217 61.6551C204.49 63.0264 205.163 64.2861 206.152 65.2747C207.141 66.2634 208.402 66.9367 209.774 67.2095C211.146 67.4823 212.568 67.3423 213.86 66.8072C215.152 66.2721 216.257 65.366 217.034 64.2035C217.811 63.0409 218.226 61.6741 218.226 60.2759C218.224 58.4016 217.478 56.6047 216.152 55.2794C214.826 53.9541 213.029 53.2086 211.153 53.2065Z" fill="#E6E6E6"/>
<path d="M211.153 102.339C209.615 102.339 208.111 101.883 206.831 101.029C205.552 100.174 204.555 98.9598 203.966 97.5389C203.377 96.1179 203.223 94.5544 203.523 93.0459C203.823 91.5374 204.564 90.1518 205.652 89.0643C206.74 87.9767 208.126 87.2361 209.636 86.936C211.145 86.636 212.709 86.79 214.131 87.3786C215.552 87.9671 216.767 88.9639 217.622 90.2427C218.477 91.5215 218.933 93.025 218.933 94.563C218.931 96.6247 218.111 98.6013 216.652 100.059C215.194 101.517 213.216 102.337 211.153 102.339ZM211.153 87.4936C209.755 87.4936 208.387 87.9082 207.224 88.685C206.061 89.4618 205.154 90.5659 204.619 91.8576C204.084 93.1494 203.944 94.5708 204.217 95.9422C204.49 97.3135 205.163 98.5732 206.152 99.5618C207.141 100.551 208.402 101.224 209.774 101.497C211.146 101.769 212.568 101.629 213.86 101.094C215.152 100.559 216.257 99.6531 217.034 98.4906C217.811 97.328 218.226 95.9612 218.226 94.563C218.224 92.6887 217.478 90.8918 216.152 89.5665C214.826 88.2412 213.029 87.4957 211.153 87.4936Z" fill="#E6E6E6"/>
<path d="M210.537 64.1078C210.312 64.1082 210.093 64.0355 209.913 63.9007L209.902 63.8924L207.554 62.0969C207.445 62.0136 207.354 61.9096 207.285 61.7911C207.217 61.6725 207.172 61.5415 207.154 61.4057C207.136 61.2699 207.145 61.132 207.181 60.9996C207.216 60.8673 207.277 60.7433 207.361 60.6346C207.444 60.5259 207.548 60.4346 207.667 60.3661C207.785 60.2976 207.916 60.253 208.052 60.2351C208.188 60.2172 208.326 60.2262 208.458 60.2616C208.591 60.297 208.715 60.3581 208.824 60.4414L210.345 61.6072L213.939 56.9205C214.022 56.8118 214.126 56.7206 214.244 56.6521C214.363 56.5836 214.494 56.5391 214.63 56.5212C214.766 56.5033 214.904 56.5122 215.036 56.5476C215.168 56.583 215.292 56.6441 215.401 56.7274L215.401 56.7276L215.379 56.7586L215.402 56.7276C215.621 56.8961 215.765 57.1447 215.801 57.4188C215.837 57.6929 215.763 57.9701 215.595 58.1897L211.367 63.6998C211.27 63.8268 211.144 63.9295 211 64.0001C210.856 64.0706 210.698 64.107 210.538 64.1066L210.537 64.1078Z" fill="#E6E6E6"/>
<path d="M207.777 97.9367C207.728 97.8875 207.689 97.829 207.662 97.7647C207.636 97.7004 207.622 97.6314 207.622 97.5618C207.622 97.4922 207.636 97.4232 207.662 97.3589C207.689 97.2946 207.728 97.2361 207.777 97.1869L213.779 91.1883C213.878 91.0889 214.013 91.0332 214.154 91.0332C214.294 91.0332 214.429 91.0891 214.529 91.1885C214.628 91.2879 214.684 91.4227 214.684 91.5633C214.684 91.7038 214.628 91.8386 214.529 91.9381L208.528 97.9367C208.478 97.986 208.42 98.025 208.356 98.0517C208.291 98.0783 208.222 98.092 208.153 98.092C208.083 98.092 208.014 98.0783 207.95 98.0517C207.885 98.025 207.827 97.986 207.777 97.9367Z" fill="#E6E6E6"/>
<path d="M214.175 97.9367C214.225 97.8875 214.264 97.829 214.29 97.7647C214.317 97.7004 214.331 97.6314 214.331 97.5618C214.331 97.4922 214.317 97.4232 214.29 97.3589C214.264 97.2946 214.225 97.2361 214.175 97.1869L208.174 91.1883C208.075 91.0889 207.94 91.0332 207.799 91.0332C207.658 91.0332 207.524 91.0891 207.424 91.1885C207.325 91.2879 207.269 91.4227 207.269 91.5633C207.269 91.7038 207.325 91.8386 207.424 91.9381L213.425 97.9367C213.475 97.986 213.533 98.025 213.597 98.0517C213.662 98.0783 213.731 98.092 213.8 98.092C213.87 98.092 213.939 98.0783 214.003 98.0517C214.068 98.025 214.126 97.986 214.175 97.9367Z" fill="#E6E6E6"/>
<path d="M224.587 77.6501C224.564 77.6501 224.541 77.6484 224.518 77.6451C224.457 77.6364 224.398 77.6156 224.345 77.584C224.292 77.5524 224.246 77.5106 224.209 77.461L221.318 73.5863C221.306 73.5698 221.29 73.5569 221.271 73.5488C221.252 73.5408 221.232 73.5378 221.211 73.5402C221.191 73.5426 221.172 73.5503 221.155 73.5625C221.139 73.5747 221.126 73.5911 221.118 73.6099L219.635 77.0763C219.597 77.1665 219.531 77.2424 219.447 77.2933C219.363 77.3442 219.266 77.3676 219.168 77.3602C219.07 77.3528 218.977 77.315 218.901 77.252C218.826 77.189 218.772 77.1041 218.748 77.0091L215.79 65.5655C215.767 65.4751 215.771 65.3799 215.802 65.2918C215.833 65.2038 215.889 65.127 215.964 65.0712C216.039 65.0154 216.129 64.9832 216.222 64.9786C216.315 64.974 216.408 64.9973 216.488 65.0455L226.616 71.1446C226.7 71.1952 226.766 71.2709 226.805 71.3609C226.844 71.451 226.854 71.551 226.833 71.6468C226.812 71.7427 226.762 71.8296 226.689 71.8955C226.616 71.9613 226.525 72.0027 226.427 72.0139L222.682 72.4445C222.661 72.4469 222.642 72.4545 222.626 72.4668C222.609 72.479 222.596 72.4953 222.588 72.5141C222.58 72.5329 222.577 72.5535 222.579 72.5738C222.582 72.5941 222.589 72.6135 222.602 72.6299L225.492 76.5045C225.567 76.6045 225.598 76.7299 225.58 76.8532C225.562 76.9765 225.496 77.0876 225.396 77.1622L224.867 77.5568C224.786 77.6173 224.688 77.6501 224.587 77.6501Z" fill="#6A4796"/>
<path d="M241.035 86.0797H228.304C227.366 86.0797 226.467 85.7073 225.804 85.0444C225.141 84.3815 224.768 83.4824 224.768 82.545C224.768 81.6075 225.141 80.7084 225.804 80.0456C226.467 79.3827 227.366 79.0103 228.304 79.0103H241.035C241.973 79.0103 242.872 79.3827 243.536 80.0456C244.199 80.7084 244.571 81.6075 244.571 82.545C244.571 83.4824 244.199 84.3815 243.536 85.0444C242.872 85.7073 241.973 86.0797 241.035 86.0797Z" fill="#6A4796"/>
<path d="M86.7534 61.6505L86.224 61.256C86.1241 61.1813 86.058 61.0702 86.04 60.9469C86.022 60.8236 86.0537 60.6982 86.128 60.5982L89.0188 56.7237C89.031 56.7073 89.0387 56.6879 89.0411 56.6676C89.0435 56.6472 89.0405 56.6266 89.0324 56.6078C89.0242 56.589 89.0113 56.5727 88.9948 56.5605C88.9784 56.5483 88.959 56.5406 88.9387 56.5383L85.1933 56.1077C85.0958 56.0965 85.0042 56.055 84.9315 55.9892C84.8587 55.9234 84.8084 55.8364 84.7876 55.7406C84.7667 55.6447 84.7764 55.5447 84.8153 55.4547C84.8542 55.3646 84.9203 55.2889 85.0044 55.2383L95.1325 49.1392C95.2124 49.091 95.305 49.0678 95.3982 49.0723C95.4915 49.0769 95.5813 49.1092 95.6561 49.165C95.731 49.2207 95.7875 49.2975 95.8186 49.3856C95.8496 49.4736 95.8537 49.5689 95.8303 49.6592L92.8725 61.1029C92.8479 61.1979 92.7942 61.2828 92.719 61.3457C92.6437 61.4087 92.5506 61.4465 92.4528 61.4539C92.3549 61.4613 92.2571 61.4379 92.1733 61.387C92.0894 61.3361 92.0235 61.2602 91.9849 61.17L90.5027 57.7037C90.4946 57.6848 90.4817 57.6685 90.4653 57.6562C90.4489 57.644 90.4295 57.6363 90.4092 57.6339C90.3889 57.6315 90.3683 57.6345 90.3495 57.6426C90.3307 57.6507 90.3143 57.6636 90.3021 57.68L87.4112 61.5547C87.3745 61.6043 87.3282 61.6461 87.2752 61.6777C87.2221 61.7094 87.1633 61.7301 87.1022 61.7389C87.0794 61.7422 87.0564 61.7439 87.0335 61.7439C86.9324 61.7439 86.8342 61.7111 86.7534 61.6505Z" fill="#3F3D56"/>
<path d="M67.0491 66.6387C67.0501 65.7016 67.423 64.8031 68.086 64.1405C68.749 63.4778 69.6478 63.1051 70.5854 63.104H83.316C84.2539 63.104 85.1534 63.4764 85.8166 64.1393C86.4798 64.8022 86.8523 65.7013 86.8523 66.6387C86.8523 67.5762 86.4798 68.4753 85.8166 69.1381C85.1534 69.801 84.2539 70.1734 83.316 70.1734H70.5854C69.6478 70.1724 68.749 69.7996 68.086 69.137C67.423 68.4743 67.0501 67.5759 67.0491 66.6387Z" fill="#3F3D56"/>
<path d="M255.799 130.712C256.182 130.361 256.483 129.93 256.682 129.45C256.88 128.97 256.971 128.452 256.948 127.933C256.924 127.414 256.787 126.906 256.547 126.446C256.306 125.985 255.967 125.583 255.554 125.268L259.507 113.271L253.169 114.988L250.387 126.118C249.903 126.847 249.703 127.728 249.825 128.594C249.948 129.46 250.384 130.251 251.051 130.818C251.718 131.384 252.57 131.686 253.445 131.667C254.32 131.647 255.157 131.308 255.799 130.712Z" fill="#A0616A"/>
<path d="M293.815 130.005C293.432 129.654 293.13 129.223 292.932 128.743C292.733 128.263 292.642 127.745 292.666 127.226C292.689 126.707 292.826 126.199 293.067 125.739C293.308 125.278 293.647 124.876 294.06 124.561L290.106 112.563L296.444 114.281L299.227 125.411C299.711 126.14 299.911 127.021 299.788 127.887C299.666 128.753 299.23 129.544 298.563 130.111C297.896 130.677 297.044 130.979 296.169 130.96C295.294 130.94 294.456 130.601 293.815 130.005Z" fill="#A0616A"/>
<path d="M275.238 70.0756C280.035 70.0756 283.924 66.1888 283.924 61.394C283.924 56.5993 280.035 52.7124 275.238 52.7124C270.441 52.7124 266.553 56.5993 266.553 61.394C266.553 66.1888 270.441 70.0756 275.238 70.0756Z" fill="#A0616A"/>
<path d="M267.039 185.7H262.704L260.642 168.985H267.041L267.039 185.7Z" fill="#A0616A"/>
<path d="M268.145 189.9L254.166 189.899V189.723C254.166 189.009 254.307 188.301 254.58 187.641C254.854 186.982 255.254 186.382 255.76 185.877C256.265 185.372 256.865 184.971 257.525 184.698C258.185 184.425 258.893 184.284 259.607 184.284H259.607L268.145 184.285L268.145 189.9Z" fill="#2F2E41"/>
<path d="M281.892 185.7H277.557L275.494 168.985H281.893L281.892 185.7Z" fill="#A0616A"/>
<path d="M282.998 189.9L269.019 189.899V189.723C269.019 189.009 269.159 188.301 269.433 187.641C269.706 186.982 270.107 186.382 270.612 185.877C271.117 185.372 271.717 184.971 272.377 184.698C273.038 184.425 273.745 184.284 274.46 184.284H274.46L282.998 184.285L282.998 189.9Z" fill="#2F2E41"/>
<path d="M266.969 180.814L261.876 180.8C261.658 180.828 261.436 180.809 261.225 180.746C261.015 180.683 260.82 180.576 260.653 180.432C260.482 180.287 260.345 180.107 260.249 179.905C260.152 179.703 260.1 179.482 260.095 179.259L260.681 122.924L284.182 122.689L282.819 178.843C282.811 179.259 282.64 179.655 282.342 179.946C282.045 180.236 281.644 180.398 281.228 180.396H275.977C275.565 180.397 275.168 180.238 274.872 179.952C274.575 179.666 274.401 179.276 274.387 178.865L273.116 145.161C273.116 145.139 273.112 145.116 273.103 145.095C273.094 145.074 273.081 145.055 273.065 145.039C273.049 145.023 273.03 145.011 273.008 145.002C272.987 144.994 272.964 144.99 272.942 144.991C272.896 144.99 272.852 145.006 272.818 145.037C272.785 145.068 272.765 145.111 272.763 145.156L268.34 179.356C268.313 179.719 268.162 180.062 267.912 180.327C267.663 180.593 267.33 180.764 266.969 180.814Z" fill="#2F2E41"/>
<path d="M271.353 126.762C267.881 126.762 264.211 126.142 260.899 124.329C260.651 124.194 260.444 123.995 260.297 123.754C260.15 123.513 260.07 123.237 260.064 122.955L259.601 97.2441L258.949 91.7425C258.558 88.4699 259.141 85.1548 260.626 82.2119C262.11 79.2689 264.429 76.8288 267.294 75.1966L267.595 75.0251L268.443 73.0468C268.512 72.8833 268.629 72.7446 268.779 72.6491C268.928 72.5535 269.103 72.5056 269.281 72.5117L280.683 72.8373C280.864 72.843 281.039 72.9039 281.184 73.0119C281.33 73.1199 281.439 73.2697 281.496 73.4413L282.026 75.0296C284.952 76.7086 287.301 79.2348 288.761 82.2751C290.222 85.3153 290.727 88.7267 290.208 92.0594L285.535 122.977C285.493 123.255 285.378 123.517 285.201 123.737C285.025 123.956 284.793 124.124 284.53 124.225C282.462 125.01 277.188 126.762 271.353 126.762Z" fill="#3F3D56"/>
<path d="M293.635 123.275C293.456 123.275 293.282 123.221 293.134 123.12C292.987 123.019 292.874 122.876 292.809 122.71L287.019 107.732L282.284 84.3969C282.105 83.5165 282.188 82.603 282.523 81.7692C282.858 80.9354 283.429 80.2178 284.167 79.7051C284.805 79.2618 285.544 78.9869 286.316 78.9059C287.089 78.825 287.869 78.9407 288.585 79.2422C289.3 79.5437 289.928 80.0212 290.409 80.6304C290.891 81.2395 291.21 81.9605 291.338 82.7262L292.663 90.6724L299.234 121.091C299.281 121.318 299.239 121.553 299.115 121.749C298.992 121.944 298.797 122.084 298.572 122.138L293.836 123.252C293.77 123.267 293.702 123.275 293.635 123.275Z" fill="#3F3D56"/>
<path d="M256.332 123.275C256.265 123.275 256.197 123.267 256.131 123.252L251.395 122.138C251.17 122.084 250.975 121.944 250.852 121.749C250.728 121.553 250.686 121.318 250.734 121.091L257.306 90.6641L258.629 82.7262C258.757 81.9605 259.076 81.2396 259.558 80.6304C260.039 80.0212 260.667 79.5437 261.382 79.2422C262.098 78.9407 262.878 78.825 263.651 78.9059C264.423 78.9869 265.162 79.2618 265.8 79.7051C266.538 80.2178 267.11 80.9354 267.444 81.7692C267.779 82.603 267.862 83.5165 267.683 84.3969L262.957 107.703L257.159 122.71C257.094 122.876 256.98 123.019 256.833 123.12C256.685 123.221 256.511 123.275 256.332 123.275Z" fill="#3F3D56"/>
<path d="M281.999 69.6761C281.195 70.1386 278.016 70.4452 277.789 69.5459L277.785 69.5261C277.627 68.8672 277.758 68.1792 277.803 67.5032C277.848 66.8272 277.782 66.0846 277.322 65.5876C276.463 64.6611 274.935 65.1522 273.694 64.918C272.967 64.7557 272.324 64.3342 271.885 63.7321C271.446 63.1301 271.242 62.389 271.31 61.6473C271.328 61.5068 271.356 61.3662 271.387 61.2256C271.465 60.8694 271.459 60.5001 271.369 60.1466C271.28 59.7932 271.11 59.4652 270.873 59.1884C270.636 58.9116 270.337 58.6936 270.001 58.5514C269.666 58.4093 269.301 58.3469 268.937 58.3691C267.683 58.4408 266.328 58.8208 265.29 57.8918C264.487 57.1735 264.292 55.3036 264.644 54.286C265.237 52.5758 269.034 51.6804 270.692 51.1883C272.742 50.5961 274.899 50.4681 277.005 50.8135C279.111 51.1589 281.114 51.9691 282.868 53.1852C283.915 53.923 284.893 54.85 285.339 56.0504C285.785 57.2507 285.57 58.7651 284.564 59.5575C285.344 60.3831 285.893 61.3992 286.157 62.5038C286.42 63.6085 286.389 64.763 286.065 65.8516C285.568 67.4526 283.196 68.9876 281.999 69.6761Z" fill="#2F2E41"/>
<path d="M40.1615 117.745C39.6442 117.693 39.1447 117.528 38.698 117.262C38.2513 116.996 37.8684 116.636 37.5762 116.206C37.284 115.776 37.0896 115.288 37.0067 114.775C36.9239 114.262 36.9546 113.737 37.0966 113.237L26.7444 105.993L32.8499 103.576L41.7445 110.826C42.5688 111.12 43.2565 111.706 43.6773 112.473C44.0981 113.24 44.2227 114.135 44.0276 114.988C43.8324 115.841 43.3311 116.593 42.6186 117.101C41.906 117.609 41.0318 117.838 40.1615 117.745Z" fill="#FFB8B8"/>
<path d="M34.5395 112.238L25.1644 106.803C24.2225 106.271 23.4017 105.549 22.7541 104.683C22.1065 103.816 21.6463 102.825 21.4028 101.771C21.1829 100.774 21.1698 99.7425 21.3642 98.7402C21.5586 97.7379 21.9564 96.7861 22.5331 95.9435L30.294 84.5012C30.8429 83.6917 31.6777 83.1194 32.6309 82.899C33.5842 82.6787 34.5855 82.8265 35.4343 83.3129C36.2831 83.7993 36.9167 84.5884 37.208 85.522C37.4994 86.4556 37.4271 87.4647 37.0055 88.3473L30.9454 101.039L37.0845 106.442C37.2968 106.629 37.4554 106.869 37.544 107.138C37.6325 107.407 37.6479 107.694 37.5885 107.971L36.8935 111.197C36.842 111.443 36.7323 111.673 36.5737 111.867C36.4151 112.062 36.2122 112.216 35.9818 112.317C35.7526 112.42 35.5021 112.466 35.2512 112.453C35.0003 112.439 34.7562 112.365 34.5395 112.238L34.5395 112.238Z" fill="#3F3D56"/>
<path d="M77.0188 86.8127C76.8615 87.308 76.5975 87.7628 76.2453 88.145C75.8932 88.5273 75.4615 88.8277 74.9806 89.0252C74.4997 89.2226 73.9814 89.3122 73.4621 89.2878C72.9428 89.2633 72.4352 89.1254 71.975 88.8836L62.7536 97.5202L61.6433 91.0508L70.5703 83.8412C71.0279 83.0954 71.7433 82.5433 72.5809 82.2895C73.4185 82.0356 74.3201 82.0977 75.115 82.464C75.9099 82.8303 76.5427 83.4753 76.8936 84.2768C77.2444 85.0783 77.289 85.9806 77.0188 86.8127Z" fill="#FFB8B8"/>
<path d="M39.25 75.4751C44.0469 75.4751 47.9355 71.5882 47.9355 66.7934C47.9355 61.9987 44.0469 58.1118 39.25 58.1118C34.4531 58.1118 30.5645 61.9987 30.5645 66.7934C30.5645 71.5882 34.4531 75.4751 39.25 75.4751Z" fill="#FFB8B8"/>
<path d="M64.8233 185.559L68.9788 184.323L66.1872 167.714L60.0542 169.538L64.8233 185.559Z" fill="#FFB8B8"/>
<path d="M63.3596 184.518L71.543 182.084L71.5434 182.084C72.2282 181.88 72.9465 181.813 73.6572 181.887C74.3679 181.961 75.0571 182.174 75.6855 182.514C76.3138 182.854 76.869 183.314 77.3194 183.869C77.7697 184.423 78.1063 185.061 78.3101 185.746L78.3605 185.915L64.9618 189.9L63.3596 184.518Z" fill="#2F2E41"/>
<path d="M19.2976 185.346H23.6328L25.6955 168.631H21.4187L19.2976 185.346Z" fill="#FFB8B8"/>
<path d="M18.1917 183.931L26.7296 183.931H26.73C27.4445 183.931 28.1521 184.071 28.8122 184.345C29.4724 184.618 30.0722 185.019 30.5774 185.524C31.0827 186.029 31.4835 186.628 31.7569 187.288C32.0304 187.948 32.1711 188.655 32.1711 189.369V189.546L18.1919 189.547L18.1917 183.931Z" fill="#2F2E41"/>
<path d="M61.7213 179.576L45.4593 132.802C45.4251 132.7 45.3596 132.61 45.272 132.546C45.1843 132.482 45.0789 132.448 44.9705 132.447C44.8617 132.441 44.7539 132.47 44.663 132.53C44.5721 132.59 44.503 132.677 44.4658 132.78L25.7273 179.603C25.6052 179.911 25.3896 180.173 25.1106 180.352C24.8317 180.531 24.5036 180.618 24.1726 180.601L19.2817 180.364C19.0462 180.353 18.8161 180.289 18.6082 180.178C18.4003 180.067 18.2197 179.911 18.0795 179.721C17.9393 179.532 17.843 179.314 17.7975 179.082C17.752 178.851 17.7585 178.613 17.8165 178.384L35.5415 108.558L53.3245 107.107L53.4406 107.275C53.5367 107.414 63.0516 121.415 63.0457 145.587L69.1427 178.767C69.1848 178.996 69.176 179.232 69.1168 179.457C69.0576 179.683 68.9495 179.893 68.8002 180.072C68.6509 180.251 68.4639 180.395 68.2526 180.494C68.0414 180.593 67.8109 180.645 67.5776 180.645H63.2245C62.8941 180.645 62.5718 180.542 62.3025 180.35C62.0331 180.159 61.8301 179.888 61.7213 179.576Z" fill="#2F2E41"/>
<path d="M29.203 92.7201C28.5773 90.9294 28.4229 89.0081 28.7545 87.1406C29.0861 85.2731 29.8926 83.5222 31.0965 82.0562C32.2724 80.5985 33.8036 79.4675 35.5428 78.7717C37.2821 78.0759 39.1711 77.8388 41.0285 78.0831C41.1759 78.1028 41.3224 78.1227 41.4679 78.1428C43.8322 78.4619 46.0299 79.5366 47.7329 81.2066C49.436 82.8766 50.5531 85.0523 50.9175 87.409L54.2386 108.522L35.305 109.95L35.1691 109.96L29.203 92.7201Z" fill="#3F3D56"/>
<path d="M56.8317 101.287C55.7956 101.251 54.7782 101.001 53.8442 100.551C52.9102 100.101 52.08 99.4625 51.4063 98.6749L42.45 88.2972C41.7552 87.5191 41.3916 86.5007 41.4369 85.4587C41.4648 84.914 41.6085 84.3815 41.8585 83.8967C42.1085 83.4119 42.4589 82.9859 42.8865 82.6472C43.5923 82.0839 44.4724 81.7841 45.3754 81.7994C46.2784 81.8146 47.1479 82.1439 47.8342 82.7307L58.5152 91.8806L65.0864 87.3113C65.3221 87.1472 65.5979 87.0501 65.8845 87.0301C66.1711 87.0102 66.4577 87.0682 66.7139 87.1981L69.8589 88.7894C70.0837 88.9032 70.2782 89.0687 70.4265 89.2723C70.5748 89.4759 70.6726 89.7117 70.7119 89.9605C70.7512 90.2092 70.7308 90.4637 70.6525 90.7031C70.5742 90.9424 70.4402 91.1598 70.2614 91.3372L62.4416 99.1002C61.7446 99.7967 60.917 100.349 60.006 100.725C59.0951 101.101 58.1188 101.294 57.1332 101.292C57.033 101.292 56.9325 101.29 56.8317 101.287Z" fill="#3F3D56"/>
<path d="M45.8548 64.6249C46.9363 65.0443 48.0758 65.2949 49.2335 65.3681C50.3979 65.3827 51.6357 64.9795 52.2729 64.093C52.5174 63.7058 52.6752 63.2704 52.7356 62.8165C52.7959 62.3626 52.7574 61.9011 52.6226 61.4635C52.3814 60.5764 51.9472 59.7534 51.351 59.0534C50.7549 58.3534 50.0115 57.7935 49.1739 57.4137C48.2938 57.0147 47.3435 56.7933 46.3775 56.7622C45.4116 56.7311 44.449 56.891 43.545 57.2326C42.8915 55.2469 40.4302 54.1663 38.152 54.1051C33.4983 53.9803 29.3373 57.152 27.3154 60.9659C25.2935 64.7797 24.9981 69.1392 24.8724 73.3716C24.8417 74.4039 24.8289 75.4802 25.318 76.412C26.0464 77.7997 27.7017 78.5469 29.2619 79.1395C33.3532 80.6911 37.574 81.877 41.8749 82.6834C39.8098 81.3641 39.1548 78.5243 40.4628 76.5616C41.1028 75.6012 42.1536 74.8017 42.3236 73.6895C42.5275 72.3559 41.3892 71.1896 40.968 69.8988C40.7552 69.2 40.7456 68.4551 40.9403 67.751C41.135 67.0469 41.5259 66.4127 42.0675 65.9223C42.6571 65.4104 43.3619 65.0489 44.1218 64.8688C44.8816 64.6887 45.6738 64.6953 46.4305 64.8881" fill="#2F2E41"/>
<path d="M88.0539 190H0.35363C0.259841 190 0.169894 189.963 0.103576 189.896C0.0372571 189.83 0 189.74 0 189.646C0 189.553 0.0372571 189.463 0.103576 189.397C0.169894 189.33 0.259841 189.293 0.35363 189.293H88.0539C88.1477 189.293 88.2376 189.33 88.3039 189.397C88.3702 189.463 88.4075 189.553 88.4075 189.646C88.4075 189.74 88.3702 189.83 88.3039 189.896C88.2376 189.963 88.1477 190 88.0539 190Z" fill="#CCCCCC"/>
<path d="M301.646 190H239.408C239.314 190 239.224 189.963 239.158 189.896C239.091 189.83 239.054 189.74 239.054 189.646C239.054 189.553 239.091 189.463 239.158 189.397C239.224 189.33 239.314 189.293 239.408 189.293H301.646C301.74 189.293 301.83 189.33 301.897 189.397C301.963 189.463 302 189.553 302 189.646C302 189.74 301.963 189.83 301.897 189.896C301.83 189.963 301.74 190 301.646 190Z" fill="#CCCCCC"/>
</g>
<defs>
<clipPath id="clip0">
<rect width="302" height="190" fill="white"/>
</clipPath>
</defs>
</svg>
