<svg width="164" height="215" viewBox="0 0 164 215" fill="none" xmlns="http://www.w3.org/2000/svg">
<g clip-path="url(#clip0)">
<path fill-rule="evenodd" clip-rule="evenodd" d="M18.6396 35.9043C18.6393 34.6406 18.2746 33.4035 17.5886 32.3394C16.9027 31.2753 15.9241 30.4287 14.7689 29.8999C13.6136 29.371 12.33 29.1821 11.07 29.3555C9.81004 29.5289 8.62645 30.0572 7.65936 30.8781C6.69227 31.6989 5.98218 32.7778 5.61317 33.9871C5.24415 35.1964 5.23165 36.4854 5.57715 37.7016C5.92265 38.9177 6.61169 40.01 7.56268 40.8492C8.51367 41.6884 9.6868 42.2393 10.9432 42.4367V37.8163H9.25266V35.9043H10.9432V34.4472C10.9432 32.7902 11.9372 31.8742 13.4574 31.8742C13.9567 31.8811 14.4548 31.9243 14.9477 32.0035V33.6309H14.1079C13.9648 33.6121 13.8193 33.6255 13.6822 33.6701C13.545 33.7147 13.4197 33.7894 13.3156 33.8886C13.2114 33.9878 13.131 34.109 13.0804 34.2432C13.0297 34.3775 13.0101 34.5213 13.023 34.6641V35.9046H14.8689L14.5741 37.8166H13.023V42.4373C14.5888 42.191 16.0148 41.3976 17.0444 40.2C18.074 39.0024 18.6396 37.4792 18.6396 35.9042V35.9043Z" fill="#3F3D56"/>
<path d="M64.1154 8.65267L65.3275 8.41184C64.9545 8.84297 64.5493 9.24552 64.1154 9.61603C64.0973 9.85653 64.0973 10.098 64.1154 10.3385C61.788 20.2611 53.2058 15.8778 53.2058 15.8778C56.3332 15.9501 56.5999 14.6736 56.5999 14.6736C54.7816 14.4087 54.418 13.2286 54.418 13.2286C54.5811 13.3141 54.7702 13.3368 54.9492 13.2923C55.1281 13.2479 55.2843 13.1394 55.3877 12.9878C54.8542 12.8674 54.385 12.5542 54.0713 12.109C53.7575 11.6638 53.6219 11.1185 53.6907 10.5794C54.0407 10.8304 54.4497 10.988 54.8786 11.037C54.6604 10.772 52.8179 8.58041 53.9331 7.44848C53.9331 7.44848 55.2907 9.85686 58.8545 10.0736L59.097 10.0254C59.0557 9.85199 59.0394 9.6736 59.0485 9.4956C59.0485 8.82492 59.3167 8.18171 59.794 7.70747C60.2714 7.23323 60.9189 6.9668 61.594 6.9668C63.2911 6.9668 63.6547 7.93015 63.6547 7.93015L64.8669 7.20764C64.8426 7.20764 64.7214 8.41184 64.1154 8.65267Z" fill="#3F3D56"/>
<path d="M108.526 29.7627H103.407C102.458 29.7654 101.548 30.1414 100.876 30.8084C100.205 31.4754 99.8264 32.3793 99.8236 33.3226V38.4078C99.8264 39.3511 100.205 40.255 100.876 40.922C101.548 41.589 102.458 41.965 103.407 41.9677H108.526C109.476 41.965 110.385 41.589 111.057 40.922C111.728 40.255 112.107 39.3511 112.11 38.4078V33.3226C112.107 32.3793 111.728 31.4754 111.057 30.8084C110.385 30.1414 109.476 29.7654 108.526 29.7627Z" fill="#3F3D56"/>
<path d="M109.294 33.3227C109.091 33.3222 108.896 33.2417 108.753 33.0988C108.609 32.956 108.529 32.7624 108.529 32.5607C108.53 32.3589 108.61 32.1655 108.754 32.0229C108.898 31.8804 109.092 31.8003 109.296 31.8003C109.499 31.8003 109.693 31.8804 109.837 32.0229C109.981 32.1655 110.062 32.3589 110.062 32.5607C110.062 32.7624 109.982 32.956 109.838 33.0988C109.695 33.2417 109.5 33.3222 109.297 33.3227H109.294Z" fill="white"/>
<path d="M105.967 33.831C106.372 33.831 106.767 33.9503 107.104 34.1738C107.441 34.3973 107.703 34.715 107.858 35.0867C108.013 35.4585 108.054 35.8675 107.975 36.2621C107.896 36.6567 107.701 37.0192 107.414 37.3037C107.128 37.5881 106.763 37.7819 106.366 37.8604C105.969 37.9389 105.557 37.8986 105.183 37.7446C104.809 37.5907 104.489 37.3299 104.264 36.9954C104.039 36.6609 103.919 36.2676 103.919 35.8652C103.919 35.5981 103.972 35.3335 104.075 35.0867C104.178 34.8399 104.328 34.6157 104.519 34.4268C104.709 34.2379 104.934 34.088 105.183 33.9858C105.431 33.8836 105.698 33.831 105.967 33.831ZM105.967 32.814C105.359 32.814 104.765 32.9929 104.26 33.3282C103.755 33.6635 103.361 34.14 103.129 34.6975C102.896 35.2551 102.836 35.8686 102.954 36.4605C103.073 37.0524 103.365 37.596 103.795 38.0228C104.224 38.4495 104.771 38.7401 105.367 38.8578C105.963 38.9756 106.581 38.9151 107.142 38.6842C107.703 38.4533 108.183 38.0622 108.52 37.5604C108.858 37.0586 109.038 36.4687 109.038 35.8652C109.038 35.056 108.714 34.2799 108.138 33.7077C107.562 33.1355 106.781 32.814 105.967 32.814V32.814Z" fill="white"/>
<path d="M152.017 7.93555C150.484 7.93566 148.998 8.4599 147.808 9.42022C146.618 10.3805 145.796 11.7184 145.482 13.2092C145.168 14.7 145.38 16.2528 146.082 17.6068C146.784 18.9608 147.933 20.0336 149.338 20.645C149.31 20.1348 149.349 19.6231 149.454 19.1229C149.582 18.584 150.312 15.5073 150.312 15.5073C150.167 15.177 150.093 14.8197 150.098 14.459C150.098 13.4759 150.67 12.7416 151.385 12.7416C151.513 12.7396 151.64 12.7649 151.757 12.8156C151.873 12.8663 151.978 12.9413 152.063 13.0356C152.149 13.1299 152.213 13.2412 152.251 13.3621C152.289 13.483 152.301 13.6107 152.286 13.7365C152.286 14.3436 151.895 15.2497 151.695 16.0907C151.656 16.2465 151.653 16.4094 151.689 16.5662C151.724 16.7231 151.796 16.8696 151.898 16.9938C152.001 17.118 152.132 17.2164 152.28 17.2813C152.428 17.3461 152.589 17.3754 152.751 17.3669C154.015 17.3669 154.867 15.7531 154.867 13.8402C154.867 12.3862 153.88 11.2995 152.089 11.2995C151.66 11.2827 151.233 11.3528 150.832 11.5054C150.431 11.658 150.066 11.89 149.759 12.1872C149.451 12.4844 149.208 12.8406 149.043 13.2342C148.878 13.6279 148.796 14.0506 148.801 14.4768C148.781 14.9494 148.938 15.4126 149.242 15.7768C149.296 15.8205 149.334 15.8799 149.351 15.9464C149.368 16.0129 149.363 16.0831 149.338 16.1469C149.305 16.2683 149.233 16.5615 149.201 16.6799C149.195 16.7158 149.181 16.7497 149.159 16.779C149.137 16.8082 149.109 16.8319 149.077 16.8482C149.044 16.8644 149.008 16.8726 148.971 16.8722C148.935 16.8718 148.899 16.8627 148.867 16.8458C147.934 16.4667 147.498 15.454 147.498 14.311C147.498 12.4277 149.099 10.1683 152.271 10.1683C154.819 10.1683 156.498 12.0013 156.498 13.9675C156.498 16.5704 155.04 18.5129 152.894 18.5129C152.574 18.5213 152.258 18.45 151.973 18.3057C151.688 18.1614 151.444 17.9486 151.263 17.6867C151.263 17.6867 150.876 19.2147 150.792 19.5108C150.638 20.014 150.412 20.4926 150.122 20.9322C151.04 21.2017 152.006 21.2718 152.954 21.1378C153.902 21.0038 154.81 20.6688 155.616 20.1556C156.422 19.6424 157.108 18.963 157.627 18.1633C158.146 17.3637 158.485 16.4626 158.622 15.5212C158.76 14.5797 158.692 13.6199 158.423 12.7069C158.154 11.7939 157.691 10.949 157.064 10.2296C156.438 9.51012 155.663 8.93291 154.792 8.5371C153.921 8.14129 152.975 7.93613 152.017 7.93555L152.017 7.93555Z" fill="#3F3D56"/>
<path d="M136.253 72.5932C135.945 71.7478 135.383 71.017 134.643 70.5C133.903 69.983 133.021 69.7049 132.116 69.7036H41.4008C40.8238 69.7034 40.2524 69.8161 39.7192 70.0352C39.1861 70.2544 38.7016 70.5757 38.2935 70.9808C37.8853 71.386 37.5615 71.867 37.3405 72.3965C37.1195 72.926 37.0056 73.4935 37.0054 74.0667V143.225C37.007 144.383 37.4706 145.492 38.2946 146.311C39.1185 147.13 40.2355 147.59 41.4008 147.592H132.116C133.281 147.59 134.398 147.13 135.222 146.311C136.046 145.492 136.509 144.383 136.511 143.225V74.07C136.512 73.5666 136.425 73.0668 136.253 72.5932Z" fill="white"/>
<path d="M136.253 72.5932C135.945 71.7478 135.383 71.017 134.643 70.5C133.903 69.983 133.021 69.7049 132.116 69.7036H41.4008C40.8238 69.7034 40.2524 69.8161 39.7192 70.0352C39.1861 70.2544 38.7016 70.5757 38.2935 70.9808C37.8853 71.386 37.5615 71.867 37.3405 72.3965C37.1195 72.926 37.0056 73.4935 37.0054 74.0667V143.225C37.007 144.383 37.4706 145.492 38.2946 146.311C39.1185 147.13 40.2355 147.59 41.4008 147.592H132.116C133.281 147.59 134.398 147.13 135.222 146.311C136.046 145.492 136.509 144.383 136.511 143.225V74.07C136.512 73.5666 136.425 73.0668 136.253 72.5932ZM135.994 143.225C135.993 144.247 135.584 145.226 134.857 145.948C134.13 146.67 133.144 147.077 132.116 147.078H41.4008C40.3726 147.077 39.3868 146.67 38.6598 145.948C37.9328 145.226 37.5237 144.247 37.5225 143.225V74.07C37.5237 73.0486 37.9328 72.0694 38.6598 71.3471C39.3868 70.6249 40.3726 70.2186 41.4008 70.2173H132.116C133.144 70.2186 134.13 70.6249 134.857 71.3471C135.584 72.0694 135.993 73.0486 135.994 74.07V143.225Z" fill="#CCCCCC"/>
<path d="M129.515 79.0097V127.299C129.515 127.621 129.386 127.93 129.157 128.158C128.927 128.386 128.616 128.514 128.292 128.514H45.7742C45.7155 128.515 45.6568 128.51 45.5988 128.501C45.3078 128.459 45.0415 128.315 44.849 128.094C44.6564 127.873 44.5504 127.591 44.5504 127.299V79.0097C44.5504 78.8501 44.5819 78.692 44.6434 78.5446C44.7048 78.3971 44.7949 78.2631 44.9084 78.1502C45.022 78.0373 45.1568 77.9477 45.3053 77.8866C45.4537 77.8255 45.6127 77.794 45.7734 77.7939H128.291C128.452 77.7939 128.611 77.8253 128.759 77.8863C128.908 77.9473 129.043 78.0368 129.156 78.1496C129.27 78.2624 129.36 78.3964 129.422 78.5438C129.483 78.6912 129.515 78.8493 129.515 79.0088V79.0097Z" fill="#E6E6E6"/>
<path d="M65.3506 106.505C71.2803 106.505 76.0872 101.73 76.0872 95.8397C76.0872 89.9491 71.2803 85.1738 65.3506 85.1738C59.421 85.1738 54.6141 89.9491 54.6141 95.8397C54.6141 101.73 59.421 106.505 65.3506 106.505Z" fill="#6A4796"/>
<path d="M99.0193 128.708H46.3492C46.2832 128.709 46.2173 128.703 46.1523 128.692L71.0629 85.8277C71.2149 85.5608 71.4356 85.3387 71.7023 85.1842C71.969 85.0297 72.2722 84.9482 72.581 84.9482C72.8897 84.9482 73.1929 85.0297 73.4596 85.1842C73.7263 85.3387 73.947 85.5608 74.099 85.8277L90.8171 114.593L91.618 115.97L99.0193 128.708Z" fill="#3F3D56"/>
<path opacity="0.2" d="M99.0194 128.708H81.0365L89.8642 115.969L90.4996 115.052L90.8174 114.593L91.6181 115.969L99.0194 128.708Z" fill="black"/>
<path d="M128.346 128.708H82.7903L91.618 115.969L92.2533 115.052L103.757 98.4515C104.511 97.3635 106.325 97.2958 107.212 98.2463C107.271 98.3111 107.327 98.3797 107.377 98.4515L128.346 128.708Z" fill="#3F3D56"/>
<path d="M83.7527 210.412L79.3007 210.412L77.183 193.353L83.7534 193.353L83.7527 210.412Z" fill="#FFB8B8"/>
<path d="M84.8881 214.699L70.5334 214.699V214.518C70.5334 213.789 70.6779 213.067 70.9587 212.394C71.2395 211.721 71.6511 211.109 72.1699 210.593C72.6887 210.078 73.3047 209.669 73.9826 209.39C74.6604 209.111 75.387 208.968 76.1207 208.968H76.1211L84.8884 208.968L84.8881 214.699Z" fill="#2F2E41"/>
<path d="M99.7304 210.412L95.2784 210.412L93.1606 193.353L99.7311 193.353L99.7304 210.412Z" fill="#FFB8B8"/>
<path d="M100.866 214.699L86.5111 214.699V214.518C86.5111 213.789 86.6556 213.067 86.9364 212.394C87.2172 211.721 87.6287 211.109 88.1476 210.593C88.6664 210.078 89.2823 209.669 89.9602 209.39C90.6381 209.111 91.3647 208.968 92.0984 208.968H92.0987L100.866 208.968L100.866 214.699Z" fill="#2F2E41"/>
<path d="M93.6448 203.793L87.4437 159.448C87.4265 159.325 87.3673 159.212 87.2761 159.127C87.1848 159.042 87.067 158.991 86.9424 158.982C86.8178 158.974 86.694 159.008 86.5916 159.079C86.4893 159.15 86.4148 159.254 86.3804 159.374L82.2261 173.801C81.912 174.888 81.8091 176.025 81.9229 177.15L85.2634 203.224C85.2854 203.444 85.2618 203.667 85.1942 203.878C85.1265 204.089 85.0161 204.284 84.8698 204.451C84.7235 204.618 84.5444 204.753 84.3434 204.849C84.1425 204.945 83.924 204.998 83.7013 205.007L79.4489 205.144C79.0576 205.16 78.6738 205.035 78.3674 204.793C78.061 204.55 77.8524 204.207 77.7795 203.825L72.3942 175.633C72.0951 174.069 72.0314 172.468 72.2053 170.885L76.2791 133.761L96.5708 134.49L96.6188 134.586C102.748 146.816 101.758 174.024 100.801 200.336L100.682 203.627C100.668 204.047 100.49 204.446 100.185 204.738C99.8807 205.03 99.4732 205.193 99.0497 205.191L95.2639 205.193H95.2631C94.869 205.191 94.4887 205.049 94.1916 204.792C93.8944 204.535 93.7003 204.18 93.6448 203.793Z" fill="#2F2E41"/>
<path d="M92.8364 96.6455C97.7622 96.6455 101.755 92.6787 101.755 87.7854C101.755 82.8921 97.7622 78.9253 92.8364 78.9253C87.9107 78.9253 83.9176 82.8921 83.9176 87.7854C83.9176 92.6787 87.9107 96.6455 92.8364 96.6455Z" fill="#FFB8B8"/>
<path d="M75.9737 135.916C75.8201 135.733 75.7091 135.518 75.6485 135.288C75.588 135.057 75.5795 134.816 75.6236 134.582L80.586 108.017L81.762 105.531C82.7414 103.458 84.3635 101.75 86.3905 100.658C88.4174 99.5669 90.743 99.1487 93.0265 99.4651C94.6293 99.6826 96.1627 100.254 97.5142 101.137C98.8658 102.02 100.001 103.192 100.837 104.568C101.673 105.943 102.189 107.487 102.346 109.087C102.503 110.686 102.298 112.3 101.745 113.81L96.3909 128.44L97.3026 134.643C97.3365 134.874 97.32 135.109 97.2543 135.332C97.1886 135.556 97.0751 135.763 96.9217 135.939C96.7683 136.116 96.5785 136.257 96.3652 136.354C96.1519 136.451 95.9201 136.501 95.6855 136.501H77.2302C76.9903 136.501 76.7533 136.449 76.5361 136.348C76.3189 136.247 76.1268 136.099 75.9737 135.916Z" fill="#6A4796"/>
<path d="M116.189 152.062C115.634 151.934 115.113 151.686 114.664 151.337C114.216 150.987 113.849 150.544 113.592 150.039C113.334 149.533 113.191 148.978 113.173 148.412C113.154 147.845 113.261 147.282 113.486 146.761L99.105 114.485L107.331 112.427L118.881 144.8C119.736 145.233 120.402 145.963 120.753 146.851C121.103 147.739 121.113 148.724 120.782 149.619C120.45 150.514 119.799 151.257 118.953 151.707C118.106 152.158 117.123 152.284 116.189 152.062V152.062Z" fill="#FFB8B8"/>
<path d="M99.595 120.27C99.3656 120.168 99.161 120.018 98.9952 119.83C98.8294 119.642 98.7064 119.421 98.6344 119.182L96.1201 110.826C95.5756 109.669 95.5149 108.345 95.9513 107.144C96.3877 105.943 97.2856 104.962 98.4483 104.418C99.6109 103.873 100.944 103.808 102.154 104.238C103.365 104.667 104.355 105.556 104.907 106.709L109.77 114.004C109.908 114.212 110 114.448 110.039 114.694C110.078 114.941 110.063 115.193 109.995 115.434C109.927 115.674 109.807 115.897 109.645 116.087C109.482 116.278 109.28 116.431 109.053 116.537L101.052 120.258C100.824 120.364 100.576 120.419 100.325 120.422C100.073 120.424 99.8244 120.372 99.595 120.27Z" fill="#6A4796"/>
<path d="M56.1997 69.0063C56.026 69.5459 55.9736 70.1168 56.046 70.6788C56.1185 71.2407 56.3141 71.7801 56.6191 72.2588C56.924 72.7375 57.331 73.144 57.8112 73.4496C58.2914 73.7552 58.8332 73.9525 59.3985 74.0275L79.9403 102.827L85.9328 96.8616L63.8566 70.4285C63.9206 69.4768 63.6309 68.5348 63.0425 67.781C62.4541 67.0273 61.6078 66.5142 60.664 66.3388C59.7202 66.1635 58.7445 66.3382 57.9217 66.8299C57.0988 67.3215 56.4862 68.0959 56.1997 69.0063Z" fill="#FFB8B8"/>
<path d="M75.9464 98.2094L83.2605 93.2877C83.4686 93.1477 83.7047 93.0539 83.9526 93.0126C84.2005 92.9714 84.4544 92.9837 84.6971 93.0488C84.9398 93.1138 85.1655 93.2301 85.3589 93.3896C85.5522 93.5491 85.7088 93.7481 85.8177 93.9732L89.6351 101.858C90.3502 102.92 90.6123 104.22 90.364 105.474C90.1156 106.727 89.377 107.832 88.3102 108.545C87.2433 109.258 85.9352 109.522 84.6728 109.279C83.4103 109.036 82.2964 108.305 81.5754 107.247L75.6385 100.823C75.4686 100.639 75.3405 100.421 75.2632 100.183C75.1858 99.9454 75.1609 99.6941 75.1901 99.4461C75.2193 99.198 75.302 98.9592 75.4325 98.7458C75.563 98.5324 75.7383 98.3495 75.9464 98.2094V98.2094Z" fill="#6A4796"/>
<path d="M50.0538 215H126.674C126.77 215 126.863 214.962 126.931 214.894C126.999 214.826 127.037 214.735 127.037 214.639C127.037 214.543 126.999 214.452 126.931 214.384C126.863 214.316 126.77 214.278 126.674 214.278H50.0538C49.9575 214.278 49.8651 214.316 49.797 214.384C49.7289 214.452 49.6907 214.543 49.6907 214.639C49.6907 214.735 49.7289 214.826 49.797 214.894C49.8651 214.962 49.9575 215 50.0538 215Z" fill="#CCCCCC"/>
<path d="M11.9833 47.7697C9.61324 47.7697 7.29639 47.0715 5.32575 45.7634C3.35511 44.4554 1.81919 42.5962 0.912195 40.4209C0.00520309 38.2457 -0.232118 35.8521 0.230253 33.5429C0.692624 31.2337 1.83392 29.1125 3.50981 27.4477C5.18569 25.7828 7.32091 24.649 9.64543 24.1897C11.97 23.7303 14.3794 23.9661 16.569 24.8671C18.7587 25.7681 20.6302 27.2939 21.947 29.2516C23.2637 31.2093 23.9665 33.5108 23.9665 35.8653C23.9629 39.0214 22.6993 42.0473 20.4527 44.279C18.2062 46.5107 15.1604 47.7661 11.9833 47.7697ZM11.9833 24.6824C9.75688 24.6824 7.58045 25.3383 5.72924 26.5671C3.87803 27.7958 2.43519 29.5424 1.58317 31.5858C0.731143 33.6292 0.50821 35.8777 0.942559 38.047C1.37691 40.2162 2.44903 42.2088 4.02335 43.7728C5.59766 45.3367 7.60347 46.4018 9.78711 46.8333C11.9708 47.2648 14.2342 47.0433 16.2911 46.1969C18.3481 45.3505 20.1062 43.9172 21.3431 42.0782C22.58 40.2392 23.2403 38.0771 23.2403 35.8653C23.2369 32.9005 22.0498 30.058 19.9394 27.9615C17.8291 25.8651 14.9678 24.6858 11.9833 24.6824Z" fill="#3F3D56"/>
<path d="M59.2667 23.8087C56.8966 23.8087 54.5798 23.1105 52.6092 21.8025C50.6385 20.4944 49.1026 18.6352 48.1956 16.46C47.2886 14.2847 47.0513 11.8912 47.5137 9.58195C47.9761 7.27273 49.1174 5.15157 50.7933 3.48672C52.4691 1.82186 54.6044 0.688076 56.9289 0.228743C59.2534 -0.230589 61.6628 0.00516049 63.8525 0.906173C66.0421 1.80719 67.9137 3.333 69.2304 5.29066C70.5471 7.24832 71.25 9.54991 71.25 11.9044C71.2464 15.0605 69.9827 18.0864 67.7362 20.3181C65.4897 22.5498 62.4438 23.8052 59.2667 23.8087ZM59.2667 0.721483C57.0403 0.721483 54.8639 1.37735 53.0127 2.60614C51.1615 3.83493 49.7186 5.58146 48.8666 7.62486C48.0146 9.66827 47.7917 11.9168 48.226 14.086C48.6604 16.2553 49.7325 18.2479 51.3068 19.8119C52.8811 21.3758 54.8869 22.4409 57.0706 22.8724C59.2542 23.3039 61.5176 23.0824 63.5746 22.236C65.6315 21.3896 67.3896 19.9563 68.6266 18.1172C69.8635 16.2782 70.5237 14.1161 70.5237 11.9044C70.5203 8.93952 69.3332 6.09706 67.2229 4.00059C65.1125 1.90412 62.2512 0.724844 59.2667 0.721483Z" fill="#3F3D56"/>
<path d="M105.967 47.7697C103.596 47.7697 101.28 47.0715 99.309 45.7634C97.3384 44.4554 95.8024 42.5961 94.8954 40.4209C93.9885 38.2457 93.7512 35.8521 94.2135 33.5429C94.6759 31.2337 95.8172 29.1125 97.4931 27.4476C99.169 25.7828 101.304 24.649 103.629 24.1897C105.953 23.7303 108.363 23.9661 110.552 24.8671C112.742 25.7681 114.614 27.2939 115.93 29.2516C117.247 31.2093 117.95 33.5108 117.95 35.8653C117.946 39.0215 116.683 42.0473 114.436 44.279C112.189 46.5108 109.144 47.7661 105.967 47.7697ZM105.967 24.6824C103.74 24.6824 101.564 25.3383 99.7125 26.5671C97.8613 27.7959 96.4184 29.5424 95.5664 31.5858C94.7144 33.6292 94.4915 35.8777 94.9258 38.047C95.3602 40.2162 96.4323 42.2089 98.0066 43.7728C99.581 45.3368 101.587 46.4018 103.77 46.8333C105.954 47.2648 108.217 47.0434 110.274 46.197C112.331 45.3505 114.089 43.9172 115.326 42.0782C116.563 40.2392 117.224 38.0771 117.224 35.8653C117.22 32.9005 116.033 30.058 113.923 27.9615C111.812 25.8651 108.951 24.6858 105.967 24.6824Z" fill="#3F3D56"/>
<path d="M152.017 26.4747C149.647 26.4747 147.33 25.7766 145.359 24.4685C143.389 23.1604 141.853 21.3012 140.946 19.126C140.039 16.9507 139.801 14.5572 140.264 12.248C140.726 9.93874 141.867 7.81758 143.543 6.15273C145.219 4.48787 147.354 3.35409 149.679 2.89476C152.003 2.43543 154.413 2.67118 156.602 3.57219C158.792 4.4732 160.664 5.99901 161.98 7.95668C163.297 9.91434 164 12.2159 164 14.5704C163.996 17.7265 162.733 20.7524 160.486 22.9841C158.24 25.2158 155.194 26.4712 152.017 26.4747ZM152.017 3.3875C149.79 3.3875 147.614 4.04336 145.763 5.27215C143.911 6.50095 142.469 8.24747 141.617 10.2909C140.765 12.3343 140.542 14.5828 140.976 16.7521C141.41 18.9213 142.482 20.9139 144.057 22.4779C145.631 24.0418 147.637 25.1069 149.821 25.5384C152.004 25.9699 154.268 25.7484 156.325 24.902C158.382 24.0556 160.14 22.6223 161.377 20.7833C162.613 18.9442 163.274 16.7822 163.274 14.5704C163.27 11.6055 162.083 8.76307 159.973 6.6666C157.863 4.57013 155.001 3.39086 152.017 3.3875Z" fill="#3F3D56"/>
<path d="M90.3521 86.6187C88.5214 88.6941 86.0065 90.9888 83.3236 89.9589C81.5619 89.2826 80.5881 87.4473 80.7491 85.578C81.0386 82.2163 83.6715 80.0981 86.2558 78.3301C89.6153 76.0318 93.3759 73.9262 97.455 73.9199C101.534 73.9136 105.869 76.7342 106.175 80.775C106.422 84.0246 104.138 87.3624 105.365 90.3847C106.6 93.4264 110.593 94.1758 113.885 93.9367C117.178 93.6977 120.746 92.9812 123.588 94.6507C127.213 96.7805 127.815 102.085 125.88 105.801C123.946 109.518 120.203 111.933 116.473 113.876C111.532 116.451 106.01 118.55 100.485 117.773C94.9604 116.997 89.6484 112.47 89.76 106.928C89.8072 104.587 90.7704 102.373 91.698 100.22C92.6255 98.0679 93.5494 95.8287 93.5108 93.4876C93.4786 91.5366 92.6002 89.4857 91.0171 88.4195C90.7316 88.235 90.5123 87.9654 90.3906 87.6493C90.269 87.3333 90.2513 86.9871 90.3401 86.6604L90.3521 86.6187Z" fill="#2F2E41"/>
</g>
<defs>
<clipPath id="clip0">
<rect width="164" height="215" fill="white"/>
</clipPath>
</defs>
</svg>
