<svg width="297" height="203" viewBox="0 0 297 203" fill="none" xmlns="http://www.w3.org/2000/svg">
<g clip-path="url(#clip0)">
<path d="M291.689 184.603C289.657 191.653 283.724 196.588 277.535 200.78C276.671 201.366 275.806 201.938 274.941 202.496C274.936 202.499 274.93 202.505 274.924 202.507C274.882 202.534 274.84 202.561 274.802 202.588C274.623 202.703 274.445 202.818 274.268 202.931L274.365 202.975C274.365 202.975 274.46 203.026 274.356 202.983C274.325 202.97 274.292 202.959 274.261 202.946C270.666 201.495 267.006 199.938 264.251 197.221C261.393 194.4 259.722 189.975 261.27 186.269C261.473 185.783 261.73 185.322 262.036 184.893C262.162 184.714 262.297 184.542 262.438 184.373C263.291 183.331 264.407 182.535 265.671 182.067C266.934 181.599 268.299 181.476 269.625 181.711C270.952 181.946 272.192 182.53 273.218 183.403C274.244 184.275 275.019 185.406 275.464 186.678C275.918 182.444 272.427 178.897 269.068 176.28C265.707 173.664 261.888 170.816 261.238 166.605C260.875 164.263 261.69 161.992 263.174 160.17C263.22 160.115 263.265 160.059 263.313 160.005C265.119 157.883 267.66 156.52 270.427 156.188C275.58 155.653 280.586 158.381 284.33 161.965C290.356 167.73 293.999 176.587 291.689 184.603Z" fill="#F2F2F2"/>
<path d="M282.002 175.381C282.991 176.92 283.751 178.595 284.256 180.353C284.684 181.925 284.874 183.551 284.821 185.179C284.683 188.528 283.743 191.796 282.08 194.706C280.827 196.914 279.3 198.955 277.535 200.78C276.671 201.366 275.806 201.938 274.942 202.496C274.936 202.499 274.93 202.504 274.924 202.507C274.882 202.533 274.84 202.56 274.802 202.587C274.623 202.702 274.445 202.817 274.268 202.931C274.268 202.931 274.46 203.026 274.356 202.983C274.325 202.97 274.292 202.958 274.261 202.945C274.583 200.303 274.268 197.622 273.341 195.127C272.413 192.631 270.902 190.395 268.932 188.604C266.958 186.841 264.595 185.569 262.036 184.893C262.162 184.713 262.297 184.541 262.438 184.373C263.426 184.65 264.388 185.014 265.312 185.46C268.616 187.047 271.321 189.655 273.027 192.9C274.558 195.845 275.217 199.167 274.927 202.474C275.075 202.34 275.222 202.203 275.366 202.068C278.098 199.52 280.525 196.596 282.167 193.221C283.592 190.363 284.292 187.199 284.206 184.006C284.072 180.526 282.685 177.301 280.678 174.495C278.477 171.5 275.877 168.821 272.951 166.531C270.002 164.168 266.775 162.175 263.341 160.597C263.264 160.561 263.203 160.496 263.172 160.417C263.141 160.337 263.141 160.249 263.174 160.17C263.197 160.099 263.247 160.039 263.313 160.005C263.347 159.99 263.384 159.984 263.421 159.985C263.458 159.987 263.494 159.997 263.527 160.014C263.951 160.209 264.372 160.407 264.789 160.614C268.267 162.333 271.518 164.478 274.468 166.998C277.316 169.427 279.998 172.203 282.002 175.381Z" fill="white"/>
<path d="M247.649 4.57255e-09H3.50717C2.57725 0.000846804 1.68566 0.37068 1.02812 1.02832C0.370578 1.68596 0.000816841 2.57766 0 3.50769V168.964C0.000815778 169.895 0.370578 170.786 1.02812 171.444C1.68566 172.102 2.57725 172.471 3.50717 172.472H247.649C248.157 172.472 248.658 172.362 249.118 172.15C249.578 171.937 249.987 171.627 250.316 171.241C250.344 171.211 250.37 171.179 250.393 171.145C250.602 170.889 250.771 170.603 250.895 170.296C251.072 169.874 251.162 169.422 251.161 168.964V3.50771C251.16 2.57703 250.789 1.68481 250.131 1.02709C249.473 0.369373 248.58 -4.74563e-05 247.649 4.57255e-09ZM250.159 168.964C250.16 169.454 250.016 169.932 249.745 170.34C249.505 170.699 249.178 170.992 248.796 171.193C248.441 171.376 248.048 171.471 247.649 171.471H3.50717C2.84284 171.47 2.20596 171.205 1.73621 170.736C1.26646 170.266 1.0022 169.629 1.00139 168.965V3.50771C1.0022 2.84331 1.26646 2.20635 1.73621 1.73654C2.20596 1.26674 2.84284 1.00244 3.50717 1.00164H247.649C248.314 1.00155 248.952 1.26542 249.423 1.7353C249.893 2.20518 250.158 2.84265 250.159 3.50771V168.964Z" fill="#3F3D56"/>
<path d="M250.658 14.0586H0.499878V15.0613H250.658V14.0586Z" fill="#3F3D56"/>
<path d="M9.02219 10.5287C10.6834 10.5287 12.0301 9.18189 12.0301 7.52047C12.0301 5.85905 10.6834 4.51221 9.02219 4.51221C7.36097 4.51221 6.01428 5.85905 6.01428 7.52047C6.01428 9.18189 7.36097 10.5287 9.02219 10.5287Z" fill="#3F3D56"/>
<path d="M17.67 10.5287C19.3313 10.5287 20.6779 9.18189 20.6779 7.52047C20.6779 5.85905 19.3313 4.51221 17.67 4.51221C16.0088 4.51221 14.6621 5.85905 14.6621 7.52047C14.6621 9.18189 16.0088 10.5287 17.67 10.5287Z" fill="#3F3D56"/>
<path d="M26.3177 10.5287C27.979 10.5287 29.3257 9.18189 29.3257 7.52047C29.3257 5.85905 27.979 4.51221 26.3177 4.51221C24.6565 4.51221 23.3098 5.85905 23.3098 7.52047C23.3098 9.18189 24.6565 10.5287 26.3177 10.5287Z" fill="#3F3D56"/>
<path d="M162.016 70.5401C160.411 70.5401 158.842 70.0641 157.508 69.1724C156.173 68.2807 155.133 67.0132 154.519 65.5304C153.905 64.0475 153.744 62.4158 154.057 60.8416C154.37 59.2674 155.143 57.8214 156.278 56.6865C157.413 55.5515 158.859 54.7786 160.433 54.4655C162.007 54.1524 163.638 54.3131 165.121 54.9273C166.604 55.5415 167.871 56.5817 168.763 57.9162C169.654 59.2508 170.13 60.8198 170.13 62.4248C170.128 64.5764 169.272 66.6391 167.751 68.1605C166.23 69.6819 164.167 70.5376 162.016 70.5401ZM162.016 55.0787C160.563 55.0787 159.143 55.5095 157.935 56.3167C156.727 57.1239 155.785 58.2712 155.229 59.6136C154.674 60.9559 154.528 62.433 154.812 63.858C155.095 65.283 155.795 66.5919 156.822 67.6193C157.849 68.6467 159.158 69.3464 160.583 69.6298C162.008 69.9133 163.484 69.7678 164.827 69.2118C166.169 68.6558 167.316 67.7142 168.123 66.5061C168.93 65.298 169.361 63.8777 169.361 62.4248C169.359 60.4772 168.584 58.6099 167.207 57.2327C165.83 55.8555 163.963 55.0809 162.016 55.0787Z" fill="#6A4796"/>
<path d="M161.25 65.3737C161.076 65.374 160.906 65.3177 160.767 65.2134L160.759 65.2069L158.942 63.8171C158.772 63.6868 158.661 63.4944 158.633 63.2821C158.605 63.0698 158.662 62.8551 158.793 62.6851C158.923 62.5152 159.115 62.404 159.328 62.3759C159.54 62.3479 159.755 62.4053 159.924 62.5356L161.101 63.438L163.882 59.8102C163.946 59.7261 164.026 59.6555 164.118 59.6024C164.21 59.5494 164.311 59.515 164.416 59.5011C164.521 59.4872 164.628 59.4942 164.73 59.5216C164.833 59.5489 164.929 59.5962 165.013 59.6607L165.013 59.6609L164.996 59.6848L165.014 59.6609C165.183 59.7913 165.294 59.9837 165.322 60.1959C165.35 60.4081 165.293 60.6227 165.163 60.7926L161.892 65.0579C161.817 65.1561 161.719 65.2357 161.608 65.2903C161.497 65.3449 161.374 65.3731 161.25 65.3727L161.25 65.3737Z" fill="#6A4796"/>
<path d="M185.233 70.5401C183.628 70.5401 182.06 70.0641 180.725 69.1724C179.391 68.2807 178.351 67.0132 177.737 65.5304C177.122 64.0475 176.962 62.4158 177.275 60.8416C177.588 59.2674 178.361 57.8214 179.496 56.6865C180.63 55.5515 182.076 54.7786 183.65 54.4655C185.224 54.1524 186.856 54.3131 188.338 54.9273C189.821 55.5415 191.088 56.5817 191.98 57.9162C192.872 59.2508 193.347 60.8198 193.347 62.4248C193.345 64.5764 192.489 66.6391 190.968 68.1605C189.447 69.6819 187.385 70.5377 185.233 70.5401ZM185.233 55.0787C183.78 55.0787 182.36 55.5095 181.152 56.3167C179.944 57.1239 179.003 58.2712 178.447 59.6136C177.891 60.9559 177.746 62.433 178.029 63.858C178.312 65.283 179.012 66.5919 180.039 67.6193C181.067 68.6467 182.375 69.3464 183.8 69.6298C185.225 69.9133 186.702 69.7678 188.044 69.2118C189.386 68.6558 190.533 67.7142 191.341 66.5061C192.148 65.298 192.578 63.8777 192.578 62.4248C192.576 60.4772 191.802 58.6099 190.425 57.2327C189.048 55.8555 187.181 55.0808 185.233 55.0787Z" fill="#E6E6E6"/>
<path d="M188.154 65.2331C188.057 65.3303 187.924 65.3849 187.787 65.3849C187.649 65.3849 187.517 65.3303 187.42 65.2331L185.472 63.2857C185.429 63.2424 185.37 63.218 185.309 63.218C185.247 63.218 185.189 63.2423 185.145 63.2857L183.198 65.233C183.101 65.3304 182.968 65.3852 182.831 65.3852C182.693 65.3852 182.561 65.3304 182.463 65.233C182.366 65.1356 182.311 65.0035 182.311 64.8657C182.311 64.7279 182.366 64.5958 182.463 64.4983L184.411 62.551C184.454 62.5076 184.478 62.4487 184.478 62.3874C184.478 62.326 184.454 62.2672 184.411 62.2237L182.463 60.2763C182.366 60.1789 182.311 60.0468 182.311 59.909C182.311 59.7713 182.366 59.6392 182.463 59.5418C182.561 59.4444 182.693 59.3896 182.831 59.3896C182.968 59.3896 183.1 59.4444 183.198 59.5418L185.145 61.4892C185.188 61.5326 185.247 61.5569 185.309 61.5569C185.37 61.5569 185.429 61.5325 185.472 61.4892L187.419 59.5418C187.517 59.4444 187.649 59.3897 187.787 59.3897C187.924 59.3897 188.057 59.4444 188.154 59.5418C188.251 59.6393 188.306 59.7714 188.306 59.9092C188.306 60.0469 188.251 60.1791 188.154 60.2765L186.207 62.2238C186.164 62.2673 186.139 62.3261 186.139 62.3875C186.139 62.4489 186.164 62.5078 186.207 62.5512L188.154 64.4985C188.251 64.596 188.306 64.7281 188.306 64.8658C188.306 65.0035 188.251 65.1356 188.154 65.2331Z" fill="#E6E6E6"/>
<path d="M162.016 96.3047C160.411 96.3047 158.842 95.8287 157.508 94.937C156.173 94.0453 155.133 92.7779 154.519 91.295C153.905 89.8122 153.744 88.1805 154.057 86.6063C154.37 85.0321 155.143 83.5861 156.278 82.4511C157.413 81.3162 158.859 80.5433 160.433 80.2302C162.007 79.917 163.638 80.0777 165.121 80.692C166.604 81.3062 167.871 82.3463 168.763 83.6809C169.654 85.0154 170.13 86.5844 170.13 88.1895C170.128 90.341 169.272 92.4037 167.751 93.9251C166.23 95.4465 164.167 96.3023 162.016 96.3047ZM162.016 80.8433C160.563 80.8433 159.143 81.2742 157.935 82.0814C156.727 82.8886 155.785 84.0359 155.229 85.3782C154.674 86.7205 154.528 88.1976 154.812 89.6226C155.095 91.0476 155.795 92.3566 156.822 93.384C157.849 94.4113 159.158 95.111 160.583 95.3945C162.008 95.6779 163.484 95.5324 164.827 94.9764C166.169 94.4204 167.316 93.4788 168.123 92.2708C168.93 91.0627 169.361 89.6424 169.361 88.1895C169.359 86.2418 168.584 84.3746 167.207 82.9974C165.83 81.6202 163.963 80.8455 162.016 80.8433Z" fill="#6A4796"/>
<path d="M161.25 91.1388C161.076 91.1391 160.906 91.0829 160.767 90.9785L160.759 90.972L158.942 89.5822C158.772 89.452 158.661 89.2595 158.633 89.0472C158.605 88.8349 158.662 88.6202 158.793 88.4503C158.923 88.2803 159.115 88.1691 159.328 88.1411C159.54 88.113 159.755 88.1705 159.924 88.3008L161.101 89.2032L163.882 85.5753C163.946 85.4912 164.026 85.4206 164.118 85.3676C164.21 85.3145 164.311 85.2801 164.416 85.2662C164.521 85.2523 164.628 85.2593 164.73 85.2867C164.833 85.3141 164.929 85.3614 165.013 85.4259L165.013 85.426L164.996 85.45L165.014 85.426C165.183 85.5564 165.294 85.7488 165.322 85.961C165.35 86.1732 165.293 86.3878 165.163 86.5578L161.892 90.823C161.817 90.9213 161.719 91.0008 161.608 91.0554C161.497 91.11 161.374 91.1382 161.25 91.1379L161.25 91.1388Z" fill="#6A4796"/>
<path d="M185.233 96.3047C183.628 96.3047 182.06 95.8287 180.725 94.937C179.391 94.0453 178.351 92.7779 177.737 91.295C177.122 89.8122 176.962 88.1805 177.275 86.6063C177.588 85.0321 178.361 83.5861 179.496 82.4511C180.63 81.3162 182.076 80.5433 183.65 80.2302C185.224 79.917 186.856 80.0777 188.338 80.692C189.821 81.3062 191.088 82.3463 191.98 83.6809C192.872 85.0154 193.347 86.5844 193.347 88.1895C193.345 90.341 192.489 92.4038 190.968 93.9251C189.447 95.4465 187.385 96.3023 185.233 96.3047ZM185.233 80.8433C183.78 80.8433 182.36 81.2742 181.152 82.0814C179.944 82.8886 179.003 84.0359 178.447 85.3782C177.891 86.7205 177.746 88.1976 178.029 89.6226C178.312 91.0476 179.012 92.3566 180.039 93.384C181.067 94.4113 182.375 95.111 183.8 95.3945C185.225 95.6779 186.702 95.5324 188.044 94.9764C189.386 94.4204 190.533 93.4788 191.341 92.2708C192.148 91.0627 192.578 89.6424 192.578 88.1895C192.576 86.2418 191.802 84.3746 190.425 82.9974C189.048 81.6202 187.181 80.8455 185.233 80.8433Z" fill="#E6E6E6"/>
<path d="M188.154 90.9972C188.056 91.0945 187.924 91.1491 187.787 91.1491C187.649 91.1491 187.517 91.0945 187.419 90.9972L185.472 89.0499C185.429 89.0065 185.37 88.9822 185.309 88.9822C185.247 88.9821 185.188 89.0065 185.145 89.0498L183.198 90.9972C183.1 91.0946 182.968 91.1493 182.831 91.1493C182.693 91.1493 182.561 91.0946 182.463 90.9972C182.366 90.8997 182.311 90.7676 182.311 90.6298C182.311 90.4921 182.366 90.3599 182.463 90.2625L184.41 88.3152C184.454 88.2717 184.478 88.2129 184.478 88.1515C184.478 88.0902 184.454 88.0313 184.41 87.9879L182.463 86.0405C182.366 85.9431 182.311 85.8109 182.311 85.6732C182.311 85.5354 182.366 85.4033 182.463 85.3059C182.561 85.2085 182.693 85.1538 182.83 85.1538C182.968 85.1538 183.1 85.2085 183.198 85.3059L185.145 87.2534C185.188 87.2967 185.247 87.321 185.309 87.321C185.37 87.321 185.429 87.2967 185.472 87.2533L187.419 85.306C187.517 85.2086 187.649 85.1538 187.787 85.1538C187.924 85.1538 188.056 85.2086 188.154 85.306C188.251 85.4034 188.306 85.5355 188.306 85.6733C188.306 85.8111 188.251 85.9432 188.154 86.0407L186.207 87.988C186.163 88.0314 186.139 88.0903 186.139 88.1517C186.139 88.213 186.163 88.2719 186.207 88.3154L188.154 90.2627C188.251 90.3602 188.306 90.4922 188.306 90.6299C188.306 90.7676 188.251 90.8997 188.154 90.9972Z" fill="#E6E6E6"/>
<path d="M162.016 122.069C160.411 122.069 158.842 121.593 157.508 120.702C156.173 119.81 155.133 118.543 154.519 117.06C153.905 115.577 153.744 113.945 154.057 112.371C154.37 110.797 155.143 109.351 156.278 108.216C157.413 107.081 158.859 106.308 160.433 105.995C162.007 105.682 163.638 105.842 165.121 106.457C166.604 107.071 167.871 108.111 168.763 109.446C169.654 110.78 170.13 112.349 170.13 113.954C170.128 116.106 169.272 118.168 167.751 119.69C166.23 121.211 164.167 122.067 162.016 122.069ZM162.016 106.608C160.563 106.608 159.143 107.039 157.935 107.846C156.727 108.653 155.785 109.801 155.229 111.143C154.674 112.485 154.528 113.962 154.812 115.387C155.095 116.812 155.795 118.121 156.822 119.149C157.849 120.176 159.158 120.876 160.583 121.159C162.008 121.443 163.484 121.297 164.827 120.741C166.169 120.185 167.316 119.243 168.123 118.035C168.93 116.827 169.361 115.407 169.361 113.954C169.359 112.006 168.584 110.139 167.207 108.762C165.83 107.385 163.963 106.61 162.016 106.608Z" fill="#E6E6E6"/>
<path d="M161.25 116.903C161.076 116.903 160.906 116.847 160.767 116.743L160.759 116.736L158.942 115.346C158.772 115.216 158.661 115.024 158.633 114.811C158.605 114.599 158.662 114.384 158.793 114.214C158.923 114.044 159.115 113.933 159.328 113.905C159.54 113.877 159.755 113.935 159.924 114.065L161.101 114.967L163.882 111.339C163.946 111.255 164.026 111.185 164.118 111.132C164.21 111.079 164.311 111.044 164.416 111.03C164.521 111.017 164.628 111.023 164.73 111.051C164.833 111.078 164.929 111.126 165.013 111.19L165.013 111.19L164.996 111.214L165.014 111.19C165.183 111.321 165.294 111.513 165.322 111.725C165.35 111.937 165.293 112.152 165.163 112.322L161.892 116.587C161.817 116.685 161.719 116.765 161.608 116.82C161.497 116.874 161.374 116.902 161.25 116.902L161.25 116.903Z" fill="#E6E6E6"/>
<path d="M185.233 122.069C183.628 122.069 182.06 121.593 180.725 120.702C179.391 119.81 178.351 118.543 177.737 117.06C177.122 115.577 176.962 113.945 177.275 112.371C177.588 110.797 178.361 109.351 179.496 108.216C180.63 107.081 182.076 106.308 183.65 105.995C185.224 105.682 186.856 105.842 188.338 106.457C189.821 107.071 191.088 108.111 191.98 109.446C192.872 110.78 193.347 112.349 193.347 113.954C193.345 116.106 192.489 118.168 190.968 119.69C189.447 121.211 187.385 122.067 185.233 122.069ZM185.233 106.608C183.78 106.608 182.36 107.039 181.152 107.846C179.944 108.653 179.003 109.801 178.447 111.143C177.891 112.485 177.746 113.962 178.029 115.387C178.312 116.812 179.012 118.121 180.039 119.149C181.067 120.176 182.375 120.876 183.8 121.159C185.225 121.443 186.702 121.297 188.044 120.741C189.386 120.185 190.533 119.243 191.341 118.035C192.148 116.827 192.578 115.407 192.578 113.954C192.576 112.006 191.802 110.139 190.425 108.762C189.048 107.385 187.181 106.61 185.233 106.608Z" fill="#E6E6E6"/>
<path d="M188.154 116.762C188.056 116.859 187.924 116.914 187.787 116.914C187.649 116.914 187.517 116.859 187.419 116.762L185.472 114.815C185.429 114.771 185.37 114.747 185.309 114.747C185.247 114.747 185.188 114.771 185.145 114.814L183.198 116.762C183.1 116.859 182.968 116.914 182.831 116.914C182.693 116.914 182.561 116.859 182.463 116.762C182.366 116.664 182.311 116.532 182.311 116.394C182.311 116.257 182.366 116.125 182.463 116.027L184.41 114.08C184.454 114.036 184.478 113.978 184.478 113.916C184.478 113.855 184.454 113.796 184.41 113.753L182.463 111.805C182.366 111.708 182.311 111.576 182.311 111.438C182.311 111.3 182.366 111.168 182.463 111.071C182.561 110.973 182.693 110.918 182.83 110.918C182.968 110.918 183.1 110.973 183.198 111.071L185.145 113.018C185.188 113.061 185.247 113.086 185.309 113.086C185.37 113.086 185.429 113.061 185.472 113.018L187.419 111.071C187.517 110.974 187.649 110.919 187.786 110.919C187.924 110.919 188.056 110.974 188.153 111.071C188.25 111.169 188.305 111.301 188.305 111.438C188.305 111.576 188.251 111.708 188.154 111.805L186.207 113.753C186.163 113.796 186.139 113.855 186.139 113.916C186.139 113.978 186.163 114.037 186.207 114.08L188.154 116.027C188.251 116.125 188.306 116.257 188.306 116.395C188.306 116.532 188.251 116.664 188.154 116.762Z" fill="#E6E6E6"/>
<path d="M296.598 202.881H143.355C143.249 202.881 143.146 202.839 143.071 202.763C142.996 202.688 142.953 202.586 142.953 202.479C142.953 202.372 142.996 202.27 143.071 202.194C143.146 202.119 143.249 202.077 143.355 202.077H296.598C296.705 202.077 296.807 202.119 296.882 202.194C296.958 202.27 297 202.372 297 202.479C297 202.586 296.958 202.688 296.882 202.763C296.807 202.839 296.705 202.881 296.598 202.881Z" fill="#3F3D56"/>
<path d="M165.172 93.0994C165.678 93.4054 166.245 93.5966 166.832 93.6598C167.42 93.7229 168.015 93.6564 168.574 93.4648C169.134 93.2733 169.644 92.9614 170.07 92.5511C170.496 92.1409 170.827 91.6422 171.039 91.0903L185.404 91.5685L181.502 85.1992L168.459 85.7216C167.508 85.4263 166.482 85.4901 165.575 85.9009C164.669 86.3116 163.944 87.0408 163.539 87.9502C163.133 88.8596 163.076 89.8861 163.377 90.8351C163.678 91.7842 164.316 92.5898 165.172 93.0994V93.0994Z" fill="#FFB8B8"/>
<path d="M246.167 124.218C246.556 123.773 246.844 123.249 247.009 122.681C247.174 122.113 247.213 121.516 247.122 120.932C247.032 120.347 246.814 119.79 246.485 119.299C246.155 118.807 245.722 118.394 245.216 118.089L248.203 104.028L241.249 106.755L239.479 119.689C239.022 120.574 238.905 121.595 239.151 122.56C239.396 123.525 239.987 124.366 240.812 124.924C241.636 125.482 242.636 125.719 243.623 125.589C244.61 125.459 245.515 124.971 246.167 124.218Z" fill="#FFB8B8"/>
<path d="M212.516 197.498L207.585 197.498L205.239 178.476L212.517 178.476L212.516 197.498Z" fill="#FFB8B8"/>
<path d="M213.773 202.279L197.874 202.278V202.077C197.874 201.264 198.034 200.459 198.345 199.708C198.656 198.957 199.112 198.275 199.686 197.7C200.261 197.126 200.943 196.67 201.694 196.359C202.445 196.048 203.25 195.888 204.062 195.888H204.063L213.774 195.888L213.773 202.279Z" fill="#2F2E41"/>
<path d="M236.649 197.498L231.718 197.498L229.372 178.476L236.649 178.476L236.649 197.498Z" fill="#FFB8B8"/>
<path d="M237.906 202.279L222.006 202.278V202.077C222.006 201.264 222.167 200.459 222.478 199.708C222.789 198.957 223.244 198.275 223.819 197.7C224.394 197.126 225.076 196.67 225.827 196.359C226.578 196.048 227.382 195.888 228.195 195.888H228.195L237.906 195.888L237.906 202.279Z" fill="#2F2E41"/>
<path d="M213.03 187.566L206.049 187.286C205.573 187.266 205.124 187.059 204.799 186.71C204.474 186.361 204.299 185.899 204.313 185.422L206.279 120.909L206.408 120.862C218.641 116.436 228.762 116.771 237.348 121.884L237.444 121.941L238.622 184.775C238.627 185.015 238.583 185.255 238.494 185.478C238.406 185.702 238.273 185.905 238.104 186.077C237.936 186.249 237.735 186.385 237.513 186.478C237.291 186.571 237.053 186.619 236.813 186.619H230.927C230.507 186.619 230.101 186.473 229.777 186.206C229.454 185.94 229.232 185.57 229.151 185.158L221.132 144.366C221.105 144.225 221.028 144.098 220.915 144.009C220.802 143.92 220.662 143.874 220.518 143.879C220.375 143.884 220.238 143.941 220.132 144.038C220.026 144.135 219.959 144.267 219.942 144.41L214.899 185.975C214.843 186.413 214.63 186.816 214.299 187.109C213.969 187.402 213.543 187.565 213.101 187.567C213.077 187.567 213.053 187.566 213.03 187.566Z" fill="#2F2E41"/>
<path d="M219.82 64.332C225.276 64.332 229.699 59.9086 229.699 54.4521C229.699 48.9956 225.276 44.5723 219.82 44.5723C214.365 44.5723 209.942 48.9956 209.942 54.4521C209.942 59.9086 214.365 64.332 219.82 64.332Z" fill="#FFB8B8"/>
<path d="M173.378 90.7648C173.268 90.4132 173.268 90.0363 173.378 89.6845L174.401 86.4047C174.513 86.0499 174.731 85.7379 175.026 85.511C175.32 85.284 175.678 85.1531 176.049 85.1358L189.01 84.5628L210.036 73.7829C210.767 73.5496 211.535 73.4626 212.299 73.5268C213.063 73.591 213.806 73.8051 214.487 74.1569C215.168 74.5088 215.773 74.9914 216.267 75.5771C216.761 76.1629 217.135 76.8404 217.367 77.5708C217.599 78.3012 217.685 79.0703 217.62 79.8339C217.555 80.5976 217.34 81.3409 216.987 82.0214C216.635 82.7019 216.151 83.3061 215.565 83.7996C214.978 84.2931 214.3 84.6661 213.57 84.8973L200.684 92.3724C196.773 94.6417 192.171 95.4132 187.735 94.5432L174.757 92.0004C174.508 91.9513 174.272 91.8503 174.064 91.704C173.856 91.5576 173.681 91.3691 173.551 91.1507C173.478 91.0293 173.42 90.8998 173.378 90.7648Z" fill="#CCCCCC"/>
<path d="M245.745 115.114C245.398 115.239 245.022 115.256 244.666 115.161L241.346 114.278C240.986 114.182 240.665 113.977 240.426 113.692C240.187 113.408 240.041 113.056 240.008 112.686L238.883 99.7597L227.218 79.2088C226.954 78.4894 226.835 77.7249 226.866 76.9592C226.898 76.1934 227.08 75.4414 227.403 74.7462C227.725 74.051 228.181 73.4261 228.745 72.9074C229.309 72.3887 229.97 71.9862 230.69 71.7231C231.41 71.46 232.174 71.3413 232.94 71.3739C233.705 71.4065 234.457 71.5897 235.152 71.9131C235.847 72.2364 236.471 72.6936 236.989 73.2584C237.507 73.8232 237.908 74.4845 238.171 75.2047L246.187 87.762C248.621 91.5729 249.587 96.1381 248.907 100.608L246.92 113.684C246.882 113.935 246.791 114.176 246.654 114.39C246.516 114.603 246.335 114.786 246.123 114.926C246.005 115.003 245.878 115.067 245.745 115.114Z" fill="#CCCCCC"/>
<path d="M209.015 71.9976C210.712 70.1366 212.805 68.6804 215.139 67.7363C217.474 66.7923 219.991 66.3846 222.504 66.5432C222.669 66.5534 222.834 66.5649 222.998 66.5777H222.998C225.38 66.7661 227.694 67.4609 229.786 68.6157C231.878 69.7705 233.699 71.3586 235.128 73.2739C236.581 75.216 237.603 77.4459 238.125 79.8145C238.646 82.1831 238.657 84.6359 238.155 87.0088C236.239 96.0773 236.724 105.489 239.561 114.312L242.211 122.542C242.296 122.806 242.32 123.086 242.279 123.36C242.239 123.634 242.137 123.895 241.98 124.123C241.823 124.352 241.615 124.541 241.374 124.676C241.132 124.812 240.862 124.89 240.586 124.904L227.037 125.633L223.57 119.643V125.819L207.103 126.705C207.07 126.707 207.038 126.707 207.005 126.707C206.755 126.707 206.508 126.656 206.279 126.555C206.051 126.455 205.845 126.308 205.675 126.125C205.506 125.941 205.377 125.724 205.295 125.488C205.213 125.252 205.182 125.001 205.202 124.752L207.063 101.67L204.729 85.9926C204.351 83.4877 204.54 80.93 205.281 78.5079C206.023 76.0858 207.299 73.861 209.015 71.9976Z" fill="#CCCCCC"/>
<path d="M226.686 63.8838C225.771 64.4101 222.156 64.7591 221.899 63.7356L221.893 63.7131C221.714 62.9633 221.863 62.1803 221.914 61.411C221.966 60.6417 221.89 59.7966 221.366 59.231C220.39 58.1766 218.652 58.7356 217.24 58.469C216.413 58.2843 215.682 57.8046 215.183 57.1195C214.684 56.4344 214.451 55.5909 214.529 54.7469C214.55 54.587 214.581 54.4269 214.616 54.267C214.705 53.8616 214.698 53.4413 214.597 53.0391C214.495 52.6368 214.302 52.2635 214.032 51.9486C213.762 51.6336 213.423 51.3855 213.041 51.2237C212.659 51.0619 212.244 50.9909 211.83 51.0162C210.403 51.0978 208.863 51.5302 207.682 50.4731C206.769 49.6556 206.546 47.5276 206.948 46.3695C207.622 44.4233 211.94 43.4044 213.826 42.8443C216.158 42.1704 218.611 42.0247 221.007 42.4178C223.402 42.8109 225.68 43.7329 227.674 45.1168C228.865 45.9564 229.978 47.0114 230.485 48.3775C230.993 49.7435 230.748 51.4669 229.603 52.3687C230.491 53.3082 231.115 54.4645 231.415 55.7216C231.715 56.9787 231.679 58.2926 231.311 59.5315C230.746 61.3535 228.047 63.1003 226.686 63.8838Z" fill="#2F2E41"/>
<path d="M90.3453 64.3905H27.0932C26.278 64.3896 25.4965 64.065 24.9204 63.4882C24.3443 62.9114 24.0208 62.1294 24.0208 61.3141C24.0208 60.4989 24.3443 59.7169 24.9204 59.1401C25.4965 58.5632 26.278 58.2387 27.0932 58.2378H90.3453C91.1605 58.2387 91.942 58.5632 92.5181 59.1401C93.0942 59.7169 93.4178 60.4989 93.4178 61.3141C93.4178 62.1294 93.0942 62.9114 92.5181 63.4882C91.942 64.065 91.1605 64.3896 90.3453 64.3905Z" fill="#6A4796"/>
<path d="M129.397 67.014H20.7996C20.6929 67.014 20.5906 66.9716 20.5151 66.8962C20.4397 66.8207 20.3973 66.7184 20.3973 66.6117C20.3973 66.505 20.4397 66.4027 20.5151 66.3273C20.5906 66.2519 20.6929 66.2095 20.7996 66.2095H129.397C129.503 66.2095 129.606 66.2519 129.681 66.3273C129.756 66.4027 129.799 66.505 129.799 66.6117C129.799 66.7184 129.756 66.8207 129.681 66.8962C129.606 66.9716 129.503 67.014 129.397 67.014Z" fill="#3F3D56"/>
<path d="M90.3453 90.1552H27.0932C26.2774 90.1552 25.495 89.8311 24.9181 89.2541C24.3413 88.6772 24.0172 87.8947 24.0172 87.0788C24.0172 86.2629 24.3413 85.4804 24.9181 84.9035C25.495 84.3266 26.2774 84.0024 27.0932 84.0024H90.3453C91.1605 84.0034 91.942 84.3279 92.5181 84.9047C93.0942 85.4816 93.4178 86.2635 93.4178 87.0788C93.4178 87.8941 93.0942 88.676 92.5181 89.2529C91.942 89.8297 91.1605 90.1542 90.3453 90.1552Z" fill="#6A4796"/>
<path d="M129.397 92.7786H20.7996C20.6929 92.7786 20.5906 92.7363 20.5151 92.6608C20.4397 92.5854 20.3973 92.4831 20.3973 92.3764C20.3973 92.2697 20.4397 92.1674 20.5151 92.0919C20.5906 92.0165 20.6929 91.9741 20.7996 91.9741H129.397C129.503 91.9741 129.606 92.0165 129.681 92.0919C129.756 92.1674 129.799 92.2697 129.799 92.3764C129.799 92.4831 129.756 92.5854 129.681 92.6608C129.606 92.7363 129.503 92.7786 129.397 92.7786Z" fill="#3F3D56"/>
<path d="M90.3453 115.92H27.0932C26.2774 115.92 25.495 115.596 24.9181 115.019C24.3413 114.442 24.0172 113.659 24.0172 112.843C24.0172 112.028 24.3413 111.245 24.9181 110.668C25.495 110.091 26.2774 109.767 27.0932 109.767H90.3453C91.1605 109.768 91.942 110.093 92.5181 110.669C93.0942 111.246 93.4178 112.028 93.4178 112.843C93.4178 113.659 93.0942 114.441 92.5181 115.018C91.942 115.594 91.1605 115.919 90.3453 115.92Z" fill="#F2F2F2"/>
<path d="M129.397 118.543H20.7996C20.6929 118.543 20.5906 118.501 20.5151 118.425C20.4397 118.35 20.3973 118.248 20.3973 118.141C20.3973 118.034 20.4397 117.932 20.5151 117.857C20.5906 117.781 20.6929 117.739 20.7996 117.739H129.397C129.503 117.739 129.606 117.781 129.681 117.857C129.756 117.932 129.799 118.034 129.799 118.141C129.799 118.248 129.756 118.35 129.681 118.425C129.606 118.501 129.503 118.543 129.397 118.543Z" fill="#3F3D56"/>
</g>
<defs>
<clipPath id="clip0">
<rect width="297" height="203" fill="white"/>
</clipPath>
</defs>
</svg>
