<svg width="71" height="71" viewBox="0 0 71 71" fill="none" xmlns="http://www.w3.org/2000/svg">
<g clip-path="url(#clip0)">
<path d="M48.9862 68.3288C67.1182 60.8772 75.7764 40.1375 68.3248 22.0055C60.8732 3.87346 40.1336 -4.78475 22.0015 2.66686C3.86951 10.1185 -4.78869 30.8581 2.66291 48.9901C10.1145 67.1222 30.8542 75.7804 48.9862 68.3288Z" fill="#314A7E"/>
<path d="M44.4956 35.5094H38.6107V56.4915H29.8903V35.5094H25.7405V28.0967H29.8903V23.3059C29.8903 19.8747 31.5217 14.5078 38.6884 14.5078L45.1494 14.5337V21.7263H40.4623C39.6919 21.7263 38.6107 22.1083 38.6107 23.7462V28.1096H45.253L44.4956 35.5094Z" fill="#F1F2F2"/>
</g>
<defs>
<clipPath id="clip0">
<rect width="71" height="71" fill="white"/>
</clipPath>
</defs>
</svg>
