<svg width="71" height="73" viewBox="0 0 71 73" fill="none" xmlns="http://www.w3.org/2000/svg">
<g clip-path="url(#clip0)">
<path d="M35.5 72.8478C55.1061 72.8478 71 56.5403 71 36.4239C71 16.3075 55.1061 0 35.5 0C15.8939 0 0 16.3075 0 36.4239C0 56.5403 15.8939 72.8478 35.5 72.8478Z" fill="#4060A5"/>
<path d="M49.8929 17.9629H21.1071C19.1194 17.9629 17.5072 19.6237 17.5072 21.6564V51.1849C17.5072 53.2243 19.1258 54.8784 21.1071 54.8784H49.8865C51.8741 54.8784 53.4863 53.2176 53.4863 51.1849V21.6631C53.4928 19.6237 51.8806 17.9629 49.8929 17.9629ZM35.5 29.0435C39.4624 29.0435 42.6932 32.3584 42.6932 36.424C42.6932 40.4895 39.4624 43.8044 35.5 43.8044C31.5376 43.8044 28.3068 40.4895 28.3068 36.424C28.3068 32.3584 31.5376 29.0435 35.5 29.0435ZM22.007 51.1915C21.4696 51.1915 21.1135 50.8195 21.1135 50.2748V34.5772H24.8947C24.7069 35.1352 24.7069 35.8792 24.7069 36.424C24.7069 42.5223 29.5628 47.5046 35.5065 47.5046C41.4436 47.5046 46.306 42.5223 46.306 36.424C46.306 35.8726 46.306 35.1352 46.1247 34.5772H49.8994V50.2681C49.8994 50.8195 49.5368 51.1849 49.0059 51.1849H22.007V51.1915ZM49.8929 26.2734C49.8929 26.8247 49.5304 27.1901 48.9994 27.1901H45.3996C44.8622 27.1901 44.5061 26.8181 44.5061 26.2734V22.5798C44.5061 22.0284 44.8687 21.6631 45.3996 21.6631H48.9994C49.5368 21.6631 49.8929 22.0351 49.8929 22.5798V26.2734Z" fill="#F1F2F2"/>
</g>
<defs>
<clipPath id="clip0">
<rect width="71" height="72.8545" fill="white"/>
</clipPath>
</defs>
</svg>
