<svg width="71" height="71" viewBox="0 0 71 71" fill="none" xmlns="http://www.w3.org/2000/svg">
<g clip-path="url(#clip0)">
<path d="M70.5366 41.1868C73.6773 21.8354 60.5358 3.60201 41.1844 0.4614C21.8329 -2.67921 3.59953 10.4623 0.458921 29.8137C-2.68169 49.1651 10.4598 67.3985 29.8112 70.5391C49.1626 73.6797 67.396 60.5383 70.5366 41.1868Z" fill="#005983"/>
<path d="M55.8962 38.3323V52.4585H47.7067V39.2775C47.7067 35.9693 46.5219 33.7099 43.5569 33.7099C41.291 33.7099 39.9509 35.2313 39.3553 36.7073C39.1416 37.2317 39.0834 37.9633 39.0834 38.7013V52.4585H30.8938C30.8938 52.4585 31.0038 30.1298 30.8938 27.8186H39.0834V31.308C39.0639 31.3339 39.0445 31.3598 39.0316 31.3922H39.0834V31.308C40.171 29.6313 42.1132 27.2359 46.4637 27.2359C51.8565 27.2424 55.8962 30.7642 55.8962 38.3323ZM22.3223 15.9453C19.519 15.9453 17.6869 17.7839 17.6869 20.1987C17.6869 22.5617 19.4672 24.4586 22.2122 24.4586H22.264C25.119 24.4586 26.8993 22.5682 26.8993 20.1987C26.8476 17.7839 25.1255 15.9453 22.3223 15.9453ZM18.1724 52.4585H26.362V27.825H18.1724V52.4585Z" fill="#F1F2F2"/>
</g>
<defs>
<clipPath id="clip0">
<rect width="71" height="71" fill="white"/>
</clipPath>
</defs>
</svg>
