<svg width="71" height="71" viewBox="0 0 71 71" fill="none" xmlns="http://www.w3.org/2000/svg">
<g clip-path="url(#clip0)">
<path d="M70.7444 39.7533C73.0913 20.2884 59.2143 2.60642 39.7494 0.259566C20.2844 -2.08728 2.60249 11.7897 0.255637 31.2546C-2.09121 50.7196 11.7857 68.4015 31.2507 70.7484C50.7156 73.0952 68.3976 59.2183 70.7444 39.7533Z" fill="#E52D27"/>
<path fill-rule="evenodd" clip-rule="evenodd" d="M56.7236 26.9925C56.7236 23.4898 53.8878 20.6475 50.3786 20.6475H20.6215C17.1188 20.6475 14.2764 23.4898 14.2764 26.9925V44.0077C14.2764 47.5104 17.1123 50.3527 20.6215 50.3527H50.3721C53.8748 50.3527 56.7172 47.5104 56.7172 44.0077V26.9925H56.7236ZM31.2592 42.6804V26.7012L43.3796 34.6908L31.2592 42.6804Z" fill="#F1F2F2"/>
</g>
<defs>
<clipPath id="clip0">
<rect width="71" height="71" fill="white"/>
</clipPath>
</defs>
</svg>
