<svg width="71" height="73" viewBox="0 0 71 73" fill="none" xmlns="http://www.w3.org/2000/svg">
<g clip-path="url(#clip0)">
<path d="M35.5 72.8479C55.1061 72.8479 71 56.5403 71 36.4239C71 16.3075 55.1061 0 35.5 0C15.8939 0 0 16.3075 0 36.4239C0 56.5403 15.8939 72.8479 35.5 72.8479Z" fill="#DC4335"/>
<path d="M27.2967 34.3248V39.3735H35.4352C35.105 41.5391 32.9749 45.7243 27.2967 45.7243C22.3955 45.7243 18.4007 41.5591 18.4007 36.424C18.4007 31.2889 22.3955 27.1237 27.2967 27.1237C30.0872 27.1237 31.9519 28.346 33.0202 29.3956L36.9179 25.5426C34.4187 23.1445 31.175 21.6963 27.3032 21.6963C19.3654 21.7029 12.9491 28.2862 12.9491 36.424C12.9491 44.5617 19.3654 51.1516 27.2967 51.1516C35.5777 51.1516 41.0746 45.1795 41.0746 36.7628C41.0746 35.7929 40.971 35.0555 40.848 34.3248H27.2967Z" fill="#F1F2F2"/>
<path d="M58.0574 34.3252H53.959V30.1201H49.8541V34.3252H45.7557V38.5302H49.8541V42.7353H53.9525V38.5302H58.0509V34.3252H58.0574Z" fill="#F1F2F2"/>
</g>
<defs>
<clipPath id="clip0">
<rect width="71" height="72.8545" fill="white"/>
</clipPath>
</defs>
</svg>
